<svg width="172" height="226" viewBox="0 0 172 226" fill="none" xmlns="http://www.w3.org/2000/svg">
<path d="M87.0831 0.31138C86.4755 0.7913 85.3882 2.51901 84.285 4.72665C82.3823 8.53401 81.6788 10.6297 80.8633 14.949C80.5755 16.4847 80.5755 23.6675 80.8633 25.1873C80.9913 25.7951 81.2151 27.0269 81.391 27.9068C81.5509 28.7867 81.8067 29.9065 81.9506 30.3864C82.0785 30.8663 82.2544 31.4742 82.3343 31.7462C82.6541 32.85 83.0059 33.8258 84.1571 36.8653C86.0278 41.7285 86.0758 41.8245 86.9871 42.2084L87.7706 42.5284V44.2241C87.7706 45.8878 87.5308 46.8637 87.131 46.8637C86.9072 46.8637 86.4115 46.0158 85.9958 44.944C84.9725 42.3044 84.5888 41.4406 83.3736 39.0729C80.3837 33.2979 75.603 26.419 72.645 23.6675C68.9515 20.2281 63.7551 16.7886 59.63 15.0449C59.1503 14.837 58.3988 14.501 57.9511 14.3091C54.6574 12.7893 50.5482 11.6215 49.4769 11.8935C48.8853 12.0374 48.9493 12.7253 49.6848 13.7971C50.836 15.5089 54.3216 19.8601 56.0964 21.8278C59.4861 25.5872 64.6345 30.6583 68.1841 33.7618C68.5198 34.0658 69.1434 34.5937 69.5431 34.9616C72.581 37.6652 77.3618 41.5365 80.0639 43.4882C81.0072 44.1601 82.1904 45.024 82.7021 45.3919C84.0292 46.3837 86.3156 48.3674 86.6194 48.8153C86.8592 49.1353 86.8912 49.8872 86.9392 55.0223C86.9871 61.1813 86.8912 62.781 86.4915 62.781C86.3636 62.781 85.9159 62.3171 85.5002 61.7572C84.301 60.1574 83.2777 59.0216 82.6061 58.5257C82.0785 58.1418 81.8866 58.0938 81.2311 58.1738C80.4956 58.2538 79.7761 58.0458 79.7761 57.7578C79.7761 57.6779 80.0159 57.4699 80.3197 57.2939C81.1352 56.814 81.4549 56.0941 81.2311 55.3103C80.7674 53.8065 78.5609 50.703 75.3951 47.1036C73.1087 44.512 72.7889 44.1921 71.0621 42.4644C67.4965 38.913 63.5792 35.9215 59.8698 33.9058C59.1663 33.5219 58.2709 33.0419 57.8712 32.818C57.4874 32.61 56.8319 32.3061 56.4322 32.1461C56.0324 31.9861 55.3129 31.6822 54.8333 31.4582C49.3011 28.9786 41.4345 27.3469 34.5752 27.2829C32.2088 27.2669 31.7771 27.2989 31.5533 27.5229C31.1216 27.9548 31.4094 28.3867 33.4719 30.4504C37.8529 34.8656 43.6569 39.0569 51.8273 43.7122C53.9858 44.944 58.175 47.3276 59.0703 47.8235C59.4221 48.0155 60.3654 48.5594 61.1489 49.0233C61.9484 49.4872 63.0996 50.1271 63.7071 50.4631C64.3307 50.783 65.434 51.3909 66.1854 51.7908C66.9369 52.1908 67.8163 52.6867 68.1361 52.8947C68.4719 53.1026 68.7757 53.2626 68.8076 53.2626C68.8396 53.2626 69.3832 53.5505 70.0068 53.9025C70.6144 54.2544 71.3979 54.6864 71.7336 54.8783C74.8835 56.67 77.1379 57.6299 78.6409 57.8378C79.0886 57.9018 79.4563 57.9978 79.4563 58.0778C79.4563 58.1418 79.7121 58.4777 80.0319 58.8137C81.311 60.1574 83.3576 63.1649 84.7966 65.8205C85.1324 66.4284 85.6441 67.3722 85.9319 67.9002C86.2676 68.5241 86.4915 69.1959 86.5554 69.8038C86.7313 71.4676 86.4595 100.951 86.2676 100.887C86.1717 100.855 85.8039 100.263 85.4682 99.5589C85.1164 98.871 84.3969 97.3993 83.8533 96.2954C83.3097 95.1916 82.0785 93.016 81.1192 91.4642L79.3764 88.6327L77.8574 88.6967C77.026 88.7287 76.3225 88.7607 76.3065 88.7767C76.2905 88.7767 76.8181 89.5926 77.4897 90.5684C78.2252 91.6722 79.5522 94.1358 80.9113 96.8873C82.1265 99.3829 83.1338 101.447 83.1338 101.479C83.1338 101.527 83.3576 102.038 83.6294 102.646C84.253 104.038 84.285 104.118 84.8926 105.654C85.1804 106.358 85.5801 107.254 85.8039 107.638C86.3955 108.645 86.4755 110.213 86.4915 120.163C86.4915 129.81 86.5075 129.698 85.4362 127.602C84.5568 125.843 83.9652 124.835 82.9739 123.251C81.9666 121.651 77.8574 115.7 77.1859 114.836L76.7542 114.292L75.3631 114.772C73.3965 115.444 73.3485 115.508 73.9561 116.164C75.0593 117.348 79.3764 123.571 81.343 126.818C82.0465 127.986 84.8926 133.585 84.8926 133.793C84.8926 133.841 85.1644 134.321 85.5002 134.881L86.0917 135.889L86.1397 140.352C86.1717 142.944 86.1237 144.879 86.0438 144.959C85.9478 145.055 85.66 145.007 85.2763 144.847C84.253 144.399 82.798 144.112 81.5828 144.096C79.9839 144.08 79.2485 144.495 76.3225 147.039C72.0374 150.766 71.6537 151.262 71.2859 153.486L71.0781 154.67L70.3106 154.766C69.8789 154.83 66.809 154.846 63.4673 154.814L57.3915 154.766L56.9598 155.214C56.5441 155.614 56.5121 155.758 56.5281 156.813C56.5281 158.189 56.8159 158.781 57.6793 159.245C58.3988 159.629 58.3189 159.309 59.4861 166.284C59.55 166.716 59.7259 167.692 59.8538 168.443C59.9817 169.195 60.2855 170.875 60.5093 172.203C60.7332 173.515 61.053 175.29 61.2289 176.122C61.3887 176.954 61.7085 178.65 61.9484 179.882C62.1882 181.113 62.54 182.985 62.7478 184.041C62.9557 185.097 63.2435 186.6 63.3874 187.4C63.5313 188.184 63.931 190.28 64.2828 192.04C64.9223 195.303 65.0502 195.975 65.4659 198.359C66.3933 203.734 66.4413 204.038 66.7451 205.957C66.889 206.837 67.0648 208.021 67.1608 208.597C67.3207 209.605 67.5125 210.644 68.0242 213.284C68.1681 213.972 68.232 214.596 68.1841 214.692C68.1201 214.772 65.5779 214.836 61.8684 214.836C58.4628 214.836 55.5368 214.884 55.4089 214.932C54.8333 215.156 54.8333 215.54 55.4089 218.291C55.7126 219.779 56.0324 221.395 56.1284 221.875C56.5441 224.242 56.672 224.642 57.0717 224.93C57.4554 225.202 58.8945 225.218 88.1543 225.25L118.837 225.298L119.189 224.882C119.525 224.482 119.653 223.954 120.484 219.395C120.612 218.691 120.836 217.587 120.98 216.931C121.443 214.82 121.523 214.836 114.584 214.836C109.835 214.836 109.02 214.804 108.94 214.596C108.86 214.404 109.34 210.82 109.612 209.557C109.66 209.333 109.771 208.789 109.835 208.357C109.915 207.909 110.091 206.901 110.235 206.117C110.379 205.317 110.555 204.31 110.635 203.878C110.795 202.918 111.163 200.87 111.514 198.998C112.106 195.815 112.586 193.095 112.729 192.12C112.809 191.544 112.921 190.984 112.953 190.856C113.001 190.728 113.113 190.2 113.193 189.656C113.273 189.112 113.449 188.024 113.593 187.24C113.737 186.44 113.913 185.401 113.993 184.921C114.073 184.441 114.248 183.385 114.392 182.601C114.536 181.801 114.712 180.793 114.792 180.361C114.968 179.306 115.368 177.162 115.671 175.482C115.815 174.73 115.991 173.755 116.071 173.323C116.343 171.723 116.711 169.723 117.366 166.284C117.718 164.348 118.086 162.3 118.15 161.725C118.31 160.557 118.597 159.645 118.789 159.645C118.869 159.645 119.141 159.469 119.397 159.245C120.084 158.669 120.548 157.581 120.548 156.541C120.548 155.774 120.484 155.63 120.084 155.278L119.621 154.894L114.184 154.766C111.194 154.702 108.508 154.606 108.205 154.542C107.757 154.446 107.581 154.27 107.005 153.23C106.366 152.078 105.822 151.486 103.935 149.887C102.161 148.383 99.9382 147.327 98.5472 147.327C97.9076 147.327 97.0442 147.663 96.4526 148.127C95.7651 148.671 94.47 148.495 92.8071 147.647L92.0077 147.247V141.408V135.569L93.3987 132.849C94.1662 131.346 95.1415 129.41 95.5732 128.514C96.3887 126.85 96.8523 125.987 98.1794 123.683C98.6111 122.931 98.9629 122.275 98.9629 122.211C98.9629 122.131 99.1708 121.859 99.4266 121.587C99.7783 121.219 100.034 121.091 100.466 121.091C100.77 121.091 102.097 120.739 103.392 120.307C108.205 118.74 108.109 118.756 111.274 118.036C114.936 117.188 121.571 117.204 125.585 118.068C129.278 118.852 131.309 119.572 134.714 121.251C139.687 123.715 143.908 126.802 148.976 131.666C150.767 133.393 151.183 133.569 151.663 132.849C151.918 132.465 151.902 132.385 151.487 131.202C150.176 127.474 146.162 121.747 141.733 117.316C132.796 108.357 122.499 105.302 112.713 108.725C111.658 109.093 108.716 110.501 107.853 111.061C107.677 111.157 107.245 111.429 106.877 111.653C104.191 113.301 100.978 116.26 99.5865 118.356C99.1068 119.06 98.6271 119.652 98.5152 119.652C98.3713 119.652 98.3233 119.812 98.3553 120.083C98.4033 120.563 98.2114 120.611 97.412 120.371C97.1401 120.291 97.0122 120.323 96.9483 120.531C96.8843 120.675 96.4686 121.171 96.0209 121.619C95.5732 122.083 94.5979 123.411 93.8624 124.579C92.3594 126.93 92.1676 127.154 91.8798 126.866C91.608 126.594 91.496 92.6161 91.7678 91.3843C91.8638 90.9203 92.1356 90.2005 92.3594 89.7845C92.5833 89.3526 93.6226 87.3529 94.6459 85.3373C95.6692 83.3056 96.6925 81.3699 96.8843 81.018C97.8117 79.4182 98.9629 77.0666 98.9629 76.7787C98.9629 76.5547 98.851 76.4587 98.5792 76.4587C98.3713 76.4587 98.1155 76.3468 98.0036 76.2188C97.7317 75.8828 97.2041 75.9788 96.9803 76.3628C96.8843 76.5387 96.3567 77.3066 95.8131 78.0745C94.374 80.1061 93.2228 81.9778 92.6153 83.3056C92.2955 83.9775 91.9917 84.4574 91.8798 84.4094C91.6239 84.3294 91.512 69.132 91.7678 68.2521C91.8638 67.9322 92.6792 66.4444 93.5746 64.9726C94.486 63.5009 95.3174 62.0931 95.4453 61.8372C95.5732 61.5812 96.0529 60.9893 96.4846 60.5414C97.1721 59.8215 97.4759 59.6455 98.6111 59.2616C100.13 58.7657 106.989 55.3902 108.636 54.3184C108.812 54.2064 109.388 53.8705 109.915 53.5825C113.113 51.8068 120.852 47.2156 122.307 46.2238C122.787 45.8878 124.769 44.592 126.704 43.3442C131.516 40.2408 134.986 37.7132 138.616 34.7377C140.422 33.2499 144.004 29.5865 144.452 28.7547C144.915 27.9228 144.883 27.7308 144.244 27.4909C143.54 27.2189 139.079 27.3149 136.457 27.6668C132.476 28.1788 131.437 28.3707 127.503 29.4105C124.753 30.1464 119.877 32.0821 116.359 33.8578C112.841 35.6335 108.972 38.4171 106.702 40.8007C103.152 44.56 97.8597 52.3347 95.5093 57.2619C94.9656 58.3817 94.518 59.0536 93.7665 59.8215C93.2228 60.3974 92.5353 61.2453 92.2475 61.7092C91.8318 62.3971 91.6879 62.5251 91.512 62.3651C91.3202 62.2051 91.2882 61.1013 91.3202 55.4222L91.3681 48.6714L91.9917 47.9035C92.3434 47.4875 93.2388 46.6717 93.9903 46.0798C97.6358 43.2323 99.4745 41.6325 103.28 37.9851C111.37 30.2264 118.086 22.6277 121.747 17.1086C123.426 14.597 124.385 12.8373 124.385 12.2774C124.385 11.7175 123.89 11.4455 123.122 11.5735C122.195 11.7175 118.917 12.8213 117.59 13.4292C113.545 15.2689 111.914 16.1967 108.956 18.3724C104.911 21.3479 101.617 24.9153 99.0748 29.0586C98.5792 29.8745 98.1634 30.5624 98.1634 30.5944C98.1634 30.6263 97.7957 31.2982 97.332 32.0821C96.5805 33.3939 94.486 37.4732 94.486 37.6492C94.486 37.6972 94.2621 38.2091 93.9903 38.817C93.1269 40.7207 92.935 41.1686 92.5513 42.0644C91.7359 43.9841 90.4887 46.3837 90.2969 46.3837C90.1849 46.3837 89.8971 46.2238 89.6573 46.0158C89.2736 45.7118 89.2096 45.5039 89.1137 44.4321C88.9698 42.8163 89.0817 42.4484 89.7692 42.1604C90.089 42.0165 90.4727 41.6645 90.7286 41.2646C91.1443 40.6087 92.2475 38.3211 92.2475 38.1291C92.2475 38.0811 92.3434 37.8092 92.4714 37.5372C93.2868 35.6975 94.8377 31.0103 95.3494 28.7867C96.4686 23.9715 96.3087 17.6845 94.9497 12.7093C94.1182 9.63783 92.0397 5.12658 90.105 2.19907C88.682 0.039425 87.9784 -0.392503 87.0831 0.31138ZM95.893 59.5495C95.941 59.7415 95.829 59.8215 95.5412 59.8215C95.0296 59.8215 94.8697 59.5655 95.2375 59.3576C95.6052 59.1496 95.829 59.2136 95.893 59.5495ZM114.776 159.389C114.968 159.597 114.888 160.285 114.168 164.476C113.721 167.148 113.241 169.899 113.113 170.603C112.969 171.307 112.506 174.011 112.058 176.602C110.907 183.401 110.523 185.625 110.235 187.16C110.091 187.912 109.915 188.872 109.835 189.32C109.66 190.248 109.292 192.28 108.94 194.119C108.812 194.823 108.636 195.751 108.556 196.199C108.476 196.631 108.3 197.607 108.157 198.359C107.853 200.038 107.453 202.182 107.277 203.238C107.197 203.67 107.021 204.677 106.877 205.477C106.51 207.509 106.334 208.533 106.142 209.637C106.062 210.165 105.886 211.092 105.758 211.716C105.247 214.148 105.055 214.516 104.191 214.516C100.21 214.58 73.5564 214.484 72.9328 214.404C72.2133 214.324 72.0534 214.244 71.9255 213.908C71.5098 212.804 70.7263 209.301 70.1187 205.717C69.6551 203.094 69.3673 201.542 68.9835 199.558C68.7757 198.502 68.4239 196.631 68.1841 195.399C67.9602 194.167 67.5925 192.184 67.3686 191C66.9689 188.936 66.6971 187.4 66.3293 185.321C66.2334 184.793 66.0575 183.849 65.9456 183.241C65.8337 182.617 65.6098 181.465 65.4819 180.681C65.2101 179.21 65.0982 178.57 64.6825 176.442C64.1548 173.707 63.7391 171.515 63.6112 170.683C63.4673 169.723 63.1475 167.868 62.7478 165.644C61.9643 161.357 61.7245 159.581 61.8844 159.389C61.9803 159.277 62.2042 159.149 62.396 159.117C62.5879 159.085 74.4038 159.085 88.65 159.117C110.795 159.165 114.584 159.197 114.776 159.389Z" fill="url(#paint0_linear_572_1544)"/>
<path d="M37.9804 47.2796C37.8365 47.4075 37.7246 47.6315 37.7246 47.7435C37.7246 48.2554 39.0517 49.0873 41.7219 50.2391C46.4066 52.2547 54.3532 56.878 58.7501 60.1574C64.2983 64.2847 69.159 68.828 73.9397 74.2991C74.5633 75.003 75.0909 75.6109 75.1389 75.6589C75.3627 75.8828 77.5692 78.7463 78.2088 79.6582C79.4399 81.4179 81.1028 84.7773 81.6464 86.569C81.8862 87.4009 82.0621 87.5129 82.3339 87.033C82.7177 86.3131 82.4299 84.8093 81.2307 81.1619C80.4632 78.8103 80.2553 78.3304 78.5605 74.939C76.0822 70.0278 73.3641 66.2844 69.0471 61.8851C66.4249 59.2136 64.5222 57.6299 61.7081 55.7422C58.4144 53.5505 55.0247 51.6788 51.4751 50.0951C50.1161 49.4872 46.4066 48.3034 44.0403 47.7275C41.1463 47.0076 38.4441 46.8156 37.9804 47.2796Z" fill="url(#paint1_linear_572_1544)"/>
<path d="M129.341 53.9985C124.144 54.3824 117.973 56.3661 113.624 59.0376C110.969 60.6854 106.892 64.0128 104.638 66.3964C101.696 69.4999 98.1462 74.1071 98.1622 74.811C98.1782 74.971 98.45 75.4029 98.7857 75.7869L99.4093 76.4587L100.656 76.2828C102.047 76.1068 107.1 74.987 110.074 74.2191C113.192 73.4032 115.43 72.8433 116.789 72.5554C117.493 72.3954 118.292 72.2034 118.548 72.1395C119.923 71.7555 127.31 70.4437 130.22 70.0758C137.591 69.116 142.484 68.764 148.975 68.668C153.404 68.604 154.923 68.636 156.778 68.86C160.711 69.3079 162.006 69.6439 168.274 71.8835C170.912 72.8273 172.159 72.6354 171.983 71.3076C171.887 70.5717 171.264 69.7559 169.745 68.4121C166.051 65.1486 160.839 61.7252 155.787 59.2456C154.619 58.6857 153.644 58.2218 153.596 58.2218C153.548 58.2218 153.052 58.0138 152.493 57.7578C148.799 56.0781 144.818 54.9743 140.053 54.3024C138.263 54.0465 131.323 53.8545 129.341 53.9985Z" fill="url(#paint2_linear_572_1544)"/>
<path d="M31.9684 61.5332C23.2384 62.1731 13.8529 66.1244 4.86706 72.9233C2.26085 74.891 0.582008 76.4107 0.214261 77.1306C-0.0575515 77.6585 -0.0735405 78.5704 0.182283 78.8263C0.645964 79.2903 2.10096 79.0503 5.66651 77.8985C11.9662 75.8508 13.725 75.5949 20.2485 75.7069C24.4536 75.7708 25.7167 75.8668 28.7706 76.2988C32.608 76.8427 38.7797 77.8185 39.9629 78.0585C40.3626 78.1384 41.338 78.3144 42.1214 78.4584C46.5344 79.2583 51.491 80.3141 54.5929 81.114C62.2356 83.0656 68.839 85.1773 72.7404 86.921C73.6677 87.3369 74.8029 87.7848 75.2666 87.9128C76.8495 88.3448 78.5444 88.1368 79.12 87.4489C79.3118 87.2089 79.2639 87.065 78.8002 86.2811C77.9848 84.9373 73.6038 79.7542 71.9089 78.1384C69.9263 76.2508 65.7532 72.6034 64.0903 71.3076C61.5641 69.3399 57.5028 66.7323 55.6321 65.8685C53.3617 64.8127 52.7061 64.5407 51.7948 64.1888C50.1159 63.5489 48.4531 63.037 46.9981 62.685C46.2466 62.509 45.3512 62.3011 44.9995 62.2051C44.2 62.0131 42.5531 61.7732 40.6824 61.5812C39.3553 61.4372 33.6153 61.4052 31.9684 61.5332Z" fill="url(#paint3_linear_572_1544)"/>
<path d="M133.578 72.7793C129.805 73.0352 125.152 73.8511 121.587 74.8909C120.611 75.1629 119.412 75.6268 117.749 76.3787C117.493 76.4907 116.95 76.7146 116.55 76.8746C116.15 77.0186 115.655 77.2745 115.431 77.4185C115.207 77.5625 114.903 77.7385 114.759 77.7864C114.599 77.8504 114.072 78.1384 113.592 78.4583C113.096 78.7623 112.681 79.0182 112.649 79.0182C112.489 79.0182 109.787 80.9539 108.476 81.9937C106.429 83.6255 102.448 87.7688 101.105 89.6565C97.9708 94.1037 95.9242 98.1191 95.0768 101.495C94.5332 103.622 94.2294 105.734 94.3893 106.15C94.4852 106.39 94.5332 106.39 94.8849 106.054C95.1088 105.846 95.2846 105.622 95.2846 105.542C95.2846 105.334 98.3385 100.791 99.6017 99.1109C101.153 97.0472 102.256 95.8474 105.821 92.296C111.881 86.265 116.39 83.1775 123.265 80.33C126.415 79.0342 130.876 77.6105 133.978 76.9386C136.041 76.4907 137.991 76.1067 139.574 75.8348C143.124 75.2109 143.459 75.0989 143.38 74.427C143.316 73.8351 142.66 73.4192 141.269 73.0992C139.83 72.7473 136.153 72.6033 133.578 72.7793Z" fill="url(#paint4_linear_572_1544)"/>
<path d="M130.109 84.6974C127.055 85.0813 124.896 85.6732 121.683 87.033C115.447 89.6725 109.067 95.0956 104.127 101.974C102.847 103.766 101.76 105.638 99.6337 109.733C99.0581 110.837 98.4345 111.989 98.2266 112.309C97.5871 113.349 96.1481 116.356 95.9402 117.108C95.8283 117.508 95.7643 118.052 95.7963 118.308C95.8283 118.692 95.9242 118.772 96.3399 118.82C96.7557 118.868 96.9315 118.756 97.3792 118.244C97.683 117.892 98.2107 117.044 98.5464 116.356C98.8822 115.652 99.4098 114.596 99.7136 113.989C101.249 110.901 103.919 108.325 109.835 104.262C113.016 102.054 117.829 99.6389 121.858 98.1991C125.648 96.8553 127.391 96.3434 129.741 95.9115C130.54 95.7675 131.532 95.5756 131.947 95.4956C132.363 95.3996 134.218 95.2556 136.057 95.1436C138.695 94.9997 140.054 94.9997 142.404 95.1436C147.425 95.4796 149.567 95.9275 156.491 98.1191C159.145 98.967 160.2 98.839 160.2 97.7192C160.2 96.2954 156.443 92.792 151.982 90.0725C150.271 89.0167 146.881 87.4329 144.691 86.649C141.429 85.4812 138.919 84.9213 135.577 84.6174C133.323 84.4254 132.315 84.4414 130.109 84.6974Z" fill="url(#paint5_linear_572_1544)"/>
<path d="M41.0835 86.9529C37.39 87.2249 33.9204 88.2647 31.4741 89.8325C30.3229 90.5523 29.5074 91.4642 29.6034 91.9281C29.7153 92.52 30.3069 92.632 33.1689 92.568C42.7303 92.3441 50.4051 94.0238 58.3516 98.0711C64.2195 101.047 71.3187 106.438 74.2446 110.101C75.204 111.317 76.0194 112.597 76.1473 113.109C76.3072 113.701 76.7389 113.844 77.1067 113.397C77.2666 113.205 77.3625 112.965 77.3145 112.869C77.2826 112.773 76.8828 111.797 76.4351 110.693C75.204 107.67 74.4845 106.342 72.7737 103.99C67.5932 96.8073 58.5275 90.3444 50.517 88.1208C47.4311 87.2569 43.5298 86.777 41.0835 86.9529Z" fill="url(#paint6_linear_572_1544)"/>
<path d="M42.441 100.951C40.938 101.111 38.5557 101.511 37.6443 101.767C33.1994 102.95 28.1149 105.83 24.4694 109.189C23.9098 109.701 23.3501 110.197 23.2382 110.261C22.8545 110.485 19.6247 114.1 18.6973 115.332C16.7147 118.02 16.251 120.211 17.738 119.892C17.9618 119.844 18.8572 119.3 19.7366 118.692C26.0683 114.292 28.6745 112.773 32.1281 111.445C37.4045 109.429 41.018 108.773 46.758 108.773C50.9791 108.773 55.504 109.333 59.0696 110.309C59.5972 110.453 60.2528 110.629 60.5086 110.693C62.9389 111.349 71.1253 114.564 71.7968 115.124C72.2125 115.476 72.5323 115.364 73.3957 114.548C74.0992 113.877 74.1792 113.733 74.0353 113.445C73.3797 112.213 63.5785 105.926 59.2295 103.942C53.7772 101.463 47.7494 100.391 42.441 100.951Z" fill="url(#paint7_linear_572_1544)"/>
<defs>
<linearGradient id="paint0_linear_572_1544" x1="33.7819" y1="34.8573" x2="169.155" y2="109.792" gradientUnits="userSpaceOnUse">
<stop stop-color="#F09F65"/>
<stop offset="0.531539" stop-color="#814F50"/>
<stop offset="1" stop-color="#20083D"/>
</linearGradient>
<linearGradient id="paint1_linear_572_1544" x1="38.617" y1="53.2609" x2="66.9056" y2="85.8065" gradientUnits="userSpaceOnUse">
<stop stop-color="#F09F65"/>
<stop offset="0.531539" stop-color="#814F50"/>
<stop offset="1" stop-color="#20083D"/>
</linearGradient>
<linearGradient id="paint2_linear_572_1544" x1="99.634" y1="57.4317" x2="108.283" y2="86.8059" gradientUnits="userSpaceOnUse">
<stop stop-color="#F09F65"/>
<stop offset="0.531539" stop-color="#814F50"/>
<stop offset="1" stop-color="#20083D"/>
</linearGradient>
<linearGradient id="paint3_linear_572_1544" x1="1.57925" y1="65.5816" x2="12.7116" y2="99.8019" gradientUnits="userSpaceOnUse">
<stop stop-color="#F09F65"/>
<stop offset="0.531539" stop-color="#814F50"/>
<stop offset="1" stop-color="#20083D"/>
</linearGradient>
<linearGradient id="paint4_linear_572_1544" x1="95.3243" y1="77.905" x2="117.266" y2="111.049" gradientUnits="userSpaceOnUse">
<stop stop-color="#F09F65"/>
<stop offset="0.531539" stop-color="#814F50"/>
<stop offset="1" stop-color="#20083D"/>
</linearGradient>
<linearGradient id="paint5_linear_572_1544" x1="97.072" y1="89.8008" x2="116.894" y2="128.294" gradientUnits="userSpaceOnUse">
<stop stop-color="#F09F65"/>
<stop offset="0.531539" stop-color="#814F50"/>
<stop offset="1" stop-color="#20083D"/>
</linearGradient>
<linearGradient id="paint6_linear_572_1544" x1="30.5472" y1="91.0543" x2="46.4204" y2="120.388" gradientUnits="userSpaceOnUse">
<stop stop-color="#F09F65"/>
<stop offset="0.531539" stop-color="#814F50"/>
<stop offset="1" stop-color="#20083D"/>
</linearGradient>
<linearGradient id="paint7_linear_572_1544" x1="18.0032" y1="103.763" x2="25.9247" y2="128.318" gradientUnits="userSpaceOnUse">
<stop stop-color="#F09F65"/>
<stop offset="0.531539" stop-color="#814F50"/>
<stop offset="1" stop-color="#20083D"/>
</linearGradient>
</defs>
</svg>
