<svg width="367" height="463" viewBox="0 0 367 463" fill="none" xmlns="http://www.w3.org/2000/svg">
<path d="M271.038 165.353C270.318 165.807 269.616 166.963 269.01 168.705C268.574 169.955 268.46 170.41 267.911 173.138C267.665 174.274 267.608 174.369 267.191 174.312C265.182 174.047 264.803 174.066 264.519 174.407C263.78 175.24 263.534 180.051 264.045 182.798C264.898 187.155 265.599 188.992 266.717 189.731C267.305 190.11 267.324 190.621 266.793 192.269C266.3 193.841 266.243 196.114 266.679 197.762C267.096 199.278 268.802 202.876 269.939 204.562C270.393 205.244 271.284 206.324 271.909 206.949C273.065 208.067 273.293 208.635 272.838 209.089C272.648 209.279 272.572 210.965 272.535 215.909C272.497 222.652 272.44 223.334 272.099 223.334C271.682 223.334 263.534 215.984 262.814 214.961C262.454 214.469 262.435 214.298 262.605 213.711C263.23 211.59 263.079 210.018 261.999 207.688C261.127 205.831 260.123 204.562 257.11 201.551C252.884 197.327 252.145 196.815 250.08 196.815C249.53 196.815 249.151 196.72 249.113 196.569C249.075 196.455 248.886 195.697 248.715 194.921C248.185 192.667 247.313 191.132 244.906 188.291C242.955 185.961 240.074 183.309 238.71 182.552C237.611 181.946 236.91 182.116 235.792 183.215L234.806 184.181L233.518 183.613C232.059 182.95 228.667 181.965 226.791 181.643C225.37 181.415 224.46 181.586 223.892 182.23C223.607 182.552 223.57 182.836 223.664 183.972C223.835 186.208 224.801 188.196 228.174 193.273C229.216 194.826 230.05 196.19 230.05 196.342C230.05 196.588 229.633 196.758 227.113 197.478C225.673 197.895 224.972 198.406 224.631 199.221C223.854 201.058 226.26 203.994 231.244 207.29C232.362 208.029 233.272 208.692 233.272 208.786C233.272 208.862 232.476 209.317 231.528 209.809C229.122 211.003 227.454 212.215 227.132 212.991C226.999 213.332 226.772 214.071 226.658 214.62C226.488 215.454 226.488 215.7 226.715 216.06C227.037 216.534 228.724 217.234 229.974 217.405C230.467 217.462 230.827 217.632 230.903 217.822C231.149 218.409 231.225 222.273 231.017 222.803C230.846 223.239 230.694 223.334 230.145 223.334C229.406 223.334 228.383 223.788 228.023 224.262C227.7 224.698 227.719 228.922 228.061 230.854C228.212 231.706 228.515 232.786 228.743 233.259C229.216 234.263 230.391 235.4 231.13 235.57C232.722 235.911 232.608 235.684 232.665 238.393C232.684 239.794 232.646 240.893 232.533 241.007C232.419 241.12 232.154 240.969 231.812 240.552C231.528 240.192 230.05 238.62 228.534 237.067C227.018 235.495 225.502 233.884 225.161 233.487C224.403 232.559 223.854 232.18 223.494 232.312C223.247 232.407 223.266 232.483 223.551 232.937C224.82 234.964 226.772 237.521 228.155 238.961C229.046 239.889 230.467 241.48 231.32 242.465C232.173 243.45 233.366 244.681 233.973 245.212C234.579 245.723 236.398 247.504 238.009 249.171C239.62 250.837 242.159 253.414 243.656 254.891C247.105 258.32 247.218 259.001 244.205 257.979C241.931 257.202 239.241 256.823 235.924 256.804C233.12 256.766 232.722 256.804 232.229 257.126C231.415 257.638 231.301 257.922 231.187 259.418L231.092 260.744L230.429 260.782C228.667 260.915 226.734 261.521 226.033 262.165C224.858 263.244 225.825 265.252 228.098 266.427C228.496 266.616 229.33 267.184 229.955 267.677C232.021 269.268 234.598 270.405 237.024 270.783C237.914 270.935 237.933 270.935 238.464 272.81C238.862 274.174 240.074 275.803 241.647 277.053C243.751 278.758 245.437 279.421 248.602 279.781C250.705 280.027 253.623 279.819 255.727 279.269C257.015 278.928 260.066 277.489 260.672 276.921C260.881 276.731 261.184 276.561 261.336 276.561C261.866 276.561 265.466 280.652 268.991 285.274L269.939 286.505L269.901 295.048C269.882 301.053 269.806 303.723 269.654 304.008C269.465 304.386 269.332 304.311 267.134 302.284C261.392 296.98 247.692 285.747 243.409 282.83C239.714 280.311 234.901 276.977 231.206 274.363C227.738 271.901 224.555 269.098 222.717 266.862C221.637 265.536 219.249 261.71 219.249 261.312C219.249 261.18 219.874 260.441 220.651 259.664C221.921 258.395 222.091 258.13 222.47 256.88C222.849 255.687 222.887 255.213 222.793 253.111C222.698 250.553 222.508 249.853 221.485 247.92C220.348 245.799 218.756 244.776 217.544 245.401C217.222 245.572 216.691 246.083 216.35 246.557C216.028 247.011 215.668 247.39 215.554 247.39C215.421 247.39 214.663 246.765 213.83 246.007C213.015 245.25 211.745 244.132 211.006 243.526C207.538 240.647 205.151 237.9 205.871 237.616C206.041 237.559 206.401 237.692 206.705 237.957C210.286 240.893 211.082 241.385 213.943 242.503C215.118 242.958 215.838 243.09 218.093 243.242C221.334 243.488 221.864 243.374 223.247 242.124C224.384 241.101 224.706 240.192 224.384 238.771C223.967 236.934 222.66 235.684 217.885 232.653C215.743 231.27 214.152 229.869 214.455 229.566C214.625 229.395 214.834 229.433 215.346 229.736C215.725 229.963 216.464 230.267 217.013 230.437C217.923 230.702 218.093 230.702 218.965 230.418C220.064 230.058 221.049 229.206 221.447 228.278C221.618 227.861 221.713 226.952 221.713 225.531C221.694 222.652 221.239 220.871 219.799 217.973C218.624 215.624 217.525 214.185 214.815 211.495C212.238 208.938 211.044 208.123 209.831 208.104C208.827 208.104 207.766 209.374 207.406 210.984C207.33 211.325 207.159 211.666 207.008 211.722C206.856 211.779 206.155 211.533 205.454 211.154C201.55 209.146 196.396 208.048 194.52 208.824C193.8 209.127 193.289 209.961 193.289 210.813C193.289 212.007 194.71 215.056 196.567 217.841C198.064 220.057 200.395 223.182 201.039 223.788C201.361 224.11 201.626 224.432 201.626 224.508C201.626 224.717 201.039 224.944 198.689 225.645C195.543 226.592 194.975 227.16 195.449 228.96C195.904 230.664 196.339 231.327 198.67 233.752C200.508 235.684 200.546 235.741 200.319 236.157C200.224 236.347 200.091 236.726 200.016 237.01C199.902 237.597 199.542 237.673 198.519 237.37C197.344 236.991 192.568 236.555 189.707 236.536C186.126 236.517 184.325 236.877 183.435 237.768C182.184 238.999 182.999 241.101 185.785 243.886C187.395 245.477 190.086 247.39 190.73 247.39C191.147 247.39 191.185 247.617 190.958 248.47C190.484 250.288 191.545 251.671 194.577 253.243C196.093 254.02 196.87 254.285 198.177 254.493C201.437 255.043 204.431 254.758 205.852 253.811C206.288 253.508 206.799 253.262 206.97 253.262C207.159 253.262 207.576 253.736 207.993 254.436C208.391 255.099 209.623 256.52 210.722 257.619C212.806 259.702 214.303 260.668 215.952 260.934C217.638 261.218 217.619 261.199 220.102 265.385C220.803 266.578 221.731 267.98 222.148 268.51C223.551 270.215 226.545 273.341 228.44 275.045C228.97 275.519 230.334 276.75 231.471 277.792C232.608 278.834 233.726 279.838 233.916 280.027C234.446 280.501 234.181 280.652 232.135 281.012C231.149 281.182 229.955 281.41 229.482 281.486C229.008 281.58 227.53 282.016 226.166 282.452C223.57 283.285 222.338 283.607 219.969 284.043C217.809 284.44 215.061 285.407 214.455 285.994C213.811 286.6 213.318 287.661 213.47 288.134C213.526 288.305 214 288.854 214.531 289.346C215.061 289.839 215.44 290.275 215.402 290.312C215.364 290.35 214.853 290.18 214.265 289.915C212.427 289.1 211.613 288.987 210.097 289.252C207.349 289.725 203.028 291.676 201.361 293.211C200.205 294.271 199.163 296.374 199.163 297.662C199.163 298.344 199.902 299.045 200.792 299.196C202.1 299.405 202.1 299.405 201.361 300.39C199.94 302.265 198.879 304.14 198.064 306.281C197.022 308.989 196.718 310.22 196.699 311.717C196.699 312.702 196.775 312.948 197.192 313.403C197.666 313.914 197.723 313.933 199.03 313.819C201.399 313.649 205.643 311.982 207.936 310.353C208.429 309.993 208.903 309.709 209.016 309.709C209.111 309.709 209.32 309.993 209.471 310.334C209.85 311.281 210.798 311.982 211.669 311.982C212.844 311.982 213.943 311.281 216.085 309.179C219.363 305.977 220.519 303.572 221.618 297.795C221.769 296.923 222.091 295.976 222.3 295.673C223.058 294.593 225.483 292.926 225.995 293.116C226.241 293.211 226.166 293.381 225.597 294.006C224.631 295.086 224.1 296.317 224.271 297.132C224.536 298.59 227.7 299.537 230.145 298.893C232.116 298.401 234.257 296.961 235.678 295.218C236.512 294.177 237.099 293.097 238.047 290.824C238.634 289.403 238.672 289.252 238.672 286.751C238.672 285.331 238.729 284.118 238.805 284.043C239.032 283.796 242.083 286.032 246.536 289.706C250.743 293.192 250.8 293.249 250.497 294.499C249.966 296.753 247.692 303.799 247.427 303.97C247.313 304.026 246.195 304.121 244.944 304.14C241.23 304.197 238.805 305.182 236.247 307.606C234.465 309.311 233.139 311.243 232.343 313.289C231.68 315.013 231.623 315.43 232.059 315.846C232.4 316.206 234.409 316.263 236.285 315.96C236.948 315.846 237.535 315.808 237.592 315.865C237.649 315.922 237.554 316.585 237.384 317.343C236.777 319.976 236.682 320.733 236.682 323.253C236.682 326.132 237.043 328.613 237.763 330.735C238.691 333.443 239.449 334.523 240.453 334.523C241.799 334.523 244.906 332.401 247.275 329.863C250.136 326.795 251.615 324.351 252.808 320.733C253.187 319.54 253.585 318.498 253.68 318.403C253.794 318.29 254.173 318.328 254.665 318.517C255.764 318.896 256.124 318.877 256.598 318.403C256.977 318.025 256.996 317.854 256.901 316.263C256.636 311.717 253.434 306.944 249.246 304.803C248.791 304.576 248.431 304.292 248.431 304.159C248.431 304.008 248.734 303.06 249.113 302.019C249.701 300.409 250.231 298.723 250.894 296.355C251.349 294.764 251.501 294.366 251.671 294.366C252.126 294.366 253.509 295.559 258.853 300.522C261.336 302.833 264.727 306.281 266.945 308.724L269.218 311.262L269.332 313.081C269.522 315.789 268.972 348.559 268.517 362.557C268.309 368.618 268.044 378.942 267.797 389.133C267.665 394.38 267.646 394.815 267.305 395.061C267.001 395.27 264.424 395.308 251.482 395.27C239.203 395.232 235.924 395.289 235.602 395.478C235.356 395.611 235.034 395.971 234.863 396.293C234.598 396.823 234.579 397.486 234.769 402.6C235.129 412.45 235.072 412.014 236.133 412.772C236.588 413.094 237.099 413.227 238.369 413.303L239.999 413.416L240.036 414.079C240.131 415.386 240.51 417.83 241.173 421.182C241.533 423.058 241.912 424.971 241.988 425.444C242.329 427.263 242.746 429.593 243.03 431.127C243.201 432.017 243.409 433.154 243.504 433.684C243.599 434.195 243.807 435.351 243.978 436.241C244.148 437.131 244.357 438.325 244.452 438.893C244.774 440.996 245.759 446.337 246.176 448.288C246.309 448.819 246.403 449.576 246.422 449.993L246.441 450.732L243.599 450.845C242.045 450.902 240.491 451.016 240.15 451.092C239.222 451.3 239.165 451.83 239.828 454.425C239.961 454.994 240.359 456.623 240.681 458.024C241.458 461.282 241.666 461.529 243.713 461.699C246.138 461.87 302.816 462.002 304.692 461.813C306.113 461.68 306.549 461.567 306.909 461.226C307.401 460.771 307.856 459.35 308.387 456.699C308.576 455.808 308.785 454.785 308.879 454.425C308.974 454.066 309.107 453.289 309.164 452.683C309.296 451.66 309.277 451.603 308.766 451.262C308.292 450.959 307.818 450.921 304.995 450.921C301.83 450.921 301.773 450.921 301.717 450.505C301.679 450.277 302.001 448.364 302.418 446.243C303.308 441.829 303.441 441.128 303.858 438.798C304.028 437.851 304.275 436.45 304.426 435.673C304.559 434.896 304.824 433.476 304.995 432.548C305.165 431.6 305.374 430.464 305.468 429.99C305.563 429.517 305.829 428.191 306.056 427.054C306.283 425.899 306.662 423.986 306.909 422.792C307.439 420.311 307.818 418.322 308.254 415.879C308.709 413.246 308.576 413.397 310.604 413.227C313.939 412.981 313.882 413.132 314.166 403.888C314.375 397.297 314.375 396.577 314.09 396.16C313.92 395.895 313.579 395.611 313.351 395.516C313.105 395.421 305.071 395.289 295.501 395.194L278.087 395.042L278.049 392.012C278.011 388.11 277.405 365.285 276.836 346.835C276.249 327.079 275.794 304.159 275.964 303.439C276.04 303.193 276.609 302.341 277.234 301.564C277.878 300.787 278.921 299.461 279.546 298.628C281.081 296.658 285.022 291.942 285.629 291.373L286.102 290.919L286.387 291.373C286.538 291.601 287.391 293.078 288.281 294.65C289.172 296.203 290.347 298.249 290.896 299.196C292.507 301.962 293.909 304.538 293.909 304.727C293.909 304.841 293.417 305.22 292.829 305.599C291.408 306.47 289.873 308.023 289.096 309.33C287.713 311.698 286.709 316.566 287.088 319.199C287.429 321.624 287.77 322.4 288.49 322.4C288.945 322.4 290.499 321.889 290.802 321.624C290.915 321.548 291.294 321.434 291.654 321.415C292.28 321.358 292.299 321.377 292.64 322.4C293.227 324.219 294.629 326.889 295.596 328.045C298.59 331.644 303.024 334.902 304.938 334.902C305.412 334.902 306.378 334.012 306.814 333.178C307.022 332.761 307.42 331.606 307.686 330.583C308.178 328.859 308.197 328.499 308.197 324.673C308.216 321.055 308.159 320.392 307.761 318.706C307.079 315.808 306.909 316.074 309.41 316.074C311.305 316.055 311.589 316.017 311.835 315.695C312.252 315.107 312.158 314.198 311.513 313.005C309.865 309.823 306.492 306.659 303.327 305.277C301.243 304.367 298.135 303.97 296.297 304.405C295.482 304.576 294.857 304.386 294.857 303.951C294.857 303.818 294.042 302.341 293.038 300.693C292.033 299.026 290.783 296.961 290.252 296.071C288.793 293.608 287.448 291.468 287.031 291.013C286.462 290.388 286.747 289.763 288.281 288.229C289.987 286.543 292.754 284.289 293.038 284.384C293.151 284.422 293.303 285.122 293.36 285.956C293.549 288.551 294.629 290.975 297.112 294.309C299.026 296.904 302.418 299.367 304.919 300.011C305.961 300.276 306.17 300.257 307.231 299.973C308.709 299.556 310.983 297.889 311.798 296.601C312.12 296.128 312.101 296.071 311.608 295.086C311.324 294.537 310.888 293.76 310.642 293.362C310.13 292.548 310.206 292.169 310.831 292.51C311.93 293.097 314.943 295.559 315.019 295.938C315.076 296.166 315.227 297.169 315.341 298.154C315.947 303.041 318.165 307.455 321.841 311.149C324.115 313.422 325.517 314.445 326.502 314.577C327.336 314.691 327.222 314.785 329.098 312.569L329.648 311.944L330.406 312.285C330.804 312.494 331.941 313.194 332.926 313.857C335.522 315.619 338.365 316.926 339.843 317.04C340.904 317.134 341.055 317.096 341.624 316.623C342.154 316.187 342.23 315.998 342.23 315.24C342.23 313.8 341.548 311.452 340.601 309.52C339.786 307.872 336.849 303.401 335.92 302.379C335.579 302 335.579 301.943 335.863 301.829C336.034 301.772 336.545 301.772 337.019 301.829C338.08 302 339.198 301.697 339.767 301.109C340.714 300.087 339.729 297.851 337.247 295.408C334.48 292.699 332.054 291.43 328.208 290.672C327.317 290.483 326.559 290.312 326.521 290.275C326.483 290.237 326.73 289.896 327.052 289.517C327.563 288.949 327.639 288.74 327.544 288.229C327.469 287.907 327.147 287.376 326.843 287.036C324.816 284.914 315.568 282.357 313.901 283.456C313.276 283.853 313.219 283.834 311.494 282.584C308.955 280.709 306.473 279.781 302.816 279.288C301.508 279.118 300.371 278.909 300.276 278.815C300.03 278.587 300.466 278.133 303.005 275.992C305.62 273.795 308.046 271.958 311.627 269.457C316.952 265.745 321.291 262.335 324.55 259.305C327.601 256.444 327.886 256.312 333.135 255.175C334.442 254.891 336.507 254.418 337.777 254.114C338.402 253.963 339.293 253.773 339.767 253.679C340.316 253.584 340.619 253.433 340.619 253.262C340.619 253.035 340.316 252.959 339.293 252.921C338.023 252.864 336.905 253.054 332.377 254.02C330.141 254.512 329.269 254.474 329.193 253.887C329.155 253.584 329.401 253.3 330.235 252.675C333.381 250.383 334.916 248.621 336.28 245.78C337.303 243.602 337.625 242.314 337.777 239.719C337.91 237.446 338.156 236.139 338.554 235.817C338.725 235.665 339.16 235.703 340.127 235.93C342.079 236.423 345.452 236.252 347.214 235.57C350.359 234.396 352.823 232.899 354.699 231.062C355.874 229.907 356.442 228.922 356.442 228.031C356.423 227.236 356.12 226.838 355.116 226.308C353.865 225.645 353.789 225.398 354.566 224.432C357.086 221.326 359.474 216.382 359.474 214.28C359.474 213.408 359 212.461 358.394 212.139C357.105 211.457 354.036 212.139 350.284 213.958C349.147 214.507 348.161 214.943 348.104 214.905C348.029 214.867 347.669 214.185 347.271 213.408C346.077 210.965 344.826 210.453 342.837 211.59C340.601 212.878 337.36 216.647 336.053 219.451C334.632 222.519 334.177 224.754 334.328 228.05C334.48 231.782 335.086 233.127 337.133 234.263C337.644 234.566 338.099 234.907 338.156 235.059C338.308 235.457 337.076 236.461 335.503 237.237C333.513 238.222 332.566 238.563 332.377 238.374C332.282 238.279 332.111 236.953 331.998 235.457C331.789 232.767 331.41 230.645 330.917 229.452C330.595 228.656 329.534 227.861 328.606 227.747C327.867 227.653 327.829 227.615 327.431 226.421C326.919 224.849 326.047 223.732 324.948 223.182L324.077 222.747L323.148 223.201C321.632 223.978 320.798 225.133 319.586 228.069C317.842 232.331 317.501 234.131 317.501 239.245C317.52 243.696 317.672 244.947 318.562 247.75C319.567 250.932 321.424 253.338 323.717 254.455C324.304 254.758 324.797 255.08 324.797 255.175C324.797 255.27 324.437 255.706 324.001 256.122C322.371 257.619 320.116 259.286 313.711 263.642C312.252 264.646 310.13 266.143 308.974 266.995C307.837 267.828 305.62 269.457 304.047 270.594C295.899 276.504 292.242 279.383 287.618 283.607C286.652 284.497 284.567 286.373 282.995 287.793C281.422 289.195 279.281 291.279 278.219 292.415C276.779 293.968 276.268 294.404 276.097 294.233C275.775 293.949 275.585 280.557 275.87 278.796C276.021 277.83 276.249 277.262 276.817 276.428C277.708 275.14 281.896 270.234 283.279 268.889C284.226 267.98 284.264 267.961 284.871 268.207C287.58 269.287 288.168 269.438 290.157 269.514C294.118 269.666 298.571 268.397 301.565 266.256C303.706 264.722 304.711 263.339 304.711 261.937C304.711 260.763 304.407 260.29 302.891 259.229C302.228 258.755 301.679 258.301 301.679 258.225C301.679 258.149 302.285 257.486 303.024 256.766C306.037 253.773 308.121 249.512 308.121 246.31C308.121 245.174 308.027 244.7 307.742 244.208C307.174 243.28 306.643 243.109 305.108 243.374C302.948 243.734 300.788 244.852 297.699 247.182C295.899 248.546 295.293 248.868 295.065 248.583C294.99 248.508 294.686 247.788 294.402 247.011C294.099 246.235 293.644 245.136 293.398 244.606C293.132 244.056 292.962 243.507 293.019 243.374C293.057 243.242 293.606 242.863 294.213 242.56C295.558 241.878 299.272 238.355 300.333 236.764C300.731 236.157 301.338 234.926 301.66 233.998C301.982 233.089 302.304 232.218 302.399 232.085C302.475 231.952 303.024 231.63 303.63 231.384C306.776 230.115 309.827 226.8 309.827 224.641C309.827 223.769 309.277 223.05 308.368 222.747C306.965 222.292 300.902 222.898 297.055 223.902C296.221 224.11 295.539 224.281 295.52 224.281C295.501 224.281 295.331 223.902 295.141 223.429C294.743 222.387 294.345 222.14 293.246 222.292C291.427 222.576 287.088 225.247 283.961 228.031C281.763 229.982 280.834 231.005 280.057 232.331C279.565 233.184 279.508 233.449 279.508 234.926C279.508 235.835 279.678 237.446 279.887 238.525C280.323 240.817 280.436 240.533 278.106 242.977C276.836 244.303 276.457 244.606 276.268 244.416C275.927 244.075 275.756 240.855 275.699 233.714L275.642 227.539L276.173 226.762C278.523 223.391 288.206 214.014 290.84 212.594C291.408 212.272 291.484 212.272 292.071 212.575C292.393 212.764 292.981 212.954 293.379 213.029C295.672 213.427 302.38 211.097 305.487 208.824C307.496 207.328 307.932 207.328 306.89 208.786C306.53 209.279 306.226 209.733 306.226 209.79C306.226 209.828 305.98 210.302 305.658 210.832C304.995 211.969 304.919 212.935 305.412 214.336C305.847 215.568 307.288 217.026 308.785 217.765C309.827 218.257 310.13 218.314 312.29 218.39C316.194 218.485 319.567 217.746 321.329 216.401C321.689 216.136 322.295 215.378 322.712 214.734C323.186 213.995 323.698 213.427 324.077 213.238C324.418 213.086 325.422 212.594 326.313 212.177C328.283 211.23 329.951 209.961 330.69 208.786C331.372 207.726 331.372 207.517 330.747 206.551C329.932 205.282 328.302 204.43 323.47 202.725C321.973 202.195 321.917 201.986 322.921 200.679C325.081 197.819 326.824 194.391 327.014 192.553C327.109 191.663 327.071 191.511 326.54 190.924C325.972 190.28 325.934 190.28 324.171 190.223C320.912 190.091 316.099 191.303 312.328 193.197C311.267 193.728 310.263 194.163 310.111 194.163C309.581 194.163 309.581 193.595 310.092 192.117C310.755 190.166 310.774 188.537 310.13 187.78C309.713 187.306 309.543 187.249 308.557 187.249C307.951 187.249 307.155 187.382 306.795 187.515C298.552 190.64 293.606 194.523 290.707 200.168C288.85 203.805 288.604 206.854 289.949 209.582C290.252 210.207 290.499 210.737 290.499 210.756C290.499 210.794 289.835 211.344 289.039 211.988C284.965 215.208 284.548 215.549 279.697 220C277.935 221.629 276.893 222.387 276.438 222.387C276.078 222.387 276.04 220.928 276.002 210.226V208.464L277.101 207.896C279.394 206.684 281.251 204.733 283.468 201.21C285.231 198.387 285.287 198.33 286.121 198.33C287.675 198.33 288.964 196.758 291.313 191.947C292.754 188.992 293.474 186.7 293.246 185.772C293.114 185.279 292.697 184.768 291.958 184.257C291.654 184.048 291.654 183.953 291.939 182.893C293.095 178.479 293.038 173.914 291.787 172.134C291.181 171.262 290.878 171.073 290.101 171.054C289.267 171.054 287.656 172.001 285.666 173.649C284.89 174.312 284.188 174.842 284.113 174.842C284.018 174.842 283.544 174.501 283.051 174.104C282.559 173.687 281.858 173.251 281.479 173.138C280.91 172.948 280.721 172.967 280.02 173.327C279.584 173.554 279.034 173.914 278.807 174.123C278.144 174.748 277.802 174.501 277.405 173.138C277.196 172.456 276.912 171.433 276.741 170.865C276.287 169.292 275.206 167.133 274.43 166.3C273.236 164.974 272.175 164.671 271.038 165.353ZM245.494 203.861C245.873 204.202 247.313 205.756 248.696 207.328C252.354 211.457 255.84 214.696 257.584 215.605C258.19 215.927 258.702 216.022 259.801 216.022L261.203 216.003L265.012 219.905C270.336 225.342 271.322 226.44 271.473 227.046C271.758 228.126 271.189 247.864 270.791 250.894C270.526 252.959 270.45 253.262 270.166 253.262C270.033 253.262 269.124 252.466 268.119 251.5C266.168 249.606 263.818 247.39 261.885 245.591C261.203 244.965 259.516 243.393 258.114 242.086C256.731 240.779 255.442 239.624 255.272 239.529C254.76 239.226 251.994 237.105 251.33 236.517C250.629 235.911 250.572 235.684 250.989 235.513C251.179 235.457 251.69 235.798 252.467 236.536C254.476 238.431 256.314 239.624 257.261 239.624C257.906 239.624 259.422 238.506 260.028 237.578C261.165 235.873 261.733 233.922 261.752 231.668C261.752 230.267 261.677 229.907 261.241 229.016C259.782 226.099 255.708 221.799 249.947 217.102C247.351 214.98 246.233 215.397 245.892 218.636C245.816 219.318 245.645 220.038 245.513 220.227C245.267 220.549 245.229 220.549 244.774 220.246C243.788 219.602 239.942 214.507 240.226 214.223C240.321 214.147 241.59 214.052 243.087 214.014C245.778 213.939 245.797 213.92 246.347 213.37C247.749 211.969 247.559 209.62 245.816 207.138C245.229 206.305 244.565 205.377 244.319 205.093C243.807 204.468 243.77 203.975 244.186 203.558C244.603 203.142 244.717 203.18 245.494 203.861ZM250.08 237.578C250.478 237.9 253.32 240.685 256.39 243.753C264.197 251.576 268.29 256.103 269.673 258.471L270.223 259.418L270.204 264.627C270.166 272.109 269.976 277.565 269.749 277.64C269.635 277.678 268.764 276.921 267.778 275.973C266.433 274.666 265.751 273.852 265.031 272.564C264.5 271.636 263.666 270.348 263.212 269.704C262.169 268.283 253.358 259.456 249.568 256.028C246.157 252.959 241.42 248.224 241.42 247.901C241.42 247.75 241.894 247.314 242.462 246.917C244.774 245.325 246.574 242.882 247.787 239.624C248.791 236.953 248.772 236.972 249.075 236.972C249.246 236.972 249.682 237.237 250.08 237.578ZM283.563 243.829C283.942 244.625 284.511 245.42 285.325 246.197C285.97 246.86 286.519 247.523 286.519 247.693C286.519 247.864 285.704 248.943 284.7 250.099C281.933 253.319 280.512 255.63 279.792 258.073C279.413 259.342 279.432 261.672 279.83 262.847C280.171 263.87 280.948 265.328 281.346 265.726C281.479 265.858 281.592 266.086 281.592 266.199C281.592 266.332 280.342 267.658 278.826 269.154C276.722 271.219 276.021 271.825 275.851 271.655C275.68 271.484 275.623 268.757 275.623 261.161V250.894L276.268 249.966C276.628 249.455 277.31 248.583 277.784 248.053C281.346 244.037 282.635 242.655 282.824 242.655C282.938 242.655 283.279 243.185 283.563 243.829ZM316.023 287.964C317.805 290.331 319.737 291.904 320.817 291.904C321.348 291.904 321.5 292.415 321.102 292.851C320.42 293.608 319.908 293.362 317.577 291.089C315.436 289.024 314.413 287.642 314.64 287.054C314.829 286.581 315.114 286.77 316.023 287.964ZM220.31 288.418C219.363 289.839 217.582 291.335 216.824 291.335C216.634 291.335 216.274 291.127 216.047 290.881L215.611 290.426H216.482C217.411 290.445 217.847 290.199 219.533 288.608C220.538 287.68 220.822 287.604 220.31 288.418ZM299.613 414.591C299.897 414.875 299.31 417.129 297.87 421.372C295.785 427.528 294.137 430.937 290.859 435.787C287.902 440.181 282.218 446.015 277.424 449.576L275.623 450.921L263.306 450.864C254.211 450.808 250.932 450.732 250.762 450.58C250.648 450.448 250.459 449.747 250.345 449.027C250.212 448.288 250.004 446.887 249.833 445.902C249.682 444.917 249.473 443.629 249.379 443.06C249.284 442.492 249.075 441.299 248.905 440.408C248.734 439.518 248.526 438.325 248.431 437.757C248.261 436.772 247.711 433.589 247.01 429.706C246.839 428.759 246.631 427.528 246.536 426.96C246.441 426.391 246.271 425.539 246.176 425.065C246.081 424.592 245.854 423.436 245.683 422.508C245.513 421.561 245.21 419.989 245.001 419.004C244.433 416.333 244.224 414.856 244.338 414.534C244.433 414.306 247.976 414.269 271.909 414.306C293.322 414.344 299.443 414.42 299.613 414.591Z" fill="url(#paint0_linear_574_1655)" fill-opacity="0.4"/>
<path d="M249.093 172.986C248.24 173.649 248.051 174.388 248.051 176.926C248.051 183.139 250.325 191.227 253.129 194.959C254.304 196.512 256.616 198.615 257.81 199.202C258.7 199.637 259.022 199.694 260.235 199.637C262.187 199.524 263.324 198.937 263.968 197.667C264.404 196.815 264.442 196.512 264.442 194.353C264.442 191.701 264.158 190.356 262.85 186.89C260.728 181.226 257.999 177.4 253.963 174.369C251.594 172.588 250.116 172.172 249.093 172.986Z" fill="url(#paint1_linear_574_1655)" fill-opacity="0.4"/>
<path d="M353.031 236.139C351.761 236.385 349.98 236.858 348.919 237.256C347.346 237.862 343.386 239.908 342.798 240.438C341.263 241.802 340.714 243.469 340.714 246.765C340.714 249.019 340.714 249.019 341.396 250.137C342.192 251.463 343.518 253.13 344.257 253.698C345.015 254.304 347.195 254.361 350.245 253.83C353.827 253.224 355.76 252.467 357.465 250.97C358.507 250.061 358.886 249.076 358.545 248.129C358.431 247.807 358.337 247.447 358.337 247.371C358.337 247.295 359.152 246.841 360.156 246.367C363.661 244.7 366.618 242.011 366.959 240.154C367.281 238.468 365.708 237.294 362.032 236.48C360.743 236.176 354.111 235.949 353.031 236.139Z" fill="url(#paint2_linear_574_1655)" fill-opacity="0.4"/>
<path d="M189.688 254.796C186.088 255.403 181.388 257.657 179.152 259.892C178.186 260.839 177.788 261.994 178.11 262.96C178.603 264.457 180.839 265.726 184.572 266.616C185.765 266.9 186.864 267.166 186.997 267.203C187.187 267.26 187.224 267.488 187.13 268.037C187.016 268.757 187.054 268.851 187.66 269.439C188.627 270.348 190.067 270.689 192.833 270.689C197.04 270.689 200.432 269.457 203.104 266.976C205.113 265.12 205.965 263.017 205.757 260.403C205.643 259.02 205.264 258.187 204.298 257.183C203.256 256.084 202.517 255.819 199.163 255.346C198.48 255.251 197.116 255.043 196.131 254.891C194.16 254.569 191.336 254.531 189.688 254.796Z" fill="url(#paint3_linear_574_1655)" fill-opacity="0.4"/>
<path d="M343.272 256.842L341.946 256.956L341.282 258.282C340.638 259.57 340.638 259.665 340.619 261.975C340.619 264.419 340.676 264.665 341.623 266.692C342.249 268.018 344.144 269.912 346.304 271.371C348.369 272.772 349.45 273.322 351.401 273.985C353.997 274.856 355.816 274.553 356.537 273.151L356.84 272.583H360.251C362.809 272.583 363.946 272.507 364.704 272.28C366.902 271.655 367.451 270.158 366.258 268.075C365.5 266.73 362.544 263.756 360.251 261.994C357.939 260.214 353.505 258.035 350.852 257.354C348.786 256.823 345.679 256.615 343.272 256.842Z" fill="url(#paint4_linear_574_1655)" fill-opacity="0.4"/>
<path d="M326.067 264.381C325.991 264.438 325.934 264.665 325.934 264.855C325.934 265.063 325.574 266.256 325.157 267.525C324.399 269.723 324.361 269.95 324.361 272.109C324.361 276.674 325.801 279.951 329.44 283.74C331.543 285.918 332.263 286.411 333.419 286.411C334.348 286.411 334.878 286.221 335.541 285.615L335.939 285.236L337.474 286.448C339.976 288.437 344.125 290.388 345.831 290.388C346.873 290.388 347.65 289.46 347.821 288.04C348.124 285.71 347.271 281.467 345.509 276.371C344.808 274.344 343.765 272.829 341.927 271.086C338.706 268.037 334.367 265.745 329.572 264.552C328.36 264.248 326.294 264.135 326.067 264.381Z" fill="url(#paint5_linear_574_1655)" fill-opacity="0.4"/>
<path d="M209.869 268.51C204.336 269.647 200.261 272.829 196.377 279.042C193.97 282.887 193.231 285.994 194.463 287.111C195.41 287.964 200.754 287.13 203.71 285.691C204.487 285.293 205.188 284.971 205.245 284.933C205.321 284.895 205.643 285.369 205.984 285.956C207.216 288.153 207.917 288.38 210.096 287.282C210.816 286.941 211.612 286.6 211.896 286.524C212.218 286.448 213.299 285.501 214.701 284.081C218.112 280.652 218.832 279.629 219.703 277.015C220.291 275.292 220.405 273.037 220.007 271.03C219.779 269.95 219.684 269.798 218.983 269.325C217.809 268.567 215.989 268.226 213.318 268.245C212.048 268.264 210.494 268.378 209.869 268.51Z" fill="url(#paint6_linear_574_1655)" fill-opacity="0.4"/>
<path d="M87.0831 236.311C86.4755 236.791 85.3882 238.519 84.285 240.727C82.3823 244.534 81.6788 246.63 80.8633 250.949C80.5755 252.485 80.5755 259.668 80.8633 261.187C80.9913 261.795 81.2151 263.027 81.391 263.907C81.5509 264.787 81.8067 265.906 81.9506 266.386C82.0785 266.866 82.2544 267.474 82.3343 267.746C82.6541 268.85 83.0059 269.826 84.1571 272.865C86.0278 277.729 86.0758 277.824 86.9871 278.208L87.7706 278.528V280.224C87.7706 281.888 87.5308 282.864 87.131 282.864C86.9072 282.864 86.4115 282.016 85.9958 280.944C84.9725 278.304 84.5888 277.441 83.3736 275.073C80.3837 269.298 75.603 262.419 72.645 259.668C68.9515 256.228 63.7551 252.789 59.63 251.045C59.1503 250.837 58.3988 250.501 57.9511 250.309C54.6574 248.789 50.5482 247.622 49.4769 247.893C48.8853 248.037 48.9493 248.725 49.6848 249.797C50.836 251.509 54.3216 255.86 56.0964 257.828C59.4861 261.587 64.6345 266.658 68.1841 269.762C68.5198 270.066 69.1434 270.594 69.5431 270.962C72.581 273.665 77.3618 277.537 80.0639 279.488C81.0072 280.16 82.1904 281.024 82.7021 281.392C84.0292 282.384 86.3156 284.367 86.6194 284.815C86.8592 285.135 86.8912 285.887 86.9392 291.022C86.9871 297.181 86.8912 298.781 86.4915 298.781C86.3636 298.781 85.9159 298.317 85.5002 297.757C84.301 296.157 83.2777 295.022 82.6061 294.526C82.0785 294.142 81.8866 294.094 81.2311 294.174C80.4956 294.254 79.7761 294.046 79.7761 293.758C79.7761 293.678 80.0159 293.47 80.3197 293.294C81.1352 292.814 81.4549 292.094 81.2311 291.31C80.7674 289.807 78.5609 286.703 75.3951 283.104C73.1087 280.512 72.7889 280.192 71.0621 278.464C67.4965 274.913 63.5792 271.921 59.8698 269.906C59.1663 269.522 58.2709 269.042 57.8712 268.818C57.4874 268.61 56.8319 268.306 56.4322 268.146C56.0324 267.986 55.3129 267.682 54.8333 267.458C49.3011 264.979 41.4345 263.347 34.5752 263.283C32.2088 263.267 31.7771 263.299 31.5533 263.523C31.1216 263.955 31.4094 264.387 33.4719 266.45C37.8529 270.866 43.6569 275.057 51.8273 279.712C53.9858 280.944 58.175 283.328 59.0703 283.823C59.4221 284.015 60.3654 284.559 61.1489 285.023C61.9484 285.487 63.0996 286.127 63.7071 286.463C64.3307 286.783 65.434 287.391 66.1854 287.791C66.9369 288.191 67.8163 288.687 68.1361 288.895C68.4719 289.103 68.7757 289.263 68.8076 289.263C68.8396 289.263 69.3832 289.551 70.0068 289.902C70.6144 290.254 71.3979 290.686 71.7336 290.878C74.8835 292.67 77.1379 293.63 78.6409 293.838C79.0886 293.902 79.4563 293.998 79.4563 294.078C79.4563 294.142 79.7121 294.478 80.0319 294.814C81.311 296.157 83.3576 299.165 84.7966 301.821C85.1324 302.428 85.6441 303.372 85.9319 303.9C86.2676 304.524 86.4915 305.196 86.5554 305.804C86.7313 307.468 86.4595 336.951 86.2676 336.887C86.1717 336.855 85.8039 336.263 85.4682 335.559C85.1164 334.871 84.3969 333.399 83.8533 332.295C83.3097 331.192 82.0785 329.016 81.1192 327.464L79.3764 324.633L77.8574 324.697C77.026 324.729 76.3225 324.761 76.3065 324.777C76.2905 324.777 76.8181 325.593 77.4897 326.568C78.2252 327.672 79.5522 330.136 80.9113 332.887C82.1265 335.383 83.1338 337.447 83.1338 337.479C83.1338 337.527 83.3576 338.038 83.6294 338.646C84.253 340.038 84.285 340.118 84.8926 341.654C85.1804 342.358 85.5801 343.254 85.8039 343.638C86.3955 344.645 86.4755 346.213 86.4915 356.163C86.4915 365.81 86.5075 365.698 85.4362 363.602C84.5568 361.843 83.9652 360.835 82.9739 359.251C81.9666 357.651 77.8574 351.7 77.1859 350.836L76.7542 350.292L75.3631 350.772C73.3965 351.444 73.3485 351.508 73.9561 352.164C75.0593 353.348 79.3764 359.571 81.343 362.818C82.0465 363.986 84.8926 369.585 84.8926 369.793C84.8926 369.841 85.1644 370.321 85.5002 370.881L86.0917 371.889L86.1397 376.352C86.1717 378.944 86.1237 380.879 86.0438 380.959C85.9478 381.055 85.66 381.007 85.2763 380.847C84.253 380.399 82.798 380.112 81.5828 380.096C79.9839 380.08 79.2485 380.495 76.3225 383.039C72.0374 386.766 71.6537 387.262 71.2859 389.486L71.0781 390.67L70.3106 390.766C69.8789 390.83 66.809 390.846 63.4673 390.814L57.3915 390.766L56.9598 391.214C56.5441 391.614 56.5121 391.758 56.5281 392.813C56.5281 394.189 56.8159 394.781 57.6793 395.245C58.3988 395.629 58.3189 395.309 59.4861 402.284C59.55 402.716 59.7259 403.692 59.8538 404.443C59.9817 405.195 60.2855 406.875 60.5093 408.203C60.7332 409.515 61.053 411.29 61.2289 412.122C61.3887 412.954 61.7085 414.65 61.9484 415.882C62.1882 417.113 62.54 418.985 62.7478 420.041C62.9557 421.097 63.2435 422.6 63.3874 423.4C63.5313 424.184 63.931 426.28 64.2828 428.04C64.9223 431.303 65.0502 431.975 65.4659 434.359C66.3933 439.734 66.4413 440.038 66.7451 441.957C66.889 442.837 67.0648 444.021 67.1608 444.597C67.3207 445.605 67.5125 446.644 68.0242 449.284C68.1681 449.972 68.232 450.596 68.1841 450.692C68.1201 450.772 65.5779 450.836 61.8684 450.836C58.4628 450.836 55.5368 450.884 55.4089 450.932C54.8333 451.156 54.8333 451.54 55.4089 454.291C55.7126 455.779 56.0324 457.395 56.1284 457.875C56.5441 460.242 56.672 460.642 57.0717 460.93C57.4554 461.202 58.8945 461.218 88.1543 461.25L118.837 461.298L119.189 460.882C119.525 460.482 119.653 459.954 120.484 455.395C120.612 454.691 120.836 453.587 120.98 452.931C121.443 450.82 121.523 450.836 114.584 450.836C109.835 450.836 109.02 450.804 108.94 450.596C108.86 450.404 109.34 446.82 109.612 445.557C109.66 445.333 109.771 444.789 109.835 444.357C109.915 443.909 110.091 442.901 110.235 442.117C110.379 441.317 110.555 440.31 110.635 439.878C110.795 438.918 111.163 436.87 111.514 434.998C112.106 431.815 112.586 429.095 112.729 428.12C112.809 427.544 112.921 426.984 112.953 426.856C113.001 426.728 113.113 426.2 113.193 425.656C113.273 425.112 113.449 424.024 113.593 423.24C113.737 422.44 113.913 421.401 113.993 420.921C114.073 420.441 114.248 419.385 114.392 418.601C114.536 417.801 114.712 416.793 114.792 416.361C114.968 415.306 115.368 413.162 115.671 411.482C115.815 410.73 115.991 409.755 116.071 409.323C116.343 407.723 116.711 405.723 117.366 402.284C117.718 400.348 118.086 398.3 118.15 397.725C118.31 396.557 118.597 395.645 118.789 395.645C118.869 395.645 119.141 395.469 119.397 395.245C120.084 394.669 120.548 393.581 120.548 392.541C120.548 391.774 120.484 391.63 120.084 391.278L119.621 390.894L114.184 390.766C111.194 390.702 108.508 390.606 108.205 390.542C107.757 390.446 107.581 390.27 107.005 389.23C106.366 388.078 105.822 387.486 103.935 385.887C102.161 384.383 99.9382 383.327 98.5472 383.327C97.9076 383.327 97.0442 383.663 96.4526 384.127C95.7651 384.671 94.47 384.495 92.8071 383.647L92.0077 383.247V377.408V371.569L93.3987 368.849C94.1662 367.346 95.1415 365.41 95.5732 364.514C96.3887 362.85 96.8523 361.987 98.1794 359.683C98.6111 358.931 98.9629 358.275 98.9629 358.211C98.9629 358.131 99.1708 357.859 99.4266 357.587C99.7783 357.219 100.034 357.091 100.466 357.091C100.77 357.091 102.097 356.739 103.392 356.307C108.205 354.74 108.109 354.756 111.274 354.036C114.936 353.188 121.571 353.204 125.585 354.068C129.278 354.852 131.309 355.572 134.714 357.251C139.687 359.715 143.908 362.802 148.976 367.666C150.767 369.393 151.183 369.569 151.663 368.849C151.918 368.465 151.902 368.385 151.487 367.202C150.176 363.474 146.162 357.747 141.733 353.316C132.796 344.357 122.499 341.302 112.713 344.725C111.658 345.093 108.716 346.501 107.853 347.061C107.677 347.157 107.245 347.429 106.877 347.653C104.191 349.301 100.978 352.26 99.5865 354.356C99.1068 355.06 98.6271 355.652 98.5152 355.652C98.3713 355.652 98.3233 355.812 98.3553 356.083C98.4033 356.563 98.2114 356.611 97.412 356.371C97.1401 356.291 97.0122 356.323 96.9483 356.531C96.8843 356.675 96.4686 357.171 96.0209 357.619C95.5732 358.083 94.5979 359.411 93.8624 360.579C92.3594 362.93 92.1676 363.154 91.8798 362.866C91.608 362.594 91.496 328.616 91.7678 327.384C91.8638 326.92 92.1356 326.2 92.3594 325.785C92.5833 325.353 93.6226 323.353 94.6459 321.337C95.6692 319.306 96.6925 317.37 96.8843 317.018C97.8117 315.418 98.9629 313.067 98.9629 312.779C98.9629 312.555 98.851 312.459 98.5792 312.459C98.3713 312.459 98.1155 312.347 98.0036 312.219C97.7317 311.883 97.2041 311.979 96.9803 312.363C96.8843 312.539 96.3567 313.307 95.8131 314.074C94.374 316.106 93.2228 317.978 92.6153 319.306C92.2955 319.977 91.9917 320.457 91.8798 320.409C91.6239 320.329 91.512 305.132 91.7678 304.252C91.8638 303.932 92.6792 302.444 93.5746 300.973C94.486 299.501 95.3174 298.093 95.4453 297.837C95.5732 297.581 96.0529 296.989 96.4846 296.541C97.1721 295.822 97.4759 295.646 98.6111 295.262C100.13 294.766 106.989 291.39 108.636 290.318C108.812 290.206 109.388 289.87 109.915 289.583C113.113 287.807 120.852 283.216 122.307 282.224C122.787 281.888 124.769 280.592 126.704 279.344C131.516 276.241 134.986 273.713 138.616 270.738C140.422 269.25 144.004 265.587 144.452 264.755C144.915 263.923 144.883 263.731 144.244 263.491C143.54 263.219 139.079 263.315 136.457 263.667C132.476 264.179 131.437 264.371 127.503 265.411C124.753 266.146 119.877 268.082 116.359 269.858C112.841 271.634 108.972 274.417 106.702 276.801C103.152 280.56 97.8597 288.335 95.5093 293.262C94.9656 294.382 94.518 295.054 93.7665 295.822C93.2228 296.397 92.5353 297.245 92.2475 297.709C91.8318 298.397 91.6879 298.525 91.512 298.365C91.3202 298.205 91.2882 297.101 91.3202 291.422L91.3681 284.671L91.9917 283.903C92.3434 283.488 93.2388 282.672 93.9903 282.08C97.6358 279.232 99.4745 277.633 103.28 273.985C111.37 266.226 118.086 258.628 121.747 253.109C123.426 250.597 124.385 248.837 124.385 248.277C124.385 247.717 123.89 247.446 123.122 247.574C122.195 247.717 118.917 248.821 117.59 249.429C113.545 251.269 111.914 252.197 108.956 254.372C104.911 257.348 101.617 260.915 99.0748 265.059C98.5792 265.874 98.1634 266.562 98.1634 266.594C98.1634 266.626 97.7957 267.298 97.332 268.082C96.5805 269.394 94.486 273.473 94.486 273.649C94.486 273.697 94.2621 274.209 93.9903 274.817C93.1269 276.721 92.935 277.169 92.5513 278.064C91.7359 279.984 90.4887 282.384 90.2969 282.384C90.1849 282.384 89.8971 282.224 89.6573 282.016C89.2736 281.712 89.2096 281.504 89.1137 280.432C88.9698 278.816 89.0817 278.448 89.7692 278.16C90.089 278.016 90.4727 277.665 90.7286 277.265C91.1443 276.609 92.2475 274.321 92.2475 274.129C92.2475 274.081 92.3434 273.809 92.4714 273.537C93.2868 271.698 94.8377 267.01 95.3494 264.787C96.4686 259.971 96.3087 253.684 94.9497 248.709C94.1182 245.638 92.0397 241.127 90.105 238.199C88.682 236.039 87.9784 235.607 87.0831 236.311ZM95.893 295.55C95.941 295.742 95.829 295.822 95.5412 295.822C95.0296 295.822 94.8697 295.566 95.2375 295.358C95.6052 295.15 95.829 295.214 95.893 295.55ZM114.776 395.389C114.968 395.597 114.888 396.285 114.168 400.476C113.721 403.148 113.241 405.899 113.113 406.603C112.969 407.307 112.506 410.011 112.058 412.602C110.907 419.401 110.523 421.625 110.235 423.16C110.091 423.912 109.915 424.872 109.835 425.32C109.66 426.248 109.292 428.28 108.94 430.119C108.812 430.823 108.636 431.751 108.556 432.199C108.476 432.631 108.3 433.607 108.157 434.359C107.853 436.038 107.453 438.182 107.277 439.238C107.197 439.67 107.021 440.677 106.877 441.477C106.51 443.509 106.334 444.533 106.142 445.637C106.062 446.165 105.886 447.092 105.758 447.716C105.247 450.148 105.055 450.516 104.191 450.516C100.21 450.58 73.5564 450.484 72.9328 450.404C72.2133 450.324 72.0534 450.244 71.9255 449.908C71.5098 448.804 70.7263 445.301 70.1187 441.717C69.6551 439.094 69.3673 437.542 68.9835 435.558C68.7757 434.502 68.4239 432.631 68.1841 431.399C67.9602 430.167 67.5925 428.184 67.3686 427C66.9689 424.936 66.6971 423.4 66.3293 421.321C66.2334 420.793 66.0575 419.849 65.9456 419.241C65.8337 418.617 65.6098 417.465 65.4819 416.681C65.2101 415.21 65.0982 414.57 64.6825 412.442C64.1548 409.707 63.7391 407.515 63.6112 406.683C63.4673 405.723 63.1475 403.868 62.7478 401.644C61.9643 397.357 61.7245 395.581 61.8844 395.389C61.9803 395.277 62.2042 395.149 62.396 395.117C62.5879 395.085 74.4038 395.085 88.65 395.117C110.795 395.165 114.584 395.197 114.776 395.389Z" fill="url(#paint7_linear_574_1655)" fill-opacity="0.4"/>
<path d="M37.9804 283.28C37.8365 283.408 37.7246 283.632 37.7246 283.743C37.7246 284.255 39.0517 285.087 41.7219 286.239C46.4066 288.255 54.3532 292.878 58.7501 296.157C64.2983 300.285 69.159 304.828 73.9397 310.299C74.5633 311.003 75.0909 311.611 75.1389 311.659C75.3627 311.883 77.5692 314.746 78.2088 315.658C79.4399 317.418 81.1028 320.777 81.6464 322.569C81.8862 323.401 82.0621 323.513 82.3339 323.033C82.7177 322.313 82.4299 320.809 81.2307 317.162C80.4632 314.81 80.2553 314.33 78.5605 310.939C76.0822 306.028 73.3641 302.284 69.0471 297.885C66.4249 295.214 64.5222 293.63 61.7081 291.742C58.4144 289.551 55.0247 287.679 51.4751 286.095C50.1161 285.487 46.4066 284.303 44.0403 283.727C41.1463 283.008 38.4441 282.816 37.9804 283.28Z" fill="url(#paint8_linear_574_1655)" fill-opacity="0.4"/>
<path d="M129.341 289.998C124.144 290.382 117.973 292.366 113.624 295.038C110.969 296.685 106.892 300.013 104.638 302.396C101.696 305.5 98.1462 310.107 98.1622 310.811C98.1782 310.971 98.45 311.403 98.7857 311.787L99.4093 312.459L100.656 312.283C102.047 312.107 107.1 310.987 110.074 310.219C113.192 309.403 115.43 308.843 116.789 308.555C117.493 308.395 118.292 308.203 118.548 308.139C119.923 307.756 127.31 306.444 130.22 306.076C137.591 305.116 142.484 304.764 148.975 304.668C153.404 304.604 154.923 304.636 156.778 304.86C160.711 305.308 162.006 305.644 168.274 307.883C170.912 308.827 172.159 308.635 171.983 307.308C171.887 306.572 171.264 305.756 169.745 304.412C166.051 301.149 160.839 297.725 155.787 295.246C154.619 294.686 153.644 294.222 153.596 294.222C153.548 294.222 153.052 294.014 152.493 293.758C148.799 292.078 144.818 290.974 140.053 290.302C138.263 290.046 131.323 289.854 129.341 289.998Z" fill="url(#paint9_linear_574_1655)" fill-opacity="0.4"/>
<path d="M31.9684 297.533C23.2384 298.173 13.8529 302.124 4.86706 308.923C2.26085 310.891 0.582008 312.411 0.214261 313.131C-0.0575515 313.659 -0.0735405 314.57 0.182283 314.826C0.645964 315.29 2.10096 315.05 5.66651 313.899C11.9662 311.851 13.725 311.595 20.2485 311.707C24.4536 311.771 25.7167 311.867 28.7706 312.299C32.608 312.843 38.7797 313.819 39.9629 314.058C40.3626 314.138 41.338 314.314 42.1214 314.458C46.5344 315.258 51.491 316.314 54.5929 317.114C62.2356 319.066 68.839 321.177 72.7404 322.921C73.6677 323.337 74.8029 323.785 75.2666 323.913C76.8495 324.345 78.5444 324.137 79.12 323.449C79.3118 323.209 79.2639 323.065 78.8002 322.281C77.9848 320.937 73.6038 315.754 71.9089 314.138C69.9263 312.251 65.7532 308.603 64.0903 307.308C61.5641 305.34 57.5028 302.732 55.6321 301.868C53.3617 300.813 52.7061 300.541 51.7948 300.189C50.1159 299.549 48.4531 299.037 46.9981 298.685C46.2466 298.509 45.3512 298.301 44.9995 298.205C44.2 298.013 42.5531 297.773 40.6824 297.581C39.3553 297.437 33.6153 297.405 31.9684 297.533Z" fill="url(#paint10_linear_574_1655)" fill-opacity="0.4"/>
<path d="M133.578 308.779C129.805 309.035 125.152 309.851 121.587 310.891C120.611 311.163 119.412 311.627 117.749 312.379C117.493 312.491 116.95 312.715 116.55 312.875C116.15 313.019 115.655 313.275 115.431 313.419C115.207 313.562 114.903 313.738 114.759 313.786C114.599 313.85 114.072 314.138 113.592 314.458C113.096 314.762 112.681 315.018 112.649 315.018C112.489 315.018 109.787 316.954 108.476 317.994C106.429 319.625 102.448 323.769 101.105 325.656C97.9708 330.104 95.9242 334.119 95.0768 337.495C94.5332 339.622 94.2294 341.734 94.3893 342.15C94.4852 342.39 94.5332 342.39 94.8849 342.054C95.1088 341.846 95.2846 341.622 95.2846 341.542C95.2846 341.334 98.3385 336.791 99.6017 335.111C101.153 333.047 102.256 331.847 105.821 328.296C111.881 322.265 116.39 319.178 123.265 316.33C126.415 315.034 130.876 313.61 133.978 312.939C136.041 312.491 137.991 312.107 139.574 311.835C143.124 311.211 143.459 311.099 143.38 310.427C143.316 309.835 142.66 309.419 141.269 309.099C139.83 308.747 136.153 308.603 133.578 308.779Z" fill="url(#paint11_linear_574_1655)" fill-opacity="0.4"/>
<path d="M130.109 320.697C127.055 321.081 124.896 321.673 121.683 323.033C115.447 325.673 109.067 331.096 104.127 337.974C102.847 339.766 101.76 341.638 99.6337 345.733C99.0581 346.837 98.4345 347.989 98.2266 348.309C97.5871 349.349 96.1481 352.356 95.9402 353.108C95.8283 353.508 95.7643 354.052 95.7963 354.308C95.8283 354.692 95.9242 354.772 96.3399 354.82C96.7557 354.868 96.9315 354.756 97.3792 354.244C97.683 353.892 98.2107 353.044 98.5464 352.356C98.8822 351.652 99.4098 350.596 99.7136 349.989C101.249 346.901 103.919 344.325 109.835 340.262C113.016 338.054 117.829 335.639 121.858 334.199C125.648 332.855 127.391 332.343 129.741 331.912C130.54 331.768 131.532 331.576 131.947 331.496C132.363 331.4 134.218 331.256 136.057 331.144C138.695 331 140.054 331 142.404 331.144C147.425 331.48 149.567 331.928 156.491 334.119C159.145 334.967 160.2 334.839 160.2 333.719C160.2 332.295 156.443 328.792 151.982 326.072C150.271 325.017 146.881 323.433 144.691 322.649C141.429 321.481 138.919 320.921 135.577 320.617C133.323 320.425 132.315 320.441 130.109 320.697Z" fill="url(#paint12_linear_574_1655)" fill-opacity="0.4"/>
<path d="M41.0835 322.953C37.39 323.225 33.9204 324.265 31.4741 325.832C30.3229 326.552 29.5074 327.464 29.6034 327.928C29.7153 328.52 30.3069 328.632 33.1689 328.568C42.7303 328.344 50.4051 330.024 58.3516 334.071C64.2195 337.047 71.3187 342.438 74.2446 346.101C75.204 347.317 76.0194 348.597 76.1473 349.109C76.3072 349.701 76.7389 349.844 77.1067 349.397C77.2666 349.205 77.3625 348.965 77.3145 348.869C77.2826 348.773 76.8828 347.797 76.4351 346.693C75.204 343.67 74.4845 342.342 72.7737 339.99C67.5932 332.807 58.5275 326.344 50.517 324.121C47.4311 323.257 43.5298 322.777 41.0835 322.953Z" fill="url(#paint13_linear_574_1655)" fill-opacity="0.4"/>
<path d="M42.441 336.951C40.938 337.111 38.5557 337.511 37.6443 337.767C33.1994 338.95 28.1149 341.83 24.4694 345.189C23.9098 345.701 23.3501 346.197 23.2382 346.261C22.8545 346.485 19.6247 350.1 18.6973 351.332C16.7147 354.02 16.251 356.211 17.738 355.892C17.9618 355.844 18.8572 355.3 19.7366 354.692C26.0683 350.292 28.6745 348.773 32.1281 347.445C37.4045 345.429 41.018 344.773 46.758 344.773C50.9791 344.773 55.504 345.333 59.0696 346.309C59.5972 346.453 60.2528 346.629 60.5086 346.693C62.9389 347.349 71.1253 350.564 71.7968 351.124C72.2125 351.476 72.5323 351.364 73.3957 350.548C74.0992 349.877 74.1792 349.733 74.0353 349.445C73.3797 348.213 63.5785 341.926 59.2295 339.942C53.7772 337.463 47.7494 336.391 42.441 336.951Z" fill="url(#paint14_linear_574_1655)" fill-opacity="0.4"/>
<path d="M67.5368 0.202609C67.142 0.40002 66.6814 0.827744 66.484 1.18966C66.0233 1.97931 66.0233 7.40811 66.4182 9.80995C66.6156 10.797 66.9775 13.0014 67.2736 14.7123C69.6425 28.564 74.6436 40.2441 81.6846 48.338C85.5341 52.7468 90.5681 56.1028 94.4176 56.8267C98.9581 57.6821 103.268 57.057 107.545 54.9513C109.289 54.0958 110.803 53.3391 110.934 53.2733C111.033 53.2075 111.461 53.8655 111.888 54.6881C112.316 55.5435 113.994 57.8795 115.606 59.8865C117.219 61.9265 119.884 65.4141 121.529 67.6843C123.174 69.9545 125.411 72.9157 126.497 74.2646C129.195 77.6206 132.255 81.8321 132.255 82.2598C132.255 82.4243 132.814 83.2139 133.505 83.9378C135.413 86.0764 135.973 86.8002 137.684 89.2679C138.539 90.5182 140.48 93.249 141.961 95.3218C145.613 100.487 147.817 104.107 147.62 104.666C147.422 105.192 143.507 105.587 140.217 105.39C138.177 105.291 138.111 105.258 136.4 103.481C132.09 99.0397 124.687 96.4076 119.851 97.5921C114.619 98.8752 109.947 103.054 105.341 110.588C102.873 114.602 102.215 116.05 102.38 116.905C102.544 117.827 110.803 119.998 116.001 120.492C119.061 120.788 124.161 120.163 127.254 119.11C133.209 117.103 135.742 114.734 137.519 109.47L138.374 107.002L143.441 106.903C146.238 106.87 148.87 106.903 149.265 107.002C150.548 107.298 154.069 112.694 158.839 121.643C160.254 124.308 161.472 126.941 164.005 132.665C170.322 146.978 175.192 161.784 177.166 172.641C177.462 174.188 177.824 176.063 177.988 176.787C178.581 179.386 178.745 182.676 178.317 183.466C177.922 184.223 177.922 184.223 177.33 183.63C177.001 183.268 176.376 182.347 175.948 181.525C173.579 177.149 172.757 175.833 170.684 172.937C165.025 165.041 155.549 156.421 147.554 151.88C140.085 147.702 135.117 145.464 129.458 143.852C128.372 143.556 126.826 143.095 126.003 142.865C122.976 142.01 115.277 140.101 109.552 138.785C107.71 138.39 103.762 137.601 101.162 137.107C94.0886 135.824 93.4306 135.725 84.7116 134.508C82.0136 134.113 78.4931 133.587 76.9467 133.323C74.7094 132.929 73.9198 132.929 73.0972 133.225C72.2089 133.587 71.9457 133.554 71.1231 132.929C70.5967 132.567 68.0632 131.415 65.4311 130.395C62.8319 129.342 60.2655 128.322 59.7062 128.059C59.1797 127.829 57.765 127.171 56.5805 126.644C55.396 126.118 53.2903 125.197 51.8755 124.604C47.7957 122.894 34.0756 115.918 33.944 115.458C33.7466 114.734 35.1285 115.03 39.7677 116.576C42.2353 117.432 46.3151 118.814 48.8486 119.669C57.2714 122.565 63.2925 124.933 69.807 128.026C71.5508 128.849 73.2617 129.54 73.6237 129.54C74.7752 129.54 75.4004 128.388 75.5649 126.019C75.8939 121.479 74.3146 116.741 70.5638 111.148C68.82 108.515 63.6544 103.416 60.9235 101.705C57.2385 99.3029 54.1787 98.2172 49.1118 97.4604C44.8674 96.8024 41.8734 96.8353 34.5363 97.625C23.5142 98.8094 16.177 100.06 6.70132 102.396C1.50283 103.712 0.12095 105.357 1.50283 108.68C2.62149 111.312 10.9128 123.42 14.4332 127.533C21.8362 136.087 31.4764 143.227 38.4845 145.3C43.1566 146.682 44.2094 146.813 49.5066 146.78C56.0541 146.747 58.3572 146.221 65.0363 143.161C66.8788 142.339 68.1291 141.384 70.7283 138.917C73.6895 136.054 74.1501 135.758 74.9397 135.956C75.4333 136.087 76.5848 136.318 77.4732 136.449C78.3944 136.614 80.2369 136.976 81.5859 137.272C82.9349 137.601 84.4155 137.897 84.8761 137.996C85.3367 138.061 86.7515 138.357 88.0018 138.588C89.2849 138.851 92.4435 139.443 95.0757 139.937C102.577 141.319 117.186 144.971 121.463 146.517C122.779 146.978 124.72 147.669 125.773 148.031C126.793 148.425 127.648 148.919 127.648 149.149C127.648 149.478 126.76 149.511 123.47 149.38C115.87 149.051 98.8265 150.893 93.1015 152.703C92.279 152.933 90.6997 153.558 89.5481 154.019C88.3966 154.512 87.2121 154.808 86.8831 154.71C86.5541 154.611 85.7973 153.854 85.2051 153.032C83.9548 151.288 81.5201 149.643 78.9867 148.787C77.6048 148.327 76.5519 148.261 74.2159 148.36C72.5708 148.458 70.8599 148.689 70.3993 148.853C69.9387 149.051 68.7542 149.478 67.7671 149.774C65.2337 150.597 60.101 153.328 57.5676 155.236C55.0999 157.046 49.8685 162.31 47.6641 165.238C43.0578 171.292 39.5374 177.346 37.1026 183.433C35.9181 186.361 35.9511 187.908 37.2013 188.862C39.4057 190.474 54.6393 190.342 63.2267 188.599C72.3076 186.789 78.2628 183.992 82.7375 179.419C87.8702 174.155 90.0088 168.232 89.252 161.422C89.0546 159.711 88.7914 158 88.6598 157.638C88.3966 156.782 88.6927 156.651 92.4435 155.993C105.407 153.657 119.818 152.538 128.438 153.163L133.735 153.558L137.026 155.17C145.481 159.382 150.778 163.165 157.622 170.009C163.577 175.964 166.966 180.669 170.881 188.599C175.455 197.778 175.093 196.133 175.29 208.57C175.389 215.973 175.323 219.362 175.093 219.362C174.896 219.362 174.205 218.276 173.547 216.96C169.862 209.754 163.479 203.207 158.247 201.299C155.089 200.147 151.897 199.654 151.502 200.279C151.009 201.101 151.93 202.023 155.187 203.964C162.623 208.373 167.526 215.808 170.914 227.752C171.243 228.838 171.671 230.384 171.934 231.206C173.579 236.833 173.514 233.542 173.612 290.627C173.711 335.176 173.678 343.698 173.283 343.994C172.954 344.29 164.038 344.389 140.513 344.455L108.171 344.553L107.381 345.475C106.624 346.363 106.591 346.56 106.624 351.397C106.624 354.161 106.756 359.326 106.887 362.88L107.085 369.394L108.006 370.283L108.894 371.204L178.745 371.368C256.689 371.566 250.471 371.73 251.985 369.263C252.708 368.111 252.741 367.848 252.774 357.056C252.84 344.784 252.939 345.277 250.504 344.718C249.78 344.52 235.205 344.389 217.569 344.389C195.953 344.389 185.852 344.29 185.72 344.06C185.589 343.862 185.424 320.041 185.325 291.154C185.128 242.031 185.161 238.346 185.687 234.99C187.596 223.08 191.643 214.196 197.894 208.011C199.539 206.366 201.645 204.589 202.599 204.062C206.415 201.825 204.343 200.674 199.835 202.516C196.775 203.766 193.946 205.74 191.675 208.241C189.636 210.445 186.872 214.196 186.872 214.69C186.872 215.085 185.589 216.236 185.391 216.006C185.227 215.841 185.786 203.733 186.082 201.595C186.28 200.048 187.398 197.449 189.175 194.356C193.781 186.394 198.19 179.978 201.678 176.162C207.764 169.548 219.543 161.718 227.933 158.691C230.105 157.934 230.829 157.835 234.843 157.835C238.824 157.835 244.384 158.395 251.82 159.48C255.604 160.04 263.599 161.455 265.014 161.816C265.737 162.014 266.889 162.31 267.58 162.474L268.83 162.804L268.567 164.843C268.172 167.969 268.271 172.279 268.764 174.122C269.784 177.774 272.68 182.446 275.509 185.078C281.07 190.211 290.611 193.797 301.864 195.014C303.937 195.245 308.312 195.376 312.063 195.311C319.269 195.179 320.486 194.883 321.144 193.139C321.835 191.297 318.216 182.742 313.708 175.602C306.141 163.659 296.632 156.092 286.63 154.052C283.636 153.426 282.024 153.426 279.392 154.052C276.825 154.677 275.016 155.763 272.844 158.131L271.133 159.974L267.58 159.02C265.639 158.493 263.5 157.967 262.875 157.835C262.25 157.704 260.309 157.276 258.598 156.914C252.05 155.532 247.016 154.775 240.666 154.216C233.889 153.591 233.658 153.492 237.146 152.143C240.304 150.926 241.719 150.498 249.221 148.491C254.321 147.142 261.855 145.497 267.317 144.51C268.962 144.214 270.87 143.852 271.594 143.688C272.318 143.523 273.371 143.326 273.897 143.227C274.456 143.128 276.266 142.766 277.911 142.404C279.589 142.042 282.024 141.648 283.34 141.549L285.742 141.352L288.144 143.655C290.874 146.287 293.737 147.833 299.429 149.741C304.167 151.288 308.674 151.814 312.491 151.255C318.94 150.334 325.915 147.34 331.706 143.062C339.898 136.943 346.676 129.145 353.487 117.925C355.658 114.306 356.448 111.904 355.757 110.819C354.967 109.568 350.591 107.956 343.978 106.541C332.857 104.107 329.337 103.547 320.618 102.725C314.597 102.133 310.418 102.363 305.976 103.449C297.948 105.423 290.381 111.674 286.597 119.505C284.195 124.407 283.833 134.475 286.071 134.475C286.301 134.475 288.637 133.455 291.236 132.205C293.836 130.955 297.126 129.474 298.574 128.882C300.021 128.289 303.147 127.039 305.483 126.085C308.806 124.736 323.381 119.669 323.941 119.669C324.007 119.669 324.072 119.801 324.072 119.965C324.072 121.018 312.425 127.105 302.357 131.284C300.811 131.909 298.244 133.06 296.599 133.817C294.987 134.574 292.618 135.528 291.368 135.989C290.118 136.416 288.604 137.074 287.979 137.436C287.288 137.831 286.268 138.094 285.314 138.094C280.807 138.094 259.684 141.549 247.905 144.214C246.654 144.51 245.009 144.872 244.285 145.004C241.686 145.563 233.724 147.669 231.618 148.36C226.058 150.136 217.668 154.15 212.14 157.638C204.507 162.442 195.295 170.766 192.301 175.537C187.661 182.907 186.74 183.565 187.497 179.024C187.727 177.609 188.023 176.195 188.188 175.8C188.418 175.175 189.076 172.904 189.833 170.009C190.359 168.002 193.781 157.111 194.604 154.874C197.598 146.55 198.947 143.161 202.204 135.791C205.856 127.533 213.818 112.99 216.845 109.042L217.964 107.561L222.077 107.726C226.519 107.923 227.012 108.121 227.012 109.766C227.012 112.924 230.335 117.004 235.04 119.669C238.922 121.841 240.765 122.367 244.944 122.565C248.793 122.696 257.808 121.907 260.309 121.216C262.382 120.623 262.316 119.867 259.947 115.26C253.959 103.547 248.365 98.8094 240.666 98.8423C236.093 98.8423 231.914 100.586 228.789 103.778L226.782 105.818L223.524 106.081C221.748 106.212 220.136 106.344 219.938 106.344C219.774 106.344 219.576 106.114 219.51 105.818C219.412 105.258 226.091 95.256 230.96 88.6428C232.671 86.3396 234.843 83.3127 235.797 81.8979C238.824 77.3574 242.575 72.0273 246.49 66.5985C248.596 63.6703 251.326 59.8207 252.544 58.044C253.728 56.3002 254.913 54.8526 255.143 54.8526C255.373 54.8526 256.295 55.2145 257.183 55.6422C263.204 58.6034 269.883 58.9324 275.246 56.4977C279.03 54.7868 283.274 51.3321 285.906 47.7787C287.518 45.6071 290.052 40.9022 291.631 37.3159C295.119 29.1233 298.409 14.811 298.508 7.30941C298.574 3.52569 298.277 2.73605 296.534 2.01221C295.185 1.41998 293.77 1.58449 289.032 2.76895C279.425 5.17079 267.448 9.28352 262.052 11.9815C255.933 15.0413 250.734 21.3914 248.201 28.8601C247.247 31.591 247.345 40.2441 248.332 43.6001C249.056 46.1336 249.912 47.7458 250.997 48.7328C252.215 49.8515 253.63 48.9631 256.788 45.1465C261.065 39.9809 269.587 30.571 277.22 22.6088C278.832 20.8979 280.741 18.8909 281.399 18.167C283.636 15.6994 282.978 17.2787 279.951 21.4901C274.983 28.4653 266.659 38.5333 261.131 44.324C259.651 45.8704 257.907 47.7129 257.282 48.4367C256.624 49.1605 255.472 50.2463 254.715 50.8714C253.037 52.1875 248.596 57.6821 241.489 67.2237C239.745 69.5597 236.488 74.1988 222.504 94.0058C216.516 102.527 216.319 102.725 215.069 101.31C214.213 100.356 211.746 99.27 209.607 98.8752C206.777 98.3488 206.58 97.2959 209.015 95.8483C210.989 94.6967 214.016 91.5052 214.97 89.5311C217.174 85.0894 216.747 78.838 213.785 73.2118C211.12 68.112 194.176 53.4378 189.8 52.4178C187.76 51.9572 187.234 53.6023 187.201 60.8407C187.201 63.8677 187.069 65.7102 186.872 65.7102C186.707 65.7102 186.543 65.6773 186.51 65.6115C186.51 65.5786 186.312 63.9993 186.049 62.091C185.161 55.05 184.634 53.0101 183.713 52.6481C182.66 52.2533 175.751 56.2344 171.243 59.8865C163.775 65.9405 160.287 70.5796 158.51 76.7981C157.227 81.2727 157.49 87.9847 159.136 93.9728L159.662 95.7824L157.194 98.0856C152.095 102.889 151.996 102.955 150.68 101.145C148.87 98.7436 144.066 91.9658 141.961 88.906C139.723 85.6158 130.577 73.3434 125.773 67.1908C119.259 58.8008 115.343 54.3919 107.052 45.9691C98.9252 37.7107 94.4176 32.9399 88.9888 26.7544C86.4883 23.8919 81.1911 16.6535 81.4214 16.4232C81.6846 16.1271 94.2531 28.4982 102.281 36.9211C110.112 45.1794 112.316 47.2851 113.007 47.2851C113.468 47.2851 114.225 46.6929 115.047 45.7059C117.581 42.7118 118.14 41.0009 118.337 35.5392C118.535 30.6368 118.074 28.0047 116.396 24.2539C115.244 21.6875 114.257 20.1411 112.053 17.509C109.816 14.8768 108.796 13.9556 106.196 12.2118C101.195 8.88869 94.286 6.28945 80.1053 2.37413C72.2418 0.202609 68.9187 -0.356722 67.5368 0.202609ZM187.694 68.9016C188.188 73.804 191.281 81.4372 195.13 87.228C197.104 90.222 201.02 94.2361 203.75 96.1115C205.33 97.1972 205.626 97.5591 205.56 98.2501C205.428 99.3358 204.441 99.7965 201.316 100.29C200 100.487 198.618 100.784 198.289 100.981C197.269 101.507 196.611 100.948 195.525 98.6778C194.406 96.3418 191.84 93.4135 190.195 92.5252C187.464 91.1433 186.148 90.8801 181.377 90.913C178.679 90.9459 176.672 90.8143 176.672 90.6498C176.672 90.4853 177.955 88.3795 179.535 86.0106C184.108 79.1341 185.819 75.2188 186.543 70.1519C186.707 68.8687 186.872 67.6514 186.872 67.4211C186.872 67.2237 187.003 67.0262 187.168 67.0262C187.332 67.0262 187.563 67.8817 187.694 68.9016ZM162.261 97.5262C163.117 98.3159 162.985 99.27 161.833 100.455L160.814 101.507L161.801 102.626C165.321 106.541 166.44 107.627 168.545 109.075C171.375 111.016 173.547 112.135 176.113 112.891C178.91 113.747 185.951 113.517 188.616 112.464C191.346 111.411 193.386 109.239 195.064 105.719C195.986 103.811 196.677 102.791 197.17 102.593C197.565 102.462 199.44 102.067 201.349 101.738C203.981 101.244 205.001 100.915 205.56 100.356C206.448 99.4675 208.324 99.3358 209.804 100.06C214.378 102.297 214.674 102.494 214.773 103.251C214.838 103.745 214.18 105.127 213.029 106.969C209.574 112.497 204.178 122.203 200.329 129.869C197.137 136.219 195.821 139.18 193.386 145.333C189.274 155.697 187.793 159.941 184.569 170.832C184.207 172.082 183.779 173.332 183.615 173.595C183.253 174.155 182.595 173.793 182.595 173.069C182.595 172.411 180.719 166.291 177.758 157.177C171.441 137.897 164.663 122.597 156.964 110.161C154.76 106.64 152.983 103.58 152.983 103.35C152.983 103.152 153.838 102.33 154.891 101.54C155.911 100.784 156.997 99.8623 157.26 99.5004C159.333 96.8682 159.662 96.5721 160.682 96.7695C161.208 96.9011 161.932 97.2301 162.261 97.5262Z" fill="url(#paint15_linear_574_1655)"/>
<path d="M149.199 13.4621C146.468 16.2916 139.921 24.4184 137.782 27.7085C132.353 35.9669 129.918 44.7517 130.873 52.4507C131.399 56.4977 131.892 58.1756 133.801 62.091C134.919 64.427 135.808 65.7102 137.321 67.2237C141.631 71.5338 144.658 71.3693 150.383 66.5656C154.167 63.407 157.49 58.406 159.234 53.2075C160.714 48.7986 161.208 45.4426 161.208 39.5532C161.208 34.4205 161.109 33.5322 160.089 28.8601C158.411 21.0953 155.648 13.1659 154.167 11.6524C153.838 11.3563 153.114 11.0931 152.555 11.0931C151.699 11.0931 151.107 11.5208 149.199 13.4621Z" fill="url(#paint16_linear_574_1655)"/>
<path d="M216.55 12.804C214.872 14.6136 211.219 25.7015 210.199 32.0186C209.541 36.1972 209.706 45.5413 210.496 49.1276C211.877 55.4776 215.398 62.0251 219.741 66.4011C222.702 69.3622 224.38 70.3164 226.617 70.3164C228.855 70.3164 230.303 69.6254 232.178 67.6842C238.692 60.9394 240.93 50.0817 237.705 40.8692C236.488 37.4145 235.863 35.9669 234.942 34.4534C234.382 33.5321 233.922 32.7096 233.922 32.6109C233.922 32.0844 227.966 23.53 224.742 19.3843C218.787 11.8169 218.063 11.2247 216.55 12.804Z" fill="url(#paint17_linear_574_1655)"/>
<path d="M74.842 59.0311C73.7563 59.0969 71.2557 59.2614 69.2487 59.4588C56.9434 60.5775 54.0481 61.2355 53.4558 63.078C52.6333 65.6773 62.4051 78.4432 71.0583 86.0435C75.7633 90.1562 82.3765 94.2361 86.3906 95.5192C89.0556 96.3418 93.9909 96.5063 96.7876 95.8153C102.249 94.4993 107.514 90.5839 110.376 85.6816C111.659 83.4771 111.725 83.4442 112.778 83.6417C114.324 83.9378 129.229 83.8391 130.578 83.543C131.203 83.4113 131.762 83.1481 131.828 82.9507C131.927 82.6875 128.669 82.5888 121.168 82.6217C109.751 82.6546 106.658 82.3585 100.67 80.7792C99.321 80.4502 97.643 80.0225 96.985 79.825C96.3269 79.6605 94.9121 79.2328 93.8593 78.838C86.7196 76.2716 87.0486 76.4033 79.7773 73.0802C75.0723 70.9086 73.7563 70.1519 74.0853 69.79C74.2169 69.6913 74.8749 69.79 75.5659 69.9874C76.2568 70.2177 77.4084 70.5796 78.1322 70.8099C78.8561 71.0403 80.6328 71.5996 82.0804 72.0602C83.5281 72.5208 87.1473 73.6395 90.1414 74.5937C96.8205 76.6994 97.0508 76.7323 103.829 78.509C105.934 79.0683 109.093 78.9696 110.08 78.3116C110.837 77.818 110.902 77.6206 110.705 76.2716C109.718 69.1978 104.256 63.407 96.0637 60.6762C91.951 59.3272 82.9359 58.6034 74.842 59.0311Z" fill="url(#paint18_linear_574_1655)"/>
<path d="M270.113 62.4857C266.165 63.5715 265.277 63.9334 263.599 65.085C260.736 66.9604 258.071 70.3822 256.854 73.6066C256.163 75.4162 255.472 80.2527 255.768 81.0095C255.933 81.503 256.262 81.5359 257.709 81.4043C260.078 81.1082 261.822 80.7463 265.672 79.7263C275.18 77.1271 282.287 75.2846 284.261 74.8897C285.084 74.6923 286.005 74.4291 286.301 74.2646C287.124 73.804 288.275 73.8698 288.144 74.3304C287.913 74.9884 279.359 78.5089 273.733 80.2527C272.548 80.6147 271.298 81.0424 270.936 81.174C269.883 81.5688 267.712 82.2597 266.659 82.523C265.112 82.9178 260.243 84.0693 258.368 84.4971C257.084 84.7932 254.255 84.7932 246.26 84.4642C238.89 84.201 235.731 84.1681 235.468 84.4313C235.238 84.6616 235.27 84.8261 235.599 84.9248C236.093 85.0893 241.127 85.3525 250.109 85.6486L255.933 85.846L257.183 88.0176C259.815 92.558 262.875 95.0586 267.613 96.572C269.949 97.3288 276.167 97.2959 278.832 96.5062C285.314 94.5979 293.309 88.9059 299.659 81.7004C306.996 73.4421 309.925 69.0332 308.872 67.7829C307.951 66.6643 305.088 65.9075 295.119 64.065C285.676 62.3212 273.437 61.5645 270.113 62.4857Z" fill="url(#paint19_linear_574_1655)"/>
<path d="M126.759 184.453C122.021 185.21 116.889 187.48 111.197 191.231C107.413 193.764 98.9572 201.825 96.4238 205.313C94.8445 207.451 93.4297 210.314 93.4297 211.301C93.4297 213.439 96.2592 215.611 101.063 217.19C106.854 219.099 110.012 219.757 117.711 220.645C120.475 220.974 122.877 221.369 123.041 221.533C123.239 221.731 123.239 223.54 123.074 226.107C122.416 235.648 124.16 244.861 127.121 247.822C128.898 249.599 132.385 248.546 140.183 244.038C143.276 242.228 145.546 240.452 148.474 237.524C151.567 234.497 152.883 232.753 154.594 229.495C157.72 223.54 157.522 218.309 154.002 213.045C151.6 209.458 149.725 207.451 148.902 207.583C148.145 207.682 146.796 209.557 142.289 216.795C140.743 219.263 139.262 221.435 138.999 221.665C138.275 222.257 138.045 221.435 138.505 219.888C139.394 216.861 140.019 215.348 142.322 210.61C143.671 207.879 144.757 205.313 144.757 204.951C144.757 203.371 140.084 203.174 134.392 204.556C128.437 205.971 124.818 206.892 124.028 207.155C120.87 208.307 120.574 207.649 123.206 205.28C125.081 203.635 127.417 202.319 129.984 201.463C134.952 199.851 135.149 199.818 142.914 199.719C147.784 199.686 150.58 199.522 150.81 199.292C151.337 198.765 151.172 194.718 150.58 193.303C149.363 190.441 144.888 186.921 140.479 185.308C138.308 184.519 137.419 184.42 133.241 184.321C130.609 184.255 127.713 184.321 126.759 184.453Z" fill="url(#paint20_linear_574_1655)"/>
<path d="M217.47 188.105C215.792 188.401 213.686 189.092 211.383 190.112C207.336 191.889 203.816 197.317 204.671 200.443C205 201.562 205.066 201.595 206.547 201.595C207.402 201.595 209.31 201.43 210.824 201.2C217.667 200.246 227.077 203.075 232.046 207.55C234.743 209.985 233.789 210.248 228.328 208.504C221.418 206.333 213.456 204.984 212.239 205.806C211.844 206.102 211.877 206.365 212.469 207.649C212.864 208.471 213.193 209.228 213.193 209.327C213.193 209.524 213.555 210.347 215.562 214.755C216.845 217.552 218.457 221.698 218.457 222.224C218.457 224.1 215.331 220.25 212.14 214.492C209.475 209.656 209.113 209.162 207.928 209.162C206.547 209.162 203.553 212.189 202.467 214.657C200.558 218.934 200.756 224.659 202.927 229.364C205.757 235.352 209.606 239.925 215.299 244.005C219.543 247.065 223.524 249.039 225.794 249.237C227.472 249.368 227.571 249.335 228.788 247.986C230.203 246.407 231.322 244.17 232.144 241.241C232.967 238.28 233.164 229.134 232.44 226.107C232.144 224.823 231.881 223.573 231.848 223.31C231.782 222.882 232.736 222.816 238.692 222.816C253.827 222.784 262.875 220.086 262.875 215.644C262.875 215.216 262.348 213.834 261.723 212.584C257.577 204.26 243.89 193.139 233.592 189.651C228.657 187.973 221.945 187.315 217.47 188.105Z" fill="url(#paint21_linear_574_1655)"/>
<path d="M117.383 377.817C116.232 378.409 116.232 379.067 117.285 382.423C117.745 383.838 118.403 386.207 118.765 387.655C119.555 391.011 121.002 397.098 121.43 399.006C121.595 399.828 122.648 404.171 123.733 408.712C124.819 413.219 126.004 418.188 126.365 419.734C126.727 421.28 127.155 423.057 127.32 423.682C127.484 424.307 127.813 425.788 128.109 426.972C128.372 428.157 129.195 431.546 129.919 434.54C131.169 439.64 132.156 443.95 133.439 449.675C134.657 455.136 135.874 459.414 136.466 460.203C137.881 462.112 135.348 462.013 179.864 462.013H220.728L221.748 461.026C222.34 460.466 222.998 459.677 223.228 459.216C223.623 458.427 224.709 454.215 225.861 449.017C226.157 447.668 226.979 444.18 227.67 441.285C229.118 435.198 230.237 430.361 231.454 424.998C231.915 422.925 232.441 420.622 232.606 419.898C232.77 419.175 233.165 417.53 233.428 416.279C234.744 410.423 238.824 393.347 239.976 388.971C242.608 379.067 242.641 378.343 240.831 377.718C239.943 377.422 225.137 377.323 178.976 377.323C125.773 377.323 118.173 377.389 117.383 377.817Z" fill="url(#paint22_linear_574_1655)"/>
<defs>
<linearGradient id="paint0_linear_574_1655" x1="267.899" y1="261.848" x2="352.802" y2="307.924" gradientUnits="userSpaceOnUse">
<stop/>
<stop offset="1" stop-color="#1F4B06"/>
</linearGradient>
<linearGradient id="paint1_linear_574_1655" x1="255.943" y1="181.416" x2="263.758" y2="185.734" gradientUnits="userSpaceOnUse">
<stop/>
<stop offset="1" stop-color="#1F4B06"/>
</linearGradient>
<linearGradient id="paint2_linear_574_1655" x1="353.37" y1="241.981" x2="359.317" y2="249.85" gradientUnits="userSpaceOnUse">
<stop/>
<stop offset="1" stop-color="#1F4B06"/>
</linearGradient>
<linearGradient id="paint3_linear_574_1655" x1="191.379" y1="259.862" x2="196.335" y2="267.681" gradientUnits="userSpaceOnUse">
<stop/>
<stop offset="1" stop-color="#1F4B06"/>
</linearGradient>
<linearGradient id="paint4_linear_574_1655" x1="353.261" y1="262.532" x2="359.041" y2="270.344" gradientUnits="userSpaceOnUse">
<stop/>
<stop offset="1" stop-color="#1F4B06"/>
</linearGradient>
<linearGradient id="paint5_linear_574_1655" x1="335.686" y1="272.774" x2="344.43" y2="279.952" gradientUnits="userSpaceOnUse">
<stop/>
<stop offset="1" stop-color="#1F4B06"/>
</linearGradient>
<linearGradient id="paint6_linear_574_1655" x1="206.57" y1="274.664" x2="213.15" y2="282.705" gradientUnits="userSpaceOnUse">
<stop/>
<stop offset="1" stop-color="#1F4B06"/>
</linearGradient>
<linearGradient id="paint7_linear_574_1655" x1="33.7819" y1="270.857" x2="169.155" y2="345.792" gradientUnits="userSpaceOnUse">
<stop stop-color="#F09F65"/>
<stop offset="0.531539" stop-color="#814F50"/>
<stop offset="1" stop-color="#20083D"/>
</linearGradient>
<linearGradient id="paint8_linear_574_1655" x1="38.617" y1="289.261" x2="66.9056" y2="321.806" gradientUnits="userSpaceOnUse">
<stop stop-color="#F09F65"/>
<stop offset="0.531539" stop-color="#814F50"/>
<stop offset="1" stop-color="#20083D"/>
</linearGradient>
<linearGradient id="paint9_linear_574_1655" x1="99.634" y1="293.432" x2="108.283" y2="322.806" gradientUnits="userSpaceOnUse">
<stop stop-color="#F09F65"/>
<stop offset="0.531539" stop-color="#814F50"/>
<stop offset="1" stop-color="#20083D"/>
</linearGradient>
<linearGradient id="paint10_linear_574_1655" x1="1.57925" y1="301.582" x2="12.7116" y2="335.802" gradientUnits="userSpaceOnUse">
<stop stop-color="#F09F65"/>
<stop offset="0.531539" stop-color="#814F50"/>
<stop offset="1" stop-color="#20083D"/>
</linearGradient>
<linearGradient id="paint11_linear_574_1655" x1="95.3243" y1="313.905" x2="117.266" y2="347.049" gradientUnits="userSpaceOnUse">
<stop stop-color="#F09F65"/>
<stop offset="0.531539" stop-color="#814F50"/>
<stop offset="1" stop-color="#20083D"/>
</linearGradient>
<linearGradient id="paint12_linear_574_1655" x1="97.072" y1="325.801" x2="116.894" y2="364.294" gradientUnits="userSpaceOnUse">
<stop stop-color="#F09F65"/>
<stop offset="0.531539" stop-color="#814F50"/>
<stop offset="1" stop-color="#20083D"/>
</linearGradient>
<linearGradient id="paint13_linear_574_1655" x1="30.5472" y1="327.054" x2="46.4204" y2="356.388" gradientUnits="userSpaceOnUse">
<stop stop-color="#F09F65"/>
<stop offset="0.531539" stop-color="#814F50"/>
<stop offset="1" stop-color="#20083D"/>
</linearGradient>
<linearGradient id="paint14_linear_574_1655" x1="18.0032" y1="339.763" x2="25.9247" y2="364.318" gradientUnits="userSpaceOnUse">
<stop stop-color="#F09F65"/>
<stop offset="0.531539" stop-color="#814F50"/>
<stop offset="1" stop-color="#20083D"/>
</linearGradient>
<linearGradient id="paint15_linear_574_1655" x1="-68" y1="251.257" x2="146.892" y2="413.369" gradientUnits="userSpaceOnUse">
<stop stop-color="#15FF00"/>
<stop offset="1" stop-color="#20083D"/>
</linearGradient>
<linearGradient id="paint16_linear_574_1655" x1="124.734" y1="51.1529" x2="149.618" y2="61.281" gradientUnits="userSpaceOnUse">
<stop stop-color="#15FF00"/>
<stop offset="1" stop-color="#20083D"/>
</linearGradient>
<linearGradient id="paint17_linear_574_1655" x1="204.082" y1="51.4747" x2="228.162" y2="61.065" gradientUnits="userSpaceOnUse">
<stop stop-color="#15FF00"/>
<stop offset="1" stop-color="#20083D"/>
</linearGradient>
<linearGradient id="paint18_linear_574_1655" x1="38.1645" y1="84.1643" x2="58.0347" y2="117.108" gradientUnits="userSpaceOnUse">
<stop stop-color="#15FF00"/>
<stop offset="1" stop-color="#20083D"/>
</linearGradient>
<linearGradient id="paint19_linear_574_1655" x1="220.983" y1="85.7838" x2="239.601" y2="116.731" gradientUnits="userSpaceOnUse">
<stop stop-color="#15FF00"/>
<stop offset="1" stop-color="#20083D"/>
</linearGradient>
<linearGradient id="paint20_linear_574_1655" x1="81.1128" y1="227.817" x2="118.628" y2="256.983" gradientUnits="userSpaceOnUse">
<stop stop-color="#15FF00"/>
<stop offset="1" stop-color="#20083D"/>
</linearGradient>
<linearGradient id="paint21_linear_574_1655" x1="189.161" y1="229.38" x2="225.186" y2="257.911" gradientUnits="userSpaceOnUse">
<stop stop-color="#15FF00"/>
<stop offset="1" stop-color="#20083D"/>
</linearGradient>
<linearGradient id="paint22_linear_574_1655" x1="92.0986" y1="434.607" x2="142.425" y2="493.514" gradientUnits="userSpaceOnUse">
<stop stop-color="#15FF00"/>
<stop offset="1" stop-color="#20083D"/>
</linearGradient>
</defs>
</svg>
