<svg width="189" height="297" viewBox="0 0 189 297" fill="none" xmlns="http://www.w3.org/2000/svg">
<path d="M93.0376 0.352505C92.3175 0.807111 91.6164 1.96257 91.01 3.70523C90.5742 4.9554 90.4605 5.41 89.9109 8.13764C89.6646 9.27416 89.6078 9.36887 89.1909 9.31204C87.1822 9.04686 86.8033 9.0658 86.519 9.40675C85.78 10.2402 85.5337 15.0515 86.0453 17.798C86.898 22.1547 87.5991 23.992 88.7171 24.7308C89.3046 25.1096 89.3235 25.6211 88.7929 27.269C88.3003 28.8412 88.2434 31.1142 88.6792 32.7622C89.0961 34.2775 90.8016 37.8765 91.9385 39.5623C92.3933 40.2442 93.2839 41.3239 93.9093 41.949C95.0652 43.0666 95.2926 43.6348 94.8378 44.0894C94.6483 44.2789 94.5725 45.9647 94.5346 50.9085C94.4967 57.6519 94.4398 58.3338 94.0987 58.3338C93.6819 58.3338 85.5337 50.9843 84.8136 49.9615C84.4535 49.469 84.4346 49.2985 84.6051 48.7113C85.2305 46.5898 85.0789 45.0176 83.9988 42.6877C83.1271 40.8314 82.1228 39.5623 79.1098 36.5506C74.8841 32.3265 74.1451 31.8151 72.0796 31.8151C71.5301 31.8151 71.1511 31.7204 71.1132 31.5688C71.0753 31.4552 70.8858 30.6975 70.7153 29.9209C70.1847 27.6668 69.313 26.1325 66.9065 23.2912C64.9547 20.9613 62.0744 18.3095 60.71 17.5518C59.611 16.9456 58.9099 17.1161 57.7918 18.2148L56.8065 19.1808L55.5179 18.6125C54.0588 17.9496 50.6669 16.9646 48.7909 16.6426C47.3697 16.4153 46.4602 16.5857 45.8917 17.2298C45.6074 17.5518 45.5695 17.8359 45.6643 18.9724C45.8348 21.2076 46.8012 23.1965 50.1742 28.2729C51.2164 29.8262 52.0502 31.19 52.0502 31.3415C52.0502 31.5878 51.6333 31.7582 49.1131 32.478C47.6729 32.8948 46.9718 33.4062 46.6307 34.2207C45.8538 36.0581 48.2603 38.9941 53.244 42.29C54.362 43.0287 55.2716 43.6917 55.2716 43.7864C55.2716 43.8621 54.4757 44.3168 53.5283 44.8092C51.1217 46.0026 49.4541 47.2149 49.132 47.9915C48.9994 48.3324 48.772 49.0712 48.6583 49.6205C48.4877 50.4539 48.4877 50.7002 48.7151 51.0601C49.0373 51.5336 50.7238 52.2345 51.9744 52.405C52.4671 52.4618 52.8271 52.6323 52.9029 52.8217C53.1493 53.4089 53.2251 57.273 53.0166 57.8034C52.8461 58.2391 52.6945 58.3338 52.1449 58.3338C51.4059 58.3338 50.3827 58.7884 50.0226 59.2619C49.7005 59.6976 49.7194 63.9217 50.0605 65.8537C50.2121 66.7061 50.5153 67.7858 50.7427 68.2594C51.2164 69.2633 52.3913 70.3998 53.1303 70.5703C54.7221 70.9112 54.6084 70.6839 54.6652 73.3926C54.6842 74.7943 54.6463 75.893 54.5326 76.0066C54.4189 76.1203 54.1536 75.9687 53.8125 75.552C53.5283 75.1921 52.0502 73.6199 50.5343 72.0667C49.0183 70.4945 47.5024 68.8845 47.1613 68.4867C46.4033 67.5585 45.8538 67.1797 45.4937 67.3123C45.2474 67.407 45.2663 67.4827 45.5506 67.9374C46.8202 69.9641 48.772 72.5213 50.1553 73.9609C51.0459 74.889 52.4671 76.4802 53.3198 77.4652C54.1725 78.4501 55.3663 79.6814 55.9727 80.2117C56.5791 80.7232 58.3982 82.5037 60.0089 84.1706C61.6196 85.8375 64.1588 88.4136 65.6558 89.8911C69.1046 93.3196 69.2183 94.0015 66.2053 92.9786C63.9314 92.202 61.2406 91.8231 57.9245 91.8042C55.12 91.7663 54.7221 91.8042 54.2294 92.1262C53.4146 92.6376 53.3009 92.9218 53.1872 94.4182L53.0924 95.7441L52.4292 95.782C50.6669 95.9146 48.7341 96.5207 48.0329 97.1648C46.8581 98.2445 47.8245 100.252 50.0984 101.427C50.4964 101.616 51.3301 102.184 51.9555 102.677C54.0209 104.268 56.598 105.405 59.0236 105.783C59.9142 105.935 59.9331 105.935 60.4637 107.81C60.8616 109.174 62.0744 110.803 63.6472 112.053C65.7506 113.758 67.4371 114.421 70.6016 114.781C72.705 115.027 75.6232 114.819 77.7265 114.269C79.0151 113.928 82.0659 112.489 82.6723 111.921C82.8807 111.731 83.1839 111.561 83.3355 111.561C83.8661 111.561 87.4665 115.652 90.9911 120.274L91.9385 121.505L91.9006 130.048C91.8817 136.053 91.8059 138.723 91.6543 139.008C91.4648 139.386 91.3321 139.311 89.134 137.284C83.3924 131.98 69.692 120.747 65.4095 117.83C61.7144 115.311 56.9012 111.977 53.2061 109.363C49.7384 106.901 46.5549 104.098 44.7168 101.862C43.6367 100.536 41.2491 96.7102 41.2491 96.3124C41.2491 96.1798 41.8744 95.4411 42.6513 94.6644C43.9209 93.3953 44.0915 93.1301 44.4705 91.88C44.8495 90.6866 44.8874 90.2131 44.7926 88.1105C44.6979 85.5534 44.5084 84.8525 43.4851 82.9204C42.3481 80.7989 40.7564 79.7761 39.5436 80.4012C39.2215 80.5716 38.6909 81.0831 38.3498 81.5566C38.0277 82.0112 37.6677 82.3901 37.554 82.3901C37.4213 82.3901 36.6634 81.765 35.8296 81.0073C35.0148 80.2496 33.7452 79.132 33.0061 78.5259C29.5384 75.6467 27.1508 72.9001 27.8709 72.616C28.0414 72.5592 28.4014 72.6918 28.7046 72.957C32.2861 75.893 33.0819 76.3855 35.9433 77.503C37.1181 77.9576 37.8382 78.0902 40.0932 78.2418C43.3335 78.488 43.8641 78.3744 45.2474 77.1242C46.3844 76.1013 46.7065 75.1921 46.3844 73.7715C45.9675 71.9341 44.66 70.6839 39.8847 67.6532C37.7435 66.2705 36.1517 64.8688 36.4549 64.5657C36.6255 64.3952 36.8339 64.4331 37.3455 64.7362C37.7245 64.9635 38.4635 65.2665 39.0131 65.437C39.9226 65.7022 40.0932 65.7022 40.9648 65.4181C42.0639 65.0582 43.0493 64.2058 43.4472 63.2776C43.6178 62.8609 43.7125 61.9517 43.7125 60.5311C43.6936 57.6519 43.2388 55.8713 41.7986 52.9732C40.6238 50.6244 39.5247 49.1848 36.8149 46.4951C34.2378 43.9379 33.044 43.1234 31.8313 43.1045C30.827 43.1045 29.7658 44.3736 29.4058 45.9836C29.33 46.3246 29.1594 46.6656 29.0078 46.7224C28.8562 46.7792 28.1551 46.533 27.454 46.1541C23.5504 44.1463 18.3962 43.0476 16.5202 43.8243C15.8002 44.1273 15.2885 44.9608 15.2885 45.8132C15.2885 47.0065 16.7097 50.0562 18.5668 52.8406C20.0637 55.0568 22.3945 58.1823 23.0388 58.7884C23.3609 59.1104 23.6262 59.4324 23.6262 59.5082C23.6262 59.7166 23.0388 59.9439 20.6891 60.6447C17.5435 61.5918 16.975 62.1601 17.4487 63.9595C17.9035 65.6643 18.3394 66.3273 20.6701 68.7519C22.5082 70.6839 22.5461 70.7408 22.3187 71.1575C22.224 71.3469 22.0913 71.7257 22.0155 72.0099C21.9018 72.5971 21.5418 72.6728 20.5185 72.3698C19.3437 71.9909 14.5684 71.5553 11.7071 71.5363C8.12568 71.5174 6.32549 71.8773 5.43487 72.7676C4.18422 73.9988 4.99904 76.1013 7.78459 78.8858C9.39528 80.4769 12.0861 82.3901 12.7304 82.3901C13.1472 82.3901 13.1851 82.6174 12.9578 83.4697C12.484 85.2882 13.5452 86.6709 16.5771 88.2431C18.093 89.0197 18.8699 89.2849 20.1774 89.4933C23.4367 90.0426 26.4307 89.7585 27.8519 88.8114C28.2878 88.5083 28.7994 88.2621 28.9699 88.2621C29.1594 88.2621 29.5763 88.7356 29.9932 89.4365C30.3911 90.0994 31.6228 91.5201 32.7219 92.6187C34.8063 94.7023 36.3033 95.6684 37.9519 95.9335C39.6384 96.2177 39.6194 96.1987 42.1018 100.385C42.8029 101.578 43.7315 102.98 44.1483 103.51C45.5506 105.215 48.5446 108.341 50.4395 110.045C50.9701 110.519 52.3344 111.75 53.4714 112.792C54.6084 113.834 55.7264 114.838 55.9159 115.027C56.4464 115.501 56.1812 115.652 54.1346 116.012C53.1493 116.182 51.9555 116.41 51.4817 116.486C51.008 116.58 49.5299 117.016 48.1656 117.452C45.5695 118.285 44.3378 118.607 41.9692 119.043C39.8089 119.44 37.0613 120.407 36.4549 120.994C35.8106 121.6 35.318 122.661 35.4695 123.134C35.5264 123.305 36.0001 123.854 36.5307 124.346C37.0613 124.839 37.4403 125.275 37.4024 125.312C37.3645 125.35 36.8528 125.18 36.2654 124.915C34.4273 124.1 33.6125 123.987 32.0966 124.252C29.3489 124.725 25.0285 126.676 23.3609 128.211C22.205 129.271 21.1628 131.374 21.1628 132.662C21.1628 133.344 21.9018 134.045 22.7925 134.196C24.1 134.405 24.1 134.405 23.3609 135.39C21.9397 137.265 20.8786 139.14 20.0637 141.281C19.0215 143.989 18.7183 145.22 18.6994 146.717C18.6994 147.702 18.7752 147.948 19.1921 148.403C19.6658 148.914 19.7227 148.933 21.0302 148.819C23.3988 148.649 27.6435 146.982 29.9363 145.353C30.429 144.993 30.9028 144.709 31.0165 144.709C31.1112 144.709 31.3196 144.993 31.4712 145.334C31.8502 146.281 32.7977 146.982 33.6694 146.982C34.8442 146.982 35.9433 146.281 38.0846 144.179C41.3628 140.977 42.5187 138.572 43.6178 132.795C43.7693 131.923 44.0915 130.976 44.2999 130.673C45.0579 129.593 47.4834 127.926 47.995 128.116C48.2414 128.211 48.1656 128.381 47.5971 129.006C46.6307 130.086 46.1001 131.317 46.2707 132.132C46.536 133.59 49.7005 134.537 52.1449 133.893C54.1157 133.401 56.257 131.961 57.6782 130.218C58.5119 129.177 59.0994 128.097 60.0468 125.824C60.6342 124.403 60.6721 124.252 60.6721 121.751C60.6721 120.331 60.729 119.118 60.8048 119.043C61.0322 118.796 64.083 121.032 68.5361 124.706C72.7429 128.192 72.7997 128.249 72.4965 129.499C71.9659 131.753 69.692 138.799 69.4267 138.97C69.313 139.026 68.195 139.121 66.9444 139.14C63.2303 139.197 60.8048 140.182 58.2466 142.606C56.4654 144.311 55.1389 146.243 54.3431 148.289C53.6798 150.013 53.623 150.43 54.0588 150.846C54.3999 151.206 56.4085 151.263 58.2845 150.96C58.9478 150.846 59.5352 150.808 59.592 150.865C59.6489 150.922 59.5541 151.585 59.3836 152.343C58.7772 154.976 58.6825 155.733 58.6825 158.253C58.6825 161.132 59.0425 163.613 59.7626 165.735C60.6911 168.443 61.4491 169.523 62.4534 169.523C63.7988 169.523 66.9065 167.401 69.2751 164.863C72.1365 161.795 73.6145 159.351 74.8083 155.733C75.1873 154.54 75.5853 153.498 75.68 153.403C75.7937 153.29 76.1727 153.328 76.6654 153.517C77.7644 153.896 78.1245 153.877 78.5982 153.403C78.9772 153.025 78.9961 152.854 78.9014 151.263C78.6361 146.717 75.4337 141.944 71.2459 139.803C70.7911 139.576 70.431 139.292 70.431 139.159C70.431 139.008 70.7342 138.06 71.1132 137.019C71.7006 135.409 72.2312 133.723 72.8945 131.355C73.3492 129.764 73.5008 129.366 73.6714 129.366C74.1262 129.366 75.5095 130.559 80.8532 135.522C83.3355 137.833 86.7275 141.281 88.9445 143.724L91.2184 146.262L91.3321 148.081C91.5216 150.789 90.9721 183.559 90.5173 197.557C90.3089 203.618 90.0436 213.942 89.7972 224.133C89.6646 229.38 89.6457 229.815 89.3046 230.061C89.0014 230.27 86.4243 230.308 73.4819 230.27C61.2027 230.232 57.9245 230.289 57.6024 230.478C57.356 230.611 57.0339 230.971 56.8633 231.293C56.598 231.823 56.5791 232.486 56.7686 237.6C57.1286 247.45 57.0718 247.014 58.1329 247.772C58.5877 248.094 59.0994 248.227 60.369 248.303L61.9986 248.416L62.0365 249.079C62.1312 250.386 62.5102 252.83 63.1735 256.182C63.5335 258.058 63.9125 259.971 63.9883 260.444C64.3294 262.263 64.7462 264.593 65.0305 266.127C65.201 267.017 65.4095 268.154 65.5042 268.684C65.599 269.195 65.8074 270.351 65.978 271.241C66.1485 272.131 66.3569 273.325 66.4517 273.893C66.7738 275.996 67.7592 281.337 68.1761 283.288C68.3087 283.819 68.4035 284.576 68.4224 284.993L68.4414 285.732L65.599 285.845C64.0451 285.902 62.4913 286.016 62.1502 286.092C61.2217 286.3 61.1648 286.83 61.8281 289.425C61.9607 289.994 62.3586 291.623 62.6808 293.024C63.4577 296.282 63.6661 296.529 65.7127 296.699C68.1382 296.87 124.816 297.002 126.692 296.813C128.113 296.68 128.549 296.567 128.909 296.226C129.401 295.771 129.856 294.35 130.387 291.699C130.576 290.808 130.785 289.785 130.879 289.425C130.974 289.066 131.107 288.289 131.164 287.683C131.296 286.66 131.277 286.603 130.766 286.262C130.292 285.959 129.818 285.921 126.995 285.921C123.83 285.921 123.773 285.921 123.717 285.505C123.679 285.277 124.001 283.364 124.418 281.243C125.308 276.829 125.441 276.128 125.858 273.798C126.028 272.851 126.275 271.45 126.426 270.673C126.559 269.896 126.824 268.476 126.995 267.548C127.165 266.6 127.374 265.464 127.468 264.99C127.563 264.517 127.829 263.191 128.056 262.054C128.283 260.899 128.662 258.986 128.909 257.792C129.439 255.311 129.818 253.322 130.254 250.879C130.709 248.246 130.576 248.397 132.604 248.227C135.939 247.981 135.882 248.132 136.166 238.888C136.375 232.297 136.375 231.577 136.09 231.16C135.92 230.895 135.579 230.611 135.351 230.516C135.105 230.421 127.071 230.289 117.501 230.194L100.087 230.042L100.049 227.012C100.011 223.11 99.4046 200.285 98.8361 181.835C98.2486 162.079 97.7939 139.159 97.9644 138.439C98.0402 138.193 98.6087 137.341 99.234 136.564C99.8783 135.787 100.921 134.461 101.546 133.628C103.081 131.658 107.022 126.942 107.629 126.373L108.102 125.919L108.387 126.373C108.538 126.601 109.391 128.078 110.281 129.65C111.172 131.203 112.347 133.249 112.896 134.196C114.507 136.962 115.909 139.538 115.909 139.727C115.909 139.841 115.417 140.22 114.829 140.599C113.408 141.47 111.873 143.023 111.096 144.33C109.713 146.698 108.709 151.566 109.088 154.199C109.429 156.624 109.77 157.4 110.49 157.4C110.945 157.4 112.499 156.889 112.802 156.624C112.915 156.548 113.294 156.434 113.654 156.415C114.28 156.358 114.299 156.377 114.64 157.4C115.227 159.219 116.629 161.889 117.596 163.045C120.59 166.644 125.024 169.902 126.938 169.902C127.412 169.902 128.378 169.012 128.814 168.178C129.022 167.761 129.42 166.606 129.686 165.583C130.178 163.859 130.197 163.499 130.197 159.673C130.216 156.055 130.159 155.392 129.761 153.706C129.079 150.808 128.909 151.074 131.41 151.074C133.305 151.055 133.589 151.017 133.835 150.695C134.252 150.107 134.158 149.198 133.513 148.005C131.865 144.823 128.492 141.659 125.327 140.277C123.243 139.367 120.135 138.97 118.297 139.405C117.482 139.576 116.857 139.386 116.857 138.951C116.857 138.818 116.042 137.341 115.038 135.693C114.033 134.026 112.783 131.961 112.252 131.071C110.793 128.608 109.448 126.468 109.031 126.013C108.462 125.388 108.747 124.763 110.281 123.229C111.987 121.543 114.754 119.289 115.038 119.384C115.151 119.422 115.303 120.122 115.36 120.956C115.549 123.551 116.629 125.975 119.112 129.309C121.026 131.904 124.418 134.367 126.919 135.011C127.961 135.276 128.17 135.257 129.231 134.973C130.709 134.556 132.983 132.889 133.798 131.601C134.12 131.128 134.101 131.071 133.608 130.086C133.324 129.537 132.888 128.76 132.642 128.362C132.13 127.548 132.206 127.169 132.831 127.51C133.93 128.097 136.943 130.559 137.019 130.938C137.076 131.166 137.227 132.169 137.341 133.154C137.947 138.041 140.165 142.455 143.841 146.149C146.115 148.422 147.517 149.445 148.502 149.577C149.336 149.691 149.222 149.785 151.098 147.569L151.648 146.944L152.406 147.285C152.804 147.494 153.941 148.194 154.926 148.857C157.522 150.619 160.365 151.926 161.843 152.04C162.904 152.134 163.055 152.096 163.624 151.623C164.154 151.187 164.23 150.998 164.23 150.24C164.23 148.8 163.548 146.452 162.601 144.52C161.786 142.872 158.849 138.401 157.92 137.379C157.579 137 157.579 136.943 157.863 136.829C158.034 136.772 158.545 136.772 159.019 136.829C160.08 137 161.198 136.697 161.767 136.109C162.714 135.087 161.729 132.851 159.247 130.408C156.48 127.699 154.054 126.43 150.208 125.672C149.317 125.483 148.559 125.312 148.521 125.275C148.483 125.237 148.73 124.896 149.052 124.517C149.563 123.949 149.639 123.74 149.544 123.229C149.469 122.907 149.147 122.376 148.843 122.036C146.816 119.914 137.568 117.357 135.901 118.456C135.276 118.853 135.219 118.834 133.494 117.584C130.955 115.709 128.473 114.781 124.816 114.288C123.508 114.118 122.371 113.909 122.276 113.815C122.03 113.587 122.466 113.133 125.005 110.992C127.62 108.795 130.046 106.958 133.627 104.457C138.952 100.745 143.291 97.3353 146.55 94.3045C149.601 91.4443 149.886 91.3117 155.135 90.1752C156.442 89.8911 158.507 89.4175 159.777 89.1144C160.402 88.9629 161.293 88.7735 161.767 88.6788C162.316 88.5841 162.619 88.4325 162.619 88.2621C162.619 88.0348 162.316 87.959 161.293 87.9211C160.023 87.8643 158.905 88.0537 154.377 89.0197C152.141 89.5122 151.269 89.4743 151.193 88.8871C151.155 88.5841 151.401 88.2999 152.235 87.6749C155.381 85.3829 156.916 83.6213 158.28 80.78C159.303 78.6017 159.625 77.3136 159.777 74.7186C159.91 72.4455 160.156 71.1385 160.554 70.8165C160.725 70.665 161.16 70.7029 162.127 70.9302C164.079 71.4227 167.452 71.2522 169.214 70.5703C172.359 69.3959 174.823 67.8995 176.699 66.0621C177.874 64.9066 178.442 63.9217 178.442 63.0314C178.423 62.2358 178.12 61.8381 177.116 61.3077C175.865 60.6447 175.789 60.3985 176.566 59.4324C179.086 56.3259 181.474 51.3821 181.474 49.2795C181.474 48.4082 181 47.4611 180.394 47.1391C179.105 46.4572 176.036 47.1391 172.284 48.9575C171.147 49.5068 170.161 49.9425 170.104 49.9046C170.029 49.8667 169.669 49.1848 169.271 48.4082C168.077 45.9647 166.826 45.4533 164.837 46.5898C162.601 47.8778 159.36 51.6473 158.053 54.4507C156.632 57.5193 156.177 59.7544 156.328 63.0503C156.48 66.7819 157.086 68.1268 159.133 69.2633C159.644 69.5664 160.099 69.9073 160.156 70.0589C160.308 70.4566 159.076 71.4606 157.503 72.2372C155.513 73.2222 154.566 73.5631 154.377 73.3737C154.282 73.279 154.111 71.953 153.998 70.4566C153.789 67.7669 153.41 65.6454 152.917 64.452C152.595 63.6565 151.534 62.8609 150.606 62.7473C149.867 62.6526 149.829 62.6147 149.431 61.4213C148.919 59.8491 148.047 58.7316 146.948 58.1823L146.077 57.7466L145.148 58.2012C143.632 58.9778 142.798 60.1333 141.586 63.0693C139.842 67.3312 139.501 69.1307 139.501 74.245C139.52 78.6964 139.672 79.9465 140.562 82.75C141.567 85.9322 143.424 88.3378 145.717 89.4554C146.304 89.7585 146.797 90.0805 146.797 90.1752C146.797 90.2699 146.437 90.7056 146.001 91.1223C144.371 92.6187 142.116 94.2856 135.711 98.6422C134.252 99.6462 132.13 101.143 130.974 101.995C129.837 102.828 127.62 104.457 126.047 105.594C117.899 111.504 114.242 114.383 109.618 118.607C108.652 119.497 106.567 121.373 104.995 122.793C103.422 124.195 101.281 126.279 100.219 127.415C98.7792 128.968 98.2676 129.404 98.0971 129.233C97.7749 128.949 97.5854 115.557 97.8697 113.796C98.0213 112.83 98.2486 112.262 98.8171 111.428C99.7077 110.14 103.896 105.234 105.279 103.889C106.226 102.98 106.264 102.961 106.871 103.207C109.58 104.287 110.168 104.438 112.157 104.514C116.118 104.666 120.571 103.397 123.565 101.256C125.706 99.7219 126.711 98.3392 126.711 96.9375C126.711 95.7631 126.407 95.2895 124.891 94.2288C124.228 93.7552 123.679 93.3006 123.679 93.2248C123.679 93.1491 124.285 92.4861 125.024 91.7663C128.037 88.7735 130.121 84.5116 130.121 81.3104C130.121 80.1739 130.027 79.7003 129.742 79.2078C129.174 78.2797 128.643 78.1092 127.108 78.3744C124.948 78.7343 122.788 79.8518 119.699 82.1817C117.899 83.5455 117.293 83.8675 117.065 83.5834C116.99 83.5076 116.686 82.7878 116.402 82.0112C116.099 81.2346 115.644 80.136 115.398 79.6056C115.132 79.0563 114.962 78.507 115.019 78.3744C115.057 78.2418 115.606 77.8629 116.213 77.5599C117.558 76.878 121.272 73.3548 122.333 71.7636C122.731 71.1575 123.338 69.9263 123.66 68.9981C123.982 68.0889 124.304 67.2176 124.399 67.085C124.475 66.9524 125.024 66.6304 125.63 66.3841C128.776 65.115 131.827 61.8002 131.827 59.6408C131.827 58.7695 131.277 58.0497 130.368 57.7466C128.965 57.292 122.902 57.8981 119.055 58.902C118.221 59.1104 117.539 59.2809 117.52 59.2809C117.501 59.2809 117.331 58.902 117.141 58.4285C116.743 57.3867 116.345 57.1404 115.246 57.292C113.427 57.5761 109.088 60.2469 105.961 63.0314C103.763 64.9824 102.834 66.0053 102.057 67.3312C101.565 68.1836 101.508 68.4488 101.508 69.9263C101.508 70.8355 101.678 72.4455 101.887 73.5252C102.323 75.8172 102.436 75.5331 100.106 77.9766C98.8361 79.3025 98.4571 79.6056 98.2676 79.4162C97.9265 79.0752 97.756 75.8551 97.6991 68.714L97.6423 62.5389L98.1728 61.7623C100.523 58.3906 110.206 49.0144 112.84 47.5937C113.408 47.2717 113.484 47.2717 114.071 47.5748C114.393 47.7642 114.981 47.9536 115.379 48.0294C117.672 48.4272 124.38 46.0973 127.487 43.8243C129.496 42.3278 129.932 42.3278 128.89 43.7864C128.53 44.2789 128.226 44.7335 128.226 44.7903C128.226 44.8282 127.98 45.3017 127.658 45.8321C126.995 46.9686 126.919 47.9347 127.412 49.3364C127.847 50.5676 129.288 52.0261 130.785 52.7649C131.827 53.2574 132.13 53.3142 134.29 53.3899C138.194 53.4847 141.567 52.7459 143.329 51.401C143.689 51.1359 144.295 50.3782 144.712 49.7341C145.186 48.9954 145.698 48.4272 146.077 48.2377C146.418 48.0862 147.422 47.5937 148.313 47.177C150.283 46.2299 151.951 44.9608 152.69 43.7864C153.372 42.7256 153.372 42.5173 152.747 41.5512C151.932 40.2821 150.302 39.4297 145.47 37.725C143.973 37.1946 143.917 36.9862 144.921 35.6792C147.081 32.819 148.824 29.3905 149.014 27.5531C149.109 26.6629 149.071 26.5113 148.54 25.9241C147.972 25.2801 147.934 25.2801 146.171 25.2233C142.912 25.0907 138.099 26.303 134.328 28.1972C133.267 28.7275 132.263 29.1632 132.111 29.1632C131.581 29.1632 131.581 28.5949 132.092 27.1175C132.755 25.1664 132.774 23.5374 132.13 22.7798C131.713 22.3062 131.543 22.2494 130.557 22.2494C129.951 22.2494 129.155 22.382 128.795 22.5146C120.552 25.64 115.606 29.5231 112.707 35.1678C110.85 38.8046 110.604 41.8543 111.949 44.5819C112.252 45.207 112.499 45.7374 112.499 45.7563C112.499 45.7942 111.835 46.3435 111.039 46.9876C106.965 50.2077 106.548 50.5487 101.697 55C99.9351 56.629 98.8929 57.3867 98.4381 57.3867C98.0781 57.3867 98.0402 55.9282 98.0023 45.226V43.4644L99.1014 42.8961C101.394 41.6838 103.251 39.7328 105.468 36.2096C107.231 33.3873 107.287 33.3304 108.121 33.3304C109.675 33.3304 110.964 31.7582 113.313 26.947C114.754 23.992 115.474 21.7001 115.246 20.7719C115.114 20.2794 114.697 19.768 113.958 19.2566C113.654 19.0482 113.654 18.9535 113.939 17.8927C115.095 13.4793 115.038 8.91426 113.787 7.13372C113.181 6.26239 112.878 6.07297 112.101 6.05403C111.267 6.05403 109.656 7.00113 107.666 8.64908C106.89 9.31204 106.188 9.84242 106.113 9.84242C106.018 9.84242 105.544 9.50146 105.051 9.10368C104.559 8.68696 103.858 8.25129 103.479 8.13764C102.91 7.94822 102.721 7.96717 102.02 8.32706C101.584 8.55437 101.034 8.91426 100.807 9.12262C100.144 9.74771 99.8025 9.50146 99.4046 8.13764C99.1961 7.45573 98.9119 6.43287 98.7413 5.86461C98.2865 4.29243 97.2064 2.13305 96.4295 1.2996C95.2357 -0.0263343 94.1745 -0.329405 93.0376 0.352505ZM67.4939 38.8615C67.8729 39.2024 69.313 40.7557 70.6963 42.3278C74.3536 46.4572 77.8402 49.6963 79.5836 50.6055C80.1899 50.9275 80.7016 51.0222 81.8006 51.0222L83.2029 51.0033L87.0117 54.9053C92.3365 60.3416 93.3218 61.4403 93.4734 62.0464C93.7577 63.1261 93.1892 82.8636 92.7912 85.8943C92.526 87.959 92.4502 88.2621 92.1659 88.2621C92.0333 88.2621 91.1237 87.4665 90.1194 86.5005C88.1676 84.6063 85.8179 82.3901 83.8851 80.5906C83.2029 79.9655 81.5164 78.3933 80.1141 77.0863C78.7308 75.7793 77.4423 74.6239 77.2717 74.5292C76.7601 74.2261 73.9935 72.1046 73.3303 71.5174C72.6292 70.9112 72.5723 70.6839 72.9892 70.5135C73.1787 70.4566 73.6903 70.7976 74.4672 71.5363C76.4759 73.4305 78.314 74.6239 79.2614 74.6239C79.9057 74.6239 81.4217 73.5063 82.028 72.5781C83.165 70.8734 83.7335 68.9223 83.7524 66.6682C83.7524 65.2665 83.6766 64.9066 83.2408 64.0164C81.7817 61.0993 77.7076 56.7995 71.947 52.1019C69.3509 49.9804 68.2329 50.3971 67.8918 53.6362C67.816 54.3181 67.6455 55.0379 67.5128 55.2273C67.2665 55.5493 67.2286 55.5493 66.7738 55.2463C65.7885 54.6022 61.9417 49.5068 62.226 49.2227C62.3207 49.1469 63.5903 49.0522 65.0873 49.0144C67.7781 48.9386 67.7971 48.9196 68.3466 48.3703C69.7489 46.9686 69.5594 44.6198 67.816 42.1384C67.2286 41.305 66.5654 40.3768 66.319 40.0927C65.8074 39.4676 65.7695 38.9751 66.1864 38.5584C66.6033 38.1417 66.717 38.1796 67.4939 38.8615ZM72.0796 72.5781C72.4776 72.9001 75.32 75.6846 78.3898 78.7532C86.1969 86.5762 90.2899 91.1034 91.6732 93.4711L92.2228 94.4182L92.2038 99.6272C92.1659 107.109 91.9764 112.565 91.749 112.64C91.6353 112.678 90.7637 111.921 89.7783 110.973C88.4329 109.666 87.7507 108.852 87.0306 107.564C86.5001 106.636 85.6663 105.348 85.2115 104.704C84.1693 103.283 75.3579 94.4561 71.568 91.0276C68.1571 87.959 63.4198 83.2235 63.4198 82.9015C63.4198 82.75 63.8935 82.3143 64.462 81.9165C66.7738 80.3254 68.574 77.8819 69.7868 74.6239C70.7911 71.953 70.7721 71.972 71.0753 71.972C71.2459 71.972 71.6817 72.2372 72.0796 72.5781ZM105.563 78.829C105.942 79.6245 106.511 80.4201 107.325 81.1967C107.97 81.8597 108.519 82.5227 108.519 82.6931C108.519 82.8636 107.704 83.9433 106.7 85.0988C103.933 88.3189 102.512 90.6298 101.792 93.0733C101.413 94.3424 101.432 96.6723 101.83 97.8467C102.171 98.8695 102.948 100.328 103.346 100.726C103.479 100.858 103.592 101.086 103.592 101.199C103.592 101.332 102.342 102.658 100.826 104.154C98.7224 106.219 98.0213 106.825 97.8507 106.655C97.6802 106.484 97.6233 103.757 97.6233 96.1609V85.8943L98.2676 84.9662C98.6276 84.4547 99.3098 83.5834 99.7835 83.053C103.346 79.0373 104.635 77.6546 104.824 77.6546C104.938 77.6546 105.279 78.1849 105.563 78.829ZM138.023 122.964C139.805 125.331 141.737 126.904 142.817 126.904C143.348 126.904 143.5 127.415 143.102 127.851C142.42 128.608 141.908 128.362 139.577 126.089C137.436 124.024 136.413 122.642 136.64 122.054C136.829 121.581 137.114 121.77 138.023 122.964ZM42.3103 123.418C41.3628 124.839 39.5815 126.335 38.8236 126.335C38.6341 126.335 38.274 126.127 38.0467 125.881L37.6108 125.426H38.4825C39.411 125.445 39.8468 125.199 41.5333 123.608C42.5376 122.68 42.8219 122.604 42.3103 123.418ZM121.613 249.591C121.897 249.875 121.31 252.129 119.87 256.372C117.785 262.528 116.137 265.937 112.859 270.787C109.902 275.181 104.218 281.015 99.4235 284.576L97.6233 285.921L85.3063 285.864C76.2106 285.808 72.9324 285.732 72.7618 285.58C72.6481 285.448 72.4586 284.747 72.3449 284.027C72.2123 283.288 72.0038 281.887 71.8333 280.902C71.6817 279.917 71.4733 278.629 71.3785 278.06C71.2838 277.492 71.0753 276.299 70.9048 275.408C70.7342 274.518 70.5258 273.325 70.431 272.757C70.2605 271.772 69.711 268.589 69.0098 264.706C68.8393 263.759 68.6309 262.528 68.5361 261.96C68.4414 261.391 68.2708 260.539 68.1761 260.065C68.0813 259.592 67.8539 258.436 67.6834 257.508C67.5128 256.561 67.2097 254.989 67.0012 254.004C66.4327 251.333 66.2243 249.856 66.338 249.534C66.4327 249.306 69.9763 249.269 93.9093 249.306C115.322 249.344 121.443 249.42 121.613 249.591Z" fill="url(#paint0_linear_572_1515)"/>
<path d="M71.093 7.98611C70.2403 8.64908 70.0508 9.38782 70.0508 11.926C70.0508 18.139 72.3247 26.2272 75.1292 29.9588C76.3041 31.512 78.6159 33.6146 79.8097 34.2018C80.7003 34.6374 81.0224 34.6942 82.2352 34.6374C84.187 34.5238 85.3239 33.9366 85.9682 32.6675C86.404 31.8151 86.4419 31.512 86.4419 29.3526C86.4419 26.7008 86.1577 25.3559 84.8502 21.8895C82.7279 16.2259 79.9992 12.3996 75.963 9.36887C73.5943 7.58833 72.1163 7.17161 71.093 7.98611Z" fill="url(#paint1_linear_572_1515)"/>
<path d="M175.031 71.1386C173.761 71.3849 171.98 71.8584 170.919 72.2562C169.346 72.8623 165.386 74.9081 164.798 75.4384C163.263 76.8023 162.714 78.4691 162.714 81.765C162.714 84.0191 162.714 84.0191 163.396 85.1367C164.192 86.4626 165.518 88.1295 166.257 88.6978C167.015 89.3039 169.195 89.3608 172.245 88.8304C175.827 88.2242 177.76 87.4666 179.465 85.9702C180.507 85.0609 180.886 84.076 180.545 83.1289C180.431 82.8068 180.337 82.4469 180.337 82.3712C180.337 82.2954 181.152 81.8408 182.156 81.3673C185.661 79.7004 188.618 77.0106 188.959 75.1543C189.281 73.4685 187.708 72.2941 184.032 71.4796C182.743 71.1765 176.111 70.9492 175.031 71.1386Z" fill="url(#paint2_linear_572_1515)"/>
<path d="M11.6879 89.7964C8.08751 90.4026 3.38808 92.6567 1.15206 94.8918C0.185643 95.8389 -0.212293 96.9944 0.109845 97.9604C0.602528 99.4568 2.83855 100.726 6.57156 101.616C7.76537 101.9 8.86443 102.166 8.99708 102.203C9.18657 102.26 9.22447 102.488 9.12972 103.037C9.01603 103.757 9.05392 103.851 9.6603 104.439C10.6267 105.348 12.0669 105.689 14.8335 105.689C19.0402 105.689 22.4321 104.457 25.104 101.976C27.1126 100.12 27.9653 98.0172 27.7569 95.4032C27.6432 94.0205 27.2642 93.187 26.2978 92.1831C25.2556 91.0845 24.5166 90.8193 21.1625 90.3457C20.4804 90.251 19.116 90.0427 18.1306 89.8911C16.1599 89.5691 13.3365 89.5312 11.6879 89.7964Z" fill="url(#paint3_linear_572_1515)"/>
<path d="M165.272 91.8421L163.946 91.9558L163.282 93.2817C162.638 94.5698 162.638 94.6645 162.619 96.9754C162.619 99.4189 162.676 99.6652 163.623 101.692C164.249 103.018 166.144 104.912 168.304 106.371C170.369 107.772 171.45 108.322 173.401 108.985C175.997 109.856 177.816 109.553 178.537 108.151L178.84 107.583H182.251C184.809 107.583 185.946 107.507 186.704 107.28C188.902 106.655 189.451 105.158 188.258 103.075C187.5 101.73 184.544 98.7559 182.251 96.9943C179.939 95.2138 175.505 93.0355 172.852 92.3536C170.786 91.8232 167.679 91.6148 165.272 91.8421Z" fill="url(#paint4_linear_572_1515)"/>
<path d="M148.067 99.381C147.991 99.4378 147.934 99.6652 147.934 99.8546C147.934 100.063 147.574 101.256 147.157 102.525C146.399 104.723 146.361 104.95 146.361 107.109C146.361 111.674 147.801 114.951 151.44 118.74C153.543 120.918 154.263 121.41 155.419 121.41C156.348 121.41 156.878 121.221 157.541 120.615L157.939 120.236L159.474 121.448C161.976 123.437 166.125 125.388 167.831 125.388C168.873 125.388 169.65 124.46 169.821 123.04C170.124 120.71 169.271 116.467 167.509 111.371C166.808 109.344 165.765 107.829 163.927 106.086C160.706 103.037 156.367 100.745 151.572 99.5515C150.36 99.2484 148.294 99.1348 148.067 99.381Z" fill="url(#paint5_linear_572_1515)"/>
<path d="M31.8687 103.51C26.3355 104.647 22.2614 107.829 18.3768 114.042C15.9703 117.887 15.2312 120.994 16.4629 122.111C17.4104 122.964 22.7541 122.13 25.7102 120.691C26.4871 120.293 27.1883 119.971 27.2451 119.933C27.3209 119.895 27.643 120.369 27.9841 120.956C29.2158 123.153 29.917 123.38 32.0961 122.282C32.8162 121.941 33.6121 121.6 33.8963 121.524C34.2185 121.448 35.2986 120.501 36.7008 119.081C40.1117 115.652 40.8318 114.629 41.7034 112.015C42.2909 110.292 42.4046 108.037 42.0066 106.03C41.7792 104.95 41.6845 104.798 40.9834 104.325C39.8085 103.567 37.9894 103.226 35.3175 103.245C34.0479 103.264 32.4941 103.378 31.8687 103.51Z" fill="url(#paint6_linear_572_1515)"/>
<defs>
<linearGradient id="paint0_linear_572_1515" x1="89.8988" y1="96.8477" x2="174.802" y2="142.924" gradientUnits="userSpaceOnUse">
<stop/>
<stop offset="1" stop-color="#1F4B06"/>
</linearGradient>
<linearGradient id="paint1_linear_572_1515" x1="77.9428" y1="16.4163" x2="85.7582" y2="20.7339" gradientUnits="userSpaceOnUse">
<stop/>
<stop offset="1" stop-color="#1F4B06"/>
</linearGradient>
<linearGradient id="paint2_linear_572_1515" x1="175.37" y1="76.9812" x2="181.317" y2="84.8497" gradientUnits="userSpaceOnUse">
<stop/>
<stop offset="1" stop-color="#1F4B06"/>
</linearGradient>
<linearGradient id="paint3_linear_572_1515" x1="13.3792" y1="94.862" x2="18.3351" y2="102.681" gradientUnits="userSpaceOnUse">
<stop/>
<stop offset="1" stop-color="#1F4B06"/>
</linearGradient>
<linearGradient id="paint4_linear_572_1515" x1="175.261" y1="97.5319" x2="181.041" y2="105.344" gradientUnits="userSpaceOnUse">
<stop/>
<stop offset="1" stop-color="#1F4B06"/>
</linearGradient>
<linearGradient id="paint5_linear_572_1515" x1="157.686" y1="107.774" x2="166.43" y2="114.952" gradientUnits="userSpaceOnUse">
<stop/>
<stop offset="1" stop-color="#1F4B06"/>
</linearGradient>
<linearGradient id="paint6_linear_572_1515" x1="28.5703" y1="109.664" x2="35.1495" y2="117.705" gradientUnits="userSpaceOnUse">
<stop/>
<stop offset="1" stop-color="#1F4B06"/>
</linearGradient>
</defs>
</svg>
