<svg width="197" height="310" viewBox="0 0 197 310" fill="none" xmlns="http://www.w3.org/2000/svg">
<path d="M96.9749 0.367431C96.2243 0.84128 95.4935 2.04565 94.8615 3.86207C94.4072 5.16515 94.2887 5.639 93.7159 8.4821C93.4591 9.66672 93.3998 9.76544 92.9653 9.70621C90.8717 9.4298 90.4766 9.44954 90.1804 9.80493C89.4101 10.6736 89.1533 15.6886 89.6866 18.5514C90.5754 23.0924 91.3062 25.0076 92.4715 25.7776C93.0838 26.1725 93.1036 26.7055 92.5505 28.4232C92.037 30.062 91.9777 32.4312 92.432 34.1489C92.8666 35.7284 94.6442 39.4797 95.8293 41.2369C96.3033 41.9477 97.2316 43.0731 97.8834 43.7246C99.0883 44.8895 99.3253 45.4818 98.8512 45.9557C98.6537 46.1531 98.5747 47.9103 98.5352 53.0634C98.4957 60.0922 98.4365 60.8029 98.0809 60.8029C97.6464 60.8029 89.1533 53.1424 88.4027 52.0762C88.0275 51.5629 88.0077 51.3852 88.1855 50.7731C88.8373 48.5618 88.6793 46.9231 87.5534 44.4946C86.6449 42.5597 85.598 41.2369 82.4576 38.0977C78.053 33.6948 77.2827 33.1617 75.1298 33.1617C74.557 33.1617 74.162 33.063 74.1225 32.9051C74.083 32.7866 73.8855 31.9969 73.7077 31.1874C73.1547 28.8379 72.2461 27.2386 69.7377 24.2771C67.7033 21.8486 64.7011 19.0845 63.279 18.2947C62.1334 17.6629 61.4026 17.8406 60.2372 18.9858L59.2102 19.9927L57.8671 19.4004C56.3462 18.7093 52.8107 17.6827 50.8553 17.347C49.374 17.1101 48.4259 17.2878 47.8334 17.9591C47.5371 18.2947 47.4976 18.5909 47.5963 19.7755C47.7741 22.1053 48.7814 24.1784 52.2972 29.4697C53.3835 31.0887 54.2526 32.5102 54.2526 32.6681C54.2526 32.9248 53.818 33.1025 51.1911 33.8528C49.69 34.2871 48.9592 34.8202 48.6037 35.6692C47.7939 37.5843 50.3023 40.6446 55.4969 44.08C56.6622 44.85 57.6103 45.541 57.6103 45.6398C57.6103 45.7187 56.7807 46.1926 55.7932 46.7059C53.2847 47.9498 51.5466 49.2134 51.2108 50.0229C51.0726 50.3783 50.8356 51.1483 50.7171 51.7208C50.5393 52.5896 50.5393 52.8462 50.7763 53.2214C51.1121 53.7149 52.87 54.4455 54.1736 54.6232C54.6871 54.6824 55.0624 54.8601 55.1414 55.0575C55.3981 55.6696 55.4772 59.6973 55.2599 60.2501C55.0821 60.7042 54.9241 60.8029 54.3513 60.8029C53.581 60.8029 52.5144 61.2768 52.1392 61.7704C51.8034 62.2245 51.8231 66.6273 52.1787 68.6412C52.3367 69.5297 52.6527 70.6551 52.8897 71.1486C53.3835 72.1951 54.6081 73.3797 55.3784 73.5574C57.0375 73.9128 56.919 73.6758 56.9783 76.4992C56.998 77.9602 56.9585 79.1054 56.84 79.2238C56.7215 79.3423 56.445 79.1843 56.0894 78.75C55.7932 78.3748 54.2526 76.7361 52.6725 75.1171C51.0923 73.4784 49.5122 71.8002 49.1567 71.3856C48.3666 70.4181 47.7939 70.0233 47.4186 70.1615C47.1618 70.2602 47.1816 70.3392 47.4778 70.813C48.8012 72.9256 50.8356 75.591 52.2774 77.0915C53.2057 78.0589 54.6871 79.7174 55.5759 80.7441C56.4647 81.7708 57.7091 83.0541 58.3411 83.6069C58.9731 84.14 60.8693 85.9959 62.5482 87.7334C64.227 89.4708 66.8737 92.156 68.4341 93.696C72.0288 97.2696 72.1473 97.9804 69.0069 96.9142C66.6367 96.1047 63.832 95.7098 60.3755 95.6901C57.4523 95.6506 57.0375 95.6901 56.524 96.0257C55.6747 96.5588 55.5562 96.855 55.4376 98.4147L55.3389 99.7968L54.6476 99.8363C52.8107 99.9745 50.7961 100.606 50.0653 101.278C48.8407 102.403 49.848 104.496 52.2182 105.72C52.6329 105.917 53.502 106.51 54.1538 107.023C56.3067 108.681 58.9929 109.866 61.5211 110.261C62.4494 110.419 62.4691 110.419 63.0222 112.374C63.437 113.795 64.7011 115.493 66.3404 116.796C68.5328 118.573 70.2907 119.264 73.5892 119.639C75.7816 119.896 78.8233 119.679 81.0157 119.106C82.3588 118.751 85.5388 117.25 86.1708 116.658C86.3881 116.46 86.7041 116.283 86.8621 116.283C87.4152 116.283 91.1679 120.547 94.8417 125.365L95.8293 126.648L95.7898 135.553C95.77 141.811 95.691 144.595 95.533 144.891C95.3355 145.286 95.1972 145.207 92.9061 143.095C86.9214 137.567 72.6411 125.858 68.1773 122.818C64.3258 120.192 59.3089 116.717 55.4574 113.993C51.8429 111.426 48.5247 108.504 46.6088 106.174C45.4829 104.792 42.9943 100.804 42.9943 100.389C42.9943 100.251 43.6461 99.4809 44.4559 98.6714C45.7792 97.3486 45.957 97.0721 46.352 95.7691C46.747 94.5252 46.7865 94.0316 46.6878 91.8401C46.589 89.1747 46.3915 88.4441 45.3249 86.4303C44.1398 84.219 42.4807 83.1528 41.2166 83.8044C40.8809 83.9821 40.3278 84.5151 39.9723 85.0087C39.6365 85.4826 39.2612 85.8775 39.1427 85.8775C39.0045 85.8775 38.2144 85.2259 37.3454 84.4362C36.496 83.6464 35.1727 82.4815 34.4024 81.8497C30.7879 78.8487 28.2992 75.9859 29.0498 75.6897C29.2275 75.6305 29.6028 75.7687 29.9188 76.0451C33.6518 79.1054 34.4814 79.6187 37.4639 80.7836C38.6885 81.2574 39.439 81.3956 41.7894 81.5536C45.1669 81.8103 45.72 81.6918 47.1618 80.3887C48.3469 79.3225 48.6827 78.3748 48.3469 76.8941C47.9124 74.9789 46.5495 73.6758 41.5722 70.5168C39.3402 69.0756 37.6811 67.6145 37.9972 67.2986C38.1749 67.1209 38.3922 67.1604 38.9255 67.4763C39.3205 67.7132 40.0908 68.0291 40.6636 68.2068C41.6117 68.4832 41.7894 68.4832 42.698 68.1871C43.8436 67.812 44.8706 66.9235 45.2854 65.9561C45.4632 65.5217 45.5619 64.574 45.5619 63.0932C45.5422 60.0922 45.0682 58.2363 43.5671 55.2155C42.3425 52.7672 41.1969 51.2667 38.3724 48.4631C35.6862 45.7977 34.4419 44.9487 33.1778 44.929C32.131 44.929 31.0249 46.2518 30.6496 47.93C30.5706 48.2854 30.3929 48.6408 30.2349 48.7C30.0768 48.7593 29.346 48.5026 28.6152 48.1077C24.5464 46.0149 19.1741 44.8698 17.2187 45.6793C16.4681 45.9952 15.9348 46.8639 15.9348 47.7523C15.9348 48.9962 17.4162 52.1749 19.3518 55.0773C20.9122 57.3873 23.3416 60.645 24.0132 61.2768C24.3489 61.6124 24.6255 61.9481 24.6255 62.0271C24.6255 62.2442 24.0132 62.4812 21.564 63.2117C18.2853 64.1989 17.6927 64.7912 18.1865 66.6668C18.6605 68.4438 19.1148 69.1348 21.5442 71.662C23.4601 73.6758 23.4996 73.7351 23.2626 74.1694C23.1638 74.3669 23.0256 74.7617 22.9466 75.0579C22.8281 75.67 22.4528 75.7489 21.3862 75.433C20.1616 75.0382 15.1843 74.5841 12.2018 74.5643C8.4688 74.5446 6.59242 74.9197 5.6641 75.8477C4.36051 77.131 5.20982 79.3225 8.11328 82.2249C9.79215 83.8833 12.5968 85.8775 13.2684 85.8775C13.7029 85.8775 13.7424 86.1144 13.5054 87.0028C13.0116 88.8982 14.1177 90.3395 17.2779 91.9783C18.858 92.7878 19.6678 93.0642 21.0307 93.2814C24.4279 93.8539 27.5487 93.5578 29.03 92.5706C29.4843 92.2547 30.0176 91.998 30.1953 91.998C30.3929 91.998 30.8274 92.4916 31.2619 93.2221C31.6767 93.9131 32.9605 95.3939 34.1061 96.5391C36.2788 98.7109 37.8391 99.7178 39.5575 99.9942C41.3154 100.29 41.2956 100.271 43.8831 104.634C44.6139 105.878 45.5817 107.339 46.0162 107.892C47.4778 109.669 50.5986 112.926 52.5737 114.703C53.1267 115.197 54.5488 116.48 55.7339 117.566C56.919 118.652 58.0843 119.698 58.2818 119.896C58.8349 120.389 58.5584 120.547 56.4252 120.923C55.3981 121.1 54.1538 121.337 53.66 121.416C53.1662 121.515 51.6256 121.969 50.2035 122.423C47.4976 123.292 46.2137 123.627 43.7448 124.082C41.4932 124.496 38.6292 125.503 37.9972 126.115C37.3256 126.747 36.8121 127.853 36.9701 128.346C37.0293 128.524 37.5231 129.096 38.0762 129.61C38.6292 130.123 39.0242 130.577 38.9847 130.617C38.9452 130.656 38.4119 130.479 37.7996 130.202C35.8838 129.353 35.0344 129.235 33.4543 129.511C30.5904 130.005 26.0871 132.038 24.3489 133.638C23.1441 134.743 22.0578 136.935 22.0578 138.277C22.0578 138.988 22.8281 139.719 23.7564 139.877C25.1192 140.094 25.1192 140.094 24.3489 141.12C22.8676 143.075 21.7615 145.03 20.9122 147.261C19.8259 150.084 19.5098 151.367 19.4901 152.927C19.4901 153.954 19.5691 154.21 20.0036 154.684C20.4974 155.217 20.5567 155.237 21.9195 155.119C24.3884 154.941 28.8128 153.204 31.2027 151.506C31.7162 151.13 32.21 150.834 32.3285 150.834C32.4273 150.834 32.6445 151.13 32.8025 151.486C33.1976 152.473 34.1851 153.204 35.0937 153.204C36.3183 153.204 37.4639 152.473 39.6958 150.281C43.1128 146.945 44.3176 144.437 45.4632 138.415C45.6212 137.507 45.957 136.52 46.1742 136.204C46.9643 135.079 49.4925 133.341 50.0258 133.539C50.2825 133.638 50.2035 133.815 49.611 134.467C48.6037 135.592 48.0506 136.875 48.2284 137.724C48.5049 139.245 51.8034 140.232 54.3513 139.561C56.4055 139.047 58.6374 137.547 60.1187 135.73C60.9878 134.644 61.6001 133.519 62.5877 131.15C63.1999 129.669 63.2395 129.511 63.2395 126.905C63.2395 125.424 63.2987 124.161 63.3777 124.082C63.6147 123.825 66.7947 126.155 71.4363 129.985C75.8211 133.618 75.8804 133.677 75.5643 134.98C75.0113 137.33 72.6411 144.674 72.3646 144.852C72.2461 144.911 71.0808 145.01 69.7772 145.03C65.9059 145.089 63.3777 146.116 60.7113 148.643C58.8546 150.42 57.472 152.434 56.6425 154.566C55.9512 156.363 55.8919 156.797 56.3462 157.231C56.7017 157.606 58.7954 157.666 60.7508 157.35C61.4421 157.231 62.0544 157.192 62.1136 157.251C62.1729 157.31 62.0741 158.001 61.8964 158.791C61.2643 161.535 61.1656 162.325 61.1656 164.951C61.1656 167.952 61.5408 170.538 62.2914 172.75C63.2592 175.573 64.0493 176.699 65.0961 176.699C66.4984 176.699 69.7377 174.487 72.2066 171.842C75.1891 168.643 76.7297 166.096 77.974 162.325C78.369 161.081 78.7838 159.995 78.8826 159.897C79.0011 159.778 79.3961 159.818 79.9096 160.015C81.0552 160.41 81.4305 160.39 81.9243 159.897C82.3193 159.502 82.3391 159.324 82.2403 157.666C81.9638 152.927 78.6258 147.952 74.2607 145.721C73.7867 145.484 73.4114 145.188 73.4114 145.049C73.4114 144.891 73.7274 143.904 74.1225 142.818C74.7348 141.14 75.2878 139.383 75.9791 136.915C76.4531 135.256 76.6112 134.842 76.7889 134.842C77.263 134.842 78.7048 136.086 84.2747 141.259C86.8621 143.667 90.3976 147.261 92.7085 149.808L95.0787 152.453L95.1972 154.349C95.3947 157.172 94.8219 191.329 94.3479 205.919C94.1307 212.237 93.8541 222.998 93.5974 233.62C93.4591 239.089 93.4394 239.543 93.0838 239.799C92.7678 240.017 90.0816 240.056 76.5914 240.017C63.7925 239.977 60.3755 240.036 60.0397 240.234C59.783 240.372 59.4472 240.747 59.2694 241.083C58.9929 241.636 58.9731 242.327 59.1707 247.657C59.5459 257.924 59.4867 257.47 60.5928 258.26C61.0668 258.595 61.6001 258.734 62.9234 258.813L64.6221 258.931L64.6616 259.622C64.7603 260.984 65.1553 263.531 65.8466 267.026C66.2219 268.981 66.6169 270.975 66.6959 271.468C67.0515 273.364 67.486 275.792 67.7823 277.391C67.96 278.319 68.1773 279.504 68.2761 280.057C68.3748 280.59 68.5921 281.794 68.7698 282.722C68.9476 283.65 69.1649 284.894 69.2636 285.486C69.5994 287.678 70.6265 293.246 71.061 295.279C71.1993 295.832 71.298 296.622 71.3178 297.056L71.3375 297.826L68.3748 297.945C66.7552 298.004 65.1356 298.122 64.7801 298.201C63.8122 298.419 63.753 298.971 64.4443 301.676C64.5825 302.269 64.9973 303.967 65.3331 305.428C66.1429 308.823 66.3602 309.08 68.4933 309.258C71.0215 309.436 130.098 309.574 132.053 309.376C133.535 309.238 133.989 309.12 134.364 308.764C134.878 308.29 135.352 306.81 135.905 304.045C136.102 303.118 136.32 302.051 136.418 301.676C136.517 301.301 136.655 300.492 136.715 299.86C136.853 298.794 136.833 298.734 136.3 298.379C135.806 298.063 135.312 298.024 132.369 298.024C129.071 298.024 129.012 298.024 128.952 297.589C128.913 297.352 129.249 295.358 129.683 293.147C130.611 288.547 130.75 287.816 131.184 285.388C131.362 284.4 131.619 282.939 131.777 282.13C131.915 281.32 132.192 279.84 132.369 278.872C132.547 277.885 132.764 276.7 132.863 276.207C132.962 275.713 133.238 274.331 133.475 273.147C133.712 271.942 134.107 269.948 134.364 268.704C134.917 266.118 135.312 264.045 135.767 261.498C136.241 258.753 136.102 258.911 138.216 258.734C141.692 258.477 141.633 258.635 141.929 249C142.146 242.129 142.146 241.379 141.85 240.945C141.672 240.668 141.317 240.372 141.08 240.273C140.823 240.175 132.448 240.036 122.474 239.938L104.322 239.78L104.283 236.621C104.243 232.554 103.611 208.762 103.019 189.532C102.406 168.939 101.932 145.049 102.11 144.299C102.189 144.042 102.782 143.154 103.434 142.344C104.105 141.535 105.191 140.153 105.843 139.284C107.443 137.231 111.551 132.315 112.183 131.722L112.677 131.249L112.973 131.722C113.132 131.959 114.02 133.499 114.949 135.138C115.877 136.757 117.102 138.889 117.674 139.877C119.353 142.759 120.815 145.444 120.815 145.642C120.815 145.76 120.301 146.155 119.689 146.55C118.208 147.458 116.608 149.077 115.798 150.439C114.356 152.907 113.309 157.981 113.704 160.726C114.06 163.253 114.415 164.063 115.166 164.063C115.64 164.063 117.26 163.529 117.576 163.253C117.694 163.174 118.089 163.056 118.464 163.036C119.116 162.977 119.136 162.996 119.491 164.063C120.104 165.958 121.565 168.742 122.573 169.946C125.693 173.697 130.315 177.093 132.31 177.093C132.804 177.093 133.811 176.165 134.266 175.297C134.483 174.862 134.898 173.658 135.174 172.592C135.688 170.795 135.707 170.42 135.707 166.432C135.727 162.661 135.668 161.97 135.253 160.213C134.542 157.192 134.364 157.468 136.971 157.468C138.947 157.448 139.243 157.409 139.5 157.073C139.934 156.461 139.835 155.514 139.164 154.27C137.445 150.953 133.93 147.656 130.631 146.214C128.459 145.267 125.219 144.852 123.303 145.306C122.454 145.484 121.802 145.286 121.802 144.832C121.802 144.694 120.953 143.154 119.906 141.436C118.859 139.699 117.556 137.547 117.003 136.619C115.482 134.052 114.08 131.821 113.645 131.347C113.052 130.696 113.349 130.044 114.949 128.445C116.726 126.688 119.61 124.338 119.906 124.437C120.025 124.476 120.183 125.207 120.242 126.076C120.44 128.781 121.565 131.308 124.153 134.783C126.148 137.488 129.683 140.054 132.29 140.725C133.377 141.002 133.594 140.982 134.7 140.686C136.241 140.252 138.611 138.514 139.46 137.172C139.796 136.678 139.776 136.619 139.263 135.592C138.966 135.02 138.512 134.21 138.255 133.795C137.722 132.946 137.801 132.552 138.453 132.907C139.598 133.519 142.739 136.086 142.818 136.481C142.877 136.718 143.035 137.764 143.154 138.791C143.786 143.884 146.097 148.485 149.928 152.335C152.299 154.704 153.76 155.77 154.787 155.908C155.656 156.027 155.538 156.126 157.493 153.816L158.066 153.164L158.856 153.519C159.271 153.737 160.456 154.467 161.483 155.158C164.189 156.994 167.152 158.357 168.692 158.475C169.798 158.574 169.956 158.534 170.549 158.041C171.102 157.587 171.181 157.389 171.181 156.599C171.181 155.099 170.47 152.651 169.482 150.637C168.633 148.919 165.571 144.26 164.604 143.193C164.248 142.799 164.248 142.739 164.544 142.621C164.722 142.562 165.255 142.562 165.749 142.621C166.855 142.799 168.021 142.483 168.613 141.871C169.601 140.804 168.574 138.475 165.986 135.928C163.103 133.104 160.574 131.782 156.565 130.992C155.637 130.794 154.846 130.617 154.807 130.577C154.767 130.538 155.024 130.182 155.36 129.787C155.893 129.195 155.972 128.978 155.874 128.445C155.795 128.109 155.459 127.556 155.143 127.201C153.029 124.99 143.391 122.324 141.653 123.469C141.001 123.884 140.941 123.864 139.144 122.561C136.497 120.607 133.91 119.639 130.098 119.126C128.735 118.948 127.55 118.731 127.451 118.632C127.195 118.395 127.649 117.922 130.295 115.69C133.021 113.4 135.549 111.485 139.282 108.879C144.833 105.009 149.356 101.455 152.753 98.2963C155.933 95.315 156.229 95.1767 161.7 93.9921C163.063 93.696 165.216 93.2024 166.539 92.8865C167.191 92.7285 168.119 92.5311 168.613 92.4324C169.186 92.3337 169.502 92.1757 169.502 91.998C169.502 91.7611 169.186 91.6821 168.119 91.6426C166.796 91.5834 165.631 91.7808 160.91 92.7878C158.579 93.3011 157.671 93.2616 157.592 92.6496C157.552 92.3337 157.809 92.0375 158.678 91.386C161.957 88.997 163.557 87.1608 164.979 84.1992C166.046 81.9287 166.381 80.5861 166.539 77.8813C166.678 75.512 166.934 74.1497 167.349 73.814C167.527 73.6561 167.981 73.6956 168.988 73.9325C171.023 74.4458 174.539 74.2682 176.375 73.5574C179.654 72.3333 182.222 70.7735 184.177 68.8584C185.402 67.654 185.994 66.6273 185.994 65.6994C185.975 64.8701 185.659 64.4555 184.612 63.9027C183.308 63.2117 183.229 62.955 184.039 61.9481C186.666 58.7101 189.155 53.557 189.155 51.3654C189.155 50.4572 188.661 49.47 188.029 49.1344C186.686 48.4236 183.486 49.1344 179.575 51.0298C178.39 51.6024 177.363 52.0565 177.304 52.017C177.225 51.9775 176.85 51.2667 176.435 50.4572C175.19 47.9103 173.887 47.3772 171.813 48.5618C169.482 49.9044 166.105 53.8334 164.742 56.7555C163.261 59.954 162.787 62.2837 162.945 65.7191C163.103 69.6086 163.735 71.0104 165.868 72.1951C166.401 72.511 166.875 72.8664 166.934 73.0243C167.092 73.4389 165.809 74.4853 164.169 75.2948C162.095 76.3215 161.108 76.6769 160.91 76.4794C160.811 76.3807 160.634 74.9987 160.515 73.4389C160.298 70.6353 159.903 68.424 159.389 67.1802C159.054 66.3509 157.947 65.5217 156.98 65.4032C156.209 65.3045 156.17 65.265 155.755 64.0212C155.222 62.3824 154.313 61.2176 153.168 60.645L152.259 60.1909L151.291 60.6647C149.711 61.4742 148.842 62.6786 147.578 65.7389C145.761 70.1812 145.405 72.0569 145.405 77.3877C145.425 82.0274 145.583 83.3305 146.511 86.2526C147.558 89.5695 149.494 92.077 151.884 93.2419C152.496 93.5578 153.01 93.8934 153.01 93.9921C153.01 94.0908 152.634 94.5449 152.18 94.9793C150.481 96.5391 148.131 98.2765 141.455 102.818C139.934 103.864 137.722 105.424 136.517 106.312C135.332 107.181 133.021 108.879 131.382 110.064C122.889 116.224 119.077 119.225 114.257 123.627C113.25 124.555 111.077 126.51 109.438 127.991C107.799 129.452 105.567 131.624 104.461 132.808C102.96 134.427 102.426 134.881 102.248 134.704C101.913 134.408 101.715 120.449 102.011 118.613C102.169 117.606 102.406 117.013 102.999 116.145C103.927 114.802 108.292 109.688 109.734 108.287C110.722 107.339 110.761 107.319 111.393 107.576C114.218 108.701 114.83 108.859 116.904 108.938C121.032 109.096 125.674 107.773 128.794 105.542C131.026 103.943 132.073 102.502 132.073 101.041C132.073 99.8165 131.757 99.3229 130.177 98.2173C129.486 97.7237 128.913 97.2498 128.913 97.1709C128.913 97.0919 129.545 96.4009 130.315 95.6506C133.456 92.5311 135.628 88.0888 135.628 84.7521C135.628 83.5674 135.53 83.0739 135.233 82.5605C134.641 81.5931 134.088 81.4154 132.488 81.6918C130.236 82.0669 127.985 83.2318 124.765 85.6603C122.889 87.0818 122.257 87.4175 122.02 87.1213C121.941 87.0423 121.625 86.2921 121.328 85.4826C121.012 84.6731 120.538 83.528 120.282 82.9751C120.005 82.4026 119.827 81.83 119.886 81.6918C119.926 81.5536 120.499 81.1587 121.131 80.8428C122.533 80.132 126.404 76.4597 127.511 74.8012C127.925 74.1694 128.557 72.8861 128.893 71.9187C129.229 70.971 129.565 70.0627 129.663 69.9245C129.742 69.7863 130.315 69.4507 130.947 69.194C134.226 67.8712 137.406 64.416 137.406 62.1653C137.406 61.257 136.833 60.5068 135.885 60.1909C134.424 59.717 128.103 60.3488 124.094 61.3953C123.224 61.6124 122.513 61.7901 122.494 61.7901C122.474 61.7901 122.296 61.3953 122.099 60.9017C121.684 59.8158 121.269 59.5591 120.123 59.717C118.227 60.0132 113.704 62.7971 110.445 65.6994C108.154 67.733 107.186 68.7991 106.377 70.1812C105.863 71.0697 105.804 71.3461 105.804 72.8861C105.804 73.8338 105.981 75.512 106.199 76.6374C106.653 79.0264 106.772 78.7302 104.342 81.2772C103.019 82.6592 102.624 82.9751 102.426 82.7777C102.071 82.4223 101.893 79.0659 101.834 71.6225L101.774 65.186L102.327 64.3766C104.777 60.8622 114.87 51.089 117.615 49.6083C118.208 49.2726 118.287 49.2726 118.899 49.5885C119.235 49.7859 119.847 49.9834 120.262 50.0624C122.652 50.477 129.644 48.0485 132.883 45.6793C134.977 44.1195 135.431 44.1195 134.345 45.6398C133.969 46.1531 133.653 46.627 133.653 46.6862C133.653 46.7257 133.396 47.2193 133.061 47.7721C132.369 48.9567 132.29 49.9636 132.804 51.4247C133.258 52.708 134.759 54.2283 136.32 54.9983C137.406 55.5116 137.722 55.5709 139.974 55.6498C144.042 55.7485 147.558 54.9785 149.395 53.5767C149.77 53.3003 150.402 52.5106 150.837 51.8393C151.331 51.0693 151.864 50.477 152.259 50.2795C152.615 50.1216 153.661 49.6083 154.59 49.1739C156.644 48.1867 158.382 46.8639 159.152 45.6398C159.863 44.5341 159.863 44.3169 159.212 43.31C158.362 41.9872 156.664 41.0987 151.627 39.3218C150.067 38.769 150.007 38.5518 151.054 37.1895C153.306 34.2082 155.123 30.6345 155.321 28.7194C155.419 27.7914 155.38 27.6335 154.827 27.0214C154.234 26.3502 154.195 26.3502 152.358 26.2909C148.961 26.1527 143.944 27.4163 140.013 29.3907C138.907 29.9435 137.86 30.3976 137.702 30.3976C137.149 30.3976 137.149 29.8053 137.682 28.2653C138.374 26.2317 138.394 24.5337 137.722 23.744C137.287 23.2504 137.11 23.1912 136.083 23.1912C135.451 23.1912 134.621 23.3294 134.246 23.4676C125.654 26.7253 120.499 30.7728 117.477 36.6564C115.541 40.4472 115.284 43.6259 116.687 46.469C117.003 47.1205 117.26 47.6734 117.26 47.6931C117.26 47.7326 116.568 48.3052 115.739 48.9765C111.492 52.3329 111.058 52.6883 106.001 57.328C104.164 59.026 103.078 59.8158 102.604 59.8158C102.229 59.8158 102.189 58.2955 102.15 47.1403V45.3041L103.295 44.7118C105.685 43.4482 107.621 41.4146 109.932 37.7423C111.769 34.8005 111.828 34.7412 112.697 34.7412C114.317 34.7412 115.66 33.1025 118.109 28.0876C119.61 25.0076 120.361 22.6186 120.123 21.6512C119.985 21.1378 119.551 20.6047 118.78 20.0717C118.464 19.8545 118.464 19.7558 118.761 18.6501C119.965 14.0498 119.906 9.29159 118.603 7.43568C117.971 6.52747 117.655 6.33003 116.845 6.31029C115.976 6.31029 114.297 7.29747 112.223 9.01518C111.413 9.70621 110.682 10.259 110.603 10.259C110.505 10.259 110.011 9.90364 109.497 9.48903C108.984 9.05466 108.253 8.60056 107.858 8.4821C107.265 8.28466 107.068 8.3044 106.337 8.67953C105.883 8.91646 105.31 9.29159 105.073 9.50877C104.382 10.1603 104.026 9.90364 103.611 8.4821C103.394 7.77132 103.098 6.70516 102.92 6.11285C102.446 4.47412 101.32 2.22334 100.51 1.35462C99.266 -0.0274437 98.1599 -0.343343 96.9749 0.367431ZM70.35 40.5064C70.745 40.8618 72.2461 42.4808 73.6879 44.1195C77.5 48.4236 81.1342 51.7998 82.9514 52.7475C83.5834 53.0831 84.1167 53.1819 85.2623 53.1819L86.7239 53.1621L90.6939 57.2293C96.2441 62.8958 97.2711 64.0409 97.4291 64.6727C97.7254 65.7981 97.1329 86.3711 96.7181 89.53C96.4416 91.6821 96.3626 91.998 96.0663 91.998C95.928 91.998 94.98 91.1688 93.9331 90.1618C91.8987 88.1875 89.4496 85.8775 87.4349 84.0018C86.7239 83.3503 84.966 81.7115 83.5044 80.3492C82.0625 78.9869 80.7194 77.7825 80.5417 77.6838C80.0084 77.3679 77.1247 75.1566 76.4334 74.5446C75.7026 73.9128 75.6433 73.6758 76.0779 73.4981C76.2754 73.4389 76.8087 73.7943 77.6185 74.5643C79.7121 76.5387 81.628 77.7825 82.6156 77.7825C83.2871 77.7825 84.8672 76.6177 85.4993 75.6502C86.6844 73.8733 87.2769 71.8397 87.2967 69.4902C87.2967 68.0291 87.2177 67.654 86.7634 66.7261C85.2425 63.6855 80.996 59.2037 74.9915 54.3073C72.2856 52.096 71.1203 52.5303 70.7647 55.9065C70.6857 56.6173 70.508 57.3675 70.3697 57.565C70.1129 57.9006 70.0734 57.9006 69.5994 57.5847C68.5723 56.9134 64.5628 51.6024 64.8591 51.3062C64.9578 51.2272 66.2812 51.1285 67.8415 51.089C70.6462 51.0101 70.666 50.9903 71.2388 50.4177C72.7004 48.9567 72.5029 46.5085 70.6857 43.9221C70.0734 43.0533 69.3821 42.0859 69.1254 41.7897C68.5921 41.1382 68.5526 40.6249 68.9871 40.1905C69.4216 39.7561 69.5402 39.7956 70.35 40.5064ZM75.1298 75.6502C75.5446 75.9859 78.5073 78.8882 81.707 82.0867C89.8446 90.2408 94.1109 94.9596 95.5528 97.4275L96.1255 98.4147L96.1058 103.844C96.0663 111.643 95.8688 117.329 95.6318 117.408C95.5132 117.448 94.6047 116.658 93.5776 115.671C92.1753 114.308 91.4642 113.459 90.7137 112.117C90.1606 111.149 89.2916 109.807 88.8175 109.136C87.7312 107.655 78.5468 98.4542 74.5965 94.8806C71.0413 91.6821 66.1034 86.7462 66.1034 86.4105C66.1034 86.2526 66.5972 85.7985 67.1897 85.3839C69.5994 83.7254 71.4758 81.1785 72.7399 77.7825C73.7867 74.9987 73.767 75.0184 74.083 75.0184C74.2607 75.0184 74.715 75.2948 75.1298 75.6502ZM110.031 82.1656C110.426 82.9949 111.018 83.8241 111.867 84.6336C112.539 85.3246 113.112 86.0157 113.112 86.1934C113.112 86.3711 112.262 87.4964 111.216 88.7008C108.332 92.0572 106.851 94.466 106.1 97.0129C105.705 98.3357 105.725 100.764 106.14 101.988C106.495 103.054 107.305 104.575 107.72 104.989C107.858 105.128 107.976 105.365 107.976 105.483C107.976 105.621 106.673 107.003 105.093 108.563C102.9 110.715 102.169 111.347 101.992 111.169C101.814 110.991 101.755 108.148 101.755 100.231V89.53L102.426 88.5626C102.802 88.0295 103.513 87.1213 104.006 86.5685C107.72 82.3828 109.063 80.9415 109.26 80.9415C109.379 80.9415 109.734 81.4944 110.031 82.1656ZM143.865 128.168C145.721 130.636 147.736 132.275 148.862 132.275C149.415 132.275 149.573 132.808 149.158 133.262C148.447 134.052 147.914 133.795 145.484 131.426C143.252 129.274 142.186 127.833 142.423 127.221C142.62 126.727 142.917 126.925 143.865 128.168ZM44.1003 128.642C43.1128 130.123 41.2561 131.683 40.4661 131.683C40.2686 131.683 39.8933 131.466 39.6563 131.209L39.202 130.735H40.1106C41.0784 130.755 41.5327 130.498 43.2905 128.84C44.3374 127.872 44.6336 127.793 44.1003 128.642ZM126.76 260.155C127.056 260.451 126.444 262.801 124.943 267.223C122.77 273.64 121.052 277.194 117.635 282.248C114.554 286.829 108.628 292.91 103.631 296.622L101.755 298.024L88.9163 297.964C79.4356 297.905 76.0186 297.826 75.8408 297.668C75.7223 297.53 75.5248 296.8 75.4063 296.049C75.2681 295.279 75.0508 293.818 74.873 292.792C74.715 291.765 74.4978 290.422 74.399 289.83C74.3002 289.238 74.083 287.994 73.9052 287.066C73.7274 286.138 73.5102 284.894 73.4114 284.302C73.2337 283.275 72.6609 279.958 71.9301 275.911C71.7523 274.924 71.535 273.64 71.4363 273.048C71.3375 272.456 71.1598 271.567 71.061 271.073C70.9623 270.58 70.7252 269.376 70.5475 268.408C70.3697 267.421 70.0537 265.782 69.8364 264.756C69.2439 261.972 69.0266 260.432 69.1451 260.096C69.2439 259.859 72.9374 259.82 97.8834 259.859C120.203 259.899 126.582 259.978 126.76 260.155Z" fill="url(#paint0_linear_572_1506)"/>
<path d="M74.1029 8.32416C73.2141 9.01519 73.0166 9.7852 73.0166 12.4309C73.0166 18.9068 75.3868 27.3374 78.31 31.2269C79.5346 32.8459 81.9442 35.0374 83.1886 35.6495C84.1169 36.1036 84.4527 36.1628 85.7168 36.1036C87.7512 35.9851 88.9362 35.373 89.6078 34.0502C90.0621 33.1618 90.1016 32.8459 90.1016 30.5951C90.1016 27.831 89.8053 26.4291 88.4425 22.816C86.2303 16.9127 83.3861 12.9244 79.179 9.76545C76.7101 7.90954 75.1695 7.47518 74.1029 8.32416Z" fill="url(#paint1_linear_572_1506)"/>
<path d="M182.44 74.1497C181.117 74.4063 179.26 74.8999 178.154 75.3145C176.515 75.9463 172.387 78.0787 171.774 78.6315C170.174 80.053 169.602 81.7905 169.602 85.2259C169.602 87.5754 169.602 87.5754 170.313 88.7403C171.142 90.1223 172.525 91.8598 173.295 92.4521C174.085 93.0839 176.357 93.1431 179.537 92.5903C183.27 91.9585 185.284 91.1687 187.062 89.609C188.148 88.6613 188.543 87.6346 188.188 86.6474C188.069 86.3118 187.97 85.9367 187.97 85.8577C187.97 85.7787 188.82 85.3049 189.867 84.8113C193.521 83.0738 196.602 80.2702 196.957 78.3353C197.293 76.5781 195.654 75.354 191.822 74.5051C190.479 74.1892 183.566 73.9522 182.44 74.1497Z" fill="url(#paint2_linear_572_1506)"/>
<path d="M12.1826 93.5973C8.42984 94.2291 3.53149 96.5786 1.20082 98.9084C0.193501 99.8956 -0.221279 101.1 0.114495 102.107C0.628031 103.667 2.9587 104.989 6.84972 105.917C8.09406 106.214 9.23964 106.49 9.3779 106.529C9.57542 106.589 9.61492 106.826 9.51616 107.398C9.39765 108.148 9.43716 108.247 10.0692 108.859C11.0765 109.807 12.5776 110.162 15.4613 110.162C19.8461 110.162 23.3816 108.879 26.1666 106.293C28.2602 104.358 29.1491 102.166 28.9318 99.4415C28.8133 98.0002 28.4183 97.1314 27.4109 96.085C26.3246 94.9399 25.5543 94.6635 22.0583 94.1699C21.3473 94.0712 19.9252 93.854 18.8981 93.696C16.8439 93.3604 13.901 93.3209 12.1826 93.5973Z" fill="url(#paint3_linear_572_1506)"/>
<path d="M172.268 95.7296L170.886 95.8481L170.194 97.2302C169.523 98.5727 169.523 98.6715 169.503 101.08C169.503 103.627 169.562 103.884 170.55 105.996C171.202 107.378 173.177 109.353 175.428 110.873C177.581 112.334 178.707 112.907 180.741 113.598C183.447 114.506 185.344 114.19 186.094 112.729L186.41 112.137H189.965C192.632 112.137 193.817 112.058 194.607 111.821C196.898 111.169 197.471 109.609 196.227 107.438C195.437 106.036 192.355 102.936 189.965 101.1C187.556 99.244 182.934 96.9735 180.169 96.2627C178.016 95.7099 174.777 95.4927 172.268 95.7296Z" fill="url(#paint4_linear_572_1506)"/>
<path d="M154.333 103.588C154.254 103.647 154.195 103.884 154.195 104.081C154.195 104.298 153.82 105.542 153.385 106.865C152.595 109.155 152.556 109.392 152.556 111.643C152.556 116.401 154.057 119.817 157.849 123.766C160.041 126.036 160.792 126.55 161.997 126.55C162.965 126.55 163.518 126.352 164.209 125.72L164.624 125.325L166.224 126.589C168.831 128.662 173.156 130.696 174.934 130.696C176.02 130.696 176.83 129.728 177.008 128.248C177.324 125.819 176.435 121.396 174.598 116.085C173.867 113.973 172.781 112.393 170.865 110.577C167.507 107.398 162.984 105.009 157.987 103.765C156.723 103.449 154.57 103.331 154.333 103.588Z" fill="url(#paint5_linear_572_1506)"/>
<path d="M33.2185 107.892C27.4511 109.076 23.2046 112.393 19.1555 118.869C16.6471 122.877 15.8768 126.115 17.1606 127.28C18.1482 128.168 23.7181 127.3 26.7993 125.799C27.6091 125.385 28.3399 125.049 28.3992 125.009C28.4782 124.97 28.814 125.464 29.1695 126.076C30.4533 128.366 31.1841 128.603 33.4555 127.458C34.2061 127.102 35.0357 126.747 35.3319 126.668C35.6677 126.589 36.7935 125.602 38.2551 124.121C41.8104 120.547 42.5609 119.481 43.4695 116.757C44.0818 114.96 44.2003 112.61 43.7855 110.518C43.5485 109.392 43.4498 109.234 42.719 108.741C41.4944 107.951 39.5982 107.596 36.8133 107.615C35.4899 107.635 33.8703 107.753 33.2185 107.892Z" fill="url(#paint6_linear_572_1506)"/>
<defs>
<linearGradient id="paint0_linear_572_1506" x1="104.476" y1="-5.80256" x2="99.6711" y2="252.977" gradientUnits="userSpaceOnUse">
<stop stop-color="#F09F65"/>
<stop offset="1" stop-color="#20083D"/>
</linearGradient>
<linearGradient id="paint1_linear_572_1506" x1="82.2425" y1="7.37879" x2="81.8122" y2="30.9722" gradientUnits="userSpaceOnUse">
<stop stop-color="#F09F65"/>
<stop offset="1" stop-color="#20083D"/>
</linearGradient>
<linearGradient id="paint2_linear_572_1506" x1="184.397" y1="73.7233" x2="184.276" y2="89.5244" gradientUnits="userSpaceOnUse">
<stop stop-color="#F09F65"/>
<stop offset="1" stop-color="#20083D"/>
</linearGradient>
<linearGradient id="paint3_linear_572_1506" x1="15.6405" y1="93.1002" x2="15.551" y2="107.109" gradientUnits="userSpaceOnUse">
<stop stop-color="#F09F65"/>
<stop offset="1" stop-color="#20083D"/>
</linearGradient>
<linearGradient id="paint4_linear_572_1506" x1="184.281" y1="95.2884" x2="184.166" y2="110.739" gradientUnits="userSpaceOnUse">
<stop stop-color="#F09F65"/>
<stop offset="1" stop-color="#20083D"/>
</linearGradient>
<linearGradient id="paint5_linear_572_1506" x1="165.794" y1="102.937" x2="165.514" y2="125.726" gradientUnits="userSpaceOnUse">
<stop stop-color="#F09F65"/>
<stop offset="1" stop-color="#20083D"/>
</linearGradient>
<linearGradient id="paint6_linear_572_1506" x1="31.3887" y1="107.23" x2="31.2472" y2="124.388" gradientUnits="userSpaceOnUse">
<stop stop-color="#F09F65"/>
<stop offset="1" stop-color="#20083D"/>
</linearGradient>
</defs>
</svg>
