<svg width="171" height="224" viewBox="0 0 171 224" fill="none" xmlns="http://www.w3.org/2000/svg">
<path d="M86.4124 0.308994C85.8095 0.785222 84.7306 2.49965 83.6358 4.6903C81.7478 8.46838 81.0497 10.5479 80.2405 14.834C79.9549 16.3579 79.9549 23.4855 80.2405 24.9935C80.3675 25.5967 80.5896 26.8191 80.7641 27.6921C80.9228 28.5652 81.1766 29.6764 81.3194 30.1526C81.4463 30.6289 81.6209 31.2321 81.7002 31.502C82.0175 32.5973 82.3666 33.5656 83.5089 36.5817C85.3652 41.4075 85.4128 41.5028 86.3172 41.8837L87.0946 42.2012V43.8839C87.0946 45.5348 86.8566 46.5032 86.46 46.5032C86.2379 46.5032 85.746 45.6618 85.3335 44.5982C84.3181 41.979 83.9373 41.1218 82.7315 38.7724C79.7645 33.0418 75.0206 26.2158 72.0854 23.4855C68.4203 20.0725 63.2639 16.6595 59.1705 14.9292C58.6945 14.7228 57.9488 14.3895 57.5045 14.199C54.2361 12.6909 50.1586 11.5321 49.0955 11.802C48.5085 11.9448 48.572 12.6274 49.3018 13.691C50.4442 15.3896 53.9029 19.7074 55.6641 21.6599C59.0277 25.3904 64.1365 30.4225 67.6588 33.5021C67.992 33.8037 68.6107 34.3276 69.0074 34.6927C72.0219 37.3754 76.7659 41.217 79.4472 43.1537C80.3833 43.8204 81.5574 44.6776 82.0651 45.0427C83.382 46.0269 85.6508 47.9953 85.9523 48.4398C86.1903 48.7573 86.222 49.5034 86.2696 54.599C86.3172 60.7106 86.222 62.2981 85.8254 62.2981C85.6984 62.2981 85.2542 61.8377 84.8417 61.2821C83.6517 59.6947 82.6363 58.5676 81.9699 58.0755C81.4463 57.6945 81.2559 57.6469 80.6054 57.7263C79.8756 57.8057 79.1616 57.5993 79.1616 57.3136C79.1616 57.2342 79.3996 57.0278 79.7011 56.8532C80.5102 56.377 80.8276 55.6626 80.6054 54.8848C80.1453 53.3926 77.9558 50.313 74.8143 46.7413C72.5455 44.1696 72.2282 43.8522 70.5147 42.1377C66.9765 38.6136 63.0894 35.6452 59.4085 33.645C58.7103 33.264 57.8219 32.7878 57.4252 32.5655C57.0444 32.3592 56.3939 32.0576 55.9973 31.8988C55.6006 31.7401 54.8866 31.4385 54.4107 31.2162C48.921 28.7557 41.1149 27.1365 34.3084 27.073C31.9603 27.0572 31.5319 27.0889 31.3098 27.3112C30.8814 27.7398 31.167 28.1684 33.2137 30.2161C37.561 34.5974 43.3203 38.7565 51.4279 43.3759C53.5698 44.5982 57.7267 46.9635 58.6152 47.4556C58.9642 47.6461 59.9003 48.1858 60.6777 48.6462C61.471 49.1065 62.6134 49.7415 63.2163 50.0749C63.8351 50.3924 64.9298 50.9956 65.6755 51.3924C66.4212 51.7893 67.2939 52.2814 67.6112 52.4878C67.9444 52.6941 68.2458 52.8529 68.2776 52.8529C68.3093 52.8529 68.8487 53.1386 69.4675 53.4878C70.0704 53.8371 70.8478 54.2657 71.181 54.4562C74.3066 56.2341 76.5437 57.1866 78.0351 57.3929C78.4794 57.4564 78.8443 57.5517 78.8443 57.631C78.8443 57.6945 79.0982 58.0279 79.4155 58.3613C80.6848 59.6947 82.7156 62.6791 84.1436 65.3142C84.4767 65.9174 84.9845 66.854 85.27 67.3778C85.6032 67.9969 85.8254 68.6637 85.8888 69.2669C86.0633 70.9178 85.7936 100.174 85.6032 100.111C85.508 100.079 85.1431 99.4915 84.8099 98.7931C84.4609 98.1105 83.7469 96.65 83.2075 95.5547C82.668 94.4594 81.4463 92.3005 80.4944 90.7607L78.765 87.9509L77.2577 88.0144C76.4327 88.0462 75.7346 88.0779 75.7187 88.0938C75.7028 88.0938 76.2264 88.9034 76.8928 89.8717C77.6226 90.967 78.9395 93.4117 80.2881 96.1421C81.4939 98.6184 82.4935 100.666 82.4935 100.698C82.4935 100.746 82.7156 101.254 82.9853 101.857C83.6041 103.238 83.6358 103.317 84.2388 104.841C84.5243 105.54 84.921 106.429 85.1431 106.81C85.7302 107.81 85.8095 109.365 85.8254 119.239C85.8254 128.811 85.8412 128.7 84.7782 126.621C83.9056 124.875 83.3185 123.874 82.3348 122.303C81.3353 120.715 77.2577 114.81 76.5913 113.953L76.163 113.413L74.7826 113.89C72.8311 114.556 72.7835 114.62 73.3864 115.271C74.4812 116.445 78.765 122.62 80.7165 125.843C81.4146 127.002 84.2388 132.558 84.2388 132.764C84.2388 132.812 84.5085 133.288 84.8417 133.843L85.4287 134.844L85.4763 139.272C85.508 141.844 85.4604 143.765 85.3811 143.844C85.2859 143.94 85.0003 143.892 84.6195 143.733C83.6041 143.289 82.1603 143.003 80.9545 142.987C79.3679 142.971 78.6381 143.384 75.7346 145.908C71.4825 149.607 71.1017 150.099 70.7368 152.305L70.5305 153.48L69.769 153.575C69.3406 153.639 66.2943 153.655 62.9783 153.623L56.9492 153.575L56.5208 154.02C56.1083 154.417 56.0766 154.559 56.0925 155.607C56.0925 156.972 56.378 157.56 57.2348 158.02C57.9488 158.401 57.8695 158.084 59.0277 165.005C59.0911 165.433 59.2657 166.402 59.3926 167.148C59.5195 167.894 59.821 169.561 60.0431 170.878C60.2652 172.18 60.5825 173.942 60.7571 174.767C60.9157 175.593 61.233 177.276 61.471 178.498C61.709 179.72 62.0581 181.577 62.2643 182.625C62.4706 183.673 62.7562 185.165 62.899 185.959C63.0418 186.737 63.4384 188.816 63.7875 190.562C64.4221 193.801 64.549 194.467 64.9616 196.833C65.8818 202.166 65.9294 202.468 66.2308 204.373C66.3736 205.246 66.5482 206.421 66.6434 206.992C66.802 207.992 66.9924 209.024 67.5001 211.643C67.6429 212.326 67.7064 212.945 67.6588 213.04C67.5953 213.12 65.0726 213.183 61.3917 213.183C58.0122 213.183 55.1088 213.231 54.9818 213.278C54.4107 213.501 54.4107 213.882 54.9818 216.612C55.2833 218.088 55.6006 219.692 55.6958 220.168C56.1083 222.517 56.2353 222.914 56.6319 223.2C57.0127 223.47 58.4406 223.486 87.4754 223.517L117.922 223.565L118.271 223.152C118.605 222.755 118.731 222.232 119.556 217.707C119.683 217.009 119.906 215.914 120.048 215.263C120.508 213.167 120.588 213.183 113.702 213.183C108.99 213.183 108.181 213.151 108.101 212.945C108.022 212.755 108.498 209.199 108.768 207.945C108.815 207.722 108.926 207.183 108.99 206.754C109.069 206.31 109.244 205.31 109.386 204.532C109.529 203.738 109.704 202.738 109.783 202.309C109.942 201.357 110.307 199.325 110.656 197.468C111.243 194.309 111.719 191.61 111.861 190.642C111.941 190.07 112.052 189.515 112.084 189.388C112.131 189.261 112.242 188.737 112.322 188.197C112.401 187.657 112.575 186.578 112.718 185.8C112.861 185.006 113.036 183.974 113.115 183.498C113.194 183.022 113.369 181.974 113.512 181.196C113.654 180.403 113.829 179.403 113.908 178.974C114.083 177.926 114.479 175.799 114.781 174.132C114.924 173.386 115.098 172.418 115.177 171.989C115.447 170.402 115.812 168.418 116.463 165.005C116.812 163.084 117.177 161.052 117.24 160.481C117.399 159.322 117.684 158.417 117.875 158.417C117.954 158.417 118.224 158.242 118.478 158.02C119.16 157.449 119.62 156.369 119.62 155.337C119.62 154.575 119.556 154.432 119.16 154.083L118.7 153.702L113.305 153.575C110.338 153.512 107.673 153.416 107.371 153.353C106.927 153.258 106.753 153.083 106.181 152.051C105.547 150.908 105.007 150.321 103.135 148.734C101.374 147.241 99.1687 146.194 97.7883 146.194C97.1537 146.194 96.2969 146.527 95.7099 146.987C95.0276 147.527 93.7425 147.352 92.0924 146.511L91.2991 146.114V140.32V134.526L92.6795 131.827C93.441 130.335 94.4089 128.414 94.8372 127.526C95.6464 125.875 96.1065 125.017 97.4234 122.731C97.8518 121.985 98.2008 121.335 98.2008 121.271C98.2008 121.192 98.4071 120.922 98.661 120.652C99.01 120.287 99.2639 120.16 99.6923 120.16C99.9937 120.16 101.311 119.811 102.596 119.382C107.371 117.826 107.276 117.842 110.418 117.128C114.051 116.287 120.635 116.302 124.618 117.16C128.283 117.937 130.298 118.652 133.677 120.319C138.612 122.763 142.8 125.827 147.83 130.653C149.607 132.367 150.019 132.542 150.495 131.827C150.749 131.446 150.733 131.367 150.321 130.192C149.02 126.494 145.037 120.811 140.642 116.414C131.773 107.524 121.556 104.492 111.846 107.889C110.798 108.254 107.879 109.651 107.022 110.207C106.848 110.302 106.419 110.572 106.055 110.794C103.389 112.429 100.2 115.366 98.8196 117.445C98.3436 118.144 97.8677 118.731 97.7566 118.731C97.6138 118.731 97.5662 118.89 97.5979 119.16C97.6455 119.636 97.4551 119.684 96.6618 119.446C96.3921 119.366 96.2652 119.398 96.2017 119.604C96.1383 119.747 95.7257 120.239 95.2815 120.684C94.8372 121.144 93.8694 122.462 93.1396 123.62C91.6482 125.954 91.4578 126.176 91.1722 125.89C90.9025 125.621 90.7914 91.9036 91.0611 90.6813C91.1563 90.2209 91.4261 89.5066 91.6482 89.0939C91.8703 88.6653 92.9016 86.681 93.917 84.6808C94.9324 82.6648 95.9479 80.744 96.1383 80.3948C97.0585 78.8073 98.2008 76.4738 98.2008 76.1881C98.2008 75.9658 98.0898 75.8706 97.8201 75.8706C97.6138 75.8706 97.3599 75.7595 97.2489 75.6325C96.9792 75.2991 96.4556 75.3944 96.2335 75.7753C96.1383 75.95 95.6147 76.7119 95.0752 77.4739C93.6473 79.4899 92.5049 81.3472 91.902 82.6648C91.5847 83.3315 91.2833 83.8077 91.1722 83.7601C90.9183 83.6807 90.8073 68.6002 91.0611 67.7271C91.1563 67.4096 91.9655 65.9333 92.854 64.4729C93.7584 63.0124 94.5834 61.6155 94.7103 61.3615C94.8372 61.1075 95.3132 60.5202 95.7416 60.0757C96.4238 59.3613 96.7253 59.1867 97.8518 58.8057C99.3591 58.3136 106.166 54.9642 107.8 53.9006C107.974 53.7895 108.545 53.4561 109.069 53.1704C112.242 51.4083 119.921 46.8524 121.365 45.8682C121.841 45.5348 123.809 44.249 125.728 43.0108C130.504 39.9312 133.947 37.4231 137.549 34.4705C139.341 32.9941 142.895 29.3589 143.34 28.5335C143.8 27.708 143.768 27.5175 143.133 27.2794C142.435 27.0095 138.009 27.1048 135.407 27.454C131.456 27.962 130.425 28.1525 126.522 29.1843C123.793 29.9145 118.954 31.8353 115.463 33.5974C111.973 35.3594 108.133 38.1215 105.88 40.4868C102.358 44.2173 97.1061 51.9322 94.7738 56.8214C94.2343 57.9326 93.7901 58.5994 93.0444 59.3613C92.5049 59.9328 91.8227 60.7741 91.5371 61.2345C91.1246 61.9171 90.9818 62.0441 90.8073 61.8853C90.6169 61.7266 90.5852 60.6313 90.6169 54.9959L90.6645 48.297L91.2833 47.535C91.6323 47.1223 92.5208 46.3127 93.2665 45.7253C96.884 42.8997 98.7086 41.3123 102.485 37.6929C110.513 29.9939 117.177 22.4536 120.81 16.977C122.476 14.4847 123.428 12.7386 123.428 12.183C123.428 11.6274 122.936 11.3575 122.174 11.4845C121.254 11.6274 118.002 12.7227 116.685 13.3259C112.671 15.1515 111.052 16.0722 108.117 18.2311C104.103 21.1837 100.835 24.7236 98.3119 28.8351C97.8201 29.6447 97.4075 30.3273 97.4075 30.359C97.4075 30.3908 97.0426 31.0575 96.5825 31.8353C95.8368 33.137 93.7584 37.185 93.7584 37.3596C93.7584 37.4072 93.5362 37.9152 93.2665 38.5184C92.4097 40.4074 92.2194 40.8519 91.8386 41.7409C91.0294 43.6458 89.7919 46.0269 89.6015 46.0269C89.4904 46.0269 89.2048 45.8682 88.9668 45.6618C88.586 45.3602 88.5226 45.1538 88.4274 44.0903C88.2846 42.487 88.3956 42.1219 89.0779 41.8361C89.3952 41.6933 89.776 41.344 90.0298 40.9472C90.4424 40.2963 91.5371 38.0263 91.5371 37.8358C91.5371 37.7882 91.6323 37.5183 91.7592 37.2485C92.5684 35.4229 94.1074 30.7717 94.6151 28.5652C95.7257 23.7871 95.5671 17.5485 94.2185 12.6116C93.3934 9.5637 91.3309 5.08715 89.4111 2.18216C87.999 0.0391308 87.3009 -0.389475 86.4124 0.308994ZM95.1546 59.0915C95.2022 59.282 95.0911 59.3613 94.8055 59.3613C94.2978 59.3613 94.1391 59.1073 94.5041 58.901C94.869 58.6946 95.0911 58.7581 95.1546 59.0915ZM113.892 158.163C114.083 158.369 114.003 159.052 113.289 163.211C112.845 165.862 112.369 168.592 112.242 169.291C112.099 169.989 111.639 172.672 111.195 175.244C110.053 181.99 109.672 184.197 109.386 185.721C109.244 186.467 109.069 187.419 108.99 187.864C108.815 188.784 108.45 190.8 108.101 192.626C107.974 193.324 107.8 194.245 107.72 194.69C107.641 195.118 107.467 196.087 107.324 196.833C107.022 198.499 106.626 200.627 106.451 201.674C106.372 202.103 106.197 203.103 106.055 203.897C105.69 205.913 105.515 206.929 105.325 208.024C105.245 208.548 105.071 209.469 104.944 210.088C104.436 212.501 104.246 212.866 103.389 212.866C99.4384 212.929 72.9898 212.834 72.371 212.755C71.657 212.675 71.4984 212.596 71.3714 212.262C70.9589 211.167 70.1815 207.691 69.5786 204.135C69.1185 201.531 68.8329 199.992 68.4521 198.023C68.2458 196.976 67.8968 195.118 67.6588 193.896C67.4367 192.674 67.0717 190.705 66.8496 189.53C66.453 187.483 66.1832 185.959 65.8183 183.895C65.7231 183.371 65.5486 182.435 65.4375 181.831C65.3265 181.212 65.1044 180.069 64.9774 179.292C64.7077 177.831 64.5966 177.196 64.1841 175.085C63.6605 172.37 63.248 170.196 63.1211 169.37C62.9783 168.418 62.661 166.576 62.2643 164.37C61.4869 160.115 61.2489 158.353 61.4076 158.163C61.5028 158.052 61.7249 157.925 61.9153 157.893C62.1057 157.861 73.8307 157.861 87.9673 157.893C109.942 157.941 113.702 157.972 113.892 158.163Z" fill="url(#paint0_linear_572_1564)"/>
<path d="M37.6884 46.9159C37.5456 47.0429 37.4346 47.2651 37.4346 47.3762C37.4346 47.8842 38.7514 48.7097 41.4011 49.8526C46.0498 51.8528 53.9352 56.4405 58.2984 59.6947C63.8039 63.7903 68.6271 68.2986 73.3711 73.7276C73.9898 74.426 74.5134 75.0293 74.561 75.0769C74.7831 75.2991 76.9727 78.1406 77.6073 79.0454C78.829 80.7916 80.479 84.1252 81.0185 85.9031C81.2565 86.7286 81.431 86.8397 81.7007 86.3635C82.0815 85.6491 81.7959 84.157 80.606 80.5376C79.8444 78.2041 79.6381 77.7279 77.9563 74.3625C75.4971 69.4891 72.7999 65.7745 68.5161 61.4091C65.9141 58.7581 64.026 57.1866 61.2336 55.3134C57.9652 53.1386 54.6016 51.2813 51.0793 49.7098C49.7307 49.1065 46.0498 47.9318 43.7016 47.3604C40.8299 46.646 38.1485 46.4555 37.6884 46.9159Z" fill="url(#paint1_linear_572_1564)"/>
<path d="M128.346 53.5831C123.19 53.9641 117.065 55.9325 112.75 58.5835C110.116 60.2185 106.07 63.5204 103.833 65.8856C100.914 68.9653 97.3914 73.5371 97.4073 74.2355C97.4231 74.3943 97.6929 74.8229 98.0261 75.2039L98.6448 75.8706L99.8824 75.696C101.263 75.5213 106.276 74.4101 109.227 73.6482C112.321 72.8386 114.543 72.283 115.891 71.9972C116.589 71.8385 117.383 71.648 117.636 71.5845C119.001 71.2035 126.331 69.9018 129.219 69.5367C136.533 68.5843 141.388 68.235 147.829 68.1398C152.224 68.0763 153.732 68.108 155.572 68.3303C159.475 68.7748 160.76 69.1081 166.98 71.3305C169.598 72.2671 170.835 72.0766 170.661 70.7591C170.565 70.0288 169.947 69.2192 168.439 67.8858C164.774 64.6475 159.602 61.2504 154.588 58.7898C153.43 58.2342 152.462 57.7739 152.415 57.7739C152.367 57.7739 151.875 57.5675 151.32 57.3135C147.655 55.6467 143.704 54.5514 138.976 53.8847C137.199 53.6307 130.313 53.4402 128.346 53.5831Z" fill="url(#paint2_linear_572_1564)"/>
<path d="M31.7225 61.0598C23.0597 61.6948 13.7463 65.6157 4.82962 72.3623C2.24346 74.3148 0.577531 75.8229 0.212613 76.5372C-0.0571088 77.0611 -0.0729748 77.9659 0.180881 78.2199C0.640995 78.6803 2.0848 78.4422 5.62292 77.2992C11.8741 75.2673 13.6194 75.0133 20.0927 75.1244C24.2655 75.1879 25.5189 75.2832 28.5493 75.7118C32.3571 76.2515 38.4814 77.2198 39.6555 77.458C40.0522 77.5373 41.02 77.7119 41.7974 77.8548C46.1764 78.6485 51.0949 79.6962 54.1729 80.4899C61.7569 82.4266 68.3095 84.522 72.1808 86.2523C73.101 86.665 74.2275 87.1095 74.6876 87.2365C76.2584 87.6651 77.9402 87.4588 78.5113 86.7762C78.7017 86.538 78.6541 86.3952 78.194 85.6173C77.3849 84.2839 73.0376 79.1406 71.3558 77.5373C69.3884 75.6642 65.2474 72.0448 63.5973 70.759C61.0905 68.8065 57.0605 66.219 55.2042 65.3617C52.9512 64.314 52.3007 64.0442 51.3963 63.6949C49.7304 63.06 48.0804 62.552 46.6365 62.2028C45.8908 62.0281 45.0023 61.8218 44.6533 61.7265C43.86 61.536 42.2258 61.2979 40.3695 61.1074C39.0526 60.9646 33.3567 60.9328 31.7225 61.0598Z" fill="url(#paint3_linear_572_1564)"/>
<path d="M132.551 72.2194C128.807 72.4734 124.19 73.283 120.651 74.3148C119.684 74.5847 118.494 75.0451 116.844 75.7912C116.59 75.9023 116.05 76.1245 115.654 76.2833C115.257 76.4261 114.765 76.6801 114.543 76.823C114.321 76.9658 114.019 77.1405 113.877 77.1881C113.718 77.2516 113.194 77.5373 112.718 77.8548C112.227 78.1564 111.814 78.4104 111.782 78.4104C111.624 78.4104 108.942 80.3312 107.641 81.363C105.61 82.9822 101.66 87.0936 100.327 88.9668C97.2173 93.3799 95.1865 97.3643 94.3456 100.714C93.8061 102.825 93.5047 104.92 93.6633 105.333C93.7585 105.571 93.8061 105.571 94.1552 105.238C94.3773 105.032 94.5518 104.809 94.5518 104.73C94.5518 104.524 97.5822 100.015 98.8357 98.3485C100.375 96.3007 101.469 95.1102 105.008 91.5861C111.021 85.6015 115.495 82.5377 122.317 79.7121C125.443 78.4263 129.87 77.0135 132.948 76.3468C134.994 75.9023 136.93 75.5213 138.501 75.2514C142.023 74.6323 142.356 74.5212 142.277 73.8545C142.213 73.2671 141.563 72.8544 140.182 72.5369C138.755 72.1877 135.105 72.0448 132.551 72.2194Z" fill="url(#paint4_linear_572_1564)"/>
<path d="M129.107 84.0458C126.077 84.4268 123.935 85.0142 120.746 86.3635C114.558 88.9827 108.228 94.3641 103.325 101.19C102.056 102.968 100.977 104.825 98.8668 108.889C98.2956 109.984 97.6768 111.127 97.4706 111.445C96.8359 112.477 95.408 115.461 95.2017 116.207C95.0907 116.604 95.0272 117.144 95.0589 117.398C95.0907 117.779 95.1859 117.858 95.5984 117.906C96.0109 117.953 96.1854 117.842 96.6297 117.334C96.9311 116.985 97.4547 116.144 97.7879 115.461C98.1211 114.763 98.6447 113.715 98.9461 113.112C100.469 110.048 103.119 107.492 108.989 103.46C112.147 101.269 116.922 98.8724 120.921 97.4437C124.681 96.1103 126.41 95.6023 128.742 95.1737C129.536 95.0308 130.519 94.8404 130.932 94.761C131.345 94.6657 133.185 94.5229 135.01 94.4117C137.627 94.2689 138.976 94.2689 141.308 94.4117C146.29 94.7451 148.416 95.1896 155.286 97.3644C157.92 98.2057 158.967 98.0787 158.967 96.9675C158.967 95.5547 155.239 92.0782 150.812 89.3796C149.114 88.3319 145.751 86.7603 143.577 85.9825C140.341 84.8237 137.85 84.2681 134.534 83.9665C132.296 83.776 131.297 83.7918 129.107 84.0458Z" fill="url(#paint5_linear_572_1564)"/>
<path d="M40.7666 86.2841C37.1015 86.5539 33.6586 87.5858 31.2311 89.1415C30.0888 89.8558 29.2796 90.7606 29.3748 91.221C29.4859 91.8083 30.0729 91.9195 32.9129 91.856C42.4008 91.6337 50.0165 93.3005 57.9019 97.3167C63.7247 100.269 70.7692 105.619 73.6727 109.254C74.6246 110.461 75.4338 111.731 75.5607 112.239C75.7194 112.826 76.1478 112.969 76.5127 112.524C76.6714 112.334 76.7665 112.096 76.7189 112C76.6872 111.905 76.2906 110.937 75.8463 109.842C74.6246 106.841 73.9107 105.524 72.213 103.19C67.0724 96.0626 58.0764 89.6494 50.1275 87.4429C47.0654 86.5857 43.1941 86.1095 40.7666 86.2841Z" fill="url(#paint6_linear_572_1564)"/>
<path d="M42.1153 100.174C40.6239 100.333 38.2599 100.73 37.3555 100.984C32.9448 102.158 27.8994 105.016 24.2819 108.349C23.7266 108.857 23.1713 109.349 23.0603 109.413C22.6795 109.635 19.4745 113.223 18.5543 114.445C16.5869 117.112 16.1268 119.287 17.6024 118.969C17.8245 118.922 18.713 118.382 19.5856 117.779C25.8685 113.413 28.4547 111.905 31.8818 110.588C37.1175 108.587 40.7033 107.937 46.3992 107.937C50.5878 107.937 55.0779 108.492 58.616 109.461C59.1396 109.603 59.7901 109.778 60.0439 109.842C62.4556 110.492 70.5789 113.683 71.2453 114.239C71.6578 114.588 71.9752 114.477 72.8319 113.667C73.53 113.001 73.6094 112.858 73.4666 112.572C72.8161 111.35 63.0902 105.111 58.7746 103.143C53.3643 100.682 47.3828 99.6185 42.1153 100.174Z" fill="url(#paint7_linear_572_1564)"/>
<defs>
<linearGradient id="paint0_linear_572_1564" x1="-1.77524" y1="56" x2="103.84" y2="23.6916" gradientUnits="userSpaceOnUse">
<stop stop-color="#3EFFCF"/>
<stop offset="1" stop-color="#20083D"/>
</linearGradient>
<linearGradient id="paint1_linear_572_1564" x1="25.2013" y1="56.68" x2="55.7714" y2="37.2436" gradientUnits="userSpaceOnUse">
<stop stop-color="#3EFFCF"/>
<stop offset="1" stop-color="#20083D"/>
</linearGradient>
<linearGradient id="paint2_linear_572_1564" x1="77.2307" y1="59.1291" x2="92.885" y2="29.7472" gradientUnits="userSpaceOnUse">
<stop stop-color="#3EFFCF"/>
<stop offset="1" stop-color="#20083D"/>
</linearGradient>
<linearGradient id="paint3_linear_572_1564" x1="-21.6489" y1="67.6131" x2="-2.09885" y2="34.4019" gradientUnits="userSpaceOnUse">
<stop stop-color="#3EFFCF"/>
<stop offset="1" stop-color="#20083D"/>
</linearGradient>
<linearGradient id="paint4_linear_572_1564" x1="80.2199" y1="80.5003" x2="107.933" y2="57.3654" gradientUnits="userSpaceOnUse">
<stop stop-color="#3EFFCF"/>
<stop offset="1" stop-color="#20083D"/>
</linearGradient>
<linearGradient id="paint5_linear_572_1564" x1="77.4498" y1="92.3737" x2="106.154" y2="61.5688" gradientUnits="userSpaceOnUse">
<stop stop-color="#3EFFCF"/>
<stop offset="1" stop-color="#20083D"/>
</linearGradient>
<linearGradient id="paint6_linear_572_1564" x1="16.3243" y1="92.8953" x2="38.7271" y2="70.0161" gradientUnits="userSpaceOnUse">
<stop stop-color="#3EFFCF"/>
<stop offset="1" stop-color="#20083D"/>
</linearGradient>
<linearGradient id="paint7_linear_572_1564" x1="1.0942" y1="104.782" x2="15.043" y2="80.8875" gradientUnits="userSpaceOnUse">
<stop stop-color="#3EFFCF"/>
<stop offset="1" stop-color="#20083D"/>
</linearGradient>
</defs>
</svg>
