<svg width="301" height="395" viewBox="0 0 301 395" fill="none" xmlns="http://www.w3.org/2000/svg">
<path d="M152.394 0.544922C151.33 1.38477 149.428 4.40826 147.497 8.27161C144.167 14.9345 142.936 18.6019 141.509 26.1606C141.005 28.8481 141.005 41.418 141.509 44.0776C141.733 45.1414 142.125 47.297 142.433 48.8368C142.712 50.3765 143.16 52.3362 143.412 53.176C143.636 54.0159 143.943 55.0797 144.083 55.5556C144.643 57.4873 145.259 59.195 147.273 64.5141C150.547 73.0247 150.631 73.1927 152.226 73.8645L153.597 74.4244V77.3919C153.597 80.3034 153.177 82.0112 152.478 82.0112C152.086 82.0112 151.218 80.5274 150.491 78.6517C148.7 74.0325 148.029 72.5208 145.902 68.3775C140.67 58.2712 132.303 46.2332 127.127 41.418C120.664 35.399 111.57 29.38 104.351 26.3286C103.511 25.9646 102.196 25.3767 101.413 25.0408C95.6488 22.3812 88.4578 20.3376 86.5831 20.8135C85.5478 21.0655 85.6597 22.2693 86.9468 24.1449C88.9614 27.1404 95.0612 34.7551 98.1671 38.1985C104.099 44.7774 113.109 53.6519 119.32 59.083C119.908 59.6149 120.999 60.5388 121.699 61.1827C127.015 65.9139 135.381 72.6887 140.11 76.1042C141.761 77.28 143.832 78.7917 144.727 79.4356C147.049 81.1713 151.051 84.6427 151.582 85.4266C152.002 85.9865 152.058 87.3023 152.142 96.2888C152.226 107.067 152.058 109.866 151.358 109.866C151.134 109.866 150.351 109.055 149.624 108.075C147.525 105.275 145.734 103.288 144.559 102.42C143.636 101.748 143.3 101.664 142.153 101.804C140.866 101.944 139.606 101.58 139.606 101.076C139.606 100.936 140.026 100.572 140.558 100.264C141.985 99.4242 142.544 98.1644 142.153 96.7927C141.341 94.1611 137.48 88.73 131.94 82.4311C127.939 77.8958 127.379 77.3359 124.357 74.3125C118.117 68.0975 111.262 62.8624 104.771 59.335C103.539 58.6631 101.972 57.8232 101.273 57.4313C100.601 57.0674 99.4542 56.5355 98.7547 56.2555C98.0552 55.9756 96.796 55.4436 95.9566 55.0517C86.2753 50.7124 72.5088 47.8569 60.5051 47.7449C56.364 47.7169 55.6085 47.7729 55.2168 48.1649C54.4613 48.9207 54.9649 49.6766 58.5744 53.288C66.2411 61.0147 76.3981 68.3495 90.6962 76.4961C94.4736 78.6517 101.805 82.823 103.371 83.6909C103.987 84.0268 105.638 84.9787 107.009 85.7905C108.408 86.6024 110.423 87.7222 111.486 88.3101C112.577 88.87 114.508 89.9338 115.823 90.6337C117.138 91.3336 118.677 92.2014 119.237 92.5654C119.824 92.9293 120.356 93.2093 120.412 93.2093C120.468 93.2093 121.419 93.7132 122.51 94.3291C123.574 94.945 124.945 95.7008 125.532 96.0368C131.044 99.1723 134.99 100.852 137.62 101.216C138.403 101.328 139.047 101.496 139.047 101.636C139.047 101.748 139.495 102.336 140.054 102.924C142.293 105.275 145.874 110.538 148.392 115.186C148.98 116.249 149.875 117.901 150.379 118.825C150.967 119.917 151.358 121.093 151.47 122.156C151.778 125.068 151.302 176.663 150.967 176.551C150.799 176.495 150.155 175.459 149.568 174.228C148.952 173.024 147.693 170.448 146.742 168.517C145.79 166.585 143.636 162.778 141.957 160.062L138.907 155.107L136.249 155.219C134.794 155.275 133.563 155.331 133.535 155.359C133.507 155.359 134.43 156.787 135.605 158.494C136.892 160.426 139.215 164.737 141.593 169.552C143.72 173.92 145.482 177.531 145.482 177.587C145.482 177.671 145.874 178.567 146.35 179.631C147.441 182.066 147.497 182.206 148.56 184.894C149.064 186.126 149.763 187.693 150.155 188.365C151.19 190.129 151.33 192.872 151.358 210.285C151.358 227.167 151.386 226.971 149.512 223.303C147.973 220.224 146.937 218.46 145.203 215.689C143.44 212.889 136.249 202.475 135.074 200.963L134.318 200.011L131.884 200.851C128.442 202.027 128.358 202.139 129.421 203.287C131.352 205.358 138.907 216.248 142.349 221.932C143.58 223.975 148.56 233.774 148.56 234.137C148.56 234.221 149.036 235.061 149.624 236.041L150.659 237.805L150.743 245.616C150.799 250.151 150.715 253.538 150.575 253.678C150.407 253.846 149.903 253.762 149.232 253.482C147.441 252.698 144.895 252.194 142.768 252.166C139.97 252.138 138.683 252.866 133.563 257.318C126.064 263.84 125.392 264.708 124.749 268.6L124.385 270.671L123.042 270.839C122.286 270.951 116.914 270.979 111.066 270.923L100.434 270.839L99.678 271.623C98.9505 272.323 98.8946 272.575 98.9226 274.423C98.9226 276.83 99.4262 277.866 100.937 278.678C102.196 279.35 102.056 278.79 104.099 290.996C104.211 291.752 104.519 293.459 104.743 294.775C104.966 296.091 105.498 299.031 105.89 301.354C106.281 303.65 106.841 306.757 107.149 308.213C107.429 309.669 107.988 312.636 108.408 314.792C108.828 316.947 109.443 320.223 109.807 322.071C110.171 323.918 110.674 326.55 110.926 327.95C111.178 329.321 111.878 332.989 112.493 336.068C113.612 341.779 113.836 342.955 114.564 347.126C116.187 356.533 116.271 357.065 116.802 360.424C117.054 361.964 117.362 364.036 117.53 365.043C117.81 366.807 118.145 368.627 119.041 373.246C119.292 374.45 119.404 375.542 119.32 375.71C119.209 375.85 114.76 375.962 108.268 375.962C102.308 375.962 97.1878 376.045 96.9639 376.129C95.9566 376.521 95.9566 377.193 96.9639 382.008C97.4955 384.612 98.0552 387.44 98.223 388.279C98.9505 392.423 99.1744 393.123 99.8739 393.627C100.545 394.102 103.064 394.13 154.268 394.186L207.963 394.27L208.579 393.543C209.166 392.843 209.39 391.919 210.845 383.94C211.069 382.708 211.461 380.777 211.713 379.629C212.524 375.934 212.664 375.962 200.52 375.962C192.21 375.962 190.783 375.906 190.643 375.542C190.503 375.206 191.343 368.935 191.818 366.723C191.902 366.331 192.098 365.379 192.21 364.623C192.35 363.84 192.658 362.076 192.91 360.704C193.161 359.304 193.469 357.541 193.609 356.785C193.889 355.105 194.533 351.522 195.148 348.246C196.183 342.675 197.023 337.916 197.275 336.208C197.415 335.2 197.61 334.221 197.666 333.997C197.75 333.773 197.946 332.849 198.086 331.897C198.226 330.945 198.534 329.041 198.786 327.67C199.037 326.27 199.345 324.45 199.485 323.61C199.625 322.77 199.933 320.923 200.185 319.551C200.436 318.151 200.744 316.388 200.884 315.632C201.192 313.784 201.891 310.033 202.423 307.093C202.675 305.777 202.983 304.07 203.123 303.314C203.598 300.514 204.242 297.015 205.389 290.996C206.005 287.608 206.648 284.025 206.76 283.017C207.04 280.974 207.544 279.378 207.879 279.378C208.019 279.378 208.495 279.07 208.943 278.678C210.146 277.67 210.957 275.766 210.957 273.947C210.957 272.603 210.845 272.351 210.146 271.735L209.334 271.063L199.821 270.839C194.588 270.727 189.888 270.559 189.356 270.447C188.573 270.279 188.265 269.971 187.258 268.152C186.138 266.136 185.187 265.1 181.885 262.301C178.779 259.669 174.89 257.821 172.456 257.821C171.337 257.821 169.826 258.409 168.79 259.221C167.587 260.173 165.321 259.865 162.411 258.381L161.012 257.681V247.463V237.245L163.446 232.486C164.789 229.854 166.496 226.467 167.251 224.899C168.678 221.988 169.49 220.476 171.812 216.444C172.568 215.129 173.183 213.981 173.183 213.869C173.183 213.729 173.547 213.253 173.995 212.777C174.61 212.133 175.058 211.909 175.813 211.909C176.345 211.909 178.667 211.293 180.934 210.537C189.356 207.794 189.188 207.822 194.728 206.562C201.136 205.078 212.748 205.106 219.771 206.618C226.235 207.99 229.788 209.25 235.748 212.189C244.45 216.5 251.837 221.904 260.707 230.414C263.841 233.438 264.568 233.746 265.408 232.486C265.855 231.814 265.827 231.674 265.1 229.602C262.805 223.079 255.782 213.057 248.032 205.302C232.39 189.625 214.371 184.278 197.247 190.269C195.4 190.913 190.251 193.376 188.741 194.356C188.433 194.524 187.677 195 187.034 195.392C182.333 198.276 176.709 203.455 174.275 207.122C173.435 208.354 172.596 209.39 172.4 209.39C172.148 209.39 172.064 209.67 172.12 210.146C172.204 210.985 171.868 211.069 170.469 210.649C169.993 210.509 169.77 210.565 169.658 210.929C169.546 211.181 168.818 212.049 168.035 212.833C167.251 213.645 165.545 215.969 164.257 218.012C161.627 222.127 161.291 222.519 160.788 222.016C160.312 221.54 160.116 162.078 160.592 159.922C160.76 159.11 161.236 157.85 161.627 157.122C162.019 156.367 163.838 152.867 165.628 149.34C167.419 145.784 169.21 142.397 169.546 141.781C171.169 138.982 173.183 134.866 173.183 134.362C173.183 133.97 172.987 133.802 172.512 133.802C172.148 133.802 171.7 133.606 171.504 133.382C171.029 132.795 170.105 132.963 169.714 133.634C169.546 133.942 168.622 135.286 167.671 136.63C165.153 140.185 163.138 143.461 162.075 145.784C161.515 146.96 160.984 147.8 160.788 147.716C160.34 147.576 160.144 120.981 160.592 119.441C160.76 118.881 162.187 116.277 163.754 113.702C165.349 111.126 166.804 108.663 167.028 108.215C167.251 107.767 168.091 106.731 168.846 105.947C170.049 104.687 170.581 104.379 172.568 103.707C175.226 102.84 187.23 96.9326 190.112 95.0569C190.419 94.861 191.427 94.2731 192.35 93.7692C197.946 90.6617 211.489 82.627 214.035 80.8914C214.874 80.3034 218.344 78.0358 221.73 75.8522C230.152 70.4211 236.224 65.9979 242.575 60.7907C245.737 58.1872 252.005 51.7763 252.788 50.3205C253.6 48.8647 253.544 48.5288 252.425 48.1089C251.193 47.633 243.387 47.8009 238.798 48.4168C231.831 49.3127 230.012 49.6486 223.129 51.4683C218.316 52.7561 209.782 56.1435 203.626 59.251C197.47 62.3585 190.699 67.2296 186.726 71.4009C180.514 77.9798 171.253 91.5855 167.139 100.208C166.188 102.168 165.405 103.344 164.09 104.687C163.138 105.695 161.935 107.179 161.431 107.991C160.704 109.195 160.452 109.419 160.144 109.139C159.809 108.859 159.753 106.927 159.809 96.9886L159.892 85.1746L160.984 83.8308C161.599 83.103 163.166 81.6752 164.481 80.6394C170.861 75.6562 174.079 72.8567 180.738 66.4738C194.896 52.8961 206.648 39.5983 213.056 29.9399C215.994 25.5447 217.673 22.4652 217.673 21.4854C217.673 20.5056 216.805 20.0296 215.462 20.2536C213.839 20.5056 208.103 22.4372 205.781 23.501C198.702 26.7205 195.848 28.3442 190.671 32.1516C183.592 37.3587 177.828 43.6017 173.379 50.8524C172.512 52.2802 171.784 53.484 171.784 53.54C171.784 53.5959 171.141 54.7718 170.329 56.1435C169.014 58.4391 165.349 65.5779 165.349 65.8859C165.349 65.9699 164.957 66.8657 164.481 67.9295C162.97 71.261 162.635 72.0448 161.963 73.6126C160.536 76.972 158.354 81.1713 158.018 81.1713C157.822 81.1713 157.318 80.8914 156.899 80.5274C156.227 79.9955 156.115 79.6316 155.947 77.7559C155.695 74.9283 155.891 74.2845 157.094 73.7805C157.654 73.5286 158.326 72.9127 158.773 72.2128C159.501 71.065 161.431 67.0617 161.431 66.7257C161.431 66.6418 161.599 66.1658 161.823 65.6899C163.25 62.4705 165.964 54.2679 166.86 50.3765C168.818 41.9499 168.538 30.9478 166.16 22.2412C164.705 16.8661 161.068 8.9715 157.682 3.84836C155.192 0.0690002 153.961 -0.68689 152.394 0.544922ZM167.811 104.211C167.895 104.547 167.699 104.687 167.195 104.687C166.3 104.687 166.02 104.239 166.664 103.875C167.307 103.512 167.699 103.624 167.811 104.211ZM200.856 278.93C201.192 279.294 201.052 280.498 199.793 287.832C199.009 292.508 198.17 297.323 197.946 298.555C197.694 299.786 196.883 304.518 196.099 309.053C194.085 320.951 193.413 324.842 192.91 327.53C192.658 328.845 192.35 330.525 192.21 331.309C191.902 332.933 191.259 336.488 190.643 339.708C190.419 340.939 190.112 342.563 189.972 343.347C189.832 344.103 189.524 345.811 189.272 347.126C188.741 350.066 188.041 353.817 187.733 355.665C187.593 356.421 187.286 358.185 187.034 359.584C186.39 363.14 186.082 364.931 185.747 366.863C185.607 367.787 185.299 369.411 185.075 370.502C184.18 374.758 183.844 375.402 182.333 375.402C175.366 375.514 128.722 375.346 127.631 375.206C126.372 375.066 126.092 374.926 125.868 374.338C125.14 372.406 123.769 366.275 122.706 360.004C121.895 355.413 121.391 352.697 120.72 349.226C120.356 347.378 119.74 344.103 119.32 341.947C118.929 339.792 118.285 336.32 117.893 334.249C117.194 330.637 116.718 327.95 116.075 324.31C115.907 323.386 115.599 321.735 115.403 320.671C115.207 319.579 114.816 317.563 114.592 316.192C114.116 313.616 113.92 312.496 113.193 308.773C112.269 303.986 111.542 300.15 111.318 298.695C111.066 297.015 110.507 293.767 109.807 289.876C108.436 282.373 108.016 279.266 108.296 278.93C108.464 278.734 108.856 278.51 109.191 278.454C109.527 278.398 130.205 278.398 155.136 278.454C193.889 278.538 200.52 278.594 200.856 278.93Z" fill="url(#paint0_linear_534_3691)"/>
<path d="M66.4653 82.739C66.2134 82.963 66.0176 83.3549 66.0176 83.5509C66.0176 84.4467 68.34 85.9025 73.0127 87.9182C81.2111 91.4456 95.1175 99.5362 102.812 105.275C112.521 112.498 121.028 120.449 129.394 130.023C130.485 131.255 131.408 132.319 131.492 132.403C131.884 132.795 135.745 137.806 136.865 139.401C139.019 142.481 141.929 148.36 142.88 151.495C143.3 152.951 143.608 153.147 144.084 152.307C144.755 151.047 144.252 148.416 142.153 142.033C140.81 137.918 140.446 137.078 137.48 131.143C133.143 122.548 128.386 115.997 120.832 108.299C116.243 103.624 112.913 100.852 107.989 97.5485C102.225 93.7132 96.2927 90.4377 90.081 87.6662C87.7026 86.6024 81.2111 84.5307 77.0699 83.5229C72.0054 82.2631 67.2767 81.9272 66.4653 82.739Z" fill="url(#paint1_linear_534_3691)"/>
<path d="M226.347 94.497C217.253 95.1689 206.452 98.6403 198.842 103.316C194.197 106.199 187.062 112.022 183.116 116.193C177.968 121.624 171.756 129.687 171.784 130.919C171.812 131.199 172.288 131.955 172.876 132.627L173.967 133.802L176.149 133.494C178.584 133.187 187.425 131.227 192.63 129.883C198.086 128.455 202.003 127.475 204.382 126.972C205.613 126.692 207.012 126.356 207.46 126.244C209.866 125.572 222.793 123.276 227.886 122.632C240.785 120.953 249.347 120.337 260.707 120.169C268.457 120.057 271.116 120.113 274.361 120.505C281.245 121.289 283.511 121.876 294.479 125.796C299.096 127.447 301.279 127.112 300.971 124.788C300.803 123.5 299.712 122.072 297.054 119.721C290.59 114.01 281.468 108.019 272.627 103.679C270.584 102.7 268.877 101.888 268.793 101.888C268.709 101.888 267.842 101.524 266.863 101.076C260.399 98.1364 253.432 96.2048 245.094 95.0289C241.96 94.581 229.816 94.2451 226.347 94.497Z" fill="url(#paint2_linear_534_3691)"/>
<path d="M55.9446 107.683C40.6671 108.803 24.2425 115.717 8.51733 127.615C3.95648 131.059 1.01851 133.718 0.374957 134.978C-0.100715 135.902 -0.128696 137.498 0.318995 137.946C1.13043 138.758 3.67668 138.338 9.91636 136.322C20.9407 132.739 24.0186 132.291 35.4347 132.487C42.7937 132.599 45.0041 132.767 50.3484 133.522C57.0638 134.474 67.8643 136.182 69.9349 136.602C70.6344 136.742 72.3412 137.05 73.7123 137.302C81.435 138.702 90.109 140.549 95.5372 141.949C108.912 145.364 120.468 149.06 127.295 152.111C128.918 152.839 130.905 153.623 131.716 153.847C134.486 154.603 137.452 154.239 138.46 153.035C138.795 152.615 138.711 152.363 137.9 150.991C136.473 148.64 128.806 139.569 125.84 136.742C122.371 133.438 115.068 127.055 112.158 124.788C107.737 121.344 100.63 116.781 97.356 115.269C93.3827 113.422 92.2355 112.946 90.6406 112.33C87.7026 111.21 84.7926 110.314 82.2464 109.698C80.9313 109.39 79.3644 109.027 78.7488 108.859C77.3498 108.523 74.4678 108.103 71.194 107.767C68.8716 107.515 58.8266 107.459 55.9446 107.683Z" fill="url(#paint3_linear_534_3691)"/>
<path d="M233.762 127.363C227.158 127.811 219.016 129.239 212.776 131.059C211.069 131.535 208.971 132.347 206.061 133.662C205.613 133.858 204.662 134.25 203.962 134.53C203.263 134.782 202.395 135.23 202.004 135.482C201.612 135.734 201.08 136.042 200.828 136.126C200.549 136.238 199.625 136.742 198.786 137.302C197.918 137.834 197.191 138.282 197.135 138.282C196.855 138.282 192.126 141.669 189.832 143.489C186.25 146.344 179.283 153.595 176.933 156.898C171.449 164.681 167.867 171.708 166.384 177.615C165.433 181.338 164.901 185.034 165.181 185.762C165.349 186.181 165.433 186.181 166.048 185.594C166.44 185.23 166.748 184.838 166.748 184.698C166.748 184.334 172.092 176.383 174.303 173.444C177.017 169.832 178.947 167.733 185.187 161.518C195.792 150.963 203.682 145.56 215.714 140.577C221.226 138.31 229.033 135.818 234.461 134.642C238.071 133.858 241.484 133.186 244.254 132.711C250.466 131.619 251.054 131.423 250.914 130.247C250.802 129.211 249.655 128.483 247.22 127.923C244.702 127.307 238.266 127.055 233.762 127.363Z" fill="url(#paint4_linear_534_3691)"/>
<path d="M227.69 148.22C222.346 148.892 218.568 149.928 212.944 152.307C202.032 156.927 190.867 166.417 182.221 178.455C179.983 181.59 178.08 184.866 174.359 192.033C173.351 193.964 172.26 195.98 171.896 196.54C170.777 198.36 168.259 203.623 167.895 204.938C167.699 205.638 167.587 206.59 167.643 207.038C167.699 207.71 167.867 207.85 168.595 207.934C169.322 208.018 169.63 207.822 170.413 206.926C170.945 206.31 171.868 204.826 172.456 203.623C173.044 202.391 173.967 200.543 174.499 199.479C177.185 194.076 181.857 189.569 192.21 182.458C197.778 178.595 206.201 174.368 213.252 171.848C219.883 169.496 222.933 168.601 227.046 167.845C228.445 167.593 230.18 167.257 230.908 167.117C231.635 166.949 234.881 166.697 238.099 166.501C242.715 166.249 245.094 166.249 249.207 166.501C257.993 167.089 261.742 167.873 273.858 171.708C278.503 173.192 280.349 172.968 280.349 171.008C280.349 168.517 273.774 162.386 265.967 157.626C262.973 155.779 257.042 153.007 253.208 151.635C247.5 149.592 243.107 148.612 237.259 148.08C233.314 147.744 231.551 147.772 227.69 148.22Z" fill="url(#paint5_linear_534_3691)"/>
<path d="M71.8936 152.167C65.43 152.643 59.3582 154.463 55.0772 157.206C53.0626 158.466 51.6356 160.062 51.8034 160.874C51.9993 161.91 53.0346 162.106 58.0431 161.994C74.7756 161.602 88.2063 164.541 102.113 171.624C112.382 176.831 124.805 186.265 129.925 192.676C131.604 194.804 133.031 197.044 133.255 197.939C133.535 198.975 134.29 199.227 134.934 198.443C135.214 198.107 135.382 197.688 135.298 197.52C135.242 197.352 134.542 195.644 133.759 193.712C131.604 188.421 130.345 186.097 127.351 181.982C118.286 169.412 102.42 158.102 88.4022 154.211C83.0019 152.699 76.1746 151.859 71.8936 152.167Z" fill="url(#paint6_linear_534_3691)"/>
<path d="M74.2724 176.663C71.6422 176.943 67.4731 177.643 65.8782 178.091C58.0995 180.163 49.2017 185.202 42.8221 191.081C41.8428 191.977 40.8634 192.844 40.6676 192.956C39.996 193.348 34.3439 199.675 32.7211 201.831C29.2515 206.534 28.44 210.37 31.0422 209.81C31.434 209.726 33.0009 208.774 34.5398 207.71C45.6202 200.011 50.181 197.352 56.2248 195.028C65.4585 191.501 71.7821 190.353 81.8271 190.353C89.214 190.353 97.1326 191.333 103.372 193.04C104.296 193.292 105.443 193.6 105.891 193.712C110.144 194.86 124.47 200.487 125.645 201.467C126.372 202.083 126.932 201.887 128.443 200.459C129.674 199.283 129.814 199.031 129.562 198.528C128.415 196.372 111.263 185.37 103.652 181.898C94.1107 177.559 83.5619 175.683 74.2724 176.663Z" fill="url(#paint7_linear_534_3691)"/>
<defs>
<linearGradient id="paint0_linear_534_3691" x1="59.1168" y1="61" x2="296.019" y2="192.136" gradientUnits="userSpaceOnUse">
<stop stop-color="#65F0CD"/>
<stop offset="1" stop-color="#20083D"/>
</linearGradient>
<linearGradient id="paint1_linear_534_3691" x1="67.5793" y1="93.2063" x2="117.084" y2="150.161" gradientUnits="userSpaceOnUse">
<stop stop-color="#65F0CD"/>
<stop offset="1" stop-color="#20083D"/>
</linearGradient>
<linearGradient id="paint2_linear_534_3691" x1="174.36" y1="100.505" x2="189.495" y2="151.91" gradientUnits="userSpaceOnUse">
<stop stop-color="#65F0CD"/>
<stop offset="1" stop-color="#20083D"/>
</linearGradient>
<linearGradient id="paint3_linear_534_3691" x1="2.76368" y1="114.767" x2="22.2453" y2="174.653" gradientUnits="userSpaceOnUse">
<stop stop-color="#65F0CD"/>
<stop offset="1" stop-color="#20083D"/>
</linearGradient>
<linearGradient id="paint4_linear_534_3691" x1="166.817" y1="136.333" x2="205.215" y2="194.335" gradientUnits="userSpaceOnUse">
<stop stop-color="#65F0CD"/>
<stop offset="1" stop-color="#20083D"/>
</linearGradient>
<linearGradient id="paint5_linear_534_3691" x1="169.876" y1="157.151" x2="204.564" y2="224.514" gradientUnits="userSpaceOnUse">
<stop stop-color="#65F0CD"/>
<stop offset="1" stop-color="#20083D"/>
</linearGradient>
<linearGradient id="paint6_linear_534_3691" x1="53.4551" y1="159.345" x2="81.2331" y2="210.678" gradientUnits="userSpaceOnUse">
<stop stop-color="#65F0CD"/>
<stop offset="1" stop-color="#20083D"/>
</linearGradient>
<linearGradient id="paint7_linear_534_3691" x1="31.5063" y1="181.585" x2="45.3689" y2="224.555" gradientUnits="userSpaceOnUse">
<stop stop-color="#65F0CD"/>
<stop offset="1" stop-color="#20083D"/>
</linearGradient>
</defs>
</svg>
