<svg width="364" height="467" viewBox="0 0 364 467" fill="none" xmlns="http://www.w3.org/2000/svg">
<path d="M199.976 0.594177C199.018 0.88559 196.436 1.96799 194.271 3.05038C181.611 9.21179 173.408 23.2831 170.535 43.7655C168.786 56.1299 168.577 72.9489 169.41 142.14C170.076 194.511 171.159 229.856 172.617 244.968C172.783 246.8 172.7 247.674 172.242 248.299C171.659 249.048 171.534 249.006 169.16 246.925C163.705 242.221 157.084 229.815 154.419 219.365C152.045 210.165 151.92 208.458 151.587 182.938L151.254 159.625L150.171 156.044C147.506 147.177 141.635 141.432 134.097 140.308C132.432 140.016 130.933 139.933 130.849 140.016C130.599 140.266 133.306 143.597 133.764 143.597C133.931 143.597 134.056 143.888 134.056 144.221C134.056 144.513 134.306 144.971 134.597 145.137C135.597 145.762 138.137 150.424 139.303 153.796L140.469 157.127L140.594 175.028C140.76 203.878 141.635 213.87 145.049 226.859C146.34 231.813 147.34 234.727 149.547 239.973C151.671 245.052 153.045 247.425 156.085 251.213C164.83 262.245 172.867 267.407 186.733 270.821C190.565 271.737 192.314 271.945 197.352 271.987L203.39 272.028L203.349 270.322C203.349 269.364 202.891 267.699 202.391 266.575C201.85 265.451 201.225 264.077 200.975 263.494C200.434 262.162 199.559 239.306 199.018 212.08C198.31 177.526 198.019 73.8231 198.56 58.8776C199.601 30.5685 202.349 15.5397 208.221 5.92294C209.762 3.42508 210.22 2.05124 209.554 2.05124C208.804 2.05124 204.307 5.96457 202.058 8.62894C197.602 13.7912 195.52 17.2466 193.188 23.4912C191.772 27.1964 191.106 29.5694 189.857 35.1479C189.274 37.8539 188.233 46.3883 187.775 52.4248C186.609 67.2871 186.9 128.776 188.441 201.88C188.816 218.699 189.149 238.182 189.149 245.176L189.232 257.874L187.441 257.791C186.442 257.749 185.193 257.416 184.693 257.083C183.652 256.417 183.652 256.875 182.777 215.202C182.611 205.71 182.236 191.93 181.986 184.603C181.362 166.244 180.695 115.246 180.695 89.9343C180.695 52.0085 181.57 41.6007 185.901 27.8625C188.857 18.4122 193.48 10.877 200.226 4.46585C202.308 2.46756 204.015 0.635803 204.015 0.386017C204.015 -0.196838 202.141 -0.113556 199.976 0.594177Z" fill="url(#paint0_linear_540_3955)"/>
<path d="M243.542 0.338409C243.417 0.58847 244.293 1.50536 245.504 2.38055C248.133 4.33936 254.142 10.4658 256.562 13.7166C261.987 20.9683 265.993 32.7211 267.704 46.4326C269.206 58.6022 269.749 96.0277 269.165 152.499C268.664 204.053 268.581 223.683 268.873 224.016C269.165 224.266 271.043 223.975 276.509 222.849C282.226 221.641 290.823 217.932 295.831 214.514C298.71 212.514 305.262 206.095 307.557 202.97C313.316 195.051 317.697 182.965 319.784 169.17C320.702 163.127 320.702 163.085 320.577 106.197C320.452 43.2652 320.368 45.5991 323.081 38.7225C324.583 34.9299 327.212 30.4289 329.173 28.2617C331.01 26.2195 330.676 25.6361 327.921 25.9695C321.871 26.678 314.526 33.4296 311.813 40.8063C308.892 48.8499 308.767 51.8923 309.31 99.5285C309.81 142.997 309.685 157.792 308.684 165.419C307.223 176.422 303.384 187.008 297.792 195.426C293.327 202.178 282.185 211.055 280.432 209.305C280.098 208.971 280.14 199.719 280.474 178.922C281.016 143.706 281.016 81.6493 280.515 65.6039C280.056 52.3507 279.597 47.3912 277.928 38.8475C275.55 26.5113 271.335 17.3008 265.075 10.6325C260.234 5.5063 254.601 2.21385 247.924 0.546783C245.17 -0.120041 243.876 -0.161713 243.542 0.338409Z" fill="url(#paint1_linear_540_3955)"/>
<path d="M218.171 1.49777C216.552 2.08038 213.655 5.45123 211.824 8.94693C208.842 14.565 206.968 21.2234 204.753 34.3322C202.282 48.856 201.813 67.8741 202.197 143.988C202.325 176.698 202.623 209.574 202.878 217.023C203.091 224.472 203.475 237.207 203.688 245.322C203.901 253.437 204.284 260.761 204.497 261.552C204.753 262.384 205.818 264.34 206.882 265.921C207.947 267.503 208.927 269.25 209.098 269.791C209.481 271.373 208.97 279.529 208.373 280.778C208.075 281.402 207.351 282.234 206.755 282.609C205.647 283.316 205.647 283.15 206.882 288.185C207.223 289.684 207.649 293.304 207.777 296.3C207.905 299.255 208.203 302.543 208.459 303.583C209.055 306.038 209.225 310.325 209.396 328.136C209.609 347.029 210.418 375.12 210.929 381.82C211.142 384.691 211.355 389.602 211.355 392.765C211.355 395.927 211.526 401.629 211.781 405.457C211.994 409.286 212.378 416.444 212.633 421.354C213.272 435.42 214.294 454.813 214.593 459.973C214.933 465.467 214.465 465.134 221.153 464.967L225.625 464.842L225.753 456.935C225.881 451.068 225.71 447.655 225.157 443.743C224.518 439.374 224.475 438.042 224.901 436.045C226.562 428.096 226.562 428.72 224.944 420.938C224.688 419.69 224.603 417.318 224.731 415.736C225.412 407.871 225.497 402.544 224.986 397.842C224.56 393.514 224.56 392.473 225.114 390.143C226.435 384.733 226.69 382.943 226.69 378.532C226.69 374.704 226.52 373.497 225.412 370.168C224.177 366.464 224.134 366.089 224.56 362.926C226.264 350.275 226.222 349.193 224.092 334.545C223.666 331.507 223.836 329.551 225.242 322.976C226.222 318.232 226.009 314.278 224.518 309.368C223.027 304.582 222.984 304.207 223.666 300.046C225.114 291.098 225.114 284.065 223.708 275.368C223.368 273.329 223.41 272.039 223.921 269.75C224.816 265.463 224.731 259.929 223.666 256.35C221.579 249.317 221.579 249.234 222.217 243.657C222.516 240.786 223.197 236.791 223.666 234.751C224.816 229.841 224.816 224.597 223.666 219.229C221.579 209.533 221.579 209.533 222.005 206.828C222.217 205.413 222.729 203.415 223.112 202.416C223.666 200.835 223.708 198.671 223.495 186.977C223.325 177.281 223.069 172.537 222.601 170.539C220.982 163.215 220.982 162.965 223.325 156.889C224.177 154.725 224.305 153.435 224.475 146.902C224.603 140.659 224.433 137.829 223.538 130.464C222.175 119.435 222.047 115.773 222.814 109.656C223.155 106.951 223.41 100.417 223.453 94.6744C223.495 84.6035 223.495 84.437 222.345 80.983C220.812 76.4053 220.684 71.2866 222.047 67.7077C224.092 62.3809 224.39 56.3051 222.899 50.1461C220.94 41.9062 220.897 42.5721 223.069 35.4142C223.879 32.7925 223.879 28.8806 223.112 24.3446C222.771 22.3886 222.388 17.4364 222.217 13.3165C221.962 6.45001 221.536 2.08038 221.11 1.70587C220.599 1.24808 219.108 1.16486 218.171 1.49777Z" fill="url(#paint2_linear_540_3955)"/>
<path d="M226.268 3.24936C225.767 4.53989 227.313 21.8166 228.274 25.6049C229.194 29.1436 229.194 29.3101 228.525 32.474C228.149 34.2225 227.313 37.2199 226.686 39.0933L225.599 42.507L226.895 48.4601C228.358 55.121 229.068 61.5321 228.65 64.2798C228.525 65.3205 227.773 67.2355 227.02 68.5677C224.972 72.1479 224.889 74.6041 226.602 79.5998L227.94 83.5547L228.149 95.4194C228.274 106.035 228.4 107.409 229.11 108.824C230.322 111.156 230.113 112.405 228.191 114.944L226.477 117.234L226.77 121.189C226.895 123.353 227.522 127.392 228.065 130.181C228.901 134.177 229.194 137.425 229.528 146.375L229.988 157.574L228.567 158.864C227.814 159.572 226.853 160.613 226.435 161.196C225.641 162.361 225.516 165.234 226.184 167.44C226.435 168.231 226.811 169.563 227.062 170.354C227.313 171.145 227.647 176.099 227.856 181.386C228.065 186.632 228.316 192.502 228.483 194.375C228.734 197.789 228.525 199.87 227.104 207.031L226.393 210.611L227.731 215.981C229.988 225.348 230.406 230.594 229.11 234.132C227.229 239.253 226.811 241.334 226.811 245.706C226.77 249.411 226.979 250.701 228.023 254.24C229.152 258.07 229.277 258.903 229.235 264.231C229.194 268.186 228.985 270.809 228.525 272.432C227.94 274.597 227.94 274.972 228.567 277.22C229.444 280.467 229.57 297.078 228.692 300.949C228.149 303.364 228.191 303.697 229.277 307.818C230.238 311.482 230.406 312.981 230.489 318.351C230.531 323.596 230.406 324.97 229.695 326.885C228.65 329.841 228.608 336.169 229.653 340.831C230.28 343.662 230.364 345.494 230.155 352.904C230.029 357.733 229.82 362.771 229.653 364.145C229.486 365.643 229.695 368.599 230.113 371.805C230.991 378.008 230.782 386.833 229.653 391.954C228.985 394.868 228.985 395.742 229.486 401.154C229.862 405.234 229.904 408.106 229.653 410.188C229.026 415.35 229.277 420.804 230.238 424.384C231.45 428.589 231.409 430.296 230.029 434.417C228.776 438.164 228.776 438.622 229.361 448.655C229.612 452.318 229.653 457.48 229.486 460.103C229.11 466.431 229.194 466.514 235.212 466.264C237.552 466.181 239.6 466.015 239.726 465.848C240.436 465.14 240.812 461.394 241.397 449.279C241.732 442.077 242.317 430.462 242.651 423.468C244.156 393.786 244.532 382.337 244.95 358.316C245.201 344.328 245.619 325.72 245.827 316.894C246.078 308.068 246.454 270.601 246.622 233.633C246.831 196.665 247.123 155.326 247.29 141.837C247.792 98.0421 246.747 55.5373 244.95 43.5894C243.153 31.8912 242.4 28.6024 239.558 19.5269C236.842 10.9926 234.251 6.41327 230.656 3.83218C228.776 2.45837 226.686 2.16696 226.268 3.24936Z" fill="url(#paint3_linear_540_3955)"/>
<path d="M237.075 2.92374C236.952 3.1319 237.363 3.92282 238.019 4.71378C240.808 8.2106 243.638 14.4133 246.181 22.6141C248.97 31.5227 250.364 39.0158 251.677 52.5452C252.374 59.6637 252.579 141.714 252.046 187.838C251.8 209.236 251.513 242.663 251.39 262.146C251.267 281.586 251.021 306.23 250.774 316.887C250.528 327.544 250.159 347.776 249.954 361.846C249.585 384.992 249.257 395.274 247.903 420.543C247.657 424.997 247.206 434.197 246.878 440.941C246.181 454.845 245.566 463.42 245.237 464.336C244.704 465.71 246.14 466.334 249.79 466.334C252.62 466.334 253.358 466.21 254.015 465.544C254.835 464.711 254.999 463.296 255.696 450.307C255.901 446.394 256.353 438.36 256.722 432.407C257.706 415.173 258.69 392.36 259.388 370.172C259.593 362.721 260.003 350.44 260.249 342.905C260.495 335.329 260.823 318.761 261.028 306.064C261.233 293.367 261.561 272.553 261.808 259.856C262.054 247.159 262.218 234.879 262.218 232.589C262.177 230.3 262.382 210.901 262.628 189.504C263.202 142.047 262.997 65.908 262.3 55.251C261.725 46.5506 259.716 35.186 257.706 29.3996C256.147 24.8621 252.948 18.3264 250.528 14.6214C248.232 11.083 239.249 2.63235 237.773 2.59073C237.527 2.59073 237.199 2.75723 237.075 2.92374Z" fill="url(#paint4_linear_540_3955)"/>
<path d="M341.564 26.3705C341.564 26.7039 342.025 27.2458 342.529 27.6209C345.342 29.4131 349.119 36.9152 351.302 44.9175C352.268 48.4601 352.268 48.5852 352.184 73.884C352.1 110.311 351.008 150.864 349.749 166.202C348.574 179.956 346.391 188.5 341.228 199.545C339.675 202.921 335.771 208.672 333.42 211.173C330.44 214.257 319.316 223.677 314.698 227.011C308.696 231.304 299.293 234.971 289.932 236.68C288.421 236.93 282.964 237.264 277.759 237.43L268.314 237.681L268.02 262.271C267.643 292.78 267.013 322.163 266.467 333.124C266.215 337.709 265.838 348.004 265.586 356.047C264.956 376.637 263.613 406.937 262.605 422.941C262.395 426.484 262.018 433.444 261.808 438.363C261.598 443.281 261.136 451.325 260.758 456.243C260.297 462.786 260.255 465.329 260.59 465.745C261.346 466.621 268.188 466.496 269.322 465.537C270.917 464.245 271.504 460.202 273.1 438.988C275.744 404.52 276.751 382.43 278.137 327.706C278.389 318.287 278.766 304.616 279.018 297.281C279.228 289.945 279.564 276.025 279.69 266.314C279.858 255.644 280.152 248.6 280.403 248.434C280.613 248.309 283.048 248.058 285.776 247.85C291.779 247.433 292.661 247.308 298.328 245.933C308.276 243.557 316.252 240.306 324.479 235.305C341.102 225.219 353.947 206.463 359.446 184.374C362.762 170.995 363.14 163.409 363.811 100.975C364.189 61.2554 364.063 52.628 362.846 47.6266C360.831 39.3326 356.172 31.9554 350.673 28.4961C348.238 26.954 346.517 26.3705 343.579 25.9954C341.983 25.8287 341.564 25.8704 341.564 26.3705Z" fill="url(#paint5_linear_540_3955)"/>
<path d="M331.682 30.4343C329.213 33.0536 328.267 34.7998 326.91 39.29C323.66 49.8503 323.372 56.0452 324.359 92.4658C324.77 106.144 324.606 157.034 324.153 162.605C323.125 175.826 321.603 184.183 318.846 191.625C318.106 193.579 317.242 195.99 316.913 197.03C314.485 204.181 306.71 213.411 298.935 218.358C293.71 221.643 284.7 225.26 277.254 226.965C276.02 227.256 274.251 227.713 273.346 228.004C272.441 228.295 271.207 228.669 270.589 228.794C269.808 228.96 269.438 229.334 269.438 229.875C269.438 231.164 271.824 231.621 279.517 231.829C286.757 232.037 292.681 231.496 298.564 230.041C306.093 228.212 312.47 223.888 317.242 217.402C318.229 216.072 319.134 215.365 320.327 214.991C322.919 214.159 328.514 209.295 331.476 205.303C335.467 200.023 337.894 194.66 340.609 185.388C343.53 175.369 344.435 168.758 344.929 154.83C345.052 150.922 345.34 145.06 345.587 141.734C345.957 136.37 346.327 117.037 347.068 66.4808C347.315 48.9772 347.233 48.021 344.641 39.9968C343.448 36.3381 342.419 34.0098 340.856 31.6816C337.524 26.5261 337.524 26.5677 337.647 39.8721C337.729 48.1041 337.565 53.2596 337.071 58.3319C336.619 63.03 336.495 66.2729 336.742 68.1022C336.907 69.599 337.03 74.3802 337.03 78.7457C337.03 83.0696 336.989 95.0436 336.989 105.354C336.989 130.259 336.948 133.377 336.495 152.751C336.043 172.832 335.878 174.246 332.998 183.102C329.543 193.704 327.198 198.526 322.754 204.472C320.821 207.05 319.216 209.336 319.216 209.544C319.216 209.752 318.846 209.918 318.394 209.918C317.365 209.918 317.365 209.461 318.311 208.214C318.764 207.673 319.216 206.675 319.381 206.01C319.628 204.971 321.849 199.815 324.688 193.704C326.169 190.502 327.28 187.634 329.172 181.854C332.134 172.999 331.97 174.329 332.463 152.959C332.71 142.108 332.875 132.628 332.875 131.963C332.834 131.256 332.834 129.011 332.834 126.974C332.875 124.895 332.875 118.077 332.834 111.799C332.834 105.521 332.834 97.3718 332.875 93.7131C332.875 90.0544 332.875 83.6101 332.834 79.3694C332.587 57.8745 332.587 57.1262 333.327 52.7607C333.862 49.3098 333.944 47.0647 333.739 42.1172C333.574 37.8348 333.656 34.7582 334.027 32.4299C334.356 30.2264 334.397 28.8544 334.15 28.6049C333.903 28.3555 332.998 29.0207 331.682 30.4343Z" fill="url(#paint6_linear_540_3955)"/>
<path d="M116.244 140.472C113.077 141.305 110.994 142.636 107.953 145.715C104.911 148.794 102.87 152.664 101.786 157.283C101.12 160.029 101.078 162.359 101.161 176.216C101.245 185.37 101.12 192.277 100.87 192.61C100.578 193.068 100.203 193.068 98.6198 192.444C95.5783 191.279 93.3284 192.028 93.3284 194.15C93.3284 194.94 95.9949 196.064 98.5364 196.355L100.62 196.605V198.935C100.62 200.225 100.87 201.556 101.161 201.889C101.453 202.264 101.786 203.762 101.953 205.301C102.203 207.923 102.161 208.048 101.286 208.048C100.828 208.048 100.411 207.881 100.411 207.631C100.411 207.299 98.8281 205.468 95.3699 201.806C94.8283 201.223 92.9117 199.476 91.1618 197.936C88.8286 195.856 87.7037 195.107 86.9954 195.232C86.0788 195.356 86.0371 195.481 86.0371 199.934C86.0371 202.43 86.2038 206.258 86.4121 208.38C86.7871 212.042 86.8287 212.292 87.9537 212.874C89.4952 213.623 89.4952 214.622 88.037 214.788L86.912 214.913L87.037 220.947C87.0787 224.276 87.3287 228.27 87.4953 229.893C88.037 234.054 87.9953 235.386 87.287 236.093C86.5371 236.8 86.4954 237.674 87.1204 238.298C87.412 238.59 87.7037 241.627 87.912 246.204C88.162 252.071 88.3703 253.985 88.9536 255.234L89.7452 256.856L88.2453 258.23C86.912 259.436 86.5371 259.561 84.9538 259.353C81.079 258.895 79.3291 256.815 81.4123 255.15C82.0373 254.693 82.4956 254.193 82.4956 253.985C82.4956 253.819 82.7873 253.361 83.1622 252.945C83.6622 252.404 83.8705 250.615 84.1622 245.455C84.3705 241.71 84.6622 238.257 84.7872 237.799C84.9955 237.133 84.7038 236.8 83.4539 236.135C81.1624 234.928 79.1208 232.806 79.7041 232.223C79.9541 231.973 80.579 231.765 81.0374 231.765C81.5373 231.765 82.2873 231.391 82.7039 230.975C83.3706 230.226 83.3706 229.643 82.9956 223.61C82.5789 217.992 82.4123 216.952 81.6623 216.162C80.5374 214.955 80.6207 214.039 81.9123 212.5C83.0373 211.168 83.0373 211.127 82.7873 206.3C82.5373 201.723 82.0373 198.685 81.204 196.48C80.829 195.564 80.6624 195.523 77.9958 195.772C73.2461 196.189 73.4128 196.105 71.8295 199.559C70.1213 203.304 67.7047 210.461 67.2881 213.041C66.9131 215.371 66.4548 215.953 64.9549 215.953C63.455 215.953 63.205 216.411 63.9549 217.951C64.7049 219.366 64.6632 219.532 62.33 227.688C60.6218 233.638 60.5801 234.137 61.4551 235.386C62.2884 236.592 61.9134 237.383 60.2885 237.882C59.0385 238.215 58.9552 238.423 58.6635 240.504C58.4969 241.752 58.3302 247.369 58.2469 252.987L58.1219 263.181L55.747 263.431C54.4138 263.597 53.0805 263.93 52.7472 264.18C51.9139 264.887 50.414 264.346 50.414 263.389C50.414 262.932 50.9973 261.933 51.7056 261.142C52.3722 260.352 53.2888 258.687 53.7471 257.481C55.1637 253.403 56.1637 239.422 55.0804 238.34C54.3304 237.591 54.4554 236.759 55.5387 235.926C56.4553 235.177 57.0803 233.555 59.3302 225.94C60.7468 221.03 61.6634 216.911 61.6634 215.204C61.6634 213.374 61.83 212.999 68.413 199.393C70.5796 194.94 70.6629 193.942 68.7047 194.649C68.163 194.857 66.7881 195.148 65.7048 195.315C64.5799 195.481 63.6216 195.856 63.4966 196.189C63.3716 196.48 61.6634 197.728 59.6635 198.935C55.9137 201.182 49.9557 205.967 48.1224 208.131C46.9558 209.504 46.7475 211.168 47.7058 211.543C48.5391 211.834 48.4974 213.166 47.6225 213.998C47.2058 214.331 45.9976 214.747 44.9143 214.913C42.6227 215.246 42.6644 215.204 40.4562 219.449C39.4979 221.238 38.123 223.568 37.373 224.65C34.7482 228.312 34.1648 232.098 36.0397 233.846C36.6231 234.387 37.0814 234.969 37.0814 235.177C37.0814 235.344 36.2064 235.926 35.1648 236.384C32.2066 237.799 32.29 237.632 29.1651 251.114C28.4152 254.318 27.4152 257.605 26.9986 258.438C26.3319 259.644 26.2069 260.352 26.4569 261.766C26.6236 262.765 26.8736 268.923 26.9986 275.456C27.2902 286.858 27.3319 287.315 28.1235 287.44C30.0401 287.731 30.1234 287.856 29.1651 289.479C28.6651 290.311 28.1652 291.851 28.0818 292.891C27.8735 294.555 27.9985 294.972 28.9985 296.137C29.9151 297.177 30.2901 298.176 30.7067 300.714C31.2483 304.251 32.3733 310.908 32.7066 312.365C32.9149 313.197 33.2066 313.322 34.7898 313.322C36.4564 313.322 36.6647 313.447 36.9147 314.445C37.498 316.609 37.248 317.899 36.0814 319.106C35.3731 319.855 35.0398 320.52 35.2065 320.853C35.4148 321.144 35.6648 322.892 35.8314 324.723C36.3731 330.257 36.8314 331.422 38.8729 332.421C39.8312 332.92 40.9562 333.544 41.3311 333.877C42.4977 334.751 43.331 337.705 43.331 340.785V343.572L44.9976 344.321C46.4559 344.987 46.6642 345.237 46.6642 346.485C46.6642 347.234 46.8308 347.858 46.9975 347.858C47.1642 347.858 48.4141 349.273 49.7474 351.021C51.1223 352.768 52.8305 354.599 53.6222 355.057C55.1221 355.931 56.122 357.72 55.497 358.344C55.2887 358.552 53.9971 358.677 52.6639 358.594L50.2057 358.469L49.3724 356.347C48.1641 353.351 46.6225 351.104 44.8309 349.939C43.1227 348.774 42.9561 348.274 44.1643 347.983C45.4559 347.65 45.1643 347.151 43.4977 346.86C42.0394 346.568 41.0395 345.362 41.9978 345.029C42.7894 344.779 42.5811 343.905 41.4561 342.865C40.8728 342.324 40.2895 341.242 40.1645 340.41C39.9979 339.578 39.6229 338.33 39.3312 337.622C38.5396 335.75 35.5814 332.171 34.5398 331.838C33.7899 331.589 33.7065 331.297 33.8732 330.049C33.9982 329.175 34.2898 327.76 34.4982 326.845C34.9981 325.097 34.4982 323.891 32.2066 321.103C31.0817 319.73 30.9984 319.022 31.8733 318.149C32.7899 317.275 32.6649 316.9 31.2483 316.359C30.2484 315.985 29.9984 315.652 29.9984 314.695C29.9984 314.071 29.7068 311.949 29.3734 309.993C28.9985 308.037 28.4568 305.041 28.1652 303.252C27.8319 301.504 27.1236 299.257 26.5403 298.259C25.8736 297.135 25.3737 295.471 25.207 293.765C24.957 291.518 24.6654 290.769 23.4154 289.229C21.9988 287.482 21.9572 287.398 22.7071 286.858C23.1238 286.525 23.6237 286.275 23.8321 286.275C23.9987 286.275 24.1654 285.068 24.1654 283.612C24.1654 280.949 24.1237 280.866 22.2905 279.16C21.0405 277.995 20.5406 277.246 20.8322 276.954C21.0822 276.705 21.5822 276.705 22.2488 277.037C23.0821 277.412 23.3738 277.37 23.7904 276.871C24.5404 275.956 24.7487 270.255 24.2487 264.887C23.8321 260.601 23.7487 260.31 22.5405 259.187C21.8322 258.562 21.2489 257.813 21.2489 257.564C21.2489 257.314 22.0822 256.773 23.0821 256.357C24.8737 255.567 25.4153 254.901 25.4153 253.361C25.4153 252.903 25.7486 251.863 26.2069 250.989C26.6236 250.157 27.2902 247.661 27.6652 245.497C29.1235 237.424 29.1651 237.3 30.2067 236.426C31.29 235.469 31.54 234.512 30.8317 234.054C29.9984 233.555 30.3734 231.474 31.415 230.767C32.165 230.309 32.5399 229.56 32.7483 228.229C32.8733 227.188 33.3732 225.898 33.7899 225.357C34.2065 224.816 34.9148 223.485 35.3731 222.361C36.4564 219.574 38.2063 216.411 39.3729 215.121C40.1229 214.331 40.2062 213.915 39.8729 213.415C39.1646 212.292 39.8729 210.711 41.6645 209.545C42.5811 208.963 43.581 208.464 43.8727 208.464C44.206 208.464 45.3726 207.465 46.4559 206.258C51.7472 200.433 53.5805 198.81 56.5803 197.354C58.4136 196.438 59.4552 195.689 59.2468 195.481C58.9969 195.232 55.4137 195.148 51.1223 195.232C43.7477 195.356 43.3727 195.315 43.2477 194.566C43.1644 194.108 42.8727 193.692 42.5811 193.567C42.1644 193.442 42.0811 193.942 42.2894 195.814C42.5394 198.103 42.4977 198.394 41.2895 200.017C40.2062 201.515 39.7479 201.806 38.5813 201.806C37.5397 201.806 36.9147 202.097 36.3314 202.846C34.7898 204.802 33.9565 204.261 31.9566 200.017C30.0817 196.064 29.0401 194.732 28.5401 195.564C28.3735 195.814 28.4568 196.521 28.6651 197.146C29.7484 199.892 30.4567 203.429 30.3317 205.343L30.2067 207.423L28.2485 207.299C26.0819 207.174 25.9986 207.257 26.7486 208.422C27.1236 209.046 27.1236 209.587 26.6652 210.919C25.8736 213.415 25.4986 213.582 21.4572 213.374C19.499 213.29 17.9157 213.332 17.9157 213.457C17.9157 213.915 19.9573 214.705 21.0822 214.705C22.4988 214.705 23.7487 215.413 23.7487 216.203C23.7487 217.243 22.1655 219.948 20.9572 220.988C20.2906 221.571 19.4573 222.986 18.999 224.276C18.0407 227.105 16.3741 230.267 15.3742 231.183C14.7492 231.765 14.3326 231.765 12.4993 231.391C11.3327 231.141 9.91614 230.933 9.3745 230.933C8.16623 230.933 7.99957 231.682 9.08285 232.015C10.2078 232.39 13.0826 233.929 13.7076 234.512C14.2076 234.969 14.2076 235.344 13.7493 237.05C12.9576 240.046 12.2077 241.045 11.0411 240.753C8.83286 240.212 7.83292 242.043 9.83281 242.959C10.8328 243.375 10.8744 243.583 10.6244 245.206C10.4994 246.163 10.2495 247.286 10.1245 247.744C9.87447 248.576 10.4578 248.576 2.41654 247.702C1.08328 247.577 0 247.619 0 247.827C0 248.285 4.08312 249.658 5.54137 249.658C6.87463 249.658 8.66621 250.448 8.83286 251.073C8.91619 251.322 8.87453 254.443 8.74953 257.98L8.54121 264.43L6.87463 264.554C4.74975 264.679 0 265.928 0 266.302C0 266.51 1.66658 266.76 3.7498 266.926C5.79136 267.093 7.62459 267.425 7.83292 267.717C8.04124 267.966 8.33289 269.548 8.49955 271.254C8.70787 273.833 8.66621 274.458 8.0829 275.123C7.41627 275.831 7.41627 275.914 8.29123 276.746C9.04119 277.454 9.16618 277.995 9.08285 279.742C8.91619 282.405 8.0829 282.946 4.04145 282.946C1.95823 282.946 1.20827 283.071 1.33326 283.445C1.45826 283.778 2.54153 284.028 4.20811 284.111C7.79125 284.278 9.29117 285.776 10.0411 290.02C10.2078 291.06 10.5828 292.891 10.8328 294.139C11.4161 296.927 11.0827 297.343 7.70792 297.967C5.0414 298.467 2.91651 299.382 2.91651 300.006C2.91651 300.547 3.54148 300.506 7.12462 299.965C9.54116 299.59 10.2078 299.632 10.9994 300.131C12.2493 300.963 13.2493 304.001 12.5827 304.916C11.2911 306.747 10.0411 309.785 10.4161 310.159C10.6661 310.409 11.0411 310.076 11.5411 309.286C11.916 308.578 12.5827 307.788 12.9993 307.538C14.0409 306.872 14.8742 308.287 15.8742 312.49C17.1658 317.732 17.2491 317.608 12.0827 318.149C6.87463 318.689 7.29128 318.606 7.87458 319.314C8.2079 319.73 9.66615 319.938 12.791 320.063C16.7908 320.187 17.2491 320.312 17.8324 321.144C18.1657 321.644 18.8323 322.06 19.374 322.06C20.4156 322.06 20.7072 322.601 22.4988 327.885C24.4987 333.836 24.2487 334.793 20.3323 336.582C17.2907 337.955 17.7491 338.454 21.6238 338.121C25.4153 337.83 26.2486 338.038 26.2486 339.287C26.2486 340.66 26.6652 340.868 27.8319 340.119C28.8318 339.453 28.9151 339.495 29.4568 340.202C30.8317 342.116 29.4568 343.281 26.8319 342.449C25.4986 341.991 25.2487 342.033 24.332 342.907C23.7487 343.448 23.4988 344.03 23.6654 344.197C23.8737 344.405 25.582 344.405 27.5402 344.197C32.7483 343.614 33.6232 344.363 30.9567 347.109C29.6234 348.482 29.5401 348.691 30.2067 348.94C30.6234 349.107 31.915 349.065 33.0816 348.815C34.2482 348.566 35.4981 348.524 35.8314 348.691C36.1647 348.899 36.7897 349.939 37.1647 351.062C37.5813 352.227 38.7063 353.975 39.7896 355.14C40.8312 356.222 41.6645 357.429 41.5811 357.803C41.3728 358.843 38.6646 359.01 23.4571 359.051C7.70792 359.093 7.16629 359.176 4.99973 362.131C3.45815 364.211 3.37482 366.375 4.54143 372.325C4.95807 374.572 5.66637 378.151 6.04135 380.314C7.91625 390.759 9.54116 397.666 10.8328 400.579C11.7077 402.534 13.4576 403.616 15.7492 403.616C17.6657 403.616 18.249 404.407 18.9573 407.985C19.2906 409.816 19.7906 412.063 19.9989 412.979C20.2073 413.894 21.6238 419.678 23.1238 425.878C24.6237 432.036 26.1653 438.319 26.4986 439.817C27.0819 442.439 27.4985 444.145 29.7484 453.549C31.4567 460.498 32.7899 465.199 33.3732 465.865C33.7899 466.365 34.5398 466.448 37.4563 466.198C39.4146 466.073 41.1645 465.824 41.3311 465.657C41.6228 465.408 41.0812 462.079 39.1646 451.676C38.6646 448.888 34.5815 429.082 33.7482 425.254C32.4149 419.345 31.9566 417.306 30.6234 412.188C29.7901 408.984 29.2484 406.113 29.3318 405.822C29.4984 405.364 40.2479 405.281 88.9119 405.281C121.535 405.281 148.534 405.405 148.909 405.53C149.742 405.863 149.742 407.153 148.909 411.106C141.784 444.686 138.576 461.663 138.826 464.367L138.951 465.824L142.784 465.948C148.034 466.115 147.284 467.53 150.867 450.22C151.784 445.767 153.783 436.78 155.283 430.247C156.783 423.714 158.658 415.434 159.408 411.813C160.158 408.193 160.908 405.073 161.033 404.864C161.158 404.656 162.283 404.199 163.575 403.824C165.366 403.325 165.95 402.909 166.283 402.035C167.324 399.414 168.449 393.463 169.783 383.227C170.158 380.356 170.741 376.237 171.074 374.031C171.866 368.705 171.824 365.127 170.991 363.753C170.616 363.129 169.658 362.131 168.824 361.465C165.991 359.301 164.825 359.176 147.451 359.135C131.118 359.093 124.743 358.843 124.327 358.219C123.827 357.429 124.702 356.264 126.868 354.682C128.368 353.601 129.451 352.435 129.993 351.229L130.868 349.398L133.368 349.648C134.868 349.814 135.826 349.772 135.826 349.523C135.826 349.273 135.701 349.107 135.534 349.107C135.326 349.107 134.66 348.649 133.993 348.15C132.785 347.193 132.785 347.151 133.576 346.36C134.826 345.112 135.826 343.406 135.826 342.532C135.826 342.116 136.243 341.409 136.701 340.951C137.201 340.535 137.743 339.703 137.951 339.162C138.326 338.205 138.409 338.205 141.992 338.454C147.867 338.912 148.742 338.121 143.909 336.665C142.201 336.166 140.659 335.458 140.534 335.126C140.409 334.793 141.534 331.505 142.992 327.802C144.951 322.809 145.951 320.853 146.784 320.229C147.659 319.605 148.992 319.314 152.7 318.981C157.492 318.565 159.242 317.899 155.492 317.899C154.367 317.899 153.117 317.649 152.659 317.275C152.242 316.942 151.575 316.651 151.2 316.651C150.825 316.651 150.242 316.359 149.95 315.985C149.659 315.61 148.95 315.153 148.409 314.945C147.659 314.653 147.451 314.32 147.617 313.613C147.95 311.949 149.534 306.331 150.284 304.084L151.034 301.879L154.7 301.754C159.033 301.629 159.325 301.005 155.575 300.09C152.284 299.299 151.825 298.883 152.909 297.718C153.7 296.844 156.242 289.77 156.242 288.314C156.242 287.149 156.908 287.024 159.283 287.69C161.866 288.397 166.741 289.354 171.658 290.062C173.616 290.353 175.324 290.686 175.491 290.811C175.866 291.143 176.907 312.198 177.699 335.375C178.032 345.57 178.449 354.641 178.532 355.556C178.657 356.472 178.949 363.213 179.157 370.536C179.365 377.859 179.74 387.014 179.99 390.925C180.199 394.795 180.574 401.744 180.824 406.321C182.115 430.829 183.365 444.478 185.573 459.998C186.407 465.532 186.407 465.532 188.615 465.865C190.49 466.157 194.24 465.865 194.99 465.408C195.573 465.033 195.49 459.416 194.823 450.761C193.823 438.402 192.698 419.178 192.281 407.444C192.156 404.324 191.865 398.373 191.656 394.254C191.073 384.767 190.657 373.407 189.615 340.576C189.157 326.138 188.573 308.661 188.323 301.712L187.907 289.021L188.823 288.064C190.032 286.774 194.698 284.486 195.698 284.694C196.865 284.902 196.865 286.441 195.656 287.232C193.823 288.439 193.615 290.02 194.115 299.715C194.365 304.542 194.74 316.692 194.99 326.637C195.698 358.136 197.406 403.075 198.114 409.442C198.406 411.855 198.739 418.263 199.781 439.193C200.489 454.131 201.156 463.826 201.489 464.867C201.698 465.532 202.239 465.616 205.989 465.616C209.322 465.616 210.405 465.491 210.822 464.991C211.239 464.492 211.239 462.911 210.905 457.377C210.322 448.639 209.697 437.612 209.156 426.086C208.906 421.176 208.447 412.646 208.114 407.153C207.781 401.66 207.489 393.963 207.447 390.093C207.447 386.181 207.239 380.564 207.031 377.61C206.572 370.702 205.739 338.246 205.656 323.1C205.572 314.029 205.406 310.867 204.906 308.745C204.447 306.914 204.156 302.878 203.947 296.47C203.781 291.185 203.489 286.566 203.281 286.192C202.989 285.651 202.239 285.443 200.114 285.36C197.614 285.235 197.24 285.11 196.781 284.194C196.073 282.738 194.865 282.447 190.823 282.738C187.115 283.029 178.99 282.239 174.032 281.074C171.324 280.45 162.95 277.828 161.45 277.121C151.7 272.627 146.784 269.672 139.576 263.972C135.576 260.768 134.326 259.561 130.201 254.776C127.41 251.53 123.743 245.996 123.743 244.998C123.743 244.748 122.743 242.459 121.494 239.921C116.452 229.643 114.869 221.571 113.577 199.934C112.619 184.122 112.119 164.357 112.536 159.405C113.202 151.749 115.327 146.423 119.494 141.804C121.285 139.848 120.202 139.39 116.244 140.472ZM103.453 215.995C104.244 217.41 104.411 220.739 103.703 221.155C102.995 221.612 100.536 220.988 100.245 220.323C100.12 219.99 100.495 218.783 101.036 217.66C101.62 216.536 102.078 215.413 102.078 215.163C102.078 214.331 102.703 214.705 103.453 215.995ZM113.952 250.116C113.952 250.74 111.119 251.53 110.161 251.156C109.411 250.865 109.702 249.491 110.744 248.285C111.327 247.619 111.452 247.619 112.661 248.576C113.369 249.117 113.952 249.824 113.952 250.116ZM117.077 260.893C117.619 262.515 118.619 264.596 119.327 265.553C120.035 266.468 120.785 267.467 120.994 267.758C121.619 268.591 120.952 269.631 119.41 270.255C117.16 271.212 112.119 271.919 111.577 271.378C110.911 270.713 111.911 268.591 113.119 268.05C114.411 267.467 114.994 265.345 114.994 261.267C114.994 256.482 115.619 256.399 117.077 260.893ZM87.412 260.56C87.787 260.934 87.912 263.805 87.912 270.962C87.912 277.121 88.0787 280.866 88.3286 280.866C88.9119 280.866 89.9952 283.154 89.9952 284.403C89.9952 285.193 89.7452 285.609 89.1619 285.734C88.7036 285.859 88.2036 286.4 88.0787 286.941C87.912 287.482 87.912 292.017 87.9953 297.01C88.1203 304.875 88.2453 306.206 88.9119 307.33C89.6202 308.495 89.6202 308.703 89.0369 309.826C88.537 310.783 88.412 312.906 88.3703 320.187C88.3286 325.222 88.412 330.091 88.5786 331.006C88.7869 332.504 88.7036 332.795 87.4537 333.877L86.1204 335.084L87.037 335.833C87.912 336.54 87.912 336.665 87.5787 343.78C87.2454 349.897 87.287 351.146 87.8287 352.103C88.412 353.101 88.412 353.309 87.7037 354.391C87.287 355.015 86.8287 356.222 86.6621 357.013C86.4537 358.261 86.2871 358.469 85.2455 358.469C84.1622 358.469 83.9955 358.219 83.0789 355.764C82.204 353.309 82.1623 353.018 82.7456 352.643C83.1206 352.394 83.9122 351.853 84.4955 351.395L85.5788 350.563L84.4122 350.355L83.2039 350.147L83.2456 340.993C83.2456 335.958 83.4956 330.34 83.7455 328.509C83.9955 326.679 84.3288 321.977 84.4122 318.024L84.6205 310.908L82.8706 309.244C80.9124 307.455 80.8707 306.539 82.7039 305.832C83.7455 305.457 83.7455 305.374 83.7455 300.755C83.7455 298.176 84.0372 293.723 84.3288 290.852C84.6622 288.023 84.8288 285.526 84.7455 285.36C84.6205 285.152 84.0789 285.027 83.5372 285.027C81.954 285.027 80.4124 284.153 80.4124 283.237C80.4124 282.78 80.8707 281.823 81.3707 281.115C82.7039 279.409 82.8706 278.203 83.3289 269.423C83.7455 261.933 83.7455 261.933 84.8705 261.017C86.2038 259.936 86.7037 259.852 87.412 260.56ZM57.1636 265.428C57.4136 265.636 58.7469 280.408 58.7469 283.071C58.7469 283.737 59.1635 284.569 59.7468 285.068L60.7884 285.942L59.6635 287.69C58.5802 289.313 58.5386 289.604 58.5802 294.847C58.6219 301.171 59.3718 305.624 60.5384 306.955L61.3717 307.912L60.4551 308.911C59.3718 310.076 59.3718 310.118 60.9551 316.442C62.955 324.557 63.4966 327.053 63.205 327.303C63.0383 327.469 62.455 327.344 61.8717 327.053C60.9968 326.595 60.6218 326.595 59.1635 327.261C56.997 328.26 56.372 327.719 57.3719 325.763C58.4969 323.599 58.3719 317.608 57.122 314.362C56.5803 312.989 55.9554 311.283 55.6637 310.575C55.4137 309.826 54.9137 308.953 54.6221 308.578C54.1221 307.996 54.1638 307.788 54.8304 307.039C55.5387 306.248 55.622 305.541 55.5387 299.84C55.4137 292.808 54.9554 291.102 52.8722 289.853C51.4556 289.021 51.4973 288.355 52.9972 287.648C54.9137 286.691 55.0387 286.317 54.5804 281.864C53.9555 275.415 53.3305 265.387 53.5805 265.012C53.7888 264.679 56.7053 265.012 57.1636 265.428ZM116.16 276.913C116.244 278.91 115.994 283.612 115.619 287.315C114.827 295.762 114.786 295.138 116.035 296.594C117.119 297.884 117.452 299.424 116.577 299.049C116.285 298.925 115.702 298.716 115.327 298.55C114.786 298.342 114.494 298.55 114.202 299.299C113.994 299.882 113.577 300.464 113.369 300.631C113.119 300.755 112.911 301.671 112.911 302.628C112.911 304.833 111.411 312.281 110.661 313.738C110.161 314.736 110.244 314.945 111.161 316.026C111.994 316.983 112.119 317.524 111.952 318.856C111.827 319.771 111.452 320.812 111.077 321.144C110.536 321.685 110.244 321.685 108.578 320.853C107.536 320.395 106.369 319.979 106.036 319.979C104.203 319.979 105.036 317.067 107.286 315.777C108.286 315.194 108.744 314.612 108.744 313.946C108.744 313.447 109.411 310.409 110.202 307.247C111.036 304.084 111.577 301.255 111.494 300.963C111.369 300.672 110.869 300.423 110.411 300.423C108.786 300.423 108.911 299.133 110.619 297.635L112.244 296.22L112.744 291.351C113.036 288.688 113.452 284.902 113.702 282.946C113.952 280.99 114.161 278.203 114.161 276.663C114.161 274.042 114.661 272.793 115.619 273.084C115.827 273.168 116.077 274.832 116.16 276.913ZM141.867 283.237C142.117 285.068 142.034 285.568 141.284 286.525C140.701 287.274 140.409 288.231 140.409 289.479C140.409 290.894 140.243 291.393 139.701 291.518C139.034 291.684 138.951 292.308 138.909 295.97C138.909 298.925 138.576 301.837 137.743 305.624C136.618 311.075 135.993 312.323 134.576 311.865C134.201 311.741 133.535 312.032 133.118 312.49C132.535 313.114 132.451 313.696 132.618 315.153C132.826 316.609 132.701 317.191 132.076 318.024C131.076 319.272 130.993 320.687 131.91 321.685C133.16 323.1 131.41 323.808 128.993 322.892C127.952 322.518 127.91 322.351 127.91 319.314C127.91 315.652 128.951 312.947 130.993 311.491C131.618 310.992 132.368 310.159 132.576 309.577C133.868 306.373 135.326 299.965 135.701 296.012C135.909 293.266 135.868 292.974 135.034 292.558C134.368 292.184 134.16 291.684 134.16 290.27C134.16 288.397 134.618 287.731 136.034 287.44C136.743 287.315 136.826 287.024 136.743 285.692C136.659 284.652 136.868 283.862 137.326 283.321C137.951 282.613 137.951 282.447 137.326 280.866C136.618 279.118 136.451 277.037 136.951 276.538C137.118 276.372 138.243 277.329 139.409 278.66C141.284 280.699 141.659 281.407 141.867 283.237ZM146.117 284.86C146.284 285.401 144.242 286.4 143.701 286.025C143.117 285.692 144.576 284.153 145.367 284.278C145.701 284.361 146.034 284.611 146.117 284.86ZM109.078 325.097C109.578 326.679 109.536 327.053 108.703 328.926C107.453 331.755 107.078 333.295 106.661 337.664C106.286 341.534 105.786 342.449 104.036 342.449C103.37 342.449 103.328 342.241 103.536 340.66C103.703 339.661 103.619 338.121 103.411 337.289C103.036 335.958 103.12 335.458 104.119 333.378C104.744 332.088 105.828 329.258 106.494 327.178C107.161 325.056 107.911 323.308 108.119 323.308C108.369 323.308 108.786 324.099 109.078 325.097ZM131.41 325.763C131.868 326.429 131.243 327.22 129.201 328.718C128.077 329.508 126.952 330.507 126.66 330.923C126.41 331.339 125.368 334.21 124.368 337.331C122.952 341.658 122.618 343.115 122.952 343.739C123.16 344.155 123.577 344.529 123.868 344.529C124.16 344.529 124.618 344.738 124.91 345.029C125.66 345.778 124.702 346.61 123.077 346.61C121.994 346.61 121.66 346.444 121.66 345.861C121.66 345.487 121.369 344.779 121.035 344.363C119.744 342.657 120.577 338.33 123.16 333.211C124.66 330.216 124.868 329.175 124.077 328.385C123.702 327.969 123.702 327.76 124.16 327.261C125.535 325.93 130.826 324.806 131.41 325.763ZM63.7049 333.711C64.4966 339.287 65.2465 341.159 66.9548 341.866C68.0797 342.366 68.3297 342.657 68.038 343.198C67.8714 343.572 67.7047 345.944 67.7047 348.482V353.06L68.8297 353.601C70.3296 354.308 70.9129 355.431 70.7462 357.345C70.6212 358.885 70.5796 358.885 68.6214 359.01C66.7048 359.135 66.6631 359.093 66.4131 357.845C66.1215 356.388 64.5382 354.974 62.83 354.641C61.4551 354.391 61.2467 353.684 62.5383 353.684C64.0799 353.684 64.9965 352.893 64.9965 351.603C64.9965 350.646 64.7049 350.272 63.58 349.731C61.83 348.899 61.5384 347.858 61.9134 344.113C62.1217 341.783 62.0384 340.993 61.2884 339.287C60.7884 338.163 59.7885 336.665 59.1219 335.958C58.4136 335.209 57.9136 334.377 57.9969 334.044C58.1636 333.253 62.6217 329.55 62.955 329.924C63.08 330.049 63.4133 331.755 63.7049 333.711ZM106.411 345.112C106.036 346.485 104.994 348.649 104.619 348.857C104.453 348.982 104.036 349.939 103.744 351.021C103.453 352.061 102.953 353.018 102.62 353.143C101.953 353.392 99.9947 351.728 99.9947 350.896C99.9947 349.814 101.328 347.692 103.453 345.487C105.119 343.739 105.661 343.364 106.119 343.739C106.453 344.03 106.578 344.613 106.411 345.112ZM121.66 347.484C121.66 347.983 120.952 349.107 120.035 349.98C117.702 352.352 115.411 352.103 116.91 349.648C117.327 349.023 117.869 348.066 118.202 347.525C118.994 346.235 121.66 346.194 121.66 347.484ZM114.411 355.931C114.244 356.846 113.827 357.47 113.327 357.637C111.411 358.261 111.119 356.596 112.786 354.849C114.161 353.434 114.786 353.85 114.411 355.931ZM100.995 354.516C102.245 354.974 102.37 355.972 101.37 357.096C100.203 358.386 98.4531 358.011 97.5365 356.305C96.9115 355.099 96.9532 354.974 98.0365 354.516C99.2447 354.017 99.7447 354.017 100.995 354.516ZM160.158 369.912C160.491 370.245 160.241 372.533 159.117 379.773C158.908 381.147 158.533 383.685 158.325 385.391C157.367 392.381 157.033 394.295 156.408 395.211L155.783 396.168L88.037 395.96C43.0394 395.835 20.1656 395.627 19.8739 395.336C19.4573 394.92 18.2907 389.635 17.4991 384.475C17.2907 382.977 16.7074 379.69 16.2491 377.194C15.2492 371.659 15.2075 370.078 16.0408 369.621C16.9158 369.121 159.658 369.412 160.158 369.912Z" fill="url(#paint7_linear_540_3955)"/>
<path d="M127.003 141.572C126.879 141.78 126.962 144.189 127.211 146.847C127.459 149.547 127.832 162.506 128.04 175.631C128.62 210.106 128.869 214.426 131.149 226.969C131.687 229.877 131.687 230.791 131.19 234.238C130.61 238.101 130.61 238.142 131.522 239.181C132.06 239.762 133.387 241.881 134.465 243.957C135.542 245.993 136.579 247.862 136.745 248.111C136.952 248.319 137.449 249.482 137.905 250.645C138.32 251.808 139.397 253.885 140.309 255.214C142.216 258.163 148.807 264.767 152.745 267.799C157.802 271.662 168.04 276.106 175.17 277.56C178.942 278.349 198.963 278.848 200.165 278.224C201.326 277.601 200.745 276.854 199.295 277.145C198.175 277.352 192.497 276.688 187.108 275.691C181.678 274.694 172.393 271.496 169.284 269.585C167.087 268.214 156.061 259.367 153.905 257.249C145.615 248.983 140.102 234.612 136.91 213.013C136.289 208.984 136.164 204.499 136.123 183.731C136.081 159.515 135.957 157.023 134.63 153.41C133.138 149.339 130.651 144.438 129.242 142.652C127.957 141.115 127.459 140.866 127.003 141.572Z" fill="url(#paint8_linear_540_3955)"/>
<path d="M121.271 142.748C119.307 144.909 117.677 148.399 116.256 153.677C115.003 158.249 115.003 156.046 116.047 176.118C117.593 206.082 118.179 211.526 121.145 223.702C122.859 230.725 126.035 239.909 128.375 244.522C128.96 245.603 129.42 246.891 129.42 247.348C129.42 248.595 137.109 257.779 138.195 257.779C138.864 257.779 138.697 256.449 137.819 255.078C137.401 254.372 135.604 252.252 133.849 250.299C131.676 247.889 130.757 246.559 130.966 246.143C131.384 245.27 131.217 242.154 130.673 241.198C130.464 240.741 130.255 239.619 130.255 238.704C130.255 237.79 130.088 236.959 129.879 236.834C129.67 236.668 129.169 235.546 128.751 234.299C128.208 232.471 128.124 231.764 128.542 230.933C129.587 228.606 128.793 223.993 126.829 221.125C126.202 220.211 125.533 218.424 125.283 216.887C124.656 213.396 124.071 193.656 123.736 164.565C123.611 151.849 123.318 141.335 123.151 141.21C122.984 141.085 122.107 141.792 121.271 142.748Z" fill="url(#paint9_linear_540_3955)"/>
<defs>
<linearGradient id="paint0_linear_540_3955" x1="225.264" y1="128.82" x2="48.3954" y2="168.522" gradientUnits="userSpaceOnUse">
<stop stop-color="#190633"/>
<stop offset="1" stop-color="white"/>
</linearGradient>
<linearGradient id="paint1_linear_540_3955" x1="347.249" y1="106.123" x2="159.97" y2="162.172" gradientUnits="userSpaceOnUse">
<stop stop-color="#190633"/>
<stop offset="1" stop-color="white"/>
</linearGradient>
<linearGradient id="paint2_linear_540_3955" x1="231.491" y1="220.903" x2="173.722" y2="223.272" gradientUnits="userSpaceOnUse">
<stop stop-color="#190633"/>
<stop offset="1" stop-color="white"/>
</linearGradient>
<linearGradient id="paint3_linear_540_3955" x1="251.711" y1="222.198" x2="200.006" y2="224.096" gradientUnits="userSpaceOnUse">
<stop stop-color="#190633"/>
<stop offset="1" stop-color="white"/>
</linearGradient>
<linearGradient id="paint4_linear_540_3955" x1="268.015" y1="222.198" x2="207.216" y2="224.823" gradientUnits="userSpaceOnUse">
<stop stop-color="#190633"/>
<stop offset="1" stop-color="white"/>
</linearGradient>
<linearGradient id="paint5_linear_540_3955" x1="384.214" y1="234.473" x2="148.365" y2="277.357" gradientUnits="userSpaceOnUse">
<stop stop-color="#190633"/>
<stop offset="1" stop-color="white"/>
</linearGradient>
<linearGradient id="paint6_linear_540_3955" x1="362.32" y1="124.807" x2="194.245" y2="174.443" gradientUnits="userSpaceOnUse">
<stop stop-color="#190633"/>
<stop offset="1" stop-color="white"/>
</linearGradient>
<linearGradient id="paint7_linear_540_3955" x1="252.331" y1="294.484" x2="-144.861" y2="493.019" gradientUnits="userSpaceOnUse">
<stop stop-color="#190633"/>
<stop offset="1" stop-color="white"/>
</linearGradient>
<linearGradient id="paint8_linear_540_3955" x1="215.185" y1="206.219" x2="67.1493" y2="267.735" gradientUnits="userSpaceOnUse">
<stop stop-color="#190633"/>
<stop offset="1" stop-color="white"/>
</linearGradient>
<linearGradient id="paint9_linear_540_3955" x1="143.153" y1="196.404" x2="89.6114" y2="204.679" gradientUnits="userSpaceOnUse">
<stop stop-color="#190633"/>
<stop offset="1" stop-color="white"/>
</linearGradient>
</defs>
</svg>
