<svg width="355" height="463" viewBox="0 0 355 463" fill="none" xmlns="http://www.w3.org/2000/svg">
<path d="M66.5368 0.202667C66.142 0.400085 65.6814 0.82782 65.484 1.18973C65.0233 1.97937 65.0233 7.40817 65.4182 9.81C65.6156 10.7971 65.9775 13.0015 66.2736 14.7124C68.6425 28.5641 73.6436 40.2442 80.6846 48.3381C84.5341 52.7469 89.5681 56.1029 93.4176 56.8267C97.9581 57.6822 102.268 57.057 106.545 54.9513C108.289 54.0959 109.803 53.3391 109.934 53.2733C110.033 53.2075 110.461 53.8656 110.888 54.6881C111.316 55.5435 112.994 57.8796 114.606 59.8866C116.219 61.9265 118.884 65.4141 120.529 67.6843C122.174 69.9546 124.411 72.9157 125.497 74.2647C128.195 77.6207 131.255 81.8321 131.255 82.2599C131.255 82.4244 131.814 83.214 132.505 83.9378C134.413 86.0765 134.973 86.8003 136.684 89.2679C137.539 90.5182 139.48 93.2491 140.961 95.3219C144.613 100.487 146.817 104.107 146.62 104.666C146.422 105.192 142.507 105.587 139.217 105.39C137.177 105.291 137.111 105.258 135.4 103.482C131.09 99.0398 123.687 96.4077 118.851 97.5921C113.619 98.8753 108.947 103.054 104.341 110.588C101.873 114.602 101.215 116.05 101.38 116.906C101.544 117.827 109.803 119.998 115.001 120.492C118.061 120.788 123.161 120.163 126.254 119.11C132.209 117.103 134.742 114.734 136.519 109.47L137.374 107.002L142.441 106.903C145.238 106.87 147.87 106.903 148.265 107.002C149.548 107.298 153.069 112.694 157.839 121.643C159.254 124.308 160.472 126.941 163.005 132.665C169.322 146.978 174.192 161.784 176.166 172.641C176.462 174.188 176.824 176.063 176.988 176.787C177.581 179.386 177.745 182.676 177.317 183.466C176.922 184.223 176.922 184.223 176.33 183.63C176.001 183.269 175.376 182.347 174.948 181.525C172.579 177.149 171.757 175.833 169.684 172.937C164.025 165.041 154.549 156.421 146.554 151.88C139.085 147.702 134.117 145.464 128.458 143.852C127.372 143.556 125.826 143.095 125.003 142.865C121.976 142.01 114.277 140.101 108.552 138.785C106.71 138.39 102.762 137.601 100.162 137.107C93.0886 135.824 92.4306 135.725 83.7116 134.508C81.0136 134.113 77.4931 133.587 75.9467 133.324C73.7094 132.929 72.9198 132.929 72.0972 133.225C71.2089 133.587 70.9457 133.554 70.1231 132.929C69.5967 132.567 67.0632 131.415 64.4311 130.395C61.8319 129.342 59.2655 128.322 58.7062 128.059C58.1797 127.829 56.765 127.171 55.5805 126.644C54.396 126.118 52.2903 125.197 50.8755 124.605C46.7957 122.894 33.0756 115.918 32.944 115.458C32.7466 114.734 34.1285 115.03 38.7677 116.576C41.2353 117.432 45.3151 118.814 47.8486 119.669C56.2714 122.565 62.2925 124.934 68.807 128.026C70.5508 128.849 72.2617 129.54 72.6237 129.54C73.7752 129.54 74.4004 128.388 74.5649 126.019C74.8939 121.479 73.3146 116.741 69.5638 111.148C67.82 108.516 62.6544 103.416 59.9235 101.705C56.2385 99.303 53.1787 98.2173 48.1118 97.4605C43.8674 96.8025 40.8734 96.8354 33.5363 97.625C22.5142 98.8095 15.177 100.06 5.70132 102.396C0.502827 103.712 -0.87905 105.357 0.502827 108.68C1.62149 111.312 9.91275 123.42 13.4332 127.533C20.8362 136.087 30.4764 143.227 37.4845 145.3C42.1566 146.682 43.2094 146.813 48.5066 146.78C55.0541 146.747 57.3572 146.221 64.0363 143.161C65.8788 142.339 67.1291 141.384 69.7283 138.917C72.6895 136.054 73.1501 135.758 73.9397 135.956C74.4333 136.087 75.5848 136.318 76.4732 136.449C77.3944 136.614 79.2369 136.976 80.5859 137.272C81.9349 137.601 83.4155 137.897 83.8761 137.996C84.3367 138.061 85.7515 138.357 87.0018 138.588C88.2849 138.851 91.4435 139.443 94.0757 139.937C101.577 141.319 116.186 144.971 120.463 146.517C121.779 146.978 123.72 147.669 124.773 148.031C125.793 148.425 126.648 148.919 126.648 149.149C126.648 149.478 125.76 149.511 122.47 149.38C114.87 149.051 97.8265 150.893 92.1015 152.703C91.279 152.933 89.6997 153.558 88.5481 154.019C87.3966 154.512 86.2121 154.808 85.8831 154.71C85.5541 154.611 84.7973 153.854 84.2051 153.032C82.9548 151.288 80.5201 149.643 77.9867 148.787C76.6048 148.327 75.5519 148.261 73.2159 148.36C71.5708 148.458 69.8599 148.689 69.3993 148.853C68.9387 149.051 67.7542 149.478 66.7671 149.774C64.2337 150.597 59.101 153.328 56.5676 155.236C54.0999 157.046 48.8685 162.31 46.6641 165.238C42.0578 171.292 38.5373 177.346 36.1026 183.433C34.9181 186.361 34.951 187.908 36.2013 188.862C38.4057 190.474 53.6393 190.342 62.2267 188.599C71.3076 186.789 77.2628 183.992 81.7375 179.419C86.8702 174.155 89.0088 168.232 88.252 161.422C88.0546 159.711 87.7914 158 87.6598 157.638C87.3966 156.783 87.6927 156.651 91.4435 155.993C104.407 153.657 118.818 152.538 127.438 153.163L132.735 153.558L136.025 155.17C144.481 159.382 149.778 163.165 156.622 170.009C162.577 175.964 165.966 180.669 169.882 188.599C174.455 197.778 174.093 196.133 174.29 208.57C174.389 215.973 174.323 219.362 174.093 219.362C173.896 219.362 173.205 218.276 172.547 216.96C168.862 209.755 162.479 203.207 157.247 201.299C154.089 200.147 150.897 199.654 150.502 200.279C150.009 201.101 150.93 202.023 154.187 203.964C161.623 208.373 166.526 215.808 169.914 227.752C170.243 228.838 170.671 230.384 170.934 231.206C172.579 236.833 172.514 233.543 172.612 290.627C172.711 335.176 172.678 343.698 172.283 343.994C171.954 344.29 163.038 344.389 139.513 344.455L107.171 344.553L106.381 345.475C105.624 346.363 105.591 346.56 105.624 351.397C105.624 354.161 105.756 359.326 105.887 362.88L106.085 369.394L107.006 370.283L107.894 371.204L177.745 371.368C255.689 371.566 249.471 371.73 250.985 369.263C251.708 368.111 251.741 367.848 251.774 357.056C251.84 344.784 251.939 345.277 249.504 344.718C248.78 344.52 234.205 344.389 216.569 344.389C194.953 344.389 184.852 344.29 184.72 344.06C184.589 343.862 184.424 320.041 184.325 291.154C184.128 242.031 184.161 238.346 184.687 234.99C186.596 223.08 190.643 214.196 196.894 208.011C198.539 206.366 200.645 204.589 201.599 204.062C205.415 201.825 203.343 200.674 198.835 202.516C195.775 203.766 192.946 205.74 190.675 208.241C188.636 210.445 185.872 214.196 185.872 214.69C185.872 215.085 184.589 216.236 184.391 216.006C184.227 215.841 184.786 203.733 185.082 201.595C185.28 200.048 186.398 197.449 188.175 194.356C192.781 186.394 197.19 179.978 200.678 176.162C206.764 169.548 218.543 161.718 226.933 158.691C229.105 157.934 229.829 157.835 233.843 157.835C237.824 157.835 243.384 158.395 250.82 159.48C254.604 160.04 262.599 161.455 264.014 161.817C264.737 162.014 265.889 162.31 266.58 162.475L267.83 162.804L267.567 164.843C267.172 167.969 267.271 172.279 267.764 174.122C268.784 177.774 271.68 182.446 274.509 185.078C280.07 190.211 289.611 193.797 300.864 195.014C302.937 195.245 307.312 195.376 311.063 195.311C318.269 195.179 319.486 194.883 320.144 193.139C320.835 191.297 317.216 182.742 312.708 175.602C305.141 163.659 295.632 156.092 285.63 154.052C282.636 153.427 281.024 153.427 278.392 154.052C275.825 154.677 274.016 155.763 271.844 158.132L270.133 159.974L266.58 159.02C264.639 158.493 262.5 157.967 261.875 157.835C261.25 157.704 259.309 157.276 257.598 156.914C251.05 155.532 246.016 154.776 239.666 154.216C232.889 153.591 232.658 153.492 236.146 152.143C239.304 150.926 240.719 150.498 248.221 148.491C253.321 147.142 260.855 145.497 266.317 144.51C267.962 144.214 269.87 143.852 270.594 143.688C271.318 143.523 272.371 143.326 272.897 143.227C273.456 143.128 275.266 142.766 276.911 142.404C278.589 142.043 281.024 141.648 282.34 141.549L284.742 141.352L287.144 143.655C289.874 146.287 292.737 147.833 298.429 149.742C303.167 151.288 307.674 151.814 311.491 151.255C317.94 150.334 324.915 147.34 330.706 143.062C338.898 136.943 345.676 129.145 352.487 117.925C354.658 114.306 355.448 111.904 354.757 110.819C353.967 109.568 349.591 107.956 342.978 106.541C331.857 104.107 328.337 103.547 319.618 102.725C313.597 102.133 309.418 102.363 304.976 103.449C296.948 105.423 289.381 111.674 285.597 119.505C283.195 124.407 282.833 134.475 285.071 134.475C285.301 134.475 287.637 133.455 290.236 132.205C292.836 130.955 296.126 129.474 297.574 128.882C299.021 128.29 302.147 127.039 304.483 126.085C307.806 124.736 322.382 119.669 322.941 119.669C323.007 119.669 323.072 119.801 323.072 119.965C323.072 121.018 311.425 127.105 301.357 131.284C299.811 131.909 297.245 133.06 295.599 133.817C293.987 134.574 291.618 135.528 290.368 135.989C289.118 136.416 287.604 137.074 286.979 137.436C286.288 137.831 285.268 138.094 284.314 138.094C279.807 138.094 258.684 141.549 246.905 144.214C245.654 144.51 244.009 144.872 243.285 145.004C240.686 145.563 232.724 147.669 230.618 148.36C225.058 150.136 216.668 154.15 211.14 157.638C203.507 162.442 194.295 170.766 191.301 175.537C186.661 182.907 185.74 183.565 186.497 179.024C186.727 177.609 187.023 176.195 187.188 175.8C187.418 175.175 188.076 172.904 188.833 170.009C189.359 168.002 192.781 157.112 193.604 154.874C196.598 146.55 197.947 143.161 201.204 135.791C204.856 127.533 212.818 112.99 215.845 109.042L216.964 107.561L221.077 107.726C225.519 107.923 226.012 108.121 226.012 109.766C226.012 112.924 229.335 117.004 234.04 119.669C237.923 121.841 239.765 122.367 243.944 122.565C247.793 122.696 256.808 121.907 259.309 121.216C261.382 120.623 261.316 119.867 258.947 115.26C252.959 103.547 247.365 98.8095 239.666 98.8424C235.093 98.8424 230.914 100.586 227.789 103.778L225.782 105.818L222.524 106.081C220.748 106.212 219.136 106.344 218.938 106.344C218.774 106.344 218.576 106.114 218.51 105.818C218.412 105.258 225.091 95.2561 229.96 88.6428C231.671 86.3397 233.843 83.3127 234.797 81.8979C237.824 77.3575 241.575 72.0274 245.49 66.5986C247.596 63.6703 250.326 59.8208 251.544 58.0441C252.728 56.3003 253.913 54.8526 254.143 54.8526C254.373 54.8526 255.295 55.2145 256.183 55.6423C262.204 58.6034 268.883 58.9325 274.246 56.4977C278.03 54.7868 282.274 51.3321 284.906 47.7787C286.518 45.6072 289.052 40.9023 290.631 37.3159C294.119 29.1234 297.409 14.8111 297.508 7.30948C297.574 3.52576 297.277 2.73611 295.534 2.01227C294.185 1.42004 292.77 1.58453 288.032 2.76901C278.425 5.17084 266.448 9.28357 261.052 11.9815C254.933 15.0414 249.734 21.3914 247.201 28.8602C246.247 31.591 246.345 40.2442 247.332 43.6002C248.056 46.1336 248.912 47.7458 249.997 48.7329C251.215 49.8515 252.63 48.9632 255.788 45.1466C260.065 39.981 268.587 30.5711 276.22 22.6088C277.832 20.8979 279.741 18.8909 280.399 18.1671C282.636 15.6994 281.978 17.2787 278.951 21.4902C273.983 28.4654 265.659 38.5333 260.131 44.324C258.651 45.8704 256.907 47.7129 256.282 48.4368C255.624 49.1606 254.472 50.2464 253.715 50.8715C252.037 52.1876 247.596 57.6822 240.489 67.2237C238.745 69.5598 235.488 74.1989 221.504 94.0058C215.516 102.527 215.319 102.725 214.069 101.31C213.213 100.356 210.746 99.2701 208.607 98.8753C205.777 98.3488 205.58 97.296 208.015 95.8483C209.989 94.6967 213.016 91.5053 213.97 89.5312C216.174 85.0894 215.747 78.8381 212.785 73.2119C210.12 68.1121 193.176 53.4378 188.8 52.4179C186.76 51.9573 186.234 53.6024 186.201 60.8408C186.201 63.8677 186.069 65.7102 185.872 65.7102C185.707 65.7102 185.543 65.6773 185.51 65.6115C185.51 65.5786 185.312 63.9993 185.049 62.091C184.161 55.05 183.634 53.0101 182.713 52.6482C181.66 52.2534 174.751 56.2345 170.243 59.8866C162.775 65.9406 159.287 70.5797 157.51 76.7982C156.227 81.2728 156.49 87.9848 158.136 93.9729L158.662 95.7825L156.194 98.0856C151.095 102.889 150.996 102.955 149.68 101.146C147.87 98.7437 143.066 91.9659 140.961 88.906C138.723 85.6158 129.577 73.3434 124.773 67.1908C118.259 58.8008 114.343 54.392 106.052 45.9691C97.9252 37.7108 93.4176 32.94 87.9888 26.7545C85.4883 23.892 80.1911 16.6536 80.4214 16.4233C80.6846 16.1272 93.2531 28.4983 101.281 36.9211C109.112 45.1795 111.316 47.2852 112.007 47.2852C112.468 47.2852 113.225 46.693 114.047 45.7059C116.581 42.7119 117.14 41.0009 117.337 35.5392C117.535 30.6369 117.074 28.0047 115.396 24.2539C114.244 21.6876 113.257 20.1412 111.053 17.509C108.816 14.8769 107.796 13.9556 105.196 12.2119C100.195 8.88876 93.286 6.28952 79.1053 2.37418C71.2418 0.202667 67.9187 -0.356659 66.5368 0.202667ZM186.694 68.9017C187.188 73.8041 190.281 81.4373 194.13 87.228C196.104 90.2221 200.02 94.2361 202.75 96.1115C204.33 97.1973 204.626 97.5592 204.56 98.2502C204.428 99.3359 203.441 99.7965 200.316 100.29C199 100.487 197.618 100.784 197.289 100.981C196.269 101.507 195.611 100.948 194.525 98.6779C193.406 96.3418 190.84 93.4136 189.195 92.5252C186.464 91.1433 185.148 90.8801 180.377 90.913C177.679 90.946 175.672 90.8143 175.672 90.6498C175.672 90.4853 176.955 88.3796 178.535 86.0107C183.108 79.1342 184.819 75.2189 185.543 70.152C185.707 68.8688 185.872 67.6514 185.872 67.4211C185.872 67.2237 186.003 67.0263 186.168 67.0263C186.332 67.0263 186.563 67.8817 186.694 68.9017ZM161.261 97.5263C162.117 98.3159 161.985 99.2701 160.833 100.455L159.814 101.507L160.801 102.626C164.321 106.541 165.44 107.627 167.545 109.075C170.375 111.016 172.547 112.135 175.113 112.891C177.91 113.747 184.951 113.517 187.616 112.464C190.346 111.411 192.386 109.239 194.064 105.719C194.986 103.811 195.677 102.791 196.17 102.593C196.565 102.462 198.44 102.067 200.349 101.738C202.981 101.244 204.001 100.915 204.56 100.356C205.448 99.4675 207.324 99.3359 208.804 100.06C213.378 102.297 213.674 102.495 213.773 103.251C213.838 103.745 213.18 105.127 212.029 106.969C208.574 112.497 203.178 122.203 199.329 129.869C196.137 136.219 194.821 139.18 192.386 145.333C188.274 155.697 186.793 159.941 183.569 170.832C183.207 172.082 182.779 173.332 182.615 173.595C182.253 174.155 181.595 173.793 181.595 173.069C181.595 172.411 179.719 166.291 176.758 157.177C170.441 137.897 163.663 122.598 155.964 110.161C153.76 106.64 151.983 103.58 151.983 103.35C151.983 103.153 152.838 102.33 153.891 101.54C154.911 100.784 155.997 99.8623 156.26 99.5004C158.333 96.8683 158.662 96.5721 159.682 96.7696C160.208 96.9012 160.932 97.2302 161.261 97.5263Z" fill="url(#paint0_linear_534_3645)"/>
<path d="M148.199 13.4621C145.468 16.2917 138.921 24.4184 136.782 27.7086C131.353 35.967 128.918 44.7518 129.873 52.4508C130.399 56.4977 130.892 58.1757 132.801 62.091C133.919 64.4271 134.808 65.7102 136.321 67.2237C140.631 71.5339 143.658 71.3693 149.383 66.5657C153.167 63.4071 156.49 58.406 158.234 53.2075C159.714 48.7987 160.208 45.4427 160.208 39.5533C160.208 34.4206 160.109 33.5322 159.089 28.8602C157.411 21.0953 154.648 13.166 153.167 11.6525C152.838 11.3564 152.114 11.0932 151.555 11.0932C150.699 11.0932 150.107 11.5209 148.199 13.4621Z" fill="url(#paint1_linear_534_3645)"/>
<path d="M215.55 12.8041C213.872 14.6137 210.219 25.7016 209.199 32.0188C208.541 36.1973 208.706 45.5414 209.496 49.1277C210.877 55.4778 214.398 62.0253 218.741 66.4012C221.702 69.3624 223.38 70.3165 225.617 70.3165C227.855 70.3165 229.303 69.6256 231.178 67.6844C237.692 60.9395 239.93 50.0819 236.705 40.8694C235.488 37.4147 234.863 35.967 233.942 34.4535C233.382 33.5323 232.922 32.7097 232.922 32.611C232.922 32.0846 226.966 23.5301 223.742 19.3845C217.787 11.8171 217.063 11.2248 215.55 12.8041Z" fill="url(#paint2_linear_534_3645)"/>
<path d="M73.842 59.0311C72.7563 59.0969 70.2557 59.2614 68.2487 59.4588C55.9434 60.5775 53.0481 61.2355 52.4558 63.078C51.6333 65.6773 61.4051 78.4432 70.0583 86.0435C74.7633 90.1563 81.3765 94.2361 85.3906 95.5193C88.0556 96.3418 92.9909 96.5063 95.7876 95.8154C101.249 94.4993 106.514 90.584 109.376 85.6816C110.659 83.4772 110.725 83.4443 111.778 83.6417C113.324 83.9378 128.229 83.8391 129.578 83.543C130.203 83.4114 130.762 83.1482 130.828 82.9508C130.927 82.6875 127.669 82.5888 120.168 82.6217C108.751 82.6546 105.658 82.3585 99.67 80.7792C98.321 80.4502 96.643 80.0225 95.985 79.8251C95.3269 79.6606 93.9121 79.2328 92.8593 78.838C85.7196 76.2717 86.0486 76.4033 78.7773 73.0802C74.0723 70.9087 72.7563 70.1519 73.0853 69.79C73.2169 69.6913 73.8749 69.79 74.5659 69.9874C75.2568 70.2177 76.4084 70.5797 77.1322 70.81C77.8561 71.0403 79.6328 71.5996 81.0804 72.0602C82.5281 72.5209 86.1473 73.6395 89.1414 74.5937C95.8205 76.6994 96.0508 76.7323 102.829 78.509C104.934 79.0683 108.093 78.9696 109.08 78.3116C109.837 77.8181 109.902 77.6207 109.705 76.2717C108.718 69.1978 103.256 63.4071 95.0637 60.6762C90.951 59.3272 81.9359 58.6034 73.842 59.0311Z" fill="url(#paint3_linear_534_3645)"/>
<path d="M269.113 62.4859C265.165 63.5716 264.277 63.9335 262.599 65.0851C259.736 66.9605 257.071 70.3823 255.854 73.6067C255.163 75.4163 254.472 80.2529 254.768 81.0096C254.933 81.5031 255.262 81.536 256.709 81.4044C259.078 81.1083 260.822 80.7464 264.672 79.7264C274.18 77.1272 281.287 75.2847 283.261 74.8899C284.084 74.6924 285.005 74.4292 285.301 74.2647C286.124 73.8041 287.275 73.8699 287.144 74.3305C286.913 74.9886 278.359 78.5091 272.733 80.2529C271.548 80.6148 270.298 81.0425 269.936 81.1741C268.883 81.5689 266.712 82.2599 265.659 82.5231C264.112 82.9179 259.243 84.0695 257.368 84.4972C256.084 84.7933 253.255 84.7933 245.26 84.4643C237.89 84.2011 234.731 84.1682 234.468 84.4314C234.238 84.6617 234.27 84.8262 234.599 84.9249C235.093 85.0894 240.127 85.3526 249.109 85.6488L254.933 85.8462L256.183 88.0177C258.815 92.5581 261.875 95.0587 266.613 96.5722C268.949 97.3289 275.167 97.296 277.832 96.5064C284.314 94.5981 292.309 88.906 298.659 81.7005C305.996 73.4422 308.925 69.0333 307.872 67.7831C306.951 66.6644 304.088 65.9077 294.119 64.0652C284.676 62.3214 272.437 61.5646 269.113 62.4859Z" fill="url(#paint4_linear_534_3645)"/>
<path d="M125.759 184.453C121.021 185.21 115.889 187.48 110.197 191.231C106.413 193.764 97.9572 201.825 95.4238 205.313C93.8445 207.451 92.4297 210.314 92.4297 211.301C92.4297 213.44 95.2592 215.611 100.063 217.19C105.854 219.099 109.012 219.757 116.711 220.645C119.475 220.974 121.877 221.369 122.041 221.533C122.239 221.731 122.239 223.54 122.074 226.107C121.416 235.648 123.16 244.861 126.121 247.822C127.898 249.599 131.385 248.546 139.183 244.038C142.276 242.229 144.546 240.452 147.474 237.524C150.567 234.497 151.883 232.753 153.594 229.496C156.72 223.54 156.522 218.309 153.002 213.045C150.6 209.458 148.725 207.451 147.902 207.583C147.145 207.682 145.796 209.557 141.289 216.796C139.743 219.263 138.262 221.435 137.999 221.665C137.275 222.257 137.045 221.435 137.505 219.888C138.394 216.861 139.019 215.348 141.322 210.61C142.671 207.879 143.757 205.313 143.757 204.951C143.757 203.372 139.084 203.174 133.392 204.556C127.437 205.971 123.818 206.892 123.028 207.155C119.87 208.307 119.574 207.649 122.206 205.28C124.081 203.635 126.417 202.319 128.984 201.463C133.952 199.851 134.149 199.818 141.914 199.719C146.784 199.687 149.58 199.522 149.81 199.292C150.337 198.765 150.172 194.718 149.58 193.304C148.363 190.441 143.888 186.921 139.479 185.308C137.308 184.519 136.419 184.42 132.241 184.321C129.609 184.256 126.713 184.321 125.759 184.453Z" fill="url(#paint5_linear_534_3645)"/>
<path d="M216.47 188.105C214.792 188.401 212.686 189.092 210.383 190.112C206.336 191.889 202.816 197.318 203.671 200.443C204 201.562 204.066 201.595 205.547 201.595C206.402 201.595 208.31 201.43 209.824 201.2C216.667 200.246 226.077 203.075 231.046 207.55C233.743 209.985 232.789 210.248 227.328 208.504C220.418 206.333 212.456 204.984 211.239 205.806C210.844 206.102 210.877 206.366 211.469 207.649C211.864 208.471 212.193 209.228 212.193 209.327C212.193 209.524 212.555 210.347 214.562 214.756C215.845 217.552 217.457 221.698 217.457 222.224C217.457 224.1 214.331 220.25 211.14 214.492C208.475 209.656 208.113 209.162 206.928 209.162C205.547 209.162 202.553 212.189 201.467 214.657C199.558 218.934 199.756 224.659 201.927 229.364C204.757 235.352 208.606 239.926 214.299 244.005C218.543 247.065 222.524 249.039 224.794 249.237C226.472 249.368 226.571 249.335 227.788 247.986C229.203 246.407 230.322 244.17 231.144 241.242C231.967 238.28 232.164 229.134 231.44 226.107C231.144 224.824 230.881 223.573 230.848 223.31C230.782 222.882 231.736 222.817 237.692 222.817C252.827 222.784 261.875 220.086 261.875 215.644C261.875 215.216 261.348 213.834 260.723 212.584C256.577 204.26 242.89 193.139 232.592 189.652C227.657 187.974 220.945 187.315 216.47 188.105Z" fill="url(#paint6_linear_534_3645)"/>
<path d="M116.383 377.817C115.232 378.409 115.232 379.067 116.285 382.423C116.745 383.838 117.403 386.207 117.765 387.655C118.555 391.011 120.002 397.098 120.43 399.006C120.595 399.828 121.648 404.171 122.733 408.712C123.819 413.219 125.004 418.188 125.365 419.734C125.727 421.28 126.155 423.057 126.32 423.682C126.484 424.307 126.813 425.788 127.109 426.972C127.372 428.157 128.195 431.546 128.919 434.54C130.169 439.64 131.156 443.95 132.439 449.675C133.657 455.136 134.874 459.414 135.466 460.203C136.881 462.112 134.348 462.013 178.864 462.013H219.728L220.748 461.026C221.34 460.467 221.998 459.677 222.228 459.216C222.623 458.427 223.709 454.215 224.861 449.017C225.157 447.668 225.979 444.18 226.67 441.285C228.118 435.198 229.237 430.361 230.454 424.998C230.915 422.926 231.441 420.622 231.606 419.899C231.77 419.175 232.165 417.53 232.428 416.279C233.744 410.423 237.824 393.347 238.976 388.971C241.608 379.067 241.641 378.344 239.831 377.718C238.943 377.422 224.137 377.324 177.976 377.324C124.773 377.324 117.173 377.389 116.383 377.817Z" fill="url(#paint7_linear_534_3645)"/>
<defs>
<linearGradient id="paint0_linear_534_3645" x1="28" y1="130.424" x2="131.965" y2="389.727" gradientUnits="userSpaceOnUse">
<stop stop-color="#E2CFFA"/>
<stop offset="1" stop-color="#0E3E27"/>
</linearGradient>
<linearGradient id="paint1_linear_534_3645" x1="132.079" y1="31.8877" x2="155.053" y2="62.8037" gradientUnits="userSpaceOnUse">
<stop stop-color="#E2CFFA"/>
<stop offset="1" stop-color="#0E3E27"/>
</linearGradient>
<linearGradient id="paint2_linear_534_3645" x1="211.108" y1="32.5359" x2="233.83" y2="62.4544" gradientUnits="userSpaceOnUse">
<stop stop-color="#E2CFFA"/>
<stop offset="1" stop-color="#0E3E27"/>
</linearGradient>
<linearGradient id="paint3_linear_534_3645" x1="58.5927" y1="72.0184" x2="63.9344" y2="101.299" gradientUnits="userSpaceOnUse">
<stop stop-color="#E2CFFA"/>
<stop offset="1" stop-color="#0E3E27"/>
</linearGradient>
<linearGradient id="paint4_linear_534_3645" x1="240.137" y1="74.3896" x2="245.136" y2="101.862" gradientUnits="userSpaceOnUse">
<stop stop-color="#E2CFFA"/>
<stop offset="1" stop-color="#0E3E27"/>
</linearGradient>
<linearGradient id="paint5_linear_534_3645" x1="97.4278" y1="206.887" x2="115.045" y2="252.169" gradientUnits="userSpaceOnUse">
<stop stop-color="#E2CFFA"/>
<stop offset="1" stop-color="#0E3E27"/>
</linearGradient>
<linearGradient id="paint6_linear_534_3645" x1="205.025" y1="209.371" x2="221.637" y2="252.869" gradientUnits="userSpaceOnUse">
<stop stop-color="#E2CFFA"/>
<stop offset="1" stop-color="#0E3E27"/>
</linearGradient>
<linearGradient id="paint7_linear_534_3645" x1="125.412" y1="407.059" x2="142.034" y2="471.384" gradientUnits="userSpaceOnUse">
<stop stop-color="#E2CFFA"/>
<stop offset="1" stop-color="#0E3E27"/>
</linearGradient>
</defs>
</svg>
