<svg width="215" height="276" viewBox="0 0 215 276" fill="none" xmlns="http://www.w3.org/2000/svg">
<path d="M118.117 0.350984C117.551 0.523113 116.027 1.16245 114.747 1.80178C107.27 5.44107 102.425 13.7524 100.727 25.8506C99.6944 33.1537 99.5714 43.088 100.063 83.9562C100.457 114.89 101.096 135.767 101.957 144.693C102.056 145.775 102.006 146.291 101.736 146.66C101.392 147.103 101.318 147.078 99.9158 145.849C96.6936 143.07 92.7828 135.742 91.2086 129.57C89.8066 124.136 89.7328 123.128 89.536 108.054L89.3393 94.2839L88.6997 92.1692C87.1256 86.9316 83.6574 83.5382 79.2055 82.8742C78.2216 82.7021 77.3361 82.6529 77.2869 82.7021C77.1394 82.8497 78.7381 84.8168 79.0087 84.8168C79.1071 84.8168 79.1809 84.989 79.1809 85.1857C79.1809 85.3578 79.3285 85.6283 79.5006 85.7267C80.0909 86.0955 81.5913 88.8496 82.28 90.8413L82.9687 92.8085L83.0425 103.382C83.1409 120.423 83.6574 126.324 85.6744 133.996C86.4369 136.923 87.0272 138.644 88.3308 141.742C89.5852 144.742 90.3969 146.144 92.1925 148.381C97.3577 154.898 102.105 157.947 110.296 159.963C112.558 160.504 113.591 160.627 116.568 160.652L120.134 160.676L120.11 159.668C120.11 159.103 119.839 158.119 119.544 157.455C119.224 156.791 118.855 155.98 118.708 155.635C118.388 154.848 117.871 141.349 117.551 125.267C117.133 104.857 116.961 43.6044 117.281 34.7767C117.896 18.0556 119.519 9.17871 122.987 3.49847C123.897 2.02309 124.168 1.21163 123.774 1.21163C123.332 1.21163 120.675 3.52306 119.347 5.09681C116.715 8.14594 115.485 10.1869 114.108 13.8754C113.272 16.0638 112.878 17.4655 112.14 20.7605C111.796 22.3588 111.181 27.3997 110.91 30.9652C110.222 39.7438 110.394 76.0629 111.304 119.243C111.525 129.177 111.722 140.685 111.722 144.816L111.771 152.316L110.714 152.267C110.123 152.242 109.385 152.045 109.09 151.849C108.475 151.455 108.475 151.726 107.959 127.111C107.86 121.505 107.639 113.366 107.492 109.038C107.123 98.1937 106.729 68.0712 106.729 53.1206C106.729 30.7193 107.246 24.5719 109.804 16.4573C111.55 10.8754 114.28 6.42466 118.265 2.63783C119.495 1.45752 120.503 0.375574 120.503 0.228035C120.503 -0.116221 119.396 -0.0670418 118.117 0.350984Z" fill="url(#paint0_linear_555_3157)"/>
<path d="M143.85 0.199916C143.776 0.347616 144.293 0.889182 145.008 1.40613C146.561 2.56311 150.111 6.18176 151.54 8.10186C154.744 12.3852 157.111 19.327 158.121 27.4259C159.009 34.614 159.329 56.7197 158.984 90.0753C158.688 120.526 158.639 132.121 158.811 132.317C158.984 132.465 160.093 132.293 163.322 131.628C166.699 130.914 171.777 128.723 174.734 126.705C176.435 125.523 180.305 121.732 181.661 119.886C185.062 115.209 187.65 108.07 188.883 99.9219C189.425 96.3525 189.425 96.3279 189.351 62.7262C189.277 25.5551 189.228 26.9336 190.83 22.8718C191.717 20.6317 193.27 17.9731 194.429 16.6931C195.513 15.4869 195.316 15.1422 193.689 15.3392C190.115 15.7576 185.777 19.7455 184.175 24.1027C182.449 28.8537 182.376 30.6507 182.696 58.7875C182.992 84.4627 182.918 93.2016 182.326 97.7064C181.464 104.205 179.196 110.458 175.893 115.43C173.256 119.418 166.674 124.662 165.639 123.628C165.442 123.431 165.467 117.966 165.664 105.682C165.984 84.8812 165.984 48.227 165.688 38.7496C165.417 30.9215 165.146 27.9921 164.16 22.9457C162.755 15.6592 160.266 10.2189 156.568 6.28023C153.709 3.25238 150.382 1.30766 146.438 0.322999C144.811 -0.0708673 144.047 -0.095484 143.85 0.199916Z" fill="url(#paint1_linear_555_3157)"/>
<path d="M128.865 0.884716C127.909 1.22884 126.198 3.21986 125.116 5.28462C123.354 8.60298 122.247 12.5359 120.939 20.2787C119.48 28.8573 119.203 40.0906 119.429 85.0482C119.505 104.368 119.681 123.787 119.832 128.187C119.958 132.587 120.184 140.108 120.31 144.902C120.436 149.695 120.662 154.021 120.788 154.488C120.939 154.98 121.568 156.135 122.197 157.069C122.826 158.003 123.405 159.035 123.505 159.355C123.732 160.289 123.43 165.107 123.078 165.844C122.902 166.213 122.474 166.705 122.122 166.926C121.467 167.344 121.467 167.245 122.197 170.22C122.398 171.104 122.65 173.243 122.725 175.013C122.801 176.758 122.977 178.7 123.128 179.314C123.48 180.765 123.581 183.296 123.682 193.817C123.807 204.976 124.285 221.568 124.587 225.526C124.713 227.222 124.839 230.122 124.839 231.99C124.839 233.858 124.94 237.226 125.091 239.487C125.216 241.749 125.443 245.977 125.594 248.877C125.971 257.185 126.575 268.64 126.751 271.688C126.952 274.932 126.676 274.736 130.626 274.637L133.268 274.564L133.343 269.893C133.419 266.428 133.318 264.412 132.991 262.101C132.614 259.52 132.588 258.734 132.84 257.554C133.821 252.859 133.821 253.228 132.865 248.631C132.714 247.894 132.664 246.493 132.739 245.559C133.142 240.913 133.192 237.767 132.89 234.989C132.639 232.433 132.639 231.818 132.966 230.442C133.746 227.246 133.897 226.189 133.897 223.584C133.897 221.322 133.796 220.61 133.142 218.643C132.412 216.455 132.387 216.234 132.639 214.366C133.645 206.894 133.62 206.255 132.362 197.602C132.11 195.808 132.211 194.653 133.041 190.769C133.62 187.967 133.494 185.632 132.614 182.731C131.733 179.904 131.708 179.683 132.11 177.225C132.966 171.94 132.966 167.786 132.136 162.649C131.934 161.444 131.959 160.682 132.261 159.33C132.79 156.799 132.739 153.529 132.11 151.415C130.877 147.261 130.877 147.212 131.255 143.918C131.431 142.222 131.834 139.863 132.11 138.658C132.79 135.758 132.79 132.661 132.11 129.49C130.877 123.762 130.877 123.762 131.129 122.165C131.255 121.329 131.557 120.149 131.783 119.559C132.11 118.625 132.136 117.347 132.01 110.44C131.909 104.713 131.758 101.91 131.481 100.731C130.525 96.4044 130.525 96.2569 131.909 92.6682C132.412 91.39 132.488 90.628 132.588 86.7689C132.664 83.0818 132.563 81.4103 132.035 77.0596C131.23 70.5457 131.154 68.3827 131.607 64.7694C131.808 63.1716 131.959 59.3125 131.985 55.9204C132.01 49.9719 132.01 49.8736 131.33 47.8334C130.425 45.1296 130.349 42.1062 131.154 39.9922C132.362 36.8459 132.538 33.2572 131.657 29.6193C130.5 24.7524 130.475 25.1456 131.758 20.9178C132.236 19.3692 132.236 17.0587 131.783 14.3794C131.582 13.2241 131.356 10.299 131.255 7.86557C131.104 3.80979 130.852 1.22884 130.601 1.00762C130.299 0.737234 129.418 0.688073 128.865 0.884716Z" fill="url(#paint2_linear_555_3157)"/>
<path d="M133.648 1.91928C133.352 2.68155 134.265 12.8862 134.833 15.1238C135.376 17.2139 135.376 17.3123 134.981 19.1811C134.759 20.2139 134.265 21.9843 133.895 23.0908L133.253 25.1072L134.018 28.6235C134.882 32.5578 135.302 36.3446 135.055 37.9675C134.981 38.5822 134.536 39.7133 134.092 40.5002C132.883 42.6149 132.833 44.0657 133.845 47.0164L134.635 49.3524L134.759 56.3604C134.833 62.6307 134.907 63.4422 135.326 64.2782C136.042 65.6552 135.919 66.3929 134.783 67.8929L133.771 69.2453L133.944 71.5813C134.018 72.86 134.388 75.2451 134.709 76.8926C135.203 79.2532 135.376 81.1712 135.573 86.4579L135.845 93.0725L135.005 93.8348C134.561 94.2528 133.993 94.8675 133.747 95.2118C133.277 95.9003 133.203 97.597 133.598 98.9002C133.747 99.3674 133.969 100.154 134.117 100.621C134.265 101.089 134.462 104.015 134.586 107.138C134.709 110.236 134.857 113.703 134.956 114.81C135.104 116.826 134.981 118.055 134.141 122.285L133.722 124.4L134.512 127.572C135.845 133.104 136.092 136.202 135.326 138.293C134.216 141.317 133.969 142.547 133.969 145.128C133.944 147.317 134.067 148.079 134.685 150.169C135.351 152.432 135.425 152.923 135.4 156.071C135.376 158.407 135.252 159.956 134.981 160.915C134.635 162.194 134.635 162.415 135.005 163.743C135.524 165.661 135.598 175.472 135.08 177.759C134.759 179.185 134.783 179.382 135.425 181.816C135.993 183.98 136.092 184.865 136.141 188.037C136.166 191.135 136.092 191.947 135.672 193.078C135.055 194.824 135.03 198.561 135.647 201.315C136.018 202.988 136.067 204.069 135.944 208.446C135.87 211.299 135.746 214.274 135.647 215.086C135.549 215.971 135.672 217.717 135.919 219.61C136.437 223.274 136.314 228.487 135.647 231.511C135.252 233.233 135.252 233.749 135.549 236.946C135.771 239.355 135.795 241.052 135.647 242.282C135.277 245.331 135.425 248.552 135.993 250.667C136.709 253.15 136.684 254.158 135.87 256.593C135.129 258.806 135.129 259.076 135.475 265.002C135.623 267.166 135.647 270.215 135.549 271.764C135.326 275.502 135.376 275.551 138.931 275.404C140.313 275.354 141.523 275.256 141.597 275.158C142.016 274.74 142.238 272.527 142.584 265.371C142.782 261.117 143.127 254.257 143.325 250.126C144.213 232.593 144.436 225.831 144.682 211.643C144.83 203.381 145.077 192.389 145.201 187.176C145.349 181.964 145.571 159.833 145.67 137.998C145.793 116.162 145.966 91.7447 146.065 83.7777C146.361 57.9095 145.744 32.8037 144.682 25.7465C143.621 18.8368 143.177 16.8943 141.498 11.5338C139.893 6.49292 138.363 3.78808 136.24 2.26353C135.129 1.45207 133.895 1.27995 133.648 1.91928Z" fill="url(#paint3_linear_555_3157)"/>
<path d="M140.031 1.72695C139.959 1.8499 140.201 2.31708 140.589 2.78425C142.236 4.84968 143.908 8.51335 145.41 13.3573C147.057 18.6192 147.881 23.0451 148.656 31.0363C149.068 35.2409 149.189 83.7047 148.874 110.949C148.729 123.587 148.559 143.332 148.486 154.839C148.414 166.322 148.268 180.878 148.123 187.173C147.978 193.467 147.759 205.417 147.638 213.728C147.42 227.399 147.226 233.473 146.427 248.398C146.282 251.029 146.015 256.463 145.821 260.446C145.41 268.659 145.046 273.724 144.852 274.265C144.537 275.076 145.385 275.445 147.541 275.445C149.213 275.445 149.649 275.371 150.037 274.978C150.521 274.486 150.618 273.65 151.03 265.978C151.151 263.667 151.418 258.922 151.636 255.405C152.217 245.226 152.798 231.751 153.21 218.646C153.331 214.244 153.574 206.991 153.719 202.54C153.864 198.065 154.058 188.279 154.179 180.78C154.3 173.28 154.494 160.986 154.64 153.487C154.785 145.987 154.882 138.734 154.882 137.381C154.858 136.029 154.979 124.571 155.124 111.932C155.463 83.9014 155.342 38.9292 154.93 32.6346C154.591 27.4956 153.404 20.783 152.217 17.3652C151.296 14.685 149.407 10.8247 147.978 8.63629C146.621 6.54628 141.315 1.55483 140.443 1.53025C140.298 1.53025 140.104 1.6286 140.031 1.72695Z" fill="url(#paint4_linear_555_3157)"/>
<path d="M201.748 15.5761C201.748 15.773 202.021 16.093 202.318 16.3146C203.979 17.3732 206.211 21.8044 207.5 26.531C208.07 28.6235 208.07 28.6974 208.021 43.6404C207.971 65.1563 207.326 89.1095 206.583 98.1688C205.888 106.293 204.599 111.339 201.549 117.863C200.632 119.857 198.326 123.254 196.938 124.731C195.177 126.553 188.607 132.117 185.88 134.086C182.334 136.622 176.78 138.788 171.251 139.798C170.359 139.945 167.135 140.142 164.061 140.241L158.482 140.388L158.309 154.913C158.086 172.933 157.714 190.289 157.391 196.763C157.243 199.471 157.019 205.552 156.871 210.303C156.499 222.464 155.705 240.361 155.11 249.815C154.986 251.907 154.763 256.018 154.639 258.923C154.515 261.828 154.242 266.579 154.019 269.484C153.747 273.349 153.722 274.851 153.92 275.097C154.366 275.614 158.408 275.54 159.077 274.974C160.019 274.211 160.367 271.823 161.309 259.292C162.871 238.933 163.466 225.886 164.284 193.563C164.433 187.999 164.656 179.925 164.805 175.592C164.929 171.259 165.127 163.037 165.201 157.301C165.301 150.999 165.474 146.838 165.623 146.74C165.747 146.666 167.185 146.518 168.797 146.395C172.342 146.149 172.863 146.075 176.21 145.263C182.086 143.859 186.797 141.939 191.657 138.985C201.475 133.028 209.062 121.95 212.31 108.902C214.269 101 214.492 96.5194 214.889 59.6419C215.112 36.1812 215.037 31.0853 214.318 28.1311C213.128 23.2322 210.376 18.8749 207.128 16.8316C205.69 15.9207 204.673 15.5761 202.938 15.3545C201.996 15.256 201.748 15.2807 201.748 15.5761Z" fill="url(#paint5_linear_555_3157)"/>
<path d="M195.912 17.9763C194.454 19.5235 193.895 20.5549 193.093 23.2071C191.173 29.4446 191.003 33.1037 191.586 54.6159C191.829 62.6953 191.732 92.7534 191.465 96.0441C190.857 103.853 189.958 108.789 188.33 113.185C187.893 114.339 187.383 115.764 187.188 116.378C185.754 120.601 181.162 126.053 176.569 128.975C173.483 130.916 168.162 133.052 163.763 134.059C163.034 134.231 161.99 134.501 161.455 134.673C160.92 134.845 160.191 135.066 159.827 135.139C159.365 135.238 159.146 135.459 159.146 135.778C159.146 136.539 160.556 136.809 165.1 136.932C169.377 137.055 172.876 136.736 176.351 135.876C180.797 134.796 184.564 132.242 187.383 128.411C187.966 127.625 188.5 127.207 189.205 126.986C190.736 126.495 194.041 123.622 195.79 121.264C198.147 118.146 199.581 114.978 201.185 109.502C202.91 103.583 203.445 99.6786 203.736 91.4519C203.809 89.1435 203.979 85.6809 204.125 83.7163C204.344 80.5484 204.562 69.1293 205 39.2676C205.145 28.9289 205.097 28.3641 203.566 23.6245C202.861 21.4635 202.254 20.0883 201.33 18.7131C199.362 15.668 199.362 15.6925 199.435 23.5509C199.484 28.4132 199.387 31.4583 199.095 34.4543C198.828 37.2293 198.755 39.1448 198.901 40.2253C198.998 41.1094 199.071 43.9335 199.071 46.512C199.071 49.0659 199.046 56.1384 199.046 62.2287C199.046 76.9385 199.022 78.7803 198.755 90.224C198.487 102.085 198.39 102.92 196.689 108.151C194.648 114.413 193.263 117.262 190.639 120.773C189.497 122.296 188.549 123.647 188.549 123.769C188.549 123.892 188.33 123.99 188.063 123.99C187.455 123.99 187.455 123.72 188.014 122.984C188.282 122.664 188.549 122.075 188.646 121.682C188.792 121.068 190.104 118.023 191.781 114.413C192.656 112.522 193.312 110.828 194.429 107.414C196.179 102.183 196.082 102.969 196.373 90.3468C196.519 83.9373 196.616 78.3383 196.616 77.9454C196.592 77.5279 196.592 76.2018 196.592 74.9985C196.616 73.7706 196.616 69.7432 196.592 66.0351C196.592 62.3269 196.592 57.5137 196.616 55.3526C196.616 53.1916 196.616 49.3852 196.592 46.8803C196.446 34.1842 196.446 33.7422 196.884 31.1636C197.2 29.1254 197.248 27.7993 197.127 24.877C197.029 22.3476 197.078 20.5303 197.297 19.1551C197.491 17.8536 197.515 17.0432 197.37 16.8958C197.224 16.7485 196.689 17.1414 195.912 17.9763Z" fill="url(#paint6_linear_555_3157)"/>
<path d="M68.6605 82.9713C66.7902 83.4629 65.5597 84.2494 63.7632 86.0681C61.9668 87.8869 60.7609 90.1726 60.121 92.9007C59.7273 94.5228 59.7027 95.8991 59.7519 104.083C59.8011 109.491 59.7273 113.57 59.5796 113.767C59.4074 114.037 59.1859 114.037 58.2507 113.669C56.4542 112.981 55.1253 113.423 55.1253 114.676C55.1253 115.143 56.7003 115.807 58.2015 115.979L59.432 116.126V117.503C59.432 118.265 59.5796 119.051 59.7519 119.248C59.9242 119.469 60.121 120.354 60.2195 121.263C60.3671 122.812 60.3425 122.885 59.8257 122.885C59.555 122.885 59.3089 122.787 59.3089 122.64C59.3089 122.443 58.3738 121.361 56.3312 119.199C56.0113 118.855 54.8792 117.822 53.8456 116.913C52.4675 115.684 51.803 115.242 51.3847 115.315C50.8433 115.389 50.8186 115.463 50.8186 118.093C50.8186 119.567 50.9171 121.828 51.0401 123.082C51.2616 125.245 51.2862 125.392 51.9507 125.736C52.8612 126.179 52.8612 126.769 51.9999 126.867L51.3354 126.941L51.4093 130.504C51.4339 132.471 51.5815 134.83 51.68 135.789C51.9999 138.246 51.9753 139.033 51.5569 139.451C51.114 139.868 51.0894 140.385 51.4585 140.753C51.6308 140.925 51.803 142.719 51.9261 145.423C52.0737 148.888 52.1968 150.019 52.5413 150.756L53.0089 151.715L52.1229 152.526C51.3354 153.239 51.114 153.312 50.1788 153.189C47.8901 152.919 46.8565 151.69 48.087 150.707C48.4561 150.437 48.7268 150.142 48.7268 150.019C48.7268 149.921 48.8991 149.65 49.1206 149.404C49.4159 149.085 49.539 148.028 49.7112 144.981C49.8343 142.769 50.0065 140.729 50.0804 140.458C50.2034 140.065 50.0311 139.868 49.2929 139.475C47.9393 138.762 46.7335 137.509 47.078 137.165C47.2257 137.017 47.5948 136.895 47.8655 136.895C48.1608 136.895 48.6038 136.673 48.8499 136.428C49.2436 135.985 49.2436 135.641 49.0222 132.077C48.7761 128.759 48.6776 128.145 48.2346 127.678C47.5702 126.965 47.6194 126.424 48.3823 125.515C49.0468 124.729 49.0468 124.704 48.8991 121.853C48.7514 119.15 48.4561 117.355 47.9639 116.053C47.7425 115.512 47.644 115.487 46.069 115.635C43.2635 115.881 43.362 115.832 42.4268 117.871C41.4178 120.083 39.9905 124.311 39.7444 125.835C39.5229 127.211 39.2522 127.555 38.3662 127.555C37.4803 127.555 37.3326 127.825 37.7756 128.735C38.2186 129.57 38.194 129.669 36.8158 134.486C35.8068 138 35.7822 138.295 36.299 139.033C36.7912 139.746 36.5697 140.212 35.61 140.507C34.8717 140.704 34.8225 140.827 34.6502 142.056C34.5518 142.793 34.4533 146.111 34.4041 149.429L34.3303 155.451L32.9275 155.598C32.14 155.696 31.3525 155.893 31.1556 156.04C30.6635 156.458 29.7775 156.139 29.7775 155.573C29.7775 155.303 30.122 154.713 30.5404 154.246C30.9342 153.779 31.4756 152.796 31.7463 152.083C32.583 149.675 33.1736 141.417 32.5338 140.778C32.0908 140.335 32.1646 139.844 32.8045 139.352C33.3459 138.91 33.715 137.951 35.0439 133.454C35.8807 130.553 36.4221 128.12 36.4221 127.113C36.4221 126.031 36.5205 125.81 40.4088 117.773C41.6885 115.143 41.7377 114.554 40.5811 114.971C40.2612 115.094 39.4491 115.266 38.8092 115.365C38.1447 115.463 37.5787 115.684 37.5049 115.881C37.4311 116.053 36.4221 116.79 35.2408 117.503C33.026 118.83 29.5068 121.656 28.424 122.934C27.7349 123.746 27.6119 124.729 28.1779 124.95C28.6701 125.122 28.6455 125.908 28.1287 126.4C27.8826 126.597 27.1689 126.842 26.5291 126.941C25.1755 127.137 25.2001 127.113 23.8958 129.62C23.3298 130.676 22.5177 132.053 22.0747 132.692C20.5243 134.855 20.1798 137.091 21.2872 138.123C21.6318 138.443 21.9025 138.787 21.9025 138.91C21.9025 139.008 21.3857 139.352 20.7704 139.623C19.0232 140.458 19.0724 140.36 17.2267 148.323C16.7837 150.216 16.1931 152.157 15.947 152.649C15.5532 153.361 15.4794 153.779 15.627 154.615C15.7255 155.205 15.8731 158.842 15.947 162.701C16.1192 169.435 16.1438 169.706 16.6114 169.779C17.7435 169.951 17.7927 170.025 17.2267 170.984C16.9313 171.475 16.636 172.385 16.5868 172.999C16.4638 173.982 16.5376 174.228 17.1282 174.916C17.6696 175.53 17.8911 176.12 18.1372 177.62C18.4571 179.709 19.1216 183.641 19.3185 184.501C19.4415 184.993 19.6138 185.067 20.5489 185.067C21.5333 185.067 21.6564 185.14 21.804 185.73C22.1486 187.008 22.0009 187.77 21.3118 188.483C20.8935 188.925 20.6966 189.318 20.795 189.515C20.9181 189.687 21.0657 190.719 21.1642 191.801C21.4841 195.07 21.7548 195.758 22.9607 196.348C23.5267 196.643 24.1912 197.011 24.4126 197.208C25.1017 197.724 25.5939 199.469 25.5939 201.288V202.934L26.5783 203.377C27.4396 203.77 27.5627 203.918 27.5627 204.655C27.5627 205.097 27.6611 205.466 27.7595 205.466C27.858 205.466 28.5963 206.302 29.3838 207.334C30.1959 208.366 31.2049 209.447 31.6724 209.718C32.5584 210.234 33.149 211.291 32.7799 211.659C32.6568 211.782 31.8939 211.856 31.1064 211.807L29.6545 211.733L29.1623 210.48C28.4486 208.71 27.538 207.383 26.4798 206.695C25.4708 206.007 25.3724 205.712 26.0861 205.54C26.849 205.343 26.6767 205.048 25.6923 204.876C24.831 204.704 24.2404 203.991 24.8064 203.795C25.274 203.647 25.1509 203.131 24.4865 202.517C24.1419 202.197 23.7974 201.558 23.7236 201.067C23.6251 200.575 23.4036 199.838 23.2314 199.42C22.7638 198.314 21.0165 196.2 20.4013 196.004C19.9583 195.856 19.9091 195.684 20.0075 194.947C20.0814 194.431 20.2536 193.595 20.3767 193.054C20.672 192.022 20.3767 191.309 19.0232 189.663C18.3587 188.851 18.3095 188.434 18.8263 187.918C19.3677 187.401 19.2939 187.18 18.4571 186.861C17.8665 186.639 17.7188 186.443 17.7188 185.878C17.7188 185.509 17.5466 184.255 17.3497 183.1C17.1282 181.945 16.8083 180.176 16.636 179.119C16.4392 178.087 16.0208 176.759 15.6763 176.169C15.2825 175.506 14.9872 174.523 14.8888 173.515C14.7411 172.188 14.5688 171.745 13.8305 170.836C12.9938 169.804 12.9692 169.755 13.4122 169.435C13.6583 169.239 13.9536 169.091 14.0766 169.091C14.1751 169.091 14.2735 168.378 14.2735 167.518C14.2735 165.945 14.2489 165.896 13.1661 164.888C12.4278 164.2 12.1325 163.758 12.3048 163.586C12.4524 163.438 12.7477 163.438 13.1415 163.635C13.6337 163.856 13.8059 163.832 14.052 163.537C14.495 162.996 14.6181 159.629 14.3227 156.458C14.0766 153.927 14.0274 153.755 13.3137 153.091C12.8954 152.722 12.5509 152.28 12.5509 152.133C12.5509 151.985 13.043 151.666 13.6337 151.42C14.6919 150.953 15.0118 150.56 15.0118 149.65C15.0118 149.38 15.2087 148.765 15.4794 148.249C15.7255 147.758 16.1192 146.283 16.3407 145.005C17.202 140.237 17.2267 140.163 17.8419 139.647C18.4817 139.082 18.6294 138.517 18.211 138.246C17.7188 137.951 17.9403 136.722 18.5556 136.305C18.9985 136.034 19.22 135.592 19.3431 134.805C19.4169 134.191 19.7122 133.429 19.9583 133.11C20.2044 132.79 20.6228 132.004 20.8935 131.34C21.5333 129.693 22.5669 127.825 23.256 127.063C23.699 126.597 23.7482 126.351 23.5513 126.056C23.1329 125.392 23.5513 124.458 24.6095 123.77C25.1509 123.426 25.7416 123.131 25.9138 123.131C26.1107 123.131 26.7998 122.541 27.4396 121.828C30.565 118.388 31.6478 117.429 33.4197 116.569C34.5025 116.028 35.1178 115.586 34.9947 115.463C34.8471 115.315 32.7307 115.266 30.1959 115.315C25.84 115.389 25.6185 115.365 25.5447 114.922C25.4955 114.652 25.3232 114.406 25.1509 114.332C24.9048 114.259 24.8556 114.554 24.9787 115.659C25.1263 117.011 25.1017 117.183 24.388 118.142C23.7482 119.027 23.4775 119.199 22.7884 119.199C22.1732 119.199 21.804 119.371 21.4595 119.813C20.5489 120.968 20.0568 120.649 18.8755 118.142C17.7681 115.807 17.1528 115.02 16.8575 115.512C16.7591 115.659 16.8083 116.077 16.9313 116.446C17.5712 118.068 17.9896 120.157 17.9157 121.288L17.8419 122.517L16.6853 122.443C15.4056 122.369 15.3563 122.418 15.7993 123.106C16.0208 123.475 16.0208 123.795 15.7501 124.581C15.2825 126.056 15.061 126.154 12.6739 126.031C11.5173 125.982 10.5821 126.007 10.5821 126.08C10.5821 126.351 11.788 126.818 12.4524 126.818C13.2891 126.818 14.0274 127.236 14.0274 127.703C14.0274 128.317 13.0923 129.914 12.3786 130.529C11.9848 130.873 11.4926 131.709 11.2219 132.471C10.6559 134.142 9.67154 136.01 9.08091 136.55C8.71177 136.895 8.46567 136.895 7.38285 136.673C6.69379 136.526 5.85706 136.403 5.53714 136.403C4.82346 136.403 4.72503 136.845 5.36487 137.042C6.02933 137.263 7.72739 138.173 8.09653 138.517C8.39184 138.787 8.39184 139.008 8.12114 140.016C7.65356 141.785 7.21059 142.375 6.52152 142.203C5.21722 141.884 4.62659 142.965 5.80785 143.506C6.39847 143.752 6.42308 143.875 6.27543 144.833C6.2016 145.398 6.05394 146.062 5.98011 146.332C5.83245 146.824 6.17699 146.824 1.42735 146.308C0.639847 146.234 0 146.259 0 146.381C0 146.652 2.41173 147.463 3.27307 147.463C4.06057 147.463 5.11878 147.93 5.21722 148.298C5.26644 148.446 5.24183 150.289 5.168 152.378L5.04495 156.188L4.06057 156.262C2.80548 156.335 0 157.073 0 157.294C0 157.417 0.984381 157.564 2.21486 157.663C3.42072 157.761 4.50354 157.957 4.62659 158.13C4.74964 158.277 4.9219 159.211 5.02034 160.219C5.14339 161.742 5.11878 162.111 4.77425 162.504C4.38049 162.922 4.38049 162.971 4.89729 163.463C5.34026 163.881 5.41409 164.2 5.36487 165.232C5.26644 166.805 4.77425 167.125 2.38712 167.125C1.15665 167.125 0.713676 167.199 0.787504 167.42C0.861333 167.616 1.50118 167.764 2.48556 167.813C4.60198 167.911 5.48792 168.796 5.93089 171.303C6.02933 171.918 6.25082 172.999 6.39847 173.736C6.74301 175.383 6.54613 175.629 4.55276 175.997C2.97775 176.292 1.72267 176.833 1.72267 177.202C1.72267 177.521 2.09181 177.497 4.20823 177.177C5.63558 176.956 6.02933 176.981 6.49691 177.275C7.2352 177.767 7.82583 179.561 7.43207 180.102C6.66918 181.183 5.93089 182.977 6.15238 183.199C6.30004 183.346 6.52152 183.149 6.81684 182.683C7.03832 182.265 7.43207 181.798 7.67817 181.65C8.29341 181.257 8.7856 182.093 9.37622 184.575C10.1391 187.672 10.1883 187.598 7.13676 187.918C4.06057 188.237 4.30666 188.188 4.6512 188.606C4.84807 188.851 5.70941 188.974 7.55512 189.048C9.91763 189.122 10.1883 189.196 10.5329 189.687C10.7297 189.982 11.1235 190.228 11.4434 190.228C12.0587 190.228 12.2309 190.547 13.2891 193.669C14.4704 197.183 14.3227 197.749 12.0094 198.805C10.2129 199.616 10.4837 199.911 12.7723 199.715C15.0118 199.543 15.504 199.666 15.504 200.403C15.504 201.214 15.7501 201.337 16.4392 200.894C17.0298 200.501 17.079 200.526 17.3989 200.944C18.211 202.074 17.3989 202.762 15.8485 202.271C15.061 202 14.9134 202.025 14.372 202.541C14.0274 202.861 13.8798 203.205 13.9782 203.303C14.1013 203.426 15.1102 203.426 16.2669 203.303C19.3431 202.959 19.8599 203.401 18.2849 205.024C17.4974 205.835 17.4481 205.957 17.8419 206.105C18.088 206.203 18.8509 206.179 19.54 206.031C20.229 205.884 20.9673 205.859 21.1642 205.957C21.3611 206.08 21.7302 206.695 21.9517 207.358C22.1978 208.047 22.8622 209.079 23.5021 209.767C24.1173 210.406 24.6095 211.119 24.5603 211.34C24.4372 211.954 22.8376 212.053 13.8552 212.077C4.55276 212.102 4.23284 212.151 2.95314 213.896C2.04259 215.125 1.99337 216.403 2.68244 219.918C2.92853 221.245 3.34689 223.358 3.56838 224.636C4.67581 230.805 5.63558 234.885 6.39847 236.606C6.91527 237.761 7.94887 238.4 9.3024 238.4C10.4344 238.4 10.779 238.867 11.1973 240.98C11.3942 242.062 11.6895 243.389 11.8126 243.93C11.9356 244.47 12.7723 247.887 13.6583 251.549C14.5442 255.186 15.4548 258.898 15.6517 259.782C15.9962 261.331 16.2423 262.338 17.5712 267.893C18.5802 271.997 19.3677 274.775 19.7122 275.168C19.9583 275.463 20.4013 275.512 22.124 275.364C23.2806 275.291 24.3142 275.143 24.4126 275.045C24.5849 274.898 24.265 272.931 23.1329 266.787C22.8376 265.14 20.4259 253.441 19.9337 251.18C19.1462 247.69 18.8755 246.486 18.088 243.463C17.5958 241.57 17.2759 239.874 17.3251 239.702C17.4235 239.432 23.7728 239.383 52.5167 239.383C71.786 239.383 87.7329 239.457 87.9544 239.53C88.4466 239.727 88.4466 240.489 87.9544 242.824C83.7462 262.658 81.8512 272.686 81.9989 274.283L82.0727 275.143L84.3368 275.217C87.4376 275.315 86.9946 276.151 89.111 265.927C89.6525 263.297 90.8337 257.988 91.7197 254.129C92.6056 250.271 93.713 245.38 94.156 243.242C94.599 241.103 95.0419 239.26 95.1158 239.137C95.1896 239.014 95.8541 238.744 96.617 238.523C97.6752 238.228 98.0197 237.982 98.2166 237.466C98.8318 235.917 99.4963 232.403 100.284 226.357C100.505 224.661 100.85 222.228 101.047 220.925C101.514 217.779 101.49 215.666 100.997 214.855C100.776 214.486 100.21 213.896 99.7177 213.503C98.0443 212.225 97.3552 212.151 87.0931 212.126C77.4461 212.102 73.6809 211.954 73.4348 211.586C73.1395 211.119 73.6563 210.431 74.936 209.497C75.8219 208.858 76.4618 208.169 76.7817 207.457L77.2985 206.375L78.7751 206.523C79.661 206.621 80.227 206.596 80.227 206.449C80.227 206.302 80.1532 206.203 80.0547 206.203C79.9317 206.203 79.5379 205.933 79.1442 205.638C78.4305 205.073 78.4305 205.048 78.8981 204.581C79.6364 203.844 80.227 202.836 80.227 202.32C80.227 202.074 80.4731 201.656 80.7438 201.386C81.0391 201.14 81.3591 200.649 81.4821 200.329C81.7036 199.764 81.7528 199.764 83.8692 199.911C87.3392 200.182 87.856 199.715 85.0013 198.855C83.9923 198.56 83.0817 198.142 83.0079 197.945C82.9341 197.749 83.5985 195.807 84.4599 193.62C85.6165 190.67 86.2071 189.515 86.6993 189.146C87.2161 188.778 88.0036 188.606 90.1939 188.409C93.024 188.163 94.0576 187.77 91.8427 187.77C91.1782 187.77 90.44 187.623 90.1693 187.401C89.9232 187.205 89.5294 187.033 89.3079 187.033C89.0864 187.033 88.7419 186.861 88.5696 186.639C88.3974 186.418 87.979 186.148 87.6591 186.025C87.2161 185.853 87.0931 185.656 87.1915 185.239C87.3884 184.255 88.3235 180.937 88.7665 179.61L89.2095 178.308L91.3751 178.234C93.9345 178.16 94.1068 177.792 91.8919 177.251C89.9478 176.784 89.6771 176.538 90.3169 175.85C90.7845 175.334 92.2857 171.156 92.2857 170.295C92.2857 169.607 92.6794 169.534 94.0822 169.927C95.608 170.345 98.4873 170.91 101.391 171.328C102.548 171.5 103.557 171.696 103.655 171.77C103.877 171.967 104.492 184.403 104.96 198.093C105.156 204.114 105.403 209.472 105.452 210.013C105.526 210.553 105.698 214.535 105.821 218.861C105.944 223.186 106.165 228.593 106.313 230.904C106.436 233.189 106.658 237.294 106.805 239.997C107.568 254.474 108.306 262.535 109.611 271.702C110.103 274.971 110.103 274.971 111.407 275.168C112.515 275.34 114.73 275.168 115.173 274.898C115.517 274.676 115.468 271.358 115.074 266.246C114.483 258.947 113.819 247.592 113.573 240.661C113.499 238.818 113.327 235.303 113.204 232.87C112.859 227.266 112.613 220.557 111.998 201.165C111.727 192.636 111.383 182.314 111.235 178.209L110.989 170.713L111.53 170.148C112.244 169.386 115 168.034 115.591 168.157C116.28 168.28 116.28 169.189 115.566 169.656C114.483 170.369 114.36 171.303 114.656 177.03C114.803 179.881 115.025 187.057 115.173 192.931C115.591 211.537 116.6 238.08 117.018 241.841C117.191 243.266 117.387 247.051 118.003 259.414C118.421 268.237 118.815 273.964 119.012 274.578C119.135 274.971 119.455 275.02 121.669 275.02C123.638 275.02 124.278 274.947 124.524 274.652C124.77 274.357 124.77 273.423 124.573 270.154C124.229 264.993 123.86 258.48 123.54 251.672C123.392 248.772 123.121 243.733 122.925 240.489C122.728 237.245 122.555 232.698 122.531 230.412C122.531 228.102 122.408 224.784 122.285 223.039C122.014 218.959 121.522 199.788 121.473 190.842C121.423 185.484 121.325 183.616 121.03 182.363C120.759 181.282 120.587 178.898 120.464 175.113C120.365 171.991 120.193 169.263 120.07 169.042C119.898 168.722 119.455 168.6 118.199 168.55C116.723 168.477 116.501 168.403 116.231 167.862C115.812 167.002 115.099 166.83 112.712 167.002C110.521 167.174 105.722 166.707 102.794 166.019C101.194 165.65 96.2478 164.102 95.3619 163.684C89.6032 161.03 86.6993 159.285 82.4419 155.918C80.0794 154.025 79.3411 153.312 76.9047 150.486C75.2559 148.569 73.0903 145.3 73.0903 144.71C73.0903 144.563 72.4996 143.211 71.7613 141.712C68.7836 135.641 67.8484 130.873 67.0855 118.093C66.5195 108.753 66.2242 97.0789 66.4703 94.1541C66.864 89.6319 68.1191 86.4859 70.5801 83.7578C71.6383 82.6027 70.9984 82.3323 68.6605 82.9713ZM61.1054 127.58C61.573 128.415 61.6714 130.381 61.2531 130.627C60.8347 130.898 59.3828 130.529 59.2105 130.136C59.1367 129.939 59.3581 129.226 59.6781 128.563C60.0226 127.899 60.2933 127.236 60.2933 127.088C60.2933 126.597 60.6625 126.818 61.1054 127.58ZM67.307 147.733C67.307 148.102 65.6336 148.569 65.0676 148.348C64.6246 148.176 64.7968 147.365 65.4121 146.652C65.7566 146.259 65.8304 146.259 66.5441 146.824C66.9625 147.143 67.307 147.561 67.307 147.733ZM69.1527 154.099C69.4727 155.057 70.0633 156.286 70.4816 156.851C70.9 157.392 71.343 157.982 71.466 158.154C71.8352 158.646 71.4414 159.26 70.5309 159.629C69.202 160.194 66.2242 160.612 65.9043 160.292C65.5105 159.899 66.1012 158.646 66.8148 158.326C67.5777 157.982 67.9223 156.729 67.9223 154.32C67.9223 151.494 68.2914 151.444 69.1527 154.099ZM51.6308 153.902C51.8522 154.123 51.9261 155.819 51.9261 160.047C51.9261 163.684 52.0245 165.896 52.1722 165.896C52.5167 165.896 53.1565 167.248 53.1565 167.985C53.1565 168.452 53.0089 168.698 52.6644 168.772C52.3937 168.845 52.0983 169.165 52.0245 169.484C51.9261 169.804 51.9261 172.483 51.9753 175.432C52.0491 180.077 52.1229 180.864 52.5167 181.527C52.9351 182.216 52.9351 182.338 52.5905 183.002C52.2952 183.567 52.2214 184.821 52.1968 189.122C52.1722 192.096 52.2214 194.971 52.3198 195.512C52.4429 196.397 52.3937 196.569 51.6554 197.208L50.8679 197.921L51.4093 198.363C51.9261 198.781 51.9261 198.855 51.7292 203.057C51.5323 206.67 51.5569 207.408 51.8769 207.973C52.2214 208.563 52.2214 208.686 51.803 209.325C51.5569 209.693 51.2862 210.406 51.1878 210.873C51.0647 211.61 50.9663 211.733 50.3511 211.733C49.7112 211.733 49.6128 211.586 49.0714 210.136C48.5546 208.686 48.53 208.514 48.8745 208.292C49.096 208.145 49.5636 207.825 49.9081 207.555L50.5479 207.063L49.8589 206.941L49.1452 206.818L49.1698 201.411C49.1698 198.437 49.3175 195.119 49.4651 194.037C49.6128 192.956 49.8097 190.179 49.8589 187.844L49.9819 183.641L48.9483 182.658C47.7917 181.601 47.7671 181.06 48.8499 180.643C49.4651 180.421 49.4651 180.372 49.4651 177.644C49.4651 176.12 49.6374 173.49 49.8097 171.795C50.0065 170.123 50.105 168.649 50.0558 168.55C49.9819 168.428 49.662 168.354 49.3421 168.354C48.4069 168.354 47.4964 167.838 47.4964 167.297C47.4964 167.027 47.7671 166.461 48.0624 166.043C48.8499 165.036 48.9483 164.323 49.219 159.137C49.4651 154.713 49.4651 154.713 50.1296 154.173C50.9171 153.534 51.2124 153.484 51.6308 153.902ZM33.7643 156.778C33.9119 156.901 34.6994 165.626 34.6994 167.199C34.6994 167.592 34.9455 168.083 35.29 168.378L35.9053 168.894L35.2408 169.927C34.601 170.885 34.5764 171.057 34.601 174.154C34.6256 177.89 35.0686 180.52 35.7576 181.306L36.2498 181.871L35.7084 182.461C35.0686 183.149 35.0686 183.174 36.0037 186.91C37.185 191.702 37.5049 193.177 37.3326 193.325C37.2342 193.423 36.8897 193.349 36.5451 193.177C36.0283 192.907 35.8068 192.907 34.9455 193.3C33.6658 193.89 33.2967 193.57 33.8873 192.415C34.5518 191.137 34.4779 187.598 33.7396 185.681C33.4197 184.87 33.0506 183.862 32.8783 183.444C32.7307 183.002 32.4353 182.486 32.2631 182.265C31.9678 181.921 31.9924 181.798 32.3861 181.355C32.8045 180.888 32.8537 180.471 32.8045 177.103C32.7307 172.95 32.4599 171.942 31.2295 171.205C30.3927 170.713 30.4174 170.32 31.3033 169.902C32.4353 169.337 32.5092 169.116 32.2385 166.486C31.8693 162.676 31.5002 156.753 31.6478 156.532C31.7709 156.335 33.4935 156.532 33.7643 156.778ZM68.6113 163.561C68.6605 164.741 68.5129 167.518 68.2914 169.706C67.8238 174.695 67.7992 174.326 68.5375 175.186C69.1773 175.948 69.3742 176.858 68.8574 176.636C68.6852 176.563 68.3406 176.44 68.1191 176.341C67.7992 176.219 67.6269 176.341 67.4547 176.784C67.3316 177.128 67.0855 177.472 66.9625 177.57C66.8148 177.644 66.6918 178.185 66.6918 178.75C66.6918 180.053 65.8058 184.452 65.3629 185.312C65.0676 185.902 65.1168 186.025 65.6582 186.664C66.1504 187.229 66.2242 187.549 66.1258 188.335C66.0519 188.876 65.8304 189.49 65.609 189.687C65.289 190.007 65.1168 190.007 64.1324 189.515C63.5172 189.245 62.8281 188.999 62.6312 188.999C61.5484 188.999 62.0406 187.279 63.3695 186.517C63.9601 186.173 64.2308 185.828 64.2308 185.435C64.2308 185.14 64.6246 183.346 65.0922 181.478C65.5844 179.61 65.9043 177.939 65.8551 177.767C65.7812 177.595 65.4859 177.447 65.2152 177.447C64.2554 177.447 64.3293 176.686 65.3383 175.801L66.298 174.965L66.5933 172.09C66.7656 170.517 67.0117 168.28 67.1594 167.125C67.307 165.97 67.4301 164.323 67.4301 163.414C67.4301 161.865 67.7254 161.128 68.2914 161.3C68.4144 161.349 68.5621 162.332 68.6113 163.561ZM83.7954 167.297C83.9431 168.378 83.8938 168.673 83.4509 169.239C83.1063 169.681 82.9341 170.246 82.9341 170.984C82.9341 171.819 82.8356 172.114 82.5157 172.188C82.1219 172.286 82.0727 172.655 82.0481 174.818C82.0481 176.563 81.8512 178.283 81.3591 180.52C80.6946 183.739 80.3255 184.477 79.4887 184.206C79.2672 184.133 78.8735 184.305 78.6274 184.575C78.2829 184.944 78.2336 185.288 78.3321 186.148C78.4551 187.008 78.3813 187.352 78.0122 187.844C77.4215 188.581 77.3723 189.417 77.9137 190.007C78.652 190.842 77.6184 191.26 76.1911 190.719C75.5758 190.498 75.5512 190.4 75.5512 188.606C75.5512 186.443 76.1664 184.845 77.3723 183.985C77.7415 183.69 78.1844 183.199 78.3075 182.855C79.0704 180.962 79.9317 177.177 80.1532 174.842C80.2762 173.22 80.2516 173.048 79.7594 172.802C79.3657 172.581 79.2426 172.286 79.2426 171.451C79.2426 170.345 79.5133 169.951 80.3501 169.779C80.7684 169.706 80.8176 169.534 80.7684 168.747C80.7192 168.133 80.8423 167.666 81.113 167.346C81.4821 166.928 81.4821 166.83 81.113 165.896C80.6946 164.864 80.5962 163.635 80.8915 163.34C80.9899 163.242 81.6544 163.807 82.3434 164.593C83.4509 165.798 83.6723 166.216 83.7954 167.297ZM86.3056 168.255C86.404 168.575 85.1981 169.165 84.8782 168.944C84.5337 168.747 85.395 167.838 85.8626 167.911C86.0595 167.961 86.2563 168.108 86.3056 168.255ZM64.4277 192.022C64.723 192.956 64.6984 193.177 64.2062 194.283C63.4679 195.954 63.2464 196.864 63.0004 199.444C62.7789 201.73 62.4836 202.271 61.45 202.271C61.0562 202.271 61.0316 202.148 61.1546 201.214C61.2531 200.624 61.2039 199.715 61.0808 199.223C60.8593 198.437 60.9085 198.142 61.4992 196.913C61.8683 196.151 62.5082 194.48 62.9019 193.251C63.2957 191.997 63.7386 190.965 63.8617 190.965C64.0093 190.965 64.2554 191.432 64.4277 192.022ZM77.6184 192.415C77.8891 192.808 77.52 193.275 76.3141 194.16C75.6496 194.627 74.9852 195.217 74.8129 195.463C74.6653 195.709 74.05 197.404 73.4594 199.248C72.6227 201.804 72.4258 202.664 72.6227 203.033C72.7457 203.278 72.9918 203.5 73.1641 203.5C73.3364 203.5 73.6071 203.623 73.7793 203.795C74.2223 204.237 73.6563 204.729 72.6965 204.729C72.0567 204.729 71.8598 204.63 71.8598 204.286C71.8598 204.065 71.6875 203.647 71.4906 203.401C70.7277 202.394 71.2199 199.838 72.7457 196.815C73.6317 195.045 73.7547 194.431 73.2871 193.964C73.0656 193.718 73.0656 193.595 73.3364 193.3C74.1485 192.514 77.2739 191.85 77.6184 192.415ZM37.6279 197.11C38.0955 200.403 38.5385 201.509 39.5475 201.927C40.2119 202.222 40.3596 202.394 40.1873 202.713C40.0889 202.934 39.9905 204.335 39.9905 205.835V208.538L40.6549 208.858C41.5409 209.275 41.8854 209.939 41.787 211.07C41.7131 211.979 41.6885 211.979 40.5319 212.053C39.3998 212.126 39.3752 212.102 39.2276 211.365C39.0553 210.504 38.1201 209.669 37.1111 209.472C36.299 209.325 36.176 208.907 36.9389 208.907C37.8494 208.907 38.3908 208.44 38.3908 207.678C38.3908 207.113 38.2186 206.891 37.5541 206.572C36.5205 206.08 36.3483 205.466 36.5697 203.254C36.6928 201.878 36.6436 201.411 36.2006 200.403C35.9053 199.739 35.3147 198.855 34.9209 198.437C34.5025 197.994 34.2072 197.503 34.2564 197.306C34.3549 196.839 36.9881 194.652 37.185 194.873C37.2588 194.947 37.4557 195.954 37.6279 197.11ZM62.8527 203.844C62.6312 204.655 62.016 205.933 61.7945 206.056C61.6961 206.129 61.45 206.695 61.2777 207.334C61.1054 207.948 60.8101 208.514 60.6132 208.587C60.2195 208.735 59.0628 207.752 59.0628 207.26C59.0628 206.621 59.8503 205.368 61.1054 204.065C62.0898 203.033 62.4097 202.812 62.6804 203.033C62.8773 203.205 62.9511 203.549 62.8527 203.844ZM71.8598 205.245C71.8598 205.54 71.4414 206.203 70.9 206.719C69.5219 208.12 68.1684 207.973 69.0543 206.523C69.3004 206.154 69.6203 205.589 69.8172 205.269C70.2848 204.507 71.8598 204.483 71.8598 205.245ZM67.5777 210.234C67.4793 210.775 67.2332 211.143 66.9379 211.242C65.8058 211.61 65.6336 210.627 66.618 209.595C67.4301 208.759 67.7992 209.005 67.5777 210.234ZM59.6535 209.398C60.3917 209.669 60.4656 210.259 59.8749 210.922C59.1859 211.684 58.1523 211.463 57.6109 210.455C57.2417 209.742 57.2663 209.669 57.9062 209.398C58.6199 209.103 58.9152 209.103 59.6535 209.398ZM94.599 218.492C94.7958 218.689 94.6482 220.04 93.9837 224.317C93.8607 225.128 93.6392 226.627 93.5162 227.635C92.9501 231.764 92.7533 232.894 92.3841 233.435L92.015 234L51.9999 233.878C25.4216 233.804 11.911 233.681 11.7387 233.509C11.4926 233.263 10.8036 230.142 10.336 227.094C10.2129 226.209 9.86841 224.268 9.59771 222.793C9.00708 219.524 8.98247 218.59 9.47466 218.32C9.99146 218.025 94.3037 218.197 94.599 218.492Z" fill="url(#paint7_linear_555_3157)"/>
<path d="M75.0162 83.6208C74.9427 83.7434 74.9917 85.1664 75.1386 86.7365C75.2855 88.3312 75.5058 95.9857 75.6283 103.738C75.971 124.101 76.1179 126.653 77.4645 134.062C77.7828 135.779 77.7828 136.319 77.489 138.355C77.1462 140.637 77.1462 140.661 77.6849 141.274C78.0032 141.618 78.7867 142.869 79.4232 144.096C80.0598 145.298 80.6719 146.402 80.7698 146.549C80.8923 146.672 81.1861 147.359 81.4554 148.046C81.7002 148.733 82.3368 149.959 82.8754 150.744C84.0017 152.486 87.8946 156.387 90.2205 158.178C93.2075 160.46 99.255 163.085 103.466 163.943C105.694 164.41 117.52 164.704 118.23 164.336C118.915 163.968 118.573 163.526 117.716 163.698C117.055 163.821 113.7 163.428 110.517 162.839C107.31 162.251 101.826 160.362 99.9895 159.233C98.6919 158.423 92.1792 153.198 90.9061 151.947C86.0093 147.064 82.753 138.576 80.8678 125.818C80.5005 123.439 80.4271 120.789 80.4026 108.522C80.3781 94.2192 80.3046 92.7472 79.5212 90.6128C78.6398 88.2085 77.1707 85.3136 76.3383 84.2586C75.5793 83.3509 75.2855 83.2037 75.0162 83.6208Z" fill="url(#paint8_linear_555_3157)"/>
<path d="M71.6295 84.3153C70.4694 85.5917 69.5068 87.6536 68.6675 90.771C67.9271 93.4711 67.9271 92.1702 68.5441 104.026C69.4574 121.724 69.803 124.94 71.5554 132.132C72.5674 136.28 74.4433 141.705 75.8256 144.43C76.1711 145.068 76.4426 145.829 76.4426 146.099C76.4426 146.835 80.9843 152.26 81.626 152.26C82.021 152.26 81.9222 151.474 81.4039 150.664C81.1571 150.247 80.0957 148.995 79.059 147.842C77.7755 146.418 77.2325 145.632 77.3559 145.387C77.6027 144.871 77.504 143.03 77.1831 142.466C77.0597 142.196 76.9363 141.533 76.9363 140.993C76.9363 140.453 76.8376 139.962 76.7141 139.888C76.5907 139.79 76.2945 139.128 76.0477 138.391C75.7268 137.311 75.6775 136.894 75.9243 136.403C76.5414 135.028 76.0724 132.304 74.9123 130.61C74.5421 130.07 74.1471 129.014 73.999 128.106C73.6288 126.044 73.2832 114.385 73.0858 97.2022C73.0117 89.691 72.8389 83.4807 72.7402 83.4071C72.6415 83.3334 72.1231 83.7507 71.6295 84.3153Z" fill="url(#paint9_linear_555_3157)"/>
<defs>
<linearGradient id="paint0_linear_555_3157" x1="64.8889" y1="108.299" x2="141.251" y2="84.8742" gradientUnits="userSpaceOnUse">
<stop offset="0.405122" stop-color="#F09F65"/>
<stop offset="1" stop-color="#20083D"/>
</linearGradient>
<linearGradient id="paint1_linear_555_3157" x1="130.236" y1="89.2181" x2="208.851" y2="57.0644" gradientUnits="userSpaceOnUse">
<stop offset="0.405122" stop-color="#F09F65"/>
<stop offset="1" stop-color="#20083D"/>
</linearGradient>
<linearGradient id="paint2_linear_555_3157" x1="115.501" y1="185.39" x2="141.442" y2="183.936" gradientUnits="userSpaceOnUse">
<stop offset="0.405122" stop-color="#F09F65"/>
<stop offset="1" stop-color="#20083D"/>
</linearGradient>
<linearGradient id="paint3_linear_555_3157" x1="129.679" y1="186.155" x2="152.905" y2="184.99" gradientUnits="userSpaceOnUse">
<stop offset="0.405122" stop-color="#F09F65"/>
<stop offset="1" stop-color="#20083D"/>
</linearGradient>
<linearGradient id="paint4_linear_555_3157" x1="135.957" y1="186.155" x2="163.255" y2="184.544" gradientUnits="userSpaceOnUse">
<stop offset="0.405122" stop-color="#F09F65"/>
<stop offset="1" stop-color="#20083D"/>
</linearGradient>
<linearGradient id="paint5_linear_555_3157" x1="137.543" y1="190.644" x2="240.743" y2="165.001" gradientUnits="userSpaceOnUse">
<stop offset="0.405122" stop-color="#F09F65"/>
<stop offset="1" stop-color="#20083D"/>
</linearGradient>
<linearGradient id="paint6_linear_555_3157" x1="146.961" y1="97.7995" x2="217.629" y2="69.2783" gradientUnits="userSpaceOnUse">
<stop offset="0.405122" stop-color="#F09F65"/>
<stop offset="1" stop-color="#20083D"/>
</linearGradient>
<linearGradient id="paint7_linear_555_3157" x1="-33.1035" y1="212.593" x2="119.119" y2="108.61" gradientUnits="userSpaceOnUse">
<stop offset="0.405122" stop-color="#F09F65"/>
<stop offset="1" stop-color="#20083D"/>
</linearGradient>
<linearGradient id="paint8_linear_555_3157" x1="63.4064" y1="138.064" x2="122.439" y2="104.54" gradientUnits="userSpaceOnUse">
<stop offset="0.405122" stop-color="#F09F65"/>
<stop offset="1" stop-color="#20083D"/>
</linearGradient>
<linearGradient id="paint9_linear_555_3157" x1="64.4401" y1="129.813" x2="88.0409" y2="124.828" gradientUnits="userSpaceOnUse">
<stop offset="0.405122" stop-color="#F09F65"/>
<stop offset="1" stop-color="#20083D"/>
</linearGradient>
</defs>
</svg>
