<svg width="214" height="281" viewBox="0 0 214 281" fill="none" xmlns="http://www.w3.org/2000/svg">
<path d="M108.347 0.38742C107.591 0.984529 106.238 3.13412 104.865 5.88083C102.498 10.6179 101.623 13.2253 100.608 18.5993C100.25 20.51 100.25 29.4467 100.608 31.3376C100.767 32.0939 101.046 33.6265 101.265 34.7212C101.464 35.8159 101.782 37.2092 101.961 37.8063C102.12 38.4034 102.339 39.1597 102.438 39.4981C102.836 40.8714 103.274 42.0856 104.706 45.8672C107.034 51.918 107.094 52.0374 108.227 52.5151L109.202 52.9131V55.0229C109.202 57.0929 108.904 58.307 108.406 58.307C108.128 58.307 107.511 57.2521 106.994 55.9186C105.721 52.6345 105.243 51.5597 103.732 48.6139C100.012 41.4287 94.0634 32.8702 90.3832 29.4467C85.7878 25.1675 79.3225 20.8882 74.19 18.7187C73.5932 18.4599 72.6583 18.042 72.1013 17.8031C68.0032 15.9123 62.8907 14.4593 61.5578 14.7977C60.8218 14.9768 60.9013 15.8326 61.8164 17.1662C63.2488 19.2959 67.5855 24.7097 69.7936 27.1578C74.011 31.8352 80.4166 38.1446 84.8329 42.0059C85.2507 42.3841 86.0265 43.0409 86.5239 43.4987C90.3036 46.8624 96.2517 51.6791 99.6136 54.1074C100.787 54.9433 102.259 56.0181 102.896 56.4759C104.547 57.7099 107.392 60.178 107.77 60.7353C108.068 61.1333 108.108 62.0688 108.168 68.4579C108.227 76.1208 108.108 78.1111 107.611 78.1111C107.452 78.1111 106.895 77.5339 106.377 76.8373C104.885 74.8469 103.612 73.4338 102.777 72.8168C102.12 72.3391 101.881 72.2794 101.066 72.3789C100.151 72.4784 99.2556 72.2197 99.2556 71.8614C99.2556 71.7619 99.554 71.5031 99.9319 71.2842C100.946 70.6871 101.344 69.7914 101.066 68.8161C100.489 66.9452 97.7437 63.0839 93.8048 58.6056C90.9601 55.3812 90.5622 54.9831 88.4137 52.8335C83.9775 48.4149 79.1037 44.6929 74.4884 42.1851C73.6131 41.7074 72.4991 41.1103 72.0018 40.8316C71.5243 40.5729 70.7087 40.1947 70.2114 39.9957C69.7141 39.7966 68.8189 39.4185 68.2221 39.1398C61.339 36.0547 51.5515 34.0246 43.0173 33.945C40.0731 33.9251 39.536 33.9649 39.2575 34.2435C38.7204 34.7809 39.0784 35.3183 41.6447 37.8859C47.0954 43.3793 54.3167 48.594 64.4821 54.386C67.1677 55.9186 72.3798 58.8842 73.4938 59.5012C73.9314 59.7401 75.1051 60.4168 76.0799 60.994C77.0746 61.5712 78.5069 62.3674 79.2628 62.7853C80.0387 63.1834 81.4113 63.9398 82.3463 64.4373C83.2813 64.9349 84.3754 65.5519 84.7733 65.8107C85.191 66.0694 85.569 66.2685 85.6088 66.2685C85.6486 66.2685 86.3249 66.6267 87.1008 67.0646C87.8567 67.5025 88.8315 68.0399 89.2492 68.2787C93.1682 70.508 95.9732 71.7022 97.8431 71.9609C98.4001 72.0405 98.8577 72.16 98.8577 72.2595C98.8577 72.3391 99.176 72.7571 99.5738 73.175C101.165 74.8469 103.712 78.5888 105.502 81.8928C105.92 82.6492 106.556 83.8235 106.914 84.4803C107.332 85.2566 107.611 86.0925 107.69 86.8488C107.909 88.9188 107.571 125.601 107.332 125.522C107.213 125.482 106.755 124.745 106.338 123.87C105.9 123.014 105.005 121.183 104.328 119.809C103.652 118.436 102.12 115.729 100.927 113.798L98.7582 110.275L96.8684 110.355C95.8339 110.395 94.9586 110.435 94.9387 110.455C94.9188 110.455 95.5753 111.47 96.4108 112.684C97.3259 114.057 98.9771 117.122 100.668 120.546C102.18 123.651 103.433 126.218 103.433 126.258C103.433 126.318 103.712 126.955 104.05 127.711C104.826 129.443 104.865 129.542 105.621 131.453C105.979 132.329 106.477 133.443 106.755 133.921C107.491 135.175 107.591 137.125 107.611 149.506C107.611 161.507 107.631 161.368 106.298 158.761C105.204 156.571 104.468 155.317 103.234 153.347C101.981 151.357 96.8684 143.952 96.0328 142.878L95.4957 142.201L93.765 142.798C91.3181 143.634 91.2585 143.714 92.0144 144.53C93.387 146.002 98.7582 153.745 101.205 157.785C102.08 159.238 105.621 166.205 105.621 166.463C105.621 166.523 105.96 167.12 106.377 167.817L107.113 169.071L107.173 174.624C107.213 177.848 107.153 180.257 107.054 180.356C106.934 180.476 106.576 180.416 106.099 180.217C104.826 179.66 103.015 179.301 101.503 179.281C99.5142 179.261 98.5991 179.779 94.9586 182.944C89.6272 187.581 89.1498 188.198 88.6922 190.965L88.4336 192.438L87.4787 192.557C86.9416 192.637 83.1221 192.657 78.9644 192.617L71.405 192.557L70.8679 193.114C70.3506 193.612 70.3109 193.791 70.3308 195.105C70.3308 196.816 70.6888 197.553 71.7631 198.13C72.6583 198.608 72.5588 198.21 74.011 206.888C74.0906 207.425 74.3094 208.639 74.4686 209.575C74.6277 210.51 75.0057 212.6 75.2842 214.252C75.5627 215.884 75.9605 218.093 76.1794 219.128C76.3783 220.163 76.7762 222.273 77.0746 223.806C77.373 225.338 77.8106 227.667 78.0692 228.981C78.3278 230.294 78.6859 232.165 78.865 233.161C79.044 234.136 79.5413 236.743 79.979 238.933C80.7747 242.993 80.9339 243.829 81.4511 246.795C82.6049 253.482 82.6646 253.86 83.0425 256.249C83.2216 257.343 83.4404 258.816 83.5598 259.533C83.7587 260.787 83.9974 262.081 84.634 265.365C84.813 266.22 84.8926 266.997 84.8329 267.116C84.7534 267.216 81.5903 267.295 76.9751 267.295C72.7378 267.295 69.0974 267.355 68.9382 267.415C68.2221 267.693 68.2221 268.171 68.9382 271.594C69.3162 273.445 69.7141 275.456 69.8334 276.053C70.3506 278.999 70.5098 279.496 71.0071 279.854C71.4846 280.193 73.275 280.213 109.68 280.253L147.855 280.312L148.292 279.795C148.71 279.297 148.869 278.64 149.904 272.968C150.063 272.092 150.341 270.719 150.52 269.903C151.097 267.275 151.197 267.295 142.563 267.295C136.655 267.295 135.64 267.255 135.541 266.997C135.441 266.758 136.038 262.299 136.376 260.727C136.436 260.448 136.575 259.772 136.655 259.234C136.754 258.677 136.973 257.423 137.152 256.448C137.331 255.453 137.55 254.199 137.65 253.661C137.848 252.467 138.306 249.919 138.744 247.591C139.48 243.63 140.077 240.246 140.256 239.032C140.355 238.316 140.494 237.619 140.534 237.46C140.594 237.3 140.733 236.644 140.832 235.967C140.932 235.29 141.151 233.937 141.33 232.961C141.509 231.966 141.728 230.673 141.827 230.075C141.927 229.478 142.145 228.165 142.324 227.189C142.504 226.194 142.722 224.94 142.822 224.403C143.041 223.089 143.538 220.422 143.916 218.332C144.095 217.397 144.314 216.183 144.413 215.645C144.751 213.655 145.209 211.167 146.025 206.888C146.462 204.479 146.92 201.932 146.999 201.215C147.198 199.762 147.556 198.628 147.795 198.628C147.895 198.628 148.233 198.409 148.551 198.13C149.406 197.414 149.983 196.06 149.983 194.766C149.983 193.811 149.904 193.632 149.406 193.194L148.83 192.716L142.066 192.557C138.346 192.477 135.004 192.358 134.626 192.278C134.069 192.159 133.85 191.94 133.134 190.646C132.338 189.213 131.662 188.477 129.314 186.486C127.106 184.616 124.341 183.302 122.61 183.302C121.815 183.302 120.74 183.72 120.004 184.297C119.149 184.974 117.537 184.755 115.469 183.7L114.474 183.202V175.938V168.673L116.205 165.289C117.159 163.418 118.373 161.01 118.91 159.895C119.925 157.825 120.502 156.75 122.153 153.884C122.69 152.949 123.127 152.133 123.127 152.053C123.127 151.954 123.386 151.615 123.704 151.277C124.142 150.819 124.46 150.66 124.997 150.66C125.375 150.66 127.027 150.222 128.638 149.685C134.626 147.734 134.506 147.754 138.445 146.858C143.001 145.803 151.257 145.823 156.25 146.898C160.845 147.873 163.372 148.769 167.609 150.859C173.796 153.924 179.047 157.766 185.354 163.816C187.582 165.966 188.099 166.185 188.696 165.289C189.014 164.811 188.994 164.712 188.477 163.239C186.846 158.601 181.852 151.476 176.342 145.963C165.222 134.817 152.41 131.015 140.236 135.274C138.923 135.732 135.262 137.484 134.188 138.18C133.969 138.3 133.432 138.638 132.975 138.917C129.633 140.967 125.634 144.649 123.903 147.256C123.307 148.132 122.71 148.869 122.57 148.869C122.391 148.869 122.332 149.068 122.372 149.406C122.431 150.003 122.192 150.063 121.198 149.764C120.86 149.665 120.7 149.705 120.621 149.963C120.541 150.142 120.024 150.759 119.467 151.317C118.91 151.894 117.697 153.546 116.782 154.999C114.912 157.925 114.673 158.203 114.315 157.845C113.977 157.507 113.837 115.231 114.176 113.699C114.295 113.122 114.633 112.226 114.912 111.708C115.19 111.171 116.483 108.683 117.756 106.175C119.029 103.648 120.303 101.239 120.541 100.801C121.695 98.8109 123.127 95.8851 123.127 95.5268C123.127 95.2482 122.988 95.1288 122.65 95.1288C122.391 95.1288 122.073 94.9894 121.934 94.8302C121.596 94.4122 120.939 94.5317 120.661 95.0093C120.541 95.2283 119.885 96.1837 119.208 97.139C117.418 99.6668 115.986 101.996 115.23 103.648C114.832 104.483 114.454 105.081 114.315 105.021C113.996 104.921 113.857 86.0129 114.176 84.9182C114.295 84.5201 115.309 82.6691 116.423 80.8379C117.557 79.0068 118.592 77.2553 118.751 76.9368C118.91 76.6184 119.507 75.8819 120.044 75.3246C120.899 74.429 121.277 74.21 122.69 73.7323C124.58 73.1153 133.114 68.9157 135.163 67.5821C135.382 67.4428 136.098 67.0248 136.754 66.6666C140.733 64.4572 150.361 58.7449 152.172 57.5109C152.768 57.0929 155.235 55.4807 157.642 53.9282C163.63 50.0669 167.947 46.9221 172.463 43.2201C174.711 41.369 179.167 36.8111 179.724 35.7761C180.301 34.7411 180.261 34.5023 179.465 34.2037C178.59 33.8653 173.04 33.9848 169.777 34.4226C164.824 35.0596 163.531 35.2984 158.637 36.5921C155.215 37.5077 149.148 39.9161 144.771 42.1254C140.395 44.3347 135.581 47.7979 132.756 50.7635C128.34 55.4409 121.755 65.1141 118.831 71.2444C118.154 72.6376 117.597 73.4736 116.662 74.429C115.986 75.1455 115.13 76.2004 114.772 76.7776C114.255 77.6335 114.076 77.7927 113.857 77.5937C113.618 77.3946 113.579 76.0213 113.618 68.9555L113.678 60.5561L114.454 59.6008C114.892 59.0833 116.006 58.0682 116.941 57.3317C121.476 53.7889 123.764 51.7985 128.499 47.2605C138.565 37.6072 146.92 28.153 151.475 21.2862C153.564 18.1614 154.758 15.972 154.758 15.2753C154.758 14.5787 154.141 14.2404 153.186 14.3996C152.032 14.5787 147.954 15.9521 146.303 16.7084C141.27 18.9973 139.241 20.1517 135.561 22.8586C130.528 26.5607 126.43 30.9992 123.267 36.1543C122.65 37.1694 122.133 38.0252 122.133 38.065C122.133 38.1048 121.675 38.9408 121.098 39.9161C120.163 41.5482 117.557 46.6236 117.557 46.8425C117.557 46.9022 117.279 47.5392 116.941 48.2955C115.866 50.664 115.628 51.2213 115.15 52.3359C114.136 54.7244 112.584 57.7099 112.345 57.7099C112.206 57.7099 111.848 57.5109 111.55 57.2521C111.072 56.874 110.993 56.6152 110.873 55.2817C110.694 53.2714 110.833 52.8136 111.689 52.4554C112.087 52.2762 112.564 51.8383 112.882 51.3407C113.4 50.5247 114.772 47.6785 114.772 47.4396C114.772 47.3799 114.892 47.0416 115.051 46.7032C116.065 44.4143 117.995 38.5825 118.632 35.8159C120.024 29.8249 119.825 22.0028 118.134 15.8127C117.1 11.9912 114.514 6.37842 112.107 2.73605C110.336 0.049058 109.461 -0.48834 108.347 0.38742ZM119.308 74.0906C119.368 74.3295 119.228 74.429 118.87 74.429C118.234 74.429 118.035 74.1105 118.492 73.8518C118.95 73.593 119.228 73.6726 119.308 74.0906ZM142.802 198.309C143.041 198.568 142.941 199.424 142.046 204.639C141.489 207.963 140.892 211.386 140.733 212.262C140.554 213.137 139.977 216.501 139.42 219.726C137.988 228.185 137.51 230.951 137.152 232.862C136.973 233.797 136.754 234.992 136.655 235.549C136.436 236.703 135.979 239.231 135.541 241.52C135.382 242.396 135.163 243.55 135.063 244.108C134.964 244.645 134.745 245.859 134.566 246.795C134.188 248.884 133.691 251.551 133.472 252.865C133.373 253.403 133.154 254.656 132.975 255.652C132.517 258.179 132.298 259.453 132.06 260.827C131.96 261.483 131.741 262.638 131.582 263.414C130.946 266.439 130.707 266.897 129.633 266.897C124.679 266.977 91.5171 266.857 90.7412 266.758C89.846 266.658 89.6471 266.559 89.488 266.141C88.9707 264.768 87.996 260.409 87.24 255.95C86.6631 252.686 86.305 250.755 85.8276 248.287C85.569 246.974 85.1313 244.645 84.8329 243.112C84.5544 241.58 84.0969 239.112 83.8184 237.639C83.3211 235.071 82.9829 233.161 82.5253 230.573C82.406 229.916 82.1871 228.742 82.0479 227.986C81.9086 227.209 81.6301 225.776 81.471 224.801C81.1328 222.97 80.9935 222.174 80.4763 219.527C79.8198 216.123 79.3026 213.396 79.1435 212.361C78.9644 211.167 78.5666 208.858 78.0692 206.092C77.0945 200.757 76.7961 198.548 76.995 198.309C77.1144 198.17 77.3929 198.011 77.6316 197.971C77.8703 197.931 92.5714 197.931 110.296 197.971C137.848 198.031 142.563 198.07 142.802 198.309Z" fill="url(#paint0_linear_555_3177)"/>
<path d="M47.2548 58.8245C47.0758 58.9837 46.9365 59.2624 46.9365 59.4017C46.9365 60.0386 48.5877 61.0736 51.9098 62.5067C57.7386 65.0145 67.6255 70.7667 73.0962 74.8469C79.9991 79.9821 86.0467 85.6347 91.9948 92.4417C92.7706 93.3175 93.4271 94.0738 93.4868 94.1336C93.7653 94.4122 96.5105 97.975 97.3063 99.1095C98.838 101.299 100.907 105.479 101.583 107.708C101.882 108.743 102.101 108.882 102.439 108.285C102.916 107.389 102.558 105.518 101.066 100.98C100.111 98.0546 99.8526 97.4575 97.7439 93.2379C94.6605 87.1275 91.2786 82.47 85.9074 76.9965C82.6449 73.6726 80.2776 71.7021 76.7764 69.3535C72.6784 66.6267 68.461 64.298 64.0447 62.3275C62.3538 61.5712 57.7386 60.0983 54.7944 59.3818C51.1937 58.4861 47.8317 58.2473 47.2548 58.8245Z" fill="url(#paint1_linear_555_3177)"/>
<path d="M160.925 67.1841C154.459 67.6618 146.781 70.1298 141.37 73.4537C138.067 75.5038 132.995 79.6437 130.19 82.6094C126.529 86.4707 122.113 92.2029 122.133 93.0787C122.153 93.2777 122.491 93.8151 122.909 94.2928L123.685 95.1288L125.236 94.9098C126.967 94.6909 133.253 93.2976 136.953 92.3423C140.833 91.3272 143.618 90.6306 145.309 90.2723C146.184 90.0733 147.178 89.8344 147.497 89.7548C149.208 89.2771 158.398 87.645 162.019 87.1872C171.19 85.993 177.277 85.5551 185.354 85.4357C190.864 85.3561 192.754 85.3959 195.062 85.6746C199.955 86.2319 201.567 86.6498 209.365 89.4363C212.647 90.6107 214.199 90.3718 213.98 88.7198C213.861 87.8042 213.085 86.7892 211.195 85.1173C206.6 81.0569 200.114 76.7975 193.828 73.7125C192.376 73.0158 191.162 72.4386 191.103 72.4386C191.043 72.4386 190.426 72.1799 189.73 71.8614C185.135 69.7715 180.181 68.3982 174.253 67.5622C172.025 67.2438 163.391 67.0049 160.925 67.1841Z" fill="url(#paint2_linear_555_3177)"/>
<path d="M39.7746 76.5586C28.9129 77.3548 17.2355 82.271 6.05552 90.73C2.81292 93.1782 0.724126 95.069 0.266581 95.9647C-0.0716047 96.6215 -0.0914979 97.756 0.226794 98.0745C0.803699 98.6517 2.61399 98.3531 7.05018 96.9201C14.8881 94.3724 17.0764 94.0539 25.1928 94.1933C30.4248 94.2729 31.9963 94.3923 35.7959 94.9297C40.5703 95.6064 48.2491 96.8205 49.7212 97.1191C50.2186 97.2186 51.4321 97.4375 52.4068 97.6167C57.8974 98.6119 64.0643 99.9255 67.9236 100.921C77.4325 103.349 85.6485 105.976 90.5024 108.146C91.6562 108.663 93.0686 109.221 93.6456 109.38C95.615 109.917 97.7237 109.658 98.4398 108.803C98.6785 108.504 98.6189 108.325 98.042 107.35C97.0274 105.678 91.5767 99.2289 89.468 97.2186C87.0012 94.87 81.8091 90.3319 79.7402 88.7198C76.597 86.2716 71.5441 83.0273 69.2166 81.9525C66.3918 80.6389 65.5762 80.3005 64.4422 79.8626C62.3535 79.0665 60.2846 78.4296 58.4743 77.9917C57.5393 77.7727 56.4253 77.514 55.9876 77.3946C54.9929 77.1557 52.9439 76.8572 50.6164 76.6183C48.9653 76.4392 41.8236 76.3994 39.7746 76.5586Z" fill="url(#paint3_linear_555_3177)"/>
<path d="M166.196 90.5508C161.501 90.8693 155.712 91.8844 151.276 93.1781C150.063 93.5165 148.571 94.0937 146.502 95.0292C146.183 95.1685 145.507 95.4471 145.01 95.6462C144.512 95.8253 143.896 96.1438 143.617 96.3229C143.339 96.502 142.961 96.721 142.782 96.7807C142.583 96.8603 141.926 97.2186 141.33 97.6166C140.713 97.9948 140.196 98.3133 140.156 98.3133C139.957 98.3133 136.595 100.722 134.964 102.015C132.417 104.046 127.464 109.201 125.793 111.549C121.894 117.082 119.347 122.078 118.293 126.278C117.617 128.925 117.239 131.552 117.438 132.07C117.557 132.368 117.617 132.368 118.054 131.95C118.333 131.692 118.552 131.413 118.552 131.313C118.552 131.055 122.351 125.402 123.923 123.312C125.853 120.745 127.225 119.252 131.661 114.833C139.201 107.33 144.811 103.488 153.365 99.9454C157.284 98.3332 162.834 96.5617 166.693 95.7258C169.26 95.1685 171.687 94.6908 173.656 94.3524C178.072 93.5762 178.49 93.4369 178.391 92.6009C178.311 91.8645 177.495 91.347 175.765 90.9489C173.974 90.511 169.399 90.3319 166.196 90.5508Z" fill="url(#paint4_linear_555_3177)"/>
<path d="M161.879 105.379C158.079 105.857 155.394 106.593 151.395 108.285C143.637 111.569 135.699 118.317 129.552 126.875C127.961 129.104 126.608 131.433 123.962 136.528C123.246 137.902 122.47 139.335 122.212 139.733C121.416 141.027 119.626 144.768 119.367 145.704C119.228 146.202 119.148 146.878 119.188 147.197C119.228 147.674 119.347 147.774 119.864 147.834C120.382 147.893 120.6 147.754 121.157 147.117C121.535 146.679 122.192 145.624 122.61 144.768C123.027 143.893 123.684 142.579 124.062 141.823C125.972 137.981 129.294 134.777 136.654 129.721C140.613 126.975 146.601 123.969 151.614 122.178C156.329 120.506 158.497 119.869 161.421 119.332C162.416 119.152 163.649 118.914 164.167 118.814C164.684 118.695 166.991 118.516 169.279 118.376C172.562 118.197 174.253 118.197 177.177 118.376C183.423 118.794 186.089 119.352 194.703 122.078C198.005 123.133 199.318 122.974 199.318 121.581C199.318 119.809 194.643 115.45 189.093 112.067C186.964 110.753 182.747 108.783 180.022 107.807C175.963 106.354 172.84 105.658 168.682 105.28C165.877 105.041 164.624 105.061 161.879 105.379Z" fill="url(#paint5_linear_555_3177)"/>
<path d="M51.1142 108.185C46.5188 108.524 42.202 109.818 39.1583 111.768C37.726 112.664 36.7115 113.798 36.8308 114.376C36.9701 115.112 37.7061 115.251 41.267 115.172C53.1632 114.893 62.712 116.983 72.5989 122.019C79.8997 125.721 88.7323 132.428 92.3728 136.986C93.5664 138.499 94.581 140.091 94.7401 140.728C94.939 141.464 95.4762 141.644 95.9337 141.086C96.1326 140.847 96.252 140.549 96.1923 140.429C96.1525 140.31 95.6552 139.096 95.0982 137.722C93.5664 133.961 92.6712 132.309 90.5426 129.383C84.0972 120.446 72.8177 112.405 62.8512 109.638C59.0118 108.564 54.1578 107.967 51.1142 108.185Z" fill="url(#paint6_linear_555_3177)"/>
<path d="M52.8051 125.601C50.9351 125.8 47.971 126.298 46.8371 126.616C41.3068 128.089 34.9807 131.672 30.4451 135.852C29.7488 136.488 29.0525 137.105 28.9133 137.185C28.4358 137.464 24.4174 141.962 23.2636 143.495C20.7968 146.838 20.2199 149.565 22.07 149.167C22.3485 149.107 23.4625 148.431 24.5567 147.674C32.4344 142.201 35.677 140.31 39.9739 138.658C46.5387 136.15 51.0346 135.334 58.1763 135.334C63.4281 135.334 69.0579 136.031 73.4941 137.245C74.1506 137.424 74.9662 137.643 75.2845 137.723C78.3082 138.539 88.4936 142.539 89.3291 143.236C89.8463 143.674 90.2442 143.534 91.3184 142.519C92.1937 141.683 92.2932 141.504 92.1142 141.146C91.2985 139.613 79.104 131.791 73.693 129.323C66.9094 126.238 59.4096 124.905 52.8051 125.601Z" fill="url(#paint7_linear_555_3177)"/>
<defs>
<linearGradient id="paint0_linear_555_3177" x1="42.0303" y1="43.3689" x2="210.46" y2="136.602" gradientUnits="userSpaceOnUse">
<stop stop-color="#F09F65"/>
<stop offset="0.531539" stop-color="#814F50"/>
<stop offset="1" stop-color="#20083D"/>
</linearGradient>
<linearGradient id="paint1_linear_555_3177" x1="48.0468" y1="66.2664" x2="83.243" y2="106.759" gradientUnits="userSpaceOnUse">
<stop stop-color="#F09F65"/>
<stop offset="0.531539" stop-color="#814F50"/>
<stop offset="1" stop-color="#20083D"/>
</linearGradient>
<linearGradient id="paint2_linear_555_3177" x1="123.964" y1="71.4556" x2="134.725" y2="108.003" gradientUnits="userSpaceOnUse">
<stop stop-color="#F09F65"/>
<stop offset="0.531539" stop-color="#814F50"/>
<stop offset="1" stop-color="#20083D"/>
</linearGradient>
<linearGradient id="paint3_linear_555_3177" x1="1.96488" y1="81.5956" x2="15.8156" y2="124.172" gradientUnits="userSpaceOnUse">
<stop stop-color="#F09F65"/>
<stop offset="0.531539" stop-color="#814F50"/>
<stop offset="1" stop-color="#20083D"/>
</linearGradient>
<linearGradient id="paint4_linear_555_3177" x1="118.601" y1="96.9281" x2="145.9" y2="138.165" gradientUnits="userSpaceOnUse">
<stop stop-color="#F09F65"/>
<stop offset="0.531539" stop-color="#814F50"/>
<stop offset="1" stop-color="#20083D"/>
</linearGradient>
<linearGradient id="paint5_linear_555_3177" x1="120.775" y1="111.729" x2="145.438" y2="159.621" gradientUnits="userSpaceOnUse">
<stop stop-color="#F09F65"/>
<stop offset="0.531539" stop-color="#814F50"/>
<stop offset="1" stop-color="#20083D"/>
</linearGradient>
<linearGradient id="paint6_linear_555_3177" x1="38.0051" y1="113.288" x2="57.7543" y2="149.785" gradientUnits="userSpaceOnUse">
<stop stop-color="#F09F65"/>
<stop offset="0.531539" stop-color="#814F50"/>
<stop offset="1" stop-color="#20083D"/>
</linearGradient>
<linearGradient id="paint7_linear_555_3177" x1="22.3999" y1="129.1" x2="32.2558" y2="159.651" gradientUnits="userSpaceOnUse">
<stop stop-color="#F09F65"/>
<stop offset="0.531539" stop-color="#814F50"/>
<stop offset="1" stop-color="#20083D"/>
</linearGradient>
</defs>
</svg>
