<svg width="255" height="400" viewBox="0 0 255 400" fill="none" xmlns="http://www.w3.org/2000/svg">
<path d="M125.343 0.474914C124.373 1.08738 123.428 2.64405 122.612 4.99183C122.024 6.6761 121.871 7.28857 121.131 10.9633C120.799 12.4945 120.722 12.6221 120.161 12.5455C117.455 12.1883 116.944 12.2138 116.561 12.6731C115.565 13.796 115.234 20.2779 115.923 23.9782C117.072 29.8476 118.016 32.323 119.523 33.3183C120.314 33.8286 120.339 34.5177 119.625 36.7378C118.961 38.8559 118.884 41.9183 119.471 44.1384C120.033 46.18 122.331 51.0287 123.862 53.2999C124.475 54.2186 125.675 55.6732 126.518 56.5153C128.075 58.0209 128.381 58.7865 127.768 59.399C127.513 59.6542 127.411 61.9254 127.36 68.5859C127.309 77.6708 127.232 78.5895 126.773 78.5895C126.211 78.5895 115.234 68.688 114.263 67.31C113.778 66.6465 113.753 66.4168 113.983 65.6257C114.825 62.7675 114.621 60.6494 113.166 57.5106C111.991 55.0097 110.638 53.2999 106.579 49.2423C100.886 43.5515 99.8905 42.8625 97.1078 42.8625C96.3675 42.8625 95.8569 42.7349 95.8058 42.5307C95.7548 42.3776 95.4995 41.3568 95.2697 40.3105C94.5549 37.2737 93.3806 35.2067 90.1384 31.3788C87.5088 28.2399 83.6284 24.6672 81.7903 23.6464C80.3096 22.8298 79.365 23.0595 77.8588 24.5396L76.5313 25.8411L74.7953 25.0755C72.8295 24.1823 68.2598 22.8553 65.7324 22.4215C63.8177 22.1153 62.5923 22.345 61.8264 23.2126C61.4435 23.6464 61.3924 24.0292 61.5201 25.5604C61.7498 28.5717 63.0518 31.2512 67.596 38.0904C69.0001 40.1829 70.1234 42.0203 70.1234 42.2245C70.1234 42.5562 69.5618 42.7859 66.1664 43.7557C64.2262 44.3171 63.2816 45.0061 62.8221 46.1034C61.7754 48.5788 65.0176 52.5343 71.7318 56.9746C73.238 57.9699 74.4634 58.8631 74.4634 58.9907C74.4634 59.0928 73.3912 59.7052 72.1147 60.3687C68.8725 61.9764 66.6259 63.6097 66.1919 64.656C66.0132 65.1153 65.7069 66.1106 65.5537 66.8506C65.3239 67.9735 65.3239 68.3052 65.6303 68.7901C66.0643 69.4281 68.3364 70.3723 70.0213 70.602C70.6851 70.6785 71.1701 70.9082 71.2722 71.1634C71.6041 71.9545 71.7062 77.1604 71.4254 77.875C71.1957 78.4619 70.9914 78.5895 70.2511 78.5895C69.2554 78.5895 67.8769 79.202 67.3918 79.8399C66.9578 80.4269 66.9833 86.1177 67.4429 88.7207C67.6471 89.869 68.0556 91.3236 68.3619 91.9616C69.0001 93.3141 70.583 94.8453 71.5786 95.075C73.7231 95.5343 73.5699 95.2281 73.6465 98.8773C73.672 100.766 73.6209 102.246 73.4678 102.399C73.3146 102.552 72.9572 102.348 72.4976 101.787C72.1147 101.302 70.1234 99.1836 68.0811 97.091C66.0388 94.9729 63.9964 92.8037 63.5369 92.2678C62.5157 91.0174 61.7754 90.507 61.2903 90.6856C60.9584 90.8132 60.984 90.9153 61.3669 91.5278C63.0774 94.2583 65.7069 97.7035 67.5705 99.6429C68.7704 100.893 70.6851 103.037 71.8339 104.364C72.9827 105.691 74.591 107.35 75.408 108.064C76.2249 108.753 78.6757 111.152 80.8457 113.398C83.0157 115.644 86.4366 119.114 88.4534 121.105C93.0997 125.724 93.2529 126.642 89.1938 125.264C86.1303 124.218 82.5051 123.708 78.0375 123.682C74.2592 123.631 73.7231 123.682 73.0593 124.116C71.9615 124.805 71.8084 125.188 71.6552 127.204L71.5275 128.99L70.634 129.041C68.2598 129.22 65.6558 130.036 64.7112 130.904C63.1284 132.359 64.4304 135.064 67.4939 136.646C68.03 136.901 69.1533 137.667 69.9958 138.33C72.7785 140.474 76.2504 142.005 79.5182 142.515C80.7181 142.72 80.7436 142.72 81.4584 145.246C81.9945 147.083 83.6284 149.278 85.7473 150.962C88.5811 153.259 90.8532 154.152 95.1166 154.637C97.9503 154.969 101.882 154.688 104.716 153.948C106.452 153.489 110.562 151.549 111.379 150.784C111.66 150.528 112.068 150.299 112.272 150.299C112.987 150.299 117.838 155.811 122.586 162.038L123.862 163.696L123.811 175.206C123.786 183.295 123.684 186.893 123.48 187.276C123.224 187.787 123.046 187.685 120.084 184.954C112.349 177.809 93.8912 162.676 88.1215 158.746C83.1433 155.352 76.6589 150.86 71.6807 147.338C67.0089 144.021 62.7199 140.244 60.2436 137.233C58.7884 135.447 55.5718 130.292 55.5718 129.756C55.5718 129.577 56.4142 128.582 57.4609 127.536C59.1714 125.826 59.4011 125.468 59.9117 123.784C60.4223 122.176 60.4734 121.538 60.3457 118.706C60.2181 115.261 59.9628 114.317 58.5842 111.714C57.0525 108.855 54.908 107.477 53.2741 108.319C52.8401 108.549 52.1253 109.238 51.6658 109.876C51.2318 110.489 50.7467 110.999 50.5936 110.999C50.4149 110.999 49.3937 110.157 48.2704 109.136C47.1726 108.115 45.4622 106.61 44.4665 105.793C39.7947 101.914 36.578 98.2138 37.5481 97.8311C37.7779 97.7545 38.2629 97.9331 38.6714 98.2904C43.4964 102.246 44.5687 102.909 48.4236 104.415C50.0064 105.027 50.9765 105.206 54.0145 105.41C58.38 105.742 59.0948 105.589 60.9584 103.905C62.4902 102.527 62.9242 101.302 62.4902 99.3877C61.9285 96.9124 60.167 95.2281 53.7337 91.145C50.8488 89.2821 48.7044 87.3937 49.1129 86.9853C49.3426 86.7557 49.6234 86.8067 50.3127 87.215C50.8233 87.5213 51.819 87.9296 52.5593 88.1592C53.7847 88.5165 54.0145 88.5165 55.1888 88.1337C56.6695 87.6489 57.997 86.5005 58.5331 85.25C58.7629 84.6886 58.8906 83.4637 58.8906 81.5497C58.865 77.6708 58.2523 75.272 56.3121 71.3675C54.7293 68.2031 53.2486 66.2637 49.5979 62.6399C46.1259 59.1948 44.5176 58.0975 42.8837 58.072C41.5307 58.072 40.101 59.7818 39.616 61.9509C39.5139 62.4103 39.2841 62.8696 39.0799 62.9462C38.8756 63.0227 37.9311 62.691 36.9865 62.1806C31.7274 59.4755 24.7835 57.9954 22.2561 59.0417C21.286 59.45 20.5967 60.5729 20.5967 61.7212C20.5967 63.329 22.5114 67.4376 25.0133 71.1889C27.0301 74.1747 30.1702 78.3853 31.0382 79.202C31.4722 79.6358 31.8296 80.0696 31.8296 80.1717C31.8296 80.4524 31.0382 80.7586 27.8725 81.7029C23.6347 82.9788 22.8688 83.7444 23.507 86.1687C24.1197 88.4655 24.7069 89.3586 27.847 92.6251C30.3233 95.2281 30.3744 95.3046 30.068 95.8661C29.9404 96.1213 29.7617 96.6316 29.6596 97.0144C29.5064 97.8055 29.0213 97.9076 27.6428 97.4993C26.06 96.9889 19.6266 96.402 15.7717 96.3765C10.9466 96.3509 8.52136 96.8358 7.32149 98.0352C5.63656 99.694 6.73432 102.527 10.4871 106.278C12.6571 108.422 16.2823 110.999 17.1502 110.999C17.7119 110.999 17.7629 111.305 17.4566 112.454C16.8184 114.903 18.248 116.766 22.3327 118.884C24.375 119.931 25.4217 120.288 27.1832 120.569C31.5743 121.309 35.6079 120.926 37.5226 119.65C38.1098 119.242 38.799 118.91 39.0288 118.91C39.2841 118.91 39.8457 119.548 40.4074 120.492C40.9435 121.385 42.6029 123.299 44.0836 124.779C46.8918 127.587 48.9086 128.888 51.1297 129.245C53.4018 129.628 53.3762 129.603 56.7206 135.242C57.6652 136.85 58.9161 138.738 59.4777 139.453C61.3669 141.75 65.4005 145.96 67.9534 148.257C68.6683 148.895 70.5064 150.554 72.0381 151.957C73.5699 153.361 75.0761 154.714 75.3314 154.969C76.0462 155.607 75.6888 155.811 72.9316 156.296C71.6041 156.525 69.9958 156.832 69.3576 156.934C68.7193 157.061 66.728 157.648 64.8899 158.235C61.3924 159.358 59.733 159.792 56.5419 160.379C53.6315 160.915 49.9298 162.216 49.1129 163.007C48.2449 163.824 47.5811 165.253 47.7853 165.891C47.8619 166.121 48.5002 166.861 49.215 167.524C49.9298 168.188 50.4404 168.775 50.3893 168.826C50.3383 168.877 49.649 168.647 48.8576 168.29C46.3812 167.193 45.2835 167.039 43.2411 167.397C39.5394 168.035 33.7187 170.663 31.4722 172.73C29.9149 174.159 28.5108 176.992 28.5108 178.727C28.5108 179.646 29.5064 180.59 30.7063 180.794C32.4678 181.075 32.4678 181.075 31.4722 182.402C29.5575 184.928 28.1278 187.455 27.0301 190.339C25.626 193.988 25.2175 195.647 25.192 197.663C25.192 198.99 25.2941 199.321 25.8557 199.934C26.4939 200.623 26.5705 200.648 28.3321 200.495C31.5232 200.266 37.2418 198.02 40.3308 195.825C40.9946 195.34 41.6328 194.958 41.786 194.958C41.9136 194.958 42.1944 195.34 42.3987 195.8C42.9093 197.076 44.1857 198.02 45.3601 198.02C46.9429 198.02 48.4236 197.076 51.3084 194.243C55.7249 189.93 57.2822 186.689 58.7629 178.906C58.9671 177.732 59.4011 176.456 59.682 176.048C60.7031 174.593 63.9709 172.347 64.6602 172.603C64.9921 172.73 64.8899 172.96 64.1241 173.802C62.8221 175.257 62.1072 176.915 62.337 178.013C62.6944 179.978 66.9578 181.254 70.2511 180.386C72.9061 179.722 75.7909 177.783 77.7056 175.435C78.8289 174.032 79.6203 172.577 80.8968 169.515C81.6882 167.601 81.7392 167.397 81.7392 164.028C81.7392 162.114 81.8158 160.481 81.9179 160.379C82.2243 160.047 86.3345 163.058 92.3339 168.009C98.0014 172.705 98.078 172.781 97.6695 174.466C96.9547 177.502 93.8912 186.995 93.5337 187.225C93.3806 187.302 91.8743 187.429 90.1894 187.455C85.1857 187.531 81.9179 188.858 78.4715 192.125C76.0717 194.422 74.2847 197.025 73.2125 199.781C72.3189 202.103 72.2424 202.664 72.8295 203.226C73.2891 203.711 75.9952 203.787 78.5226 203.379C79.4161 203.226 80.2075 203.175 80.2841 203.251C80.3607 203.328 80.233 204.221 80.0032 205.242C79.1863 208.789 79.0587 209.81 79.0587 213.204C79.0587 217.083 79.5437 220.426 80.5138 223.284C81.7648 226.933 82.7859 228.388 84.139 228.388C85.9516 228.388 90.1384 225.53 93.3295 222.11C97.1844 217.976 99.1757 214.684 100.784 209.81C101.295 208.202 101.831 206.798 101.958 206.671C102.112 206.518 102.622 206.569 103.286 206.824C104.767 207.334 105.252 207.309 105.89 206.671C106.4 206.16 106.426 205.931 106.298 203.787C105.941 197.663 101.627 191.232 95.9846 188.348C95.3719 188.042 94.8868 187.659 94.8868 187.48C94.8868 187.276 95.2953 186 95.8058 184.597C96.5973 182.428 97.3121 180.156 98.2056 176.966C98.8183 174.823 99.0225 174.287 99.2523 174.287C99.865 174.287 101.729 175.895 108.928 182.581C112.272 185.694 116.842 190.339 119.829 193.63L122.892 197.05L123.046 199.5C123.301 203.149 122.56 247.298 121.948 266.156C121.667 274.323 121.31 288.231 120.978 301.96C120.799 309.029 120.773 309.616 120.314 309.947C119.905 310.228 116.433 310.279 98.997 310.228C82.4541 310.177 78.0375 310.254 77.6035 310.509C77.2716 310.688 76.8376 311.172 76.6079 311.606C76.2504 312.321 76.2249 313.214 76.4802 320.104C76.9653 333.374 76.8887 332.787 78.3183 333.808C78.931 334.242 79.6203 334.42 81.3308 334.523L83.5263 334.676L83.5773 335.569C83.705 337.33 84.2156 340.622 85.1091 345.139C85.5942 347.665 86.1047 350.242 86.2069 350.88C86.6664 353.33 87.228 356.469 87.611 358.536C87.8407 359.736 88.1215 361.267 88.2492 361.981C88.3768 362.67 88.6577 364.227 88.8874 365.426C89.1172 366.626 89.398 368.234 89.5257 368.999C89.9597 371.832 91.2872 379.028 91.8488 381.657C92.0275 382.371 92.1552 383.392 92.1807 383.953L92.2062 384.949L88.3768 385.102C86.2834 385.178 84.19 385.331 83.7305 385.434C82.4796 385.714 82.403 386.429 83.2965 389.925C83.4752 390.691 84.0113 392.885 84.4453 394.774C85.492 399.163 85.7729 399.495 88.53 399.724C91.7978 399.954 168.156 400.133 170.683 399.878C172.598 399.699 173.185 399.546 173.67 399.086C174.334 398.474 174.947 396.56 175.661 392.987C175.917 391.788 176.197 390.41 176.325 389.925C176.453 389.44 176.631 388.394 176.708 387.577C176.887 386.199 176.861 386.123 176.172 385.663C175.534 385.255 174.895 385.204 171.092 385.204C166.828 385.204 166.752 385.204 166.675 384.642C166.624 384.336 167.058 381.759 167.62 378.901C168.819 372.955 168.998 372.01 169.56 368.872C169.79 367.596 170.121 365.707 170.326 364.661C170.504 363.615 170.862 361.701 171.092 360.45C171.321 359.174 171.602 357.643 171.73 357.005C171.857 356.367 172.215 354.581 172.521 353.05C172.828 351.493 173.338 348.915 173.67 347.308C174.385 343.965 174.895 341.285 175.483 337.993C176.095 334.446 175.917 334.65 178.648 334.42C183.141 334.089 183.065 334.293 183.448 321.839C183.729 312.959 183.729 311.989 183.346 311.428C183.116 311.07 182.656 310.688 182.35 310.56C182.018 310.432 171.194 310.254 158.301 310.126L134.84 309.922L134.789 305.839C134.738 300.582 133.921 269.831 133.155 244.975C132.364 218.359 131.751 187.48 131.981 186.511C132.083 186.179 132.849 185.031 133.691 183.984C134.559 182.938 135.963 181.152 136.806 180.029C138.874 177.375 144.184 171.02 145.001 170.255L145.639 169.642L146.022 170.255C146.226 170.561 147.375 172.552 148.575 174.67C149.775 176.762 151.357 179.518 152.098 180.794C154.268 184.52 156.157 187.991 156.157 188.246C156.157 188.399 155.493 188.909 154.702 189.42C152.787 190.594 150.719 192.686 149.673 194.447C147.809 197.637 146.456 204.195 146.966 207.743C147.426 211.009 147.886 212.055 148.856 212.055C149.468 212.055 151.562 211.366 151.97 211.009C152.123 210.907 152.634 210.754 153.119 210.728C153.961 210.652 153.987 210.677 154.447 212.055C155.238 214.505 157.127 218.104 158.429 219.66C162.463 224.509 168.437 228.898 171.015 228.898C171.653 228.898 172.955 227.699 173.542 226.576C173.823 226.014 174.359 224.458 174.717 223.08C175.38 220.758 175.406 220.273 175.406 215.118C175.432 210.244 175.355 209.35 174.819 207.079C173.9 203.175 173.67 203.532 177.04 203.532C179.593 203.506 179.976 203.455 180.308 203.022C180.869 202.231 180.742 201.006 179.874 199.398C177.653 195.111 173.108 190.849 168.845 188.986C166.037 187.761 161.85 187.225 159.374 187.812C158.276 188.042 157.433 187.787 157.433 187.2C157.433 187.021 156.336 185.031 154.983 182.81C153.63 180.565 151.945 177.783 151.23 176.584C149.264 173.266 147.452 170.382 146.89 169.77C146.124 168.928 146.507 168.086 148.575 166.019C150.872 163.747 154.6 160.711 154.983 160.838C155.136 160.889 155.34 161.833 155.417 162.956C155.672 166.452 157.127 169.719 160.471 174.21C163.05 177.706 167.62 181.024 170.989 181.892C172.394 182.249 172.674 182.223 174.104 181.841C176.095 181.279 179.159 179.033 180.257 177.298C180.691 176.66 180.665 176.584 180.001 175.257C179.618 174.517 179.031 173.47 178.699 172.934C178.01 171.837 178.112 171.327 178.955 171.786C180.435 172.577 184.494 175.895 184.597 176.405C184.673 176.711 184.877 178.064 185.031 179.391C185.847 185.975 188.834 191.921 193.787 196.897C196.851 199.959 198.74 201.337 200.067 201.516C201.191 201.669 201.037 201.797 203.565 198.811L204.305 197.969L205.326 198.428C205.862 198.709 207.394 199.653 208.722 200.546C212.219 202.92 216.049 204.68 218.04 204.833C219.469 204.961 219.674 204.91 220.44 204.272C221.154 203.685 221.257 203.43 221.257 202.409C221.257 200.47 220.337 197.305 219.061 194.702C217.963 192.482 214.006 186.46 212.755 185.082C212.296 184.571 212.296 184.495 212.679 184.341C212.908 184.265 213.598 184.265 214.236 184.341C215.666 184.571 217.172 184.163 217.938 183.372C219.214 181.994 217.887 178.982 214.542 175.69C210.815 172.041 207.547 170.331 202.365 169.311C201.165 169.055 200.144 168.826 200.093 168.775C200.042 168.724 200.374 168.264 200.808 167.754C201.497 166.988 201.599 166.708 201.471 166.019C201.369 165.585 200.935 164.87 200.527 164.411C197.795 161.553 185.337 158.108 183.09 159.588C182.248 160.124 182.171 160.098 179.848 158.414C176.427 155.887 173.083 154.637 168.156 153.974C166.394 153.744 164.862 153.463 164.735 153.336C164.403 153.029 164.99 152.417 168.411 149.533C171.934 146.573 175.202 144.098 180.027 140.729C187.201 135.727 193.047 131.134 197.438 127.051C201.548 123.197 201.931 123.019 209.003 121.487C210.764 121.105 213.547 120.467 215.257 120.058C216.1 119.854 217.3 119.599 217.938 119.471C218.678 119.344 219.087 119.14 219.087 118.91C219.087 118.604 218.678 118.502 217.3 118.451C215.589 118.374 214.083 118.629 207.981 119.931C204.969 120.594 203.795 120.543 203.692 119.752C203.641 119.344 203.973 118.961 205.097 118.119C209.334 115.031 211.402 112.658 213.24 108.83C214.619 105.895 215.053 104.16 215.257 100.664C215.436 97.6014 215.768 95.8405 216.304 95.4067C216.534 95.2026 217.121 95.2536 218.423 95.5598C221.052 96.2233 225.597 95.9937 227.971 95.075C232.209 93.4928 235.527 91.4767 238.055 89.0014C239.638 87.4447 240.403 86.1177 240.403 84.9183C240.378 83.8465 239.969 83.3106 238.616 82.596C236.931 81.7029 236.829 81.3711 237.876 80.0696C241.271 75.8845 244.488 69.2239 244.488 66.3913C244.488 65.2174 243.85 63.9414 243.033 63.5076C241.297 62.5889 237.161 63.5076 232.106 65.9574C230.575 66.6975 229.247 67.2844 229.171 67.2334C229.068 67.1824 228.583 66.2637 228.047 65.2174C226.439 61.9254 224.754 61.2364 222.073 62.7675C219.061 64.5028 214.696 69.5812 212.934 73.358C211.019 77.4922 210.407 80.5034 210.611 84.9438C210.815 89.9711 211.632 91.783 214.389 93.3141C215.078 93.7224 215.691 94.1818 215.768 94.3859C215.972 94.9219 214.313 96.2744 212.194 97.3207C209.513 98.6477 208.237 99.107 207.981 98.8518C207.854 98.7242 207.624 96.9379 207.471 94.9219C207.19 91.2981 206.679 88.4399 206.016 86.8322C205.582 85.7604 204.152 84.6886 202.901 84.5355C201.905 84.4079 201.854 84.3569 201.318 82.7491C200.629 80.631 199.455 79.1254 197.974 78.3853L196.8 77.7984L195.549 78.4109C193.506 79.4572 192.383 81.0138 190.749 84.9693C188.4 90.7112 187.941 93.1355 187.941 100.026C187.966 106.023 188.171 107.707 189.371 111.484C190.724 115.771 193.225 119.012 196.314 120.518C197.106 120.926 197.77 121.36 197.77 121.487C197.77 121.615 197.285 122.202 196.697 122.763C194.502 124.779 191.464 127.025 182.835 132.895C180.869 134.247 178.01 136.263 176.453 137.411C174.921 138.534 171.934 140.729 169.815 142.26C158.838 150.222 153.91 154.101 147.681 159.792C146.379 160.991 143.571 163.518 141.452 165.432C139.333 167.32 136.448 170.127 135.019 171.658C133.079 173.751 132.389 174.338 132.159 174.108C131.725 173.725 131.47 155.683 131.853 153.31C132.057 152.009 132.364 151.243 133.13 150.12C134.329 148.385 139.971 141.775 141.835 139.963C143.112 138.738 143.163 138.713 143.98 139.045C147.63 140.499 148.422 140.703 151.102 140.806C156.438 141.01 162.437 139.3 166.471 136.416C169.356 134.349 170.709 132.486 170.709 130.598C170.709 129.016 170.3 128.378 168.258 126.949C167.364 126.311 166.624 125.698 166.624 125.596C166.624 125.494 167.441 124.601 168.437 123.631C172.496 119.599 175.304 113.857 175.304 109.544C175.304 108.013 175.176 107.375 174.793 106.712C174.027 105.461 173.313 105.232 171.245 105.589C168.334 106.074 165.424 107.579 161.263 110.718C158.838 112.556 158.021 112.99 157.714 112.607C157.612 112.505 157.204 111.535 156.821 110.489C156.412 109.442 155.8 107.962 155.468 107.248C155.11 106.508 154.881 105.768 154.957 105.589C155.008 105.41 155.749 104.9 156.565 104.492C158.378 103.573 163.382 98.8263 164.811 96.6827C165.348 95.8661 166.164 94.2073 166.598 92.9569C167.032 91.7319 167.466 90.5581 167.594 90.3794C167.696 90.2008 168.437 89.767 169.253 89.4352C173.491 87.7254 177.602 83.2595 177.602 80.3503C177.602 79.1764 176.861 78.2067 175.636 77.7984C173.747 77.1859 165.577 78.0026 160.395 79.3551C159.272 79.6358 158.352 79.8655 158.327 79.8655C158.301 79.8655 158.072 79.3551 157.816 78.7171C157.28 77.3135 156.744 76.9818 155.263 77.1859C152.813 77.5687 146.966 81.1669 142.754 84.9183C139.793 87.5468 138.542 88.9248 137.495 90.7112C136.831 91.8595 136.755 92.2168 136.755 94.2073C136.755 95.4322 136.985 97.6014 137.265 99.056C137.853 102.144 138.006 101.761 134.866 105.053C133.155 106.839 132.645 107.248 132.389 106.992C131.93 106.533 131.7 102.195 131.623 92.5741L131.547 84.2548L132.262 83.2085C135.427 78.6661 148.473 66.034 152.021 64.1201C152.787 63.6862 152.889 63.6862 153.681 64.0945C154.115 64.3497 154.906 64.6049 155.442 64.707C158.531 65.2429 167.569 62.104 171.755 59.0417C174.461 57.0257 175.049 57.0257 173.645 58.9907C173.159 59.6542 172.751 60.2666 172.751 60.3432C172.751 60.3942 172.419 61.0322 171.985 61.7468C171.092 63.2779 170.989 64.5794 171.653 66.4678C172.24 68.1266 174.181 70.0916 176.197 71.0868C177.602 71.7503 178.01 71.8269 180.92 71.929C186.179 72.0566 190.724 71.0613 193.098 69.2494C193.583 68.8922 194.4 67.8714 194.961 67.0037C195.6 66.0085 196.289 65.2429 196.8 64.9877C197.259 64.7836 198.612 64.1201 199.812 63.5586C202.467 62.2827 204.714 60.5729 205.709 58.9907C206.628 57.5616 206.628 57.2809 205.786 55.9794C204.688 54.2696 202.493 53.1212 195.983 50.8245C193.966 50.11 193.889 49.8292 195.242 48.0684C198.153 44.215 200.501 39.596 200.757 37.1206C200.884 35.9212 200.833 35.7171 200.118 34.926C199.352 34.0583 199.301 34.0583 196.927 33.9818C192.536 33.8031 186.052 35.4364 180.971 37.9883C179.542 38.7028 178.189 39.2898 177.984 39.2898C177.27 39.2898 177.27 38.5242 177.959 36.5337C178.852 33.9052 178.878 31.7105 178.01 30.6898C177.448 30.0518 177.219 29.9752 175.891 29.9752C175.074 29.9752 174.002 30.1539 173.517 30.3325C162.412 34.5432 155.749 39.7746 151.843 47.3794C149.341 52.2791 149.009 56.3877 150.821 60.0625C151.23 60.9046 151.562 61.6192 151.562 61.6447C151.562 61.6957 150.668 62.4358 149.596 63.3034C144.107 67.6417 143.546 68.1011 137.01 74.0981C134.636 76.2928 133.232 77.3135 132.619 77.3135C132.134 77.3135 132.083 75.3485 132.032 60.9301V58.5568L133.513 57.7913C136.602 56.158 139.103 53.5295 142.09 48.783C144.465 44.9806 144.541 44.904 145.664 44.904C147.758 44.904 149.494 42.7859 152.659 36.304C154.6 32.323 155.57 29.2352 155.263 27.9847C155.085 27.3212 154.523 26.6322 153.527 25.9432C153.119 25.6625 153.119 25.5349 153.502 24.1058C155.059 18.1598 154.983 12.0096 153.298 9.61082C152.481 8.43694 152.072 8.18174 151.026 8.15622C149.902 8.15622 147.732 9.43219 145.052 11.6524C144.005 12.5455 143.06 13.2601 142.958 13.2601C142.831 13.2601 142.192 12.8007 141.529 12.2648C140.865 11.7034 139.92 11.1165 139.41 10.9633C138.644 10.7082 138.389 10.7337 137.444 11.2185C136.857 11.5248 136.117 12.0096 135.81 12.2904C134.917 13.1325 134.457 12.8007 133.921 10.9633C133.64 10.0447 133.257 8.66661 133.027 7.90103C132.415 5.78293 130.96 2.87373 129.913 1.75088C128.305 -0.035472 126.875 -0.443781 125.343 0.474914ZM90.9298 52.3557C91.4403 52.815 93.3806 54.9076 95.2442 57.0257C100.171 62.5889 104.869 66.9527 107.217 68.1776C108.034 68.6115 108.724 68.739 110.204 68.739L112.094 68.7135L117.225 73.9705C124.399 81.2945 125.726 82.7747 125.93 83.5913C126.313 85.0459 125.547 111.637 125.011 115.72C124.654 118.502 124.552 118.91 124.169 118.91C123.99 118.91 122.765 117.838 121.412 116.537C118.782 113.985 115.617 110.999 113.013 108.575C112.094 107.733 109.821 105.614 107.932 103.854C106.069 102.093 104.333 100.536 104.103 100.409C103.414 100 99.6863 97.142 98.7928 96.3509C97.8482 95.5343 97.7716 95.2281 98.3332 94.9984C98.5885 94.9219 99.2778 95.3812 100.325 96.3765C103.031 98.9284 105.507 100.536 106.783 100.536C107.651 100.536 109.694 99.0305 110.511 97.78C112.042 95.4833 112.808 92.8548 112.834 89.818C112.834 87.9296 112.732 87.4447 112.145 86.2453C110.179 82.3153 104.69 76.5224 96.9291 70.1936C93.4316 67.3355 91.9254 67.8969 91.4659 72.2607C91.3638 73.1794 91.134 74.1491 90.9553 74.4043C90.6234 74.8382 90.5724 74.8382 89.9597 74.4299C88.6321 73.5622 83.4497 66.6975 83.8326 66.3147C83.9603 66.2126 85.6707 66.085 87.6875 66.034C91.3127 65.9319 91.3382 65.9064 92.0786 65.1663C93.9677 63.2779 93.7124 60.1135 91.3638 56.7705C90.5724 55.6476 89.6788 54.3972 89.3469 54.0144C88.6577 53.1723 88.6066 52.5088 89.1682 51.9473C89.7299 51.3859 89.8831 51.437 90.9298 52.3557ZM97.1078 97.78C97.644 98.2138 101.473 101.965 105.609 106.099C116.127 116.639 121.641 122.738 123.505 125.928L124.245 127.204L124.22 134.222C124.169 144.302 123.914 151.651 123.607 151.753C123.454 151.804 122.28 150.784 120.952 149.508C119.14 147.747 118.221 146.649 117.25 144.914C116.536 143.664 115.412 141.928 114.8 141.061C113.395 139.147 101.524 127.255 96.4185 122.636C91.8233 118.502 85.441 112.122 85.441 111.688C85.441 111.484 86.0792 110.897 86.8451 110.361C89.9597 108.217 92.3849 104.925 94.0188 100.536C95.3719 96.9379 95.3463 96.9634 95.7548 96.9634C95.9846 96.9634 96.5717 97.3207 97.1078 97.78ZM142.218 106.201C142.729 107.273 143.494 108.345 144.592 109.391C145.46 110.284 146.201 111.178 146.201 111.407C146.201 111.637 145.103 113.092 143.75 114.648C140.022 118.987 138.108 122.1 137.138 125.392C136.627 127.102 136.653 130.241 137.189 131.823C137.648 133.201 138.695 135.166 139.231 135.702C139.41 135.88 139.563 136.187 139.563 136.34C139.563 136.518 137.878 138.305 135.836 140.321C133.002 143.102 132.057 143.919 131.828 143.689C131.598 143.46 131.521 139.785 131.521 129.552V115.72L132.389 114.47C132.874 113.781 133.793 112.607 134.432 111.892C139.231 106.482 140.967 104.619 141.222 104.619C141.376 104.619 141.835 105.334 142.218 106.201ZM185.95 165.661C188.349 168.851 190.953 170.969 192.409 170.969C193.123 170.969 193.328 171.658 192.791 172.245C191.872 173.266 191.183 172.934 188.043 169.872C185.158 167.09 183.78 165.228 184.086 164.436C184.341 163.798 184.724 164.054 185.95 165.661ZM57.0014 166.274C55.7249 168.188 53.3252 170.204 52.304 170.204C52.0487 170.204 51.5637 169.923 51.2573 169.591L50.6701 168.979H51.8445C53.0954 169.004 53.6826 168.673 55.9547 166.529C57.3077 165.279 57.6907 165.176 57.0014 166.274ZM163.841 336.258C164.224 336.641 163.433 339.677 161.493 345.394C158.684 353.688 156.463 358.281 152.047 364.814C148.064 370.734 140.405 378.594 133.947 383.392L131.521 385.204L114.927 385.127C102.673 385.051 98.2567 384.949 98.0269 384.745C97.8737 384.566 97.6184 383.622 97.4652 382.652C97.2865 381.657 97.0057 379.768 96.776 378.441C96.5717 377.114 96.2909 375.379 96.1633 374.613C96.0356 373.848 95.7548 372.24 95.525 371.041C95.2953 369.841 95.0144 368.234 94.8868 367.468C94.657 366.141 93.9167 361.854 92.9721 356.622C92.7423 355.346 92.4615 353.688 92.3339 352.922C92.2062 352.156 91.9765 351.008 91.8488 350.37C91.7212 349.732 91.4148 348.175 91.1851 346.925C90.9553 345.649 90.5468 343.531 90.266 342.204C89.5001 338.606 89.2193 336.615 89.3725 336.181C89.5001 335.875 94.2741 335.824 126.518 335.875C155.366 335.926 163.612 336.028 163.841 336.258Z" fill="url(#paint0_linear_555_3149)"/>
<path d="M95.7801 10.7592C94.6313 11.6524 94.376 12.6476 94.376 16.0672C94.376 24.4376 97.4395 35.3343 101.218 40.3616C102.801 42.4542 105.915 45.2868 107.524 46.0779C108.723 46.6649 109.157 46.7414 110.791 46.6649C113.421 46.5118 114.953 45.7207 115.821 44.0109C116.408 42.8625 116.459 42.4542 116.459 39.545C116.459 35.9723 116.076 34.1604 114.314 29.4904C111.455 21.8601 107.779 16.7052 102.341 12.6221C99.1499 10.2233 97.1587 9.66188 95.7801 10.7592Z" fill="url(#paint1_linear_555_3149)"/>
<path d="M235.809 95.8406C234.098 96.1723 231.699 96.8103 230.269 97.3462C228.15 98.1628 222.814 100.919 222.023 101.633C219.955 103.471 219.215 105.717 219.215 110.157C219.215 113.194 219.215 113.194 220.134 114.699C221.206 116.486 222.993 118.731 223.989 119.497C225.01 120.314 227.946 120.39 232.056 119.676C236.881 118.859 239.485 117.838 241.783 115.822C243.187 114.597 243.697 113.27 243.238 111.994C243.085 111.56 242.957 111.076 242.957 110.973C242.957 110.871 244.055 110.259 245.408 109.621C250.131 107.375 254.113 103.752 254.573 101.251C255.007 98.9794 252.888 97.3972 247.935 96.2999C246.199 95.8916 237.264 95.5854 235.809 95.8406Z" fill="url(#paint2_linear_555_3149)"/>
<path d="M15.7464 120.977C10.8958 121.794 4.56455 124.831 1.5521 127.842C0.250105 129.118 -0.286009 130.674 0.147988 131.976C0.811748 133.992 3.8242 135.702 8.85346 136.901C10.4618 137.284 11.9425 137.641 12.1212 137.692C12.3765 137.769 12.4276 138.075 12.2999 138.815C12.1467 139.785 12.1978 139.912 13.0147 140.704C14.3167 141.928 16.2569 142.388 19.9842 142.388C25.6517 142.388 30.2214 140.729 33.8211 137.386C36.5272 134.885 37.676 132.053 37.3951 128.531C37.242 126.668 36.7314 125.545 35.4294 124.193C34.0253 122.712 33.0296 122.355 28.511 121.717C27.5919 121.59 25.7538 121.309 24.4263 121.105C21.7713 120.671 17.9674 120.62 15.7464 120.977Z" fill="url(#paint3_linear_555_3149)"/>
<path d="M222.661 123.733L220.874 123.886L219.98 125.673C219.112 127.408 219.112 127.536 219.087 130.649C219.087 133.941 219.164 134.273 220.44 137.003C221.282 138.79 223.835 141.342 226.746 143.307C229.528 145.195 230.984 145.935 233.613 146.828C237.111 148.002 239.561 147.594 240.531 145.705L240.94 144.94H245.535C248.982 144.94 250.513 144.838 251.535 144.531C254.496 143.689 255.236 141.673 253.628 138.866C252.607 137.054 248.624 133.048 245.535 130.674C242.421 128.276 236.447 125.341 232.873 124.422C230.09 123.708 225.903 123.427 222.661 123.733Z" fill="url(#paint4_linear_555_3149)"/>
<path d="M199.48 133.89C199.378 133.966 199.302 134.273 199.302 134.528C199.302 134.809 198.816 136.416 198.255 138.126C197.234 141.086 197.183 141.393 197.183 144.302C197.183 150.452 199.123 154.867 204.024 159.971C206.858 162.905 207.828 163.569 209.386 163.569C210.637 163.569 211.351 163.314 212.245 162.497L212.781 161.987L214.849 163.62C218.219 166.299 223.81 168.928 226.107 168.928C227.511 168.928 228.558 167.677 228.788 165.764C229.196 162.625 228.047 156.908 225.673 150.044C224.729 147.313 223.325 145.272 220.848 142.924C216.508 138.815 210.662 135.727 204.203 134.12C202.569 133.711 199.787 133.558 199.48 133.89Z" fill="url(#paint5_linear_555_3149)"/>
<path d="M42.9357 139.453C35.4812 140.984 29.9924 145.271 24.7589 153.642C21.5167 158.822 20.521 163.007 22.1804 164.513C23.4569 165.661 30.6561 164.538 34.6387 162.599C35.6854 162.063 36.63 161.629 36.7066 161.578C36.8087 161.527 37.2427 162.165 37.7022 162.956C39.3616 165.917 40.3062 166.223 43.2421 164.743C44.2122 164.283 45.2844 163.824 45.6673 163.722C46.1013 163.62 47.5565 162.344 49.4457 160.43C54.0409 155.811 55.011 154.433 56.1854 150.911C56.9768 148.589 57.13 145.552 56.5939 142.847C56.2875 141.392 56.1599 141.188 55.2153 140.55C53.6325 139.53 51.1817 139.07 47.582 139.096C45.8716 139.121 43.7782 139.274 42.9357 139.453Z" fill="url(#paint6_linear_555_3149)"/>
<defs>
<linearGradient id="paint0_linear_555_3149" x1="135.039" y1="-7.49997" x2="128.828" y2="326.98" gradientUnits="userSpaceOnUse">
<stop stop-color="#F09F65"/>
<stop offset="1" stop-color="#20083D"/>
</linearGradient>
<linearGradient id="paint1_linear_555_3149" x1="106.301" y1="9.53729" x2="105.745" y2="40.0324" gradientUnits="userSpaceOnUse">
<stop stop-color="#F09F65"/>
<stop offset="1" stop-color="#20083D"/>
</linearGradient>
<linearGradient id="paint2_linear_555_3149" x1="238.338" y1="95.2894" x2="238.183" y2="115.713" gradientUnits="userSpaceOnUse">
<stop stop-color="#F09F65"/>
<stop offset="1" stop-color="#20083D"/>
</linearGradient>
<linearGradient id="paint3_linear_555_3149" x1="20.2158" y1="120.335" x2="20.1001" y2="138.441" gradientUnits="userSpaceOnUse">
<stop stop-color="#F09F65"/>
<stop offset="1" stop-color="#20083D"/>
</linearGradient>
<linearGradient id="paint4_linear_555_3149" x1="238.188" y1="123.163" x2="238.039" y2="143.134" gradientUnits="userSpaceOnUse">
<stop stop-color="#F09F65"/>
<stop offset="1" stop-color="#20083D"/>
</linearGradient>
<linearGradient id="paint5_linear_555_3149" x1="214.293" y1="133.049" x2="213.932" y2="162.504" gradientUnits="userSpaceOnUse">
<stop stop-color="#F09F65"/>
<stop offset="1" stop-color="#20083D"/>
</linearGradient>
<linearGradient id="paint6_linear_555_3149" x1="40.5706" y1="138.598" x2="40.3877" y2="160.774" gradientUnits="userSpaceOnUse">
<stop stop-color="#F09F65"/>
<stop offset="1" stop-color="#20083D"/>
</linearGradient>
</defs>
</svg>
