<svg width="348" height="403" viewBox="0 0 348 403" fill="none" xmlns="http://www.w3.org/2000/svg">
<path d="M145.082 0.443076C137.866 1.86102 132.257 6.46147 128.791 13.8033C128.161 15.0952 127.499 16.6707 127.341 17.2694C125.987 21.8383 125.577 23.6029 124.632 28.3924C124.033 31.3543 123.245 35.6397 122.899 37.9084C122.552 40.1456 122.111 42.9184 121.922 44.0528C121.764 45.1872 121.386 47.9285 121.134 50.1972C120.85 52.4344 120.504 55.4279 120.346 56.8143C120.189 58.2008 119.811 61.6668 119.559 64.5342C119.275 67.4017 118.928 70.9938 118.771 72.5693C118.613 74.1133 118.393 76.4765 118.298 77.7684C118.204 79.0603 117.983 81.5496 117.826 83.2826C116.502 97.2731 115.431 114.32 115.116 126.136C115.021 130.295 114.864 133.888 114.801 134.14C114.485 135.085 113.351 133.352 112.217 130.232C111.303 127.649 110.547 122.891 109.79 114.95C109.318 109.782 109.192 106.568 108.656 89.9628C108.31 78.5877 108.026 76.319 106.419 73.0734C103.394 66.803 95.7686 63.1793 88.7103 64.6288C82.1878 65.9837 78.06 69.7334 75.6652 76.4765L74.8145 78.8713L74.846 95.7291C74.8775 122.702 75.9803 133.257 80.1081 146.618C82.9755 155.755 86.5992 162.278 92.0819 168.076C97.5016 173.811 103.867 178.159 110.011 180.333C111.776 180.963 112.5 181.373 112.658 181.846C112.784 182.224 112.784 188.62 112.658 196.088C112.437 209.228 112.784 236.326 113.414 254.697C113.792 265.41 115.053 289.105 115.462 292.824C115.557 293.674 115.777 296.51 115.935 299.126C116.092 301.709 116.471 305.9 116.723 308.421C117.636 317.086 117.889 320.773 117.573 321.088C117.416 321.246 115.998 321.12 114.013 320.71C108.499 319.639 106.261 319.386 99.8964 319.166C95.4535 319.04 93.7204 318.882 93.6574 318.599C93.5629 318.378 96.9344 314.723 101.125 310.469C105.316 306.215 108.688 302.56 108.593 302.34C108.373 301.646 106.041 301.993 99.2346 303.821C94.2876 305.144 89.7817 306.688 84.3935 308.957C82.3768 309.807 82.1248 311.509 83.7633 313.242C84.551 314.124 84.5825 314.156 83.9838 314.597C83.6372 314.849 83.1961 315.038 82.9755 315.038C82.4399 315.038 77.7134 316.645 77.3353 316.96C77.1462 317.086 76.6105 317.37 76.1379 317.527C75.4447 317.811 75.2241 317.779 75.0981 317.401C74.972 317.086 76.1694 315.605 78.5326 313.147C81.7151 309.807 82.2823 309.051 83.1646 306.909C84.1729 304.514 85.1497 302.403 89.6556 293.013C90.9475 290.366 91.9874 288.066 91.9874 287.94C91.9874 287.215 91.2311 287.372 89.6241 288.412C88.6788 289.011 87.7965 289.515 87.7335 289.515C87.639 289.515 87.0403 289.862 86.3786 290.24C85.7484 290.649 84.362 291.469 83.3221 292.036C81.1164 293.233 77.2092 296.038 75.5392 297.645C74.909 298.243 74.2788 298.653 74.0897 298.558C73.9322 298.432 73.6486 295.975 73.428 293.076C73.2075 290.177 73.0184 287.498 72.9869 287.152C72.9554 286.805 72.7033 286.49 72.4197 286.427C71.7265 286.301 67.4096 290.681 65.456 293.485C64.5737 294.777 63.723 295.817 63.5969 295.817C63.2188 295.817 62.4941 293.17 61.2337 287.152C60.7295 284.726 60.0678 282.173 59.154 279.117C58.6499 277.478 57.9567 277.289 57.5785 278.644C57.421 279.148 57.1059 280.283 56.8538 281.165C56.6332 282.016 56.003 284.221 55.4989 286.049C54.9632 287.877 54.3015 290.429 54.0179 291.721C53.2932 294.84 53.2932 294.872 52.9781 294.872C52.852 294.872 51.0875 293.233 49.0709 291.248C47.0857 289.263 45.1951 287.624 44.9115 287.624C44.4704 287.624 44.4074 288.223 44.4074 292.761C44.4074 295.596 44.3129 298.023 44.2183 298.117C44.0923 298.243 43.3045 297.676 42.4223 296.888C40.4687 295.155 36.782 292.54 33.8516 290.87C29.3772 288.318 26.0686 286.648 25.8796 286.837C25.785 286.931 26.5098 288.664 27.5496 290.712C28.5579 292.729 29.8183 295.313 30.3225 296.447C30.8266 297.582 31.5829 299.283 32.024 300.228C34.1036 304.829 35.2065 308.232 34.6708 308.547C34.5133 308.673 33.4734 308.326 32.3706 307.822C29.7868 306.593 26.5728 305.585 21.7202 304.388C11.8892 301.961 10.3767 301.678 10.1561 302.308C10.0931 302.466 13.7482 306.278 18.2542 310.753C22.7916 315.227 26.4152 318.977 26.3207 319.071C26.2262 319.134 23.8314 319.197 21.027 319.166C18.1911 319.134 14.3154 319.26 12.4248 319.418C10.5027 319.607 7.19417 319.891 5.01999 320.08C2.8458 320.269 0.82917 320.489 0.545581 320.584C-0.431227 320.867 -0.0846179 321.624 1.49088 322.6C3.69657 324.018 14.1894 329.281 17.4664 330.635C19.0419 331.266 21.027 332.243 21.8778 332.81C22.7601 333.377 25.659 334.984 28.3373 336.402C31.0157 337.788 33.8201 339.269 34.5448 339.679C35.8367 340.372 35.8682 340.372 36.4984 339.805C36.8765 339.458 37.1601 339.049 37.1601 338.86C37.1601 338.671 36.1518 337.379 34.9229 335.992C33.694 334.606 32.4336 332.904 32.1185 332.211C31.0157 329.942 31.4568 327.39 32.8748 327.705C33.3159 327.8 35.0174 330.037 38.1999 334.7C38.8616 335.677 39.6179 336.465 39.9015 336.465C40.1851 336.465 41.0358 335.929 41.8236 335.299C45.3527 332.432 49.9846 329.312 52.0643 328.43C52.6945 328.178 53.2302 327.737 53.2302 327.485C53.2302 327.232 52.4739 326.445 51.5917 325.72C47.8105 322.758 42.6743 317.433 43.021 316.866C43.4306 316.235 43.8717 316.488 51.056 321.246C53.4822 322.853 53.6713 322.821 55.9085 320.584C59.6267 316.866 61.6433 314.282 62.0529 312.738C62.2735 311.887 62.6516 311.131 62.9037 311.036C63.1243 310.942 64.6683 311.982 66.4013 313.368C69.9619 316.235 72.0731 317.748 73.2075 318.189C73.7116 318.378 74.0267 318.725 74.0267 319.103C74.0267 319.859 72.6088 321.025 71.6635 321.025C71.2538 321.025 69.3002 319.828 67.2836 318.347C63.975 315.92 62.6831 315.353 62.6831 316.33C62.6831 316.614 61.0446 318.473 57.2634 322.569C54.8372 325.184 54.8372 325.247 57.3265 326.193C60.3514 327.358 61.5803 329.06 60.2569 330.226C59.3116 331.077 58.3978 331.14 56.1606 330.635C53.8289 330.1 52.4739 330.194 50.7094 331.108C49.638 331.644 41.8551 339.238 41.603 339.994C41.4455 340.498 42.4853 341.191 43.3991 341.191C44.5334 341.191 49.512 343.586 53.6398 346.138C55.7195 347.399 57.5785 348.439 57.8306 348.439C58.3978 348.439 59.9733 347.651 63.786 345.477C65.3615 344.594 67.2836 343.492 68.1344 343.082C69.0481 342.578 69.6153 342.074 69.6153 341.727C69.6153 341.412 68.9851 339.931 68.2289 338.418C66.0232 334.07 66.0547 333.503 68.3864 334.259C69.8674 334.763 71.4744 336.433 72.6088 338.671C73.1129 339.647 73.6171 340.246 73.9637 340.246C74.6884 340.215 81.9987 336.307 82.1563 335.835C82.2193 335.646 81.9987 335.173 81.6521 334.795C81.274 334.417 80.5493 332.841 79.9821 331.329C78.7217 327.863 78.9738 327.295 81.1164 329.028C81.9042 329.69 82.6919 330.478 82.8495 330.825C83.5427 332.085 84.5825 331.581 86.9773 328.745C89.2145 326.067 89.8762 325.625 90.2228 326.571C90.8215 328.115 89.7817 330.1 86.9773 332.841C86.2526 333.503 85.6854 334.354 85.6854 334.732C85.6854 335.425 87.702 337.725 88.3322 337.725C88.7103 337.725 89.9707 337.001 94.6027 334.07C95.9891 333.219 97.5331 332.274 98.0688 331.99C99.7073 331.108 109.57 326.413 112.311 325.216C113.698 324.617 115.431 323.798 116.124 323.388C117.132 322.79 117.51 322.695 117.762 323.01C117.92 323.199 118.141 324.743 118.267 326.382C118.393 328.02 118.613 330.226 118.771 331.266C118.928 332.306 119.275 335.204 119.559 337.725C119.842 340.246 120.189 343.366 120.346 344.657C120.504 345.949 120.882 348.848 121.134 351.117C121.607 354.898 122.142 358.553 123.371 366.557C124.569 374.277 126.711 383.856 129.012 391.607C129.295 392.552 129.579 393.624 129.579 393.97C129.642 394.601 129.453 394.601 108.53 394.601C89.9392 394.601 87.4184 394.538 87.4814 394.128C87.513 393.876 87.7965 392.521 88.1432 391.135C88.7103 388.834 89.309 385.841 90.0968 381.209C90.2543 380.264 90.6324 378.121 90.916 376.482C91.1996 374.844 91.7668 371.787 92.1764 369.676C92.6176 367.565 92.9957 364.824 93.0272 363.532L93.0902 361.2H59.8473H26.6043L26.6358 362.145C26.6358 362.65 26.9194 364.446 27.203 366.084C28.0853 370.622 28.2113 371.346 29.5977 379.318C30.2909 383.383 31.0787 387.794 31.3308 389.086C31.5829 390.378 31.898 392.206 31.9925 393.088L32.2131 394.758H20.6489C7.6038 394.758 7.54078 394.758 6.87907 396.932C6.56398 397.972 6.627 398.319 7.16266 399.579C7.50927 400.367 8.17098 401.249 8.61212 401.533C9.33685 402.037 19.8927 402.068 161.845 402.068C245.693 402.068 314.542 402.037 314.857 402.037C315.172 402.005 315.865 401.596 316.37 401.092C317.126 400.304 317.283 399.926 317.283 398.571C317.283 397.247 317.126 396.806 316.37 395.956L315.456 394.916L305.12 394.821C294.596 394.727 293.682 394.632 294.25 393.529C294.659 392.71 296.077 386.566 297.117 380.894C298.945 371.031 299.575 367.502 300.142 364.54C300.583 362.051 300.615 361.578 300.236 361.326C299.984 361.169 282.055 361.043 259.053 361.043C224.518 361.043 218.311 361.106 218.153 361.484C217.933 362.051 218.216 363.847 220.359 376.482C222.092 386.723 222.312 387.984 223.195 392.048C223.447 393.246 223.604 394.349 223.51 394.506C223.258 394.884 182.2 394.821 181.948 394.443C181.791 394.159 183.272 388.803 184.311 385.935C185.572 382.438 189.416 362.271 190.456 353.638C190.55 352.755 190.771 350.991 190.929 349.699C191.244 347.115 192.031 340.908 192.504 336.937C193.323 330.194 193.953 322.727 194.584 312.832C194.804 309.398 195.088 308.106 195.655 308.106C195.813 308.106 197.167 309.713 198.617 311.635C206.368 322.002 210.244 326.193 216.452 330.825C224.077 336.496 230.663 339.805 237.658 341.475C239.863 342.011 239.926 342.074 240.336 343.239C240.557 343.933 240.714 345.319 240.651 346.359C240.557 348.092 240.494 348.281 239.769 348.47C239.328 348.596 233.845 348.691 227.606 348.722C213.836 348.754 214.687 348.502 215.034 352.472C215.223 354.362 215.443 355.308 215.916 355.875L216.546 356.694L259.652 356.568C294.092 356.505 302.852 356.379 303.167 356.064C303.387 355.843 303.671 354.394 303.797 352.598C303.986 350.109 303.923 349.447 303.545 349.069C303.167 348.659 301.528 348.596 293.556 348.502C288.326 348.47 283.851 348.344 283.631 348.281C283.127 348.092 284.387 345.666 286.687 342.452C288.578 339.773 292.611 333.66 295.1 329.627C300.489 320.899 307.074 307.665 309.343 301.016C311.044 295.975 311.391 294.052 311.422 289.893C311.454 286.364 311.391 285.954 310.824 285.513C310.036 284.915 307.988 285.167 306.255 286.049C304.333 287.026 299.575 291.91 295.352 297.235C290.122 303.821 288.672 305.837 284.166 312.675C279.566 319.639 279.408 319.891 277.36 323.861C274.304 329.69 273.516 331.297 272.13 334.291C270.428 337.914 268.159 341.569 267.718 341.286C266.962 340.813 267.813 336.78 270.113 329.974C271.373 326.193 272.76 322.222 273.138 321.214C273.768 319.512 273.863 318.473 274.146 309.555C274.776 290.208 273.926 269.349 272.035 257.06C271.783 255.421 271.436 253.058 271.247 251.861C270.586 247.355 269.577 243.826 268.947 243.826C268.632 243.826 267.781 246.882 266.678 251.924C265.985 255.232 265.355 259.203 264.819 263.834C263.842 272.248 262.771 281.196 262.298 284.789C262.015 286.774 261.668 289.484 261.511 290.775C261.353 292.067 260.975 295.124 260.723 297.55C260.439 299.976 260.093 303.033 259.935 304.325C259.778 305.617 259.557 307.759 259.463 309.051C259.368 310.343 259.147 312.612 258.99 314.093C258.486 318.473 257.793 325.625 257.414 330.005C256.816 336.685 255.87 344.72 255.492 346.044C255.177 347.241 255.146 347.241 253.885 347.084C253.192 346.989 252.467 346.769 252.278 346.58C251.963 346.264 252.53 334.606 253.318 325.436C253.854 319.418 254.579 311.887 254.894 308.894C255.051 307.318 255.398 303.915 255.681 301.331C255.965 298.716 256.375 294.84 256.627 292.666C256.91 290.492 257.257 287.53 257.414 286.049C257.572 284.568 257.919 281.385 258.202 278.959C258.486 276.533 258.832 273.697 258.99 272.657C259.147 271.617 259.368 269.979 259.463 269.034C259.589 268.088 259.778 266.513 259.935 265.568C260.093 264.622 260.376 262.7 260.565 261.314C261.826 252.585 264.536 242.66 266.206 240.832C266.773 240.202 267.309 237.492 268.096 230.907C269.42 219.878 269.829 217.168 270.491 214.049C271.499 209.448 271.405 209.259 268.727 209.953C267.372 210.299 266.741 210.709 265.576 211.969C262.614 215.152 260.565 220.666 259.147 229.205C258.895 230.812 258.549 234.499 258.36 237.398C258.171 240.328 257.982 243.006 257.887 243.353C257.824 243.7 257.131 245.118 256.343 246.473C254.516 249.687 253.192 253.31 251.9 258.793C250.766 263.677 250.325 264.937 249.884 264.937C249.411 264.937 248.308 263.362 245.063 258.005C240.021 249.718 238.509 247.103 238.509 246.599C238.509 246.346 239.202 245.212 240.021 244.109C247.835 233.774 252.373 224.132 254.61 213.261C256.721 202.894 257.446 194.733 258.549 169.462C258.958 160.23 257.383 154.621 253.192 150.493C249.758 147.09 245.787 145.609 240.872 145.924C239.328 146.05 237.343 146.334 236.492 146.618C231.293 148.225 227.291 153.109 226.094 159.253C225.432 162.593 224.959 167.603 224.959 171.321C224.928 177.371 223.478 190.227 221.966 197.506C219.477 209.48 214.971 217.798 205.927 227.062C203.06 230.024 197.609 234.53 197.294 234.247C197.199 234.121 197.104 222.241 197.073 207.81C197.041 181.814 196.726 171.92 195.687 162.53C195.497 160.892 195.182 158.056 194.993 156.228C194.143 148.067 193.26 144.254 191.244 140.253C189.7 137.165 187.431 134.612 184.248 132.375L181.791 130.642V128.562C181.759 124.12 181.16 108.428 180.688 100.14C180.436 95.3825 180.089 88.9229 179.9 85.8034C179.616 80.4783 179.427 78.0205 178.64 68.3154C178.23 63.5574 177.474 55.8375 177.064 52.4029C176.907 51.0165 176.686 49.0314 176.592 47.9915C176.371 45.5653 176.024 43.076 174.858 35.5451C173.598 27.4156 173.188 25.1784 171.739 19.6326C171.109 17.2064 168.966 12.4484 167.422 10.1481C162.223 2.23914 153.967 -1.32148 145.082 0.443076ZM150.375 10.7153C150.47 11.6291 150.69 13.2991 150.848 14.4335C151.037 15.5678 151.321 17.8366 151.51 19.4751C151.699 21.1136 152.014 23.7289 152.203 25.3044C152.392 26.8484 152.675 29.6213 152.802 31.4488C152.959 33.2764 153.306 37.3097 153.589 40.4292C154.282 48.6217 155.007 57.9172 155.637 66.4248C155.953 70.9938 156.583 87.694 157.213 109.121C157.37 115.36 157.654 123.804 157.78 127.869L158.001 135.274L156.709 137.795C153.495 144.034 152.455 149.737 152.014 162.908C151.856 167.729 151.888 168.832 152.234 168.832C152.675 168.832 152.896 168.422 154.409 164.263C154.913 162.877 155.543 161.301 155.763 160.797C156.016 160.261 156.709 158.434 157.339 156.701C160.679 147.594 162.444 144.002 164.87 141.229C166.288 139.622 169.974 136.881 170.384 137.133C170.542 137.228 170.762 141.103 170.857 145.735C170.983 150.367 171.235 159.064 171.424 165.051C171.96 180.428 171.96 264.843 171.455 274.863C171.235 279.022 170.92 285.387 170.762 289.042C169.974 306.215 168.367 328.146 166.697 344.657C166.508 346.296 166.225 349.195 166.067 351.117C165.878 353.008 165.595 355.654 165.437 356.946C165.248 358.238 164.901 361.137 164.618 363.406C164.114 367.565 164.019 368.384 162.885 376.325C162.318 380.453 162.128 381.587 161.309 386.408C160.584 390.599 159.923 393.372 159.608 393.718C159.23 394.128 152.234 394.38 151.636 394.033C151.447 393.907 151.068 392.584 150.753 391.072C150.47 389.528 150.092 387.668 149.934 386.881C148.831 381.272 147.76 373.174 145.869 356.159C144.672 345.256 143.317 326.319 142.561 309.681C141.174 278.329 140.828 262.133 140.607 212.473C140.387 164.988 140.828 128.027 142.088 87.5365C142.844 62.3916 144.64 33.7491 145.869 26.4072C146.689 21.4917 147.287 18.2462 148.107 14.0239C148.611 11.4715 149.02 9.32887 149.02 9.23434C149.02 9.13981 149.272 9.07679 149.619 9.07679C150.092 9.07679 150.249 9.39189 150.375 10.7153ZM155.07 10.3057C158.505 12.4799 160.521 15.4418 162.223 20.8615C164.177 27.0059 166.571 39.7044 167.611 49.567C167.769 51.111 168.052 53.4743 168.21 54.7662C168.367 56.0581 168.651 58.6734 168.84 60.5955C169.407 66.6139 170.132 74.0187 170.447 77.4533C171.77 91.4437 173.314 127.838 172.621 128.688C172.464 128.877 171.203 129.13 169.817 129.224C167.139 129.445 164.681 130.39 162.412 132.155C161.561 132.785 161.183 132.911 160.931 132.659C160.679 132.407 160.49 128.153 160.332 118.511C160.206 110.917 160.017 102.504 159.891 99.8254C159.797 97.147 159.576 89.8997 159.419 83.7553C159.167 73.0734 158.851 66.8975 158.158 58.2323C158.001 56.0581 157.623 51.3001 157.37 47.6764C155.921 28.0143 154.156 12.921 153.054 10.8729C152.738 10.2427 152.928 9.39189 153.369 9.39189C153.495 9.39189 154.282 9.80152 155.07 10.3057ZM145.554 9.99058C145.554 10.1481 145.397 10.6838 145.208 11.188C145.019 11.6606 144.766 12.6374 144.609 13.3306C143.38 19.286 143.002 21.3342 142.592 24.3591C141.679 31.0077 141.017 39.5784 140.513 50.5123C140.355 54.136 140.103 59.9023 139.914 63.2739C139.378 73.4516 138.937 84.291 138.622 94.9413C137.582 129.161 137.173 224.384 137.929 260.526C138.465 287.152 139.567 321.088 140.04 324.806C140.135 325.594 140.355 328.619 140.513 331.581C140.67 334.511 141.048 339.49 141.3 342.609C141.552 345.729 141.899 349.825 142.088 351.747C142.372 355.119 142.718 358.805 143.349 364.194C144.105 370.905 144.64 375.222 144.924 377.27C145.113 378.468 145.397 380.61 145.586 381.997C145.995 385.022 146.31 387.416 146.846 390.882C147.035 392.269 147.13 393.655 147.035 393.939C146.878 394.349 146.279 394.443 143.727 394.443C141.584 394.443 140.481 394.317 140.261 394.033C140.103 393.844 139.284 391.513 138.496 388.929C137.677 386.314 136.889 383.856 136.731 383.415C134.809 378.089 131.343 359.593 129.799 346.39C129.642 345.004 129.295 342.168 129.043 340.088C128.476 335.803 127.499 326.067 126.995 319.922C126.27 311.351 125.703 303.947 125.23 297.708C124.978 294.147 124.632 289.389 124.443 287.152C124.254 284.883 123.907 279.148 123.655 274.39C123.403 269.632 123.025 263.11 122.867 259.896C121.859 241.431 121.386 206.928 121.89 187.423C122.552 162.089 123.277 139.906 123.781 130.863C123.97 127.743 124.254 122.418 124.443 119.046C124.789 112.744 125.199 105.812 125.703 97.4621C125.861 94.8468 126.239 90.1833 126.491 87.0638C126.743 83.9444 127.121 79.6905 127.278 77.6109C127.436 75.5312 127.657 73.1995 127.751 72.4117C127.846 71.624 128.066 69.4183 128.224 67.5277C128.476 64.4397 128.854 61.2887 129.799 53.9784C129.957 52.7495 130.303 50.3863 130.587 48.6848C130.839 47.0147 131.249 44.3049 131.501 42.6979C132.099 38.9797 133.707 30.9762 134.715 26.7223C136.133 20.767 137.96 16.2295 139.977 13.6772C141.836 11.3455 145.554 8.88773 145.554 9.99058ZM90.4119 83.0306C90.4119 94.2796 91.1681 117.25 91.6723 122.04C92.9012 133.226 94.7918 140.946 97.8482 147.279C100.968 153.707 105.978 159.789 110.263 162.373C113.477 164.263 113.414 164.169 113.414 167.004C113.414 169.431 113.068 170.723 112.469 170.723C111.776 170.723 107.742 168.643 105.348 167.068C100.527 163.885 94.7602 156.921 91.8298 150.714C89.7187 146.239 87.0403 137.606 86.2526 132.753C84.362 120.748 84.0784 116.431 83.8893 98.0293C83.7633 83.2511 83.7948 81.4236 84.2674 79.7535C85.3388 76.1299 87.7965 73.0419 89.6871 73.0419H90.4119V83.0306ZM96.3672 74.1448C98.9826 77.1382 99.2346 78.3986 99.5813 90.6875C100.117 111.043 100.716 118.826 102.291 126.924C103.11 131.272 105.474 137.196 107.837 140.946C109.223 143.151 111.87 146.429 113.288 147.657L114.454 148.697L114.233 153.14C113.981 158.213 113.792 159.379 113.225 159.6C112.563 159.852 109.475 157.646 106.986 155.188C103.268 151.502 101.566 148.634 99.2031 141.954C95.9891 132.942 95.0753 127.334 94.3506 112.429C93.8465 101.779 93.3423 74.3653 93.6574 73.5461C94.004 72.6638 95.2959 72.9474 96.3672 74.1448ZM177.379 138.141C178.482 138.709 179.711 139.906 181.129 141.828C183.492 145.074 184.5 147.815 185.225 153.077C185.414 154.369 185.698 156.512 185.887 157.804C186.36 161.175 186.769 166.721 187.336 176.867C187.715 183.579 187.872 195.868 187.998 228.228C188.187 275.777 187.998 283.969 186.36 303.537C186.108 306.656 185.761 311.131 185.572 313.463C185.005 321.277 184.658 325.247 184.311 327.8C184.122 329.186 183.713 332.652 183.335 335.52C181.35 351.747 181.318 352.094 179.742 360.885C178.199 369.519 176.024 378.909 174.543 383.1C174.417 383.541 174.039 384.738 173.756 385.778C173.062 388.236 172.716 389.181 171.77 391.292C171.361 392.237 170.888 393.34 170.731 393.718C170.479 394.412 170.29 394.443 167.454 394.443C165.059 394.443 164.397 394.349 164.271 393.97C164.145 393.718 164.303 392.111 164.555 390.41C166.036 381.272 167.737 368.384 168.399 361.515C168.493 360.475 168.714 358.427 168.872 356.946C169.155 354.394 169.785 348.155 170.447 340.876C170.92 335.929 171.613 327.421 172.023 322.443C172.338 318.378 172.464 315.983 173.283 301.961C174.323 284.316 174.827 267.143 174.984 243.511C175.142 226.275 175.016 210.772 174.323 153.802C174.228 145.263 174.228 138.078 174.354 137.795C174.575 137.228 175.93 137.354 177.379 138.141ZM240.872 154.968C240.966 155.125 240.903 157.425 240.746 160.072C240.557 162.719 240.273 168.517 240.084 172.928C239.422 188.431 238.319 199.554 236.933 204.753C235.673 209.448 235.263 210.866 234.601 212.946C232.994 217.767 231.639 220.886 229.119 225.298C226.818 229.331 224.203 232.545 219.413 237.209C213.395 243.038 207.156 246.756 201.831 247.67C198.774 248.206 198.648 248.174 198.554 247.229C198.396 245.968 198.932 245.212 200.791 244.046C206.148 240.612 214.561 232.766 218.374 227.693C223.132 221.296 227.449 212.788 229.056 206.486C229.182 205.951 229.528 204.69 229.812 203.651C230.095 202.611 230.6 200.405 230.915 198.766C232.143 192.496 232.49 188.998 233.656 170.25C234.192 161.333 234.727 158.875 236.397 156.953C238.067 155.062 240.305 154.054 240.872 154.968ZM245.976 155.692C246.953 156.228 247.867 157.489 248.812 159.6C249.505 161.144 249.663 161.994 249.789 165.208C249.978 170.597 249.253 183.295 248.277 191.677C247.142 201.35 246.417 206.14 245.756 208.85C245.598 209.448 245.094 211.497 244.621 213.419C242.794 221.076 240.399 226.527 236.208 232.766C234.475 235.35 234.286 235.602 230.915 239.383C225.621 245.338 218.846 250.411 211.252 254.129C209.519 254.98 207.818 255.768 207.471 255.862C201.39 257.596 199.09 257.942 198.522 257.249C198.302 256.997 198.176 256.335 198.239 255.768C198.333 254.791 198.459 254.697 201.012 253.688C206.085 251.735 213.742 247.292 217.239 244.361C220.422 241.651 224.928 237.177 226.85 234.782C229.875 231.033 234.223 223.533 236.523 218.145C239.296 211.56 241.376 201.319 242.605 188.211C243.109 182.539 243.865 166.5 243.865 160.766C243.865 157.993 243.96 155.598 244.086 155.503C244.401 155.188 245.189 155.251 245.976 155.692ZM236.271 250.191C236.429 250.6 237.154 252.743 237.847 255.012C238.54 257.249 239.422 260.085 239.8 261.314C240.494 263.551 244.527 274.233 245.724 277.006C246.67 279.211 246.481 283.591 245.441 283.749C244.937 283.843 243.582 281.764 242.29 278.959C241.912 278.077 241.029 276.218 240.336 274.768C238.036 269.853 237.28 267.71 234.57 258.226C232.711 251.766 232.711 251.766 234.444 250.317C235.61 249.308 235.925 249.308 236.271 250.191ZM219.098 262.48C219.161 262.7 219.382 263.803 219.571 264.937C221.21 273.855 224.235 283.465 227.512 290.145C230.694 296.636 235.421 303.947 239.359 308.484C240.305 309.587 241.187 310.753 241.344 311.099C241.596 311.761 241.187 318.945 240.777 321.309C240.651 322.096 240.368 322.758 240.147 322.853C239.926 322.916 237.658 320.867 235.105 318.284C228.835 311.95 225.274 306.909 221.336 298.81C219.224 294.462 218.468 292.414 214.687 280.913C210.969 269.601 209.771 267.143 208.101 267.143C207.66 267.143 207.314 267.017 207.314 266.891C207.314 266.544 208.133 266.135 211.189 264.937C212.544 264.402 214.246 263.677 214.971 263.299C217.302 262.133 218.909 261.818 219.098 262.48ZM200.98 266.198C201.421 266.418 201.61 267.048 201.768 269.034C201.894 270.42 202.272 272.437 202.587 273.508C204.919 281.449 206.274 285.734 207.345 288.822C209.708 295.502 213.112 302.371 216.861 307.948C219.004 311.131 220.453 312.769 226.062 318.347C229.717 321.97 233.561 325.531 234.538 326.224C238.162 328.713 238.981 329.407 239.076 329.974C239.296 331.045 238.666 331.171 236.586 330.383C234.822 329.722 233.908 329.249 230.82 327.516C226.976 325.342 221.084 320.174 217.208 315.542C211.126 308.295 205.297 296.699 201.768 284.757C200.98 282.079 200.003 278.896 199.594 277.699C198.239 273.729 197.325 266.828 198.081 266.103C198.396 265.788 200.35 265.851 200.98 266.198ZM72.4827 299.598C72.7978 299.787 73.0814 300.165 73.0814 300.417C73.0814 300.701 71.9786 302.119 70.6552 303.6C69.3002 305.081 67.6617 306.877 67.0315 307.602C66.0547 308.673 65.7711 308.831 65.2985 308.547C64.9203 308.326 64.6998 307.728 64.6368 306.782C64.5737 305.585 64.6998 305.175 65.4245 304.293C66.3698 303.19 71.1593 299.283 71.6004 299.283C71.758 299.283 72.1361 299.441 72.4827 299.598ZM54.2385 302.182C55.5619 303.222 57.3265 305.585 57.3265 306.31C57.3265 306.782 55.4044 308.421 54.8687 308.421C54.333 308.421 52.537 306.152 51.7807 304.514C51.0245 302.907 50.8039 301.489 51.245 301.048C51.6232 300.67 52.9781 301.174 54.2385 302.182ZM40.5947 311.509C42.2332 313.053 42.5168 313.841 41.8866 315.038C41.4455 315.826 39.9015 316.298 37.6328 316.298C35.1435 316.298 34.8284 315.794 36.1833 313.935C36.6875 313.211 37.2231 312.202 37.3177 311.698C37.4437 311.194 37.5697 310.595 37.6643 310.375C37.8848 309.587 39.0192 310.028 40.5947 311.509Z" fill="url(#paint0_linear_555_3189)"/>
<path d="M275.753 210.709C275.501 210.835 275.218 211.874 275.06 212.977C274.934 214.08 274.524 216.916 274.146 219.248C273.169 225.802 272.571 230.654 272.224 235.538C271.909 239.887 271.909 240.044 272.665 241.84C275.375 248.426 276.825 256.335 278.369 272.972C278.936 279.085 279.125 280.125 279.566 279.967C280.354 279.715 281.236 272.563 281.677 263.141C281.835 259.36 282.118 253.215 282.339 249.497C282.78 240.99 282.559 226.905 281.866 222.399C281.078 216.979 279.913 214.017 277.612 211.591C276.415 210.33 276.383 210.299 275.753 210.709Z" fill="url(#paint1_linear_555_3189)"/>
<path d="M309.972 240.076C307.357 242.029 303.891 245.748 301.779 248.867C299.259 252.585 294.06 260.998 291.917 264.78C287.348 272.909 286.466 274.485 283.63 279.432C281.991 282.299 280.353 285.04 279.943 285.576C279.281 286.49 279.25 286.774 279.029 298.873C278.872 309.114 278.903 311.257 279.25 311.257C279.47 311.257 281.645 308.452 284.102 305.018C286.529 301.615 290.404 296.542 292.673 293.769C300.236 284.568 302.882 280.03 308.144 267.3C309.027 265.158 310.98 258.667 311.894 254.822C313.564 247.827 314.163 239.446 313.06 238.721C312.461 238.311 312.115 238.437 309.972 240.076Z" fill="url(#paint2_linear_555_3189)"/>
<path d="M333.732 273.855C331.242 275.147 328.942 277.856 327.146 281.638C326.169 283.686 324.72 286.9 323.869 288.885C321.789 293.737 318.796 299.189 313.124 308.327C310.729 312.202 308.366 316.204 307.831 317.244C307.295 318.315 306.224 320.143 305.467 321.34C304.648 322.632 304.207 323.609 304.396 323.703C304.743 323.924 308.839 321.907 311.517 320.206C314.038 318.599 318.575 314.376 321.348 311.068C326.737 304.703 330.644 297.519 334.141 287.625C335.339 284.284 335.433 283.969 336.189 281.323C336.568 280.031 336.977 278.613 337.135 278.172C337.67 276.565 338.143 274.044 337.954 273.603C337.702 272.878 335.339 273.035 333.732 273.855Z" fill="url(#paint3_linear_555_3189)"/>
<path d="M342.05 276.029C341.609 277.037 341.294 278.045 340.128 282.11C339.593 284.001 337.923 289.294 336.757 292.823C335.591 296.384 333.48 300.985 330.99 305.459C327.493 311.729 320.498 319.166 314.133 323.388C310.698 325.657 304.711 328.493 302.096 329.028C300.678 329.343 299.102 331.013 297.023 334.385C295.951 336.118 294.187 338.513 293.115 339.647C291.036 341.821 290.815 342.263 291.603 342.546C292.328 342.861 299.544 341.821 303.734 340.845C312.904 338.67 321.128 333.818 329.163 325.846C334.992 320.08 338.742 314.943 342.46 307.57C344.225 304.104 346.556 297.455 347.439 293.454C348.132 290.271 348.195 284.032 347.565 281.795C346.588 278.36 345.327 276.155 343.846 275.398C342.807 274.831 342.555 274.926 342.05 276.029Z" fill="url(#paint4_linear_555_3189)"/>
<path d="M18.4118 335.267C16.6158 336.181 13.3388 337.19 8.95887 338.198C4.86258 339.143 4.35843 339.301 4.29541 339.773C4.23239 340.025 10.3453 343.271 12.425 344.09C12.7716 344.216 14.9142 345.036 17.1515 345.918C19.4202 346.769 21.5313 347.682 21.8464 347.903C22.4136 348.313 22.4136 348.407 21.9094 349.731C21.5313 350.707 21.4053 351.842 21.4683 353.48L21.5628 355.843L57.0115 356.096C76.5161 356.222 93.626 356.253 95.0755 356.127C98.1634 355.906 98.1634 355.875 97.8484 351.779C97.6593 349.51 97.7223 349.132 98.195 348.691C98.5101 348.407 101.661 346.737 105.222 345.004C112.248 341.569 112.879 341.191 112.721 340.404C112.595 339.773 100.527 334.574 99.2033 334.574C98.7621 334.574 98.1319 334.858 97.8168 335.204C97.5017 335.551 97.1236 335.835 96.9976 335.835C96.84 335.835 94.9494 336.685 92.7753 337.725C90.0024 339.08 88.8365 339.805 88.8365 340.183C88.8365 340.467 89.1201 341.443 89.4667 342.326C90.3175 344.626 91.0737 348.124 90.8847 348.785C90.7586 349.132 90.4435 349.384 90.1284 349.384C89.5297 349.384 89.4667 349.258 88.0488 345.288C86.5993 341.191 86.0952 340.246 85.2759 340.246C84.8663 340.246 83.1332 340.75 81.4002 341.38C79.6986 341.979 77.7765 342.672 77.1778 342.861C76.5792 343.082 76.0435 343.492 75.9805 343.775C75.9174 344.059 76.5161 345.666 77.3039 347.304C78.7218 350.266 78.9424 350.991 78.5643 351.369C78.1547 351.779 77.4614 351.117 76.4216 349.289C75.0982 346.895 74.1844 345.918 73.3651 345.918C73.0185 345.918 72.4198 345.697 72.0102 345.445C71.38 345.004 71.1279 345.036 69.584 345.571C67.4413 346.296 63.471 348.281 62.1791 349.258C61.6119 349.668 61.1078 350.329 61.0133 350.707C60.7927 351.59 59.2802 352.535 58.1459 352.535C57.6732 352.535 56.9485 352.125 56.2868 351.464C55.6881 350.896 54.5537 350.046 53.766 349.573C52.9467 349.132 51.1822 348.155 49.8587 347.399C46.8023 345.634 45.1953 344.91 42.2333 343.838C39.9331 343.019 39.9016 343.019 39.0824 343.618C37.948 344.468 35.5217 347.525 34.6395 349.226C34.2298 350.014 33.7257 350.802 33.4736 350.991C32.8119 351.558 32.1187 351.085 32.1187 350.077C32.1187 349.163 33.7887 344.563 34.3874 343.807C34.7025 343.397 34.4819 342.767 34.0093 342.767C33.8517 342.767 31.6775 341.506 29.2197 339.994C26.7305 338.481 24.1782 336.937 23.5165 336.622C22.8547 336.276 22.0985 335.677 21.8464 335.267C21.2792 334.417 20.1449 334.417 18.4118 335.267Z" fill="url(#paint5_linear_555_3189)"/>
<defs>
<linearGradient id="paint0_linear_555_3189" x1="99.3789" y1="124.5" x2="229.883" y2="320.28" gradientUnits="userSpaceOnUse">
<stop stop-color="#2F7E5C"/>
<stop offset="0.5" stop-color="#20083D"/>
<stop offset="1" stop-color="#E49571"/>
</linearGradient>
<linearGradient id="paint1_linear_555_3189" x1="275.327" y1="231.997" x2="288.34" y2="235.749" gradientUnits="userSpaceOnUse">
<stop stop-color="#2F7E5C"/>
<stop offset="0.5" stop-color="#20083D"/>
<stop offset="1" stop-color="#E49571"/>
</linearGradient>
<linearGradient id="paint2_linear_555_3189" x1="289.801" y1="261.045" x2="315.255" y2="284.118" gradientUnits="userSpaceOnUse">
<stop stop-color="#2F7E5C"/>
<stop offset="0.5" stop-color="#20083D"/>
<stop offset="1" stop-color="#E49571"/>
</linearGradient>
<linearGradient id="paint3_linear_555_3189" x1="314.89" y1="288.802" x2="332.198" y2="310.687" gradientUnits="userSpaceOnUse">
<stop stop-color="#2F7E5C"/>
<stop offset="0.5" stop-color="#20083D"/>
<stop offset="1" stop-color="#E49571"/>
</linearGradient>
<linearGradient id="paint4_linear_555_3189" x1="308.979" y1="295.973" x2="330.335" y2="330.123" gradientUnits="userSpaceOnUse">
<stop stop-color="#2F7E5C"/>
<stop offset="0.5" stop-color="#20083D"/>
<stop offset="1" stop-color="#E49571"/>
</linearGradient>
<linearGradient id="paint5_linear_555_3189" x1="38.2621" y1="341.273" x2="39.8412" y2="356.322" gradientUnits="userSpaceOnUse">
<stop stop-color="#2F7E5C"/>
<stop offset="0.5" stop-color="#20083D"/>
<stop offset="1" stop-color="#E49571"/>
</linearGradient>
</defs>
</svg>
